<?xml version="1.0" encoding="UTF-8" standalone="no"?>
<!-- Generator: Adobe Illustrator 19.0.0, SVG Export Plug-In . SVG Version: 6.00 Build 0)  -->

<svg
   version="1.1"
   id="Layer_1"
   x="0px"
   y="0px"
   viewBox="0 0 100 100.00001"
   xml:space="preserve"
   sodipodi:docname="bots.svg"
   width="100"
   height="100"
   inkscape:version="1.1.2 (1:1.1+202202050950+0a00cf5339)"
   xmlns:inkscape="http://www.inkscape.org/namespaces/inkscape"
   xmlns:sodipodi="http://sodipodi.sourceforge.net/DTD/sodipodi-0.dtd"
   xmlns="http://www.w3.org/2000/svg"
   xmlns:svg="http://www.w3.org/2000/svg"><defs
   id="defs86967"><clipPath
     id="_clipPath_qWdgEYOhPdxn7LEE7kcrbvZICeenHuQX"><rect
       width="200"
       height="200"
       id="rect88336"
       x="0"
       y="0" /></clipPath></defs><sodipodi:namedview
   id="namedview86965"
   pagecolor="#ffffff"
   bordercolor="#666666"
   borderopacity="1.0"
   inkscape:pageshadow="2"
   inkscape:pageopacity="0.0"
   inkscape:pagecheckerboard="0"
   showgrid="false"
   fit-margin-top="0"
   fit-margin-left="0"
   fit-margin-right="0"
   fit-margin-bottom="0"
   inkscape:zoom="1.2388156"
   inkscape:cx="230.05845"
   inkscape:cy="31.885294"
   inkscape:window-width="1916"
   inkscape:window-height="934"
   inkscape:window-x="0"
   inkscape:window-y="144"
   inkscape:window-maximized="1"
   inkscape:current-layer="Layer_1" />





<g
   id="g86934"
   transform="translate(-83.477242,-118.00189)">
</g>
<g
   id="g86936"
   transform="translate(-83.477242,-118.00189)">
</g>
<g
   id="g86938"
   transform="translate(-83.477242,-118.00189)">
</g>
<g
   id="g86940"
   transform="translate(-83.477242,-118.00189)">
</g>
<g
   id="g86942"
   transform="translate(-83.477242,-118.00189)">
</g>
<g
   id="g86944"
   transform="translate(-83.477242,-118.00189)">
</g>
<g
   id="g86946"
   transform="translate(-83.477242,-118.00189)">
</g>
<g
   id="g86948"
   transform="translate(-83.477242,-118.00189)">
</g>
<g
   id="g86950"
   transform="translate(-83.477242,-118.00189)">
</g>
<g
   id="g86952"
   transform="translate(-83.477242,-118.00189)">
</g>
<g
   id="g86954"
   transform="translate(-83.477242,-118.00189)">
</g>
<g
   id="g86956"
   transform="translate(-83.477242,-118.00189)">
</g>
<g
   id="g86958"
   transform="translate(-83.477242,-118.00189)">
</g>
<g
   id="g86960"
   transform="translate(-83.477242,-118.00189)">
</g>
<g
   id="g86962"
   transform="translate(-83.477242,-118.00189)">
</g>
<g
   id="g110543"
   transform="matrix(0.37581123,0,0,0.37581123,-6.44036,0.94670735)"><rect
     x="147.01482"
     y="54.500347"
     width="6.3358431"
     height="38.01326"
     fill="#dd8f32"
     id="rect88341"
     style="isolation:isolate;fill:#126d82;fill-opacity:1;stroke-width:0.898956" /><path
     d="m 150.18275,86.177765 v 0 c 8.74145,0 15.83871,7.097259 15.83871,15.838705 v 6.33585 c 0,8.74145 -7.09726,15.83871 -15.83871,15.83871 v 0 c -8.74145,0 -15.83871,-7.09726 -15.83871,-15.83871 v -6.33585 c 0,-8.741446 7.09726,-15.838705 15.83871,-15.838705 z"
     style="isolation:isolate;fill:#f26319;fill-opacity:0.978851;stroke:none;stroke-width:0.898956;stroke-miterlimit:10"
     id="path88343" /><path
     d="m 210.36966,187.54586 v -34.84534 c 0,-33.21823 -26.96868,-60.186911 -60.18691,-60.186911 v 0 c -33.21823,0 -60.186922,26.968681 -60.186922,60.186911 v 34.84534 z"
     fill="#c13e5b"
     id="path88345"
     style="isolation:isolate;fill:#126d82;fill-opacity:1;stroke-width:0.898956" /><rect
     x="89.995827"
     y="181.21002"
     width="120.37473"
     height="31.677418"
     fill="#b02f4f"
     id="rect88347"
     style="isolation:isolate;fill:#758d4f;fill-opacity:0.737255;stroke-width:0.898956" /><rect
     x="83.659981"
     y="187.54585"
     width="133.04552"
     height="31.677418"
     fill="#b73e5c"
     id="rect88349"
     style="isolation:isolate;fill:#126d82;fill-opacity:1;stroke-width:0.898956" /><path
     d="m 140.67988,51.332426 c 0,-5.24451 4.25746,-9.502866 9.50287,-9.502866 5.24541,0 9.50286,4.258356 9.50286,9.502866 0,5.245409 -4.25745,9.503765 -9.50286,9.503765 -5.24541,0 -9.50287,-4.258356 -9.50287,-9.503765 z"
     fill="#dc4067"
     id="path88351"
     style="isolation:isolate;fill:#126d82;fill-opacity:1;stroke-width:0.898956" /><path
     d="m 109.00157,146.36468 c 0,-8.74145 7.09725,-15.83871 15.8396,-15.83871 8.74145,0 15.83871,7.09726 15.83871,15.83871 0,8.74235 -7.09726,15.83871 -15.83871,15.83871 -8.74235,0 -15.8396,-7.09636 -15.8396,-15.83871 z"
     fill="#ebebeb"
     id="path88353"
     style="isolation:isolate;stroke-width:0.898956" /><path
     d="m 159.68561,146.36468 c 0,-8.74145 7.09726,-15.83871 15.83871,-15.83871 8.74235,0 15.83961,7.09726 15.83961,15.83871 0,8.74235 -7.09726,15.83871 -15.83961,15.83871 -8.74145,0 -15.83871,-7.09636 -15.83871,-15.83871 z"
     fill="#ebebeb"
     id="path88355"
     style="isolation:isolate;stroke-width:0.898956" /><path
     d="m 172.3573,146.36468 c 0,-1.74757 1.41945,-3.16702 3.16702,-3.16702 1.74847,0 3.16792,1.41945 3.16792,3.16702 0,1.74847 -1.41945,3.16792 -3.16792,3.16792 -1.74757,0 -3.16702,-1.41945 -3.16702,-3.16792 z"
     fill="#dd8f32"
     id="path88357"
     style="isolation:isolate;fill:#f26319;fill-opacity:0.847059;stroke-width:0.898956" /><path
     d="m 121.67325,146.36468 c 0,-1.74757 1.41945,-3.16702 3.16792,-3.16702 1.74757,0 3.16703,1.41945 3.16703,3.16702 0,1.74847 -1.41946,3.16792 -3.16703,3.16792 -1.74847,0 -3.16792,-1.41945 -3.16792,-3.16792 z"
     fill="#dd8f32"
     id="path88359"
     style="isolation:isolate;fill:#f26319;fill-opacity:0.847059;stroke-width:0.898956" /></g></svg>
