<?xml version="1.0" encoding="UTF-8" standalone="no"?>
<!-- Generator: Adobe Illustrator 19.0.0, SVG Export Plug-In . SVG Version: 6.00 Build 0)  -->

<svg
   version="1.1"
   id="Layer_1"
   x="0px"
   y="0px"
   viewBox="0 0 150 150.00001"
   xml:space="preserve"
   sodipodi:docname="tranparency.svg"
   width="150"
   height="150"
   inkscape:version="1.1.2 (1:1.1+202202050950+0a00cf5339)"
   xmlns:inkscape="http://www.inkscape.org/namespaces/inkscape"
   xmlns:sodipodi="http://sodipodi.sourceforge.net/DTD/sodipodi-0.dtd"
   xmlns="http://www.w3.org/2000/svg"
   xmlns:svg="http://www.w3.org/2000/svg"><defs
   id="defs86967" /><sodipodi:namedview
   id="namedview86965"
   pagecolor="#ffffff"
   bordercolor="#666666"
   borderopacity="1.0"
   inkscape:pageshadow="2"
   inkscape:pageopacity="0.0"
   inkscape:pagecheckerboard="0"
   showgrid="false"
   fit-margin-top="0"
   fit-margin-left="0"
   fit-margin-right="0"
   fit-margin-bottom="0"
   inkscape:zoom="0.87597489"
   inkscape:cx="301.3785"
   inkscape:cy="240.30369"
   inkscape:window-width="1916"
   inkscape:window-height="1006"
   inkscape:window-x="0"
   inkscape:window-y="72"
   inkscape:window-maximized="1"
   inkscape:current-layer="Layer_1" />




<g
   id="g88124"
   transform="matrix(0.48330873,0,0,0.48330873,2.5036895,7.5080995)"><path
     style="fill:#126d82;fill-opacity:1;stroke-width:0.418702"
     d="m 149.00265,133.12969 -104.510918,41.9824 c -2.239217,0.89937 -2.239217,4.06894 0,4.96831 l 104.510498,41.9824 c 0.6402,0.2575 1.35534,0.2575 1.99554,0 l 104.5105,-41.9824 c 2.23922,-0.89937 2.23922,-4.06894 0,-4.96831 l -104.5105,-41.98282 c -0.6402,-0.25708 -1.35492,-0.25708 -1.99512,4.2e-4 z"
     id="path86924" /><path
     style="fill:#f26419;fill-opacity:0.844443;stroke-width:0.418702"
     d="M 149.00265,95.178984 44.491732,137.16138 c -2.239217,0.89979 -2.239217,4.06895 0,4.96874 l 104.510498,41.9824 c 0.6402,0.2575 1.35534,0.2575 1.99554,0 l 104.5105,-41.9824 c 2.23922,-0.89937 2.23922,-4.06895 0,-4.96874 L 150.99777,95.178984 c -0.6402,-0.257502 -1.35492,-0.257502 -1.99512,0 z"
     id="path86928" /><path
     style="fill:#758e4f;fill-opacity:0.735034;stroke-width:0.418702"
     d="M 149.00244,146.16262 44.491522,104.17938 c -2.239217,-0.89937 -2.239217,-4.06894 0,-4.968314 L 149.00244,57.228248 c 0.6402,-0.257502 1.35534,-0.257502 1.99554,0 l 104.5105,41.982818 c 2.23922,0.899374 2.23922,4.068944 0,4.968314 l -104.5105,41.98324 c -0.64062,0.25708 -1.35534,0.25708 -1.99554,0 z"
     id="path86932" /></g>
<g
   id="g86934"
   transform="translate(0,-56.69875)">
</g>
<g
   id="g86936"
   transform="translate(0,-56.69875)">
</g>
<g
   id="g86938"
   transform="translate(0,-56.69875)">
</g>
<g
   id="g86940"
   transform="translate(0,-56.69875)">
</g>
<g
   id="g86942"
   transform="translate(0,-56.69875)">
</g>
<g
   id="g86944"
   transform="translate(0,-56.69875)">
</g>
<g
   id="g86946"
   transform="translate(0,-56.69875)">
</g>
<g
   id="g86948"
   transform="translate(0,-56.69875)">
</g>
<g
   id="g86950"
   transform="translate(0,-56.69875)">
</g>
<g
   id="g86952"
   transform="translate(0,-56.69875)">
</g>
<g
   id="g86954"
   transform="translate(0,-56.69875)">
</g>
<g
   id="g86956"
   transform="translate(0,-56.69875)">
</g>
<g
   id="g86958"
   transform="translate(0,-56.69875)">
</g>
<g
   id="g86960"
   transform="translate(0,-56.69875)">
</g>
<g
   id="g86962"
   transform="translate(0,-56.69875)">
</g>
</svg>
