<?xml version="1.0" encoding="UTF-8" standalone="no"?>
<!-- Created with Inkscape (http://www.inkscape.org/) -->

<svg
   width="246.9361mm"
   height="94.79644mm"
   viewBox="0 0 246.9361 94.79644"
   version="1.1"
   id="svg167482"
   inkscape:version="1.1.2 (1:1.1+202202050950+0a00cf5339)"
   sodipodi:docname="status.svg"
   xmlns:inkscape="http://www.inkscape.org/namespaces/inkscape"
   xmlns:sodipodi="http://sodipodi.sourceforge.net/DTD/sodipodi-0.dtd"
   xmlns="http://www.w3.org/2000/svg"
   xmlns:svg="http://www.w3.org/2000/svg">
  <sodipodi:namedview
     id="namedview167484"
     pagecolor="#ffffff"
     bordercolor="#666666"
     borderopacity="1.0"
     inkscape:pageshadow="2"
     inkscape:pageopacity="0.0"
     inkscape:pagecheckerboard="0"
     inkscape:document-units="mm"
     showgrid="false"
     fit-margin-top="0"
     fit-margin-left="0"
     fit-margin-right="0"
     fit-margin-bottom="0"
     inkscape:zoom="0.39954756"
     inkscape:cx="404.2072"
     inkscape:cy="126.39296"
     inkscape:window-width="1916"
     inkscape:window-height="988"
     inkscape:window-x="0"
     inkscape:window-y="90"
     inkscape:window-maximized="1"
     inkscape:current-layer="layer1" />
  <defs
     id="defs167479" />
  <g
     inkscape:label="Layer 1"
     inkscape:groupmode="layer"
     id="layer1"
     transform="translate(-22.370569,-79.412505)">
    <path
       style="fill:#d3d3d3;stroke-width:0.352778"
       d="m 65.048084,174.08631 c -6.409842,-0.81398 -11.759058,-2.43051 -17.0706,-5.15873 -13.232088,-6.79652 -22.628959,-19.62133 -25.110588,-34.27082 -0.878075,-5.18341 -0.5542,-14.26807 0.680476,-19.08737 2.307079,-9.00522 6.595915,-16.413057 13.224161,-22.841246 9.060152,-8.786699 20.237465,-13.315639 32.862662,-13.315639 12.541345,0 23.661645,4.498971 32.799645,13.269848 7.39527,7.09816 12.33482,16.426287 13.94036,26.325747 0.69763,4.3015 0.6802,11.62475 -0.0376,15.8137 -3.27776,19.12732 -18.223087,34.54539 -37.27132,38.45028 -3.498099,0.71711 -11.240414,1.16685 -14.017156,0.81423 z m 2.545923,-27.99643 c 6.582509,-2.03313 12.09754,-8.54988 13.145826,-15.53356 l 0.237374,-1.58138 -5.583312,-0.0205 c -3.070821,-0.0112 -7.647061,-0.08 -10.169422,-0.15286 -5.101661,-0.14728 -7.457451,0.29342 -10.218699,1.91162 -4.584838,2.68689 -5.456587,8.53008 -1.85546,12.43684 2.407631,2.61197 4.89869,3.58037 9.302969,3.61654 1.92804,0.0158 3.61919,-0.20679 5.140724,-0.67674 z M 67.16475,124.35579 c 11.036918,0.60088 12.270575,0.62266 14.25017,0.25158 2.565311,-0.48087 5.703968,-1.88535 7.036999,-3.1489 1.819776,-1.72492 2.508977,-3.48797 2.508977,-6.41825 0,-3.20506 -0.754225,-4.8654 -3.1802,-7.00083 -3.066891,-2.69958 -7.526253,-3.70307 -12.149279,-2.73395 -7.512526,1.57485 -13.478482,7.56467 -15.5321,15.59424 -1.032122,4.03556 -1.047725,3.98727 1.156405,3.57862 1.018646,-0.18886 3.677709,-0.24399 5.909028,-0.12251 z m 75.67083,18.16687 c -4.25226,-0.63215 -6.99536,-2.9885 -7.45508,-6.40397 l -0.22554,-1.67569 h 3.57573 c 3.36702,0 3.57572,0.0421 3.57572,0.72159 0,0.39687 0.38966,1.11125 0.86591,1.5875 0.68109,0.68109 1.23077,0.86591 2.57528,0.86591 1.95147,0 2.55604,-0.43174 2.55604,-1.82539 0,-1.16518 -0.75978,-1.62648 -4.51628,-2.74207 -3.63659,-1.07999 -5.38967,-1.89305 -6.50715,-3.01796 -2.21441,-2.22912 -2.01274,-6.20801 0.42633,-8.41157 1.89237,-1.70964 3.5073,-2.17107 7.59849,-2.17107 4.1065,0 5.70538,0.46077 7.62881,2.19848 1.19168,1.0766 2.42535,3.67576 2.42535,5.10984 0,0.1656 -1.62532,0.25585 -3.61183,0.20055 -3.29249,-0.0916 -3.62322,-0.16292 -3.74059,-0.80609 -0.23492,-1.28738 -1.13871,-1.94028 -2.68587,-1.94028 -1.64716,0 -2.30893,0.4729 -2.30893,1.64993 0,1.06875 0.9049,1.58593 5.11528,2.92358 5.75593,1.82868 7.38104,3.35488 7.34822,6.90093 -0.0191,2.06229 -0.71983,3.6024 -2.20933,4.85573 -2.0511,1.72589 -6.48211,2.56704 -10.43056,1.98005 z m 113.69189,0.0151 c -4.33894,-0.65749 -7.02369,-3.10834 -7.38811,-6.74442 l -0.11767,-1.17398 3.61598,-0.10054 3.61597,-0.10053 v 0.88054 c 0,1.40052 1.27399,2.31914 3.21632,2.31914 1.77606,0 2.7809,-0.62671 2.7809,-1.73441 0,-1.03435 -1.04101,-1.63767 -5.18589,-3.00552 -2.17314,-0.71715 -4.47502,-1.65377 -5.11528,-2.08138 -2.3779,-1.58813 -3.04951,-4.79163 -1.60508,-7.65602 0.64306,-1.27524 1.19557,-1.77497 2.91042,-2.63239 1.94867,-0.97434 2.41064,-1.05834 5.82083,-1.05834 3.94206,0 5.28636,0.34117 7.35854,1.86752 1.2987,0.95661 2.49934,3.22599 2.51149,4.74707 l 0.008,0.97014 h -3.52778 c -3.29259,0 -3.52778,-0.047 -3.52778,-0.70556 0,-1.86063 -3.39526,-2.92189 -4.70782,-1.47153 -1.3679,1.51151 -0.24361,2.44828 4.70782,3.92259 5.49813,1.63708 7.40834,3.42095 7.40834,6.91838 0,2.15228 -0.86416,3.89104 -2.53561,5.10183 -2.13209,1.54447 -6.56015,2.29553 -10.24334,1.7374 z m -91.24718,-0.3344 c -1.76967,-0.41781 -2.94016,-1.42022 -3.90276,-3.34231 -0.78543,-1.56833 -0.87435,-2.23878 -1.01526,-7.65459 l -0.15443,-5.93571 h -1.54238 -1.54238 v -2.64584 -2.64583 h 1.57426 1.57427 l 0.10143,-3.26319 0.10143,-3.2632 3.61597,-0.10053 3.61597,-0.10054 v 3.36373 3.36373 h 2.46945 2.46944 v 2.64583 2.64584 h -2.49547 -2.49547 l 0.11422,5.14446 c 0.13384,6.02801 0.20078,6.14443 3.53304,6.14443 h 2.04924 v 2.77427 2.77427 l -1.63674,0.22434 c -2.09396,0.28701 -4.9106,0.23046 -6.43383,-0.12917 z m 16.00807,-0.47844 c -2.30275,-1.07709 -4.48007,-3.48758 -5.42043,-6.00091 -1.03327,-2.76166 -1.03203,-6.85929 0.003,-9.62543 2.36022,-6.30823 10.59545,-8.92948 15.14388,-4.82025 l 1.38614,1.25229 v -1.27577 -1.27577 h 3.70919 3.70919 l -0.0932,11.02431 -0.0932,11.02431 -3.61597,0.10053 -3.61597,0.10054 v -1.27843 -1.27842 l -1.10092,0.92637 c -1.67468,1.40915 -3.33641,1.95892 -5.90952,1.95513 -1.70763,-0.002 -2.81385,-0.22594 -4.10206,-0.8285 z m 8.61298,-6.14801 c 3.25299,-2.4287 3.26792,-6.94964 0.0302,-9.15963 -3.37946,-2.3068 -7.76128,0.33372 -7.76128,4.67702 0,4.11464 4.629,6.79862 7.73104,4.48261 z m 21.45547,6.59603 c -1.90584,-0.44899 -3.01183,-1.2822 -3.89346,-2.93316 -0.6944,-1.30036 -0.78374,-2.07385 -0.89019,-7.70723 l -0.11833,-6.2618 h -1.73532 -1.73532 v -2.64584 -2.64583 h 1.76389 1.76389 v -3.35139 -3.35139 h 3.70417 3.70416 v 3.35139 3.35139 h 2.46945 2.46944 v 2.64583 2.64584 h -2.46944 -2.46945 v 4.86039 c 0,6.10119 0.16268,6.4285 3.19501,6.4285 h 2.09666 v 2.77606 2.77607 l -1.32292,0.21866 c -1.79995,0.29752 -4.92022,0.22229 -6.53224,-0.15749 z m 14.97008,-0.37304 c -1.87992,-0.93054 -3.10877,-2.71781 -3.58111,-5.20846 -0.19735,-1.0406 -0.35881,-5.20408 -0.35881,-9.25218 v -7.36018 h 3.70417 3.70416 v 6.73766 c 0,7.74372 0.26364,8.82035 2.32655,9.50117 2.32017,0.76573 4.38219,-0.39392 5.09021,-2.86265 0.1894,-0.66038 0.34436,-3.94017 0.34436,-7.28843 v -6.08775 h 3.70919 3.70919 l -0.0932,11.02431 -0.0932,11.02431 -3.61597,0.10053 -3.61597,0.10054 v -1.26369 -1.26369 l -1.34452,1.08049 c -1.67854,1.3489 -3.13407,1.77506 -6.06149,1.7747 -1.63607,-1.9e-4 -2.73432,-0.21754 -3.82352,-0.75668 z"
       id="path168192" />
    <path
       style="fill:#000000;stroke-width:0.352778"
       id="path167710"
       d="" />
  </g>
</svg>
