<svg xmlns="http://www.w3.org/2000/svg"  viewBox="0 0 64 64" width="64px" height="64px"><path d="M 56.578125 3.59375 C 56.320313 3.59375 56.066406 3.691406 55.871094 3.890625 L 45.503906 14.25 L 44.796875 13.546875 C 41.289063 10.035156 35.578125 10.035156 32.070313 13.546875 L 27.046875 18.566406 C 26.238281 18.027344 25.289063 17.734375 24.292969 17.734375 C 22.957031 17.734375 21.703125 18.257813 20.757813 19.203125 L 20.050781 19.90625 C 19.847656 20.113281 19.699219 20.351563 19.601563 20.605469 C 19.347656 20.699219 19.109375 20.851563 18.90625 21.050781 L 18.199219 21.761719 C 17.253906 22.703125 16.734375 23.957031 16.734375 25.296875 C 16.734375 26.289063 17.027344 27.238281 17.5625 28.050781 L 12.546875 33.074219 C 10.84375 34.769531 9.90625 37.035156 9.90625 39.4375 C 9.90625 41.839844 10.84375 44.101563 12.546875 45.800781 L 13.25 46.507813 L 5.714844 54.042969 C 5.324219 54.433594 5.324219 55.066406 5.714844 55.457031 C 6.105469 55.847656 6.738281 55.847656 7.128906 55.457031 L 14.664063 47.921875 L 16.078125 49.335938 L 5.71875 59.699219 C 5.324219 60.089844 5.324219 60.71875 5.71875 61.109375 C 5.910156 61.304688 6.167969 61.40625 6.421875 61.40625 C 6.679688 61.40625 6.9375 61.304688 7.132813 61.109375 L 17.496094 50.75 L 18.203125 51.453125 C 19.957031 53.210938 22.257813 54.089844 24.5625 54.089844 C 26.871094 54.089844 29.175781 53.210938 30.929688 51.453125 L 35.953125 46.433594 C 36.761719 46.972656 37.710938 47.265625 38.707031 47.265625 C 40.042969 47.265625 41.296875 46.742188 42.242188 45.796875 L 42.949219 45.09375 C 43.152344 44.886719 43.300781 44.648438 43.398438 44.394531 C 43.652344 44.300781 43.886719 44.152344 44.09375 43.949219 L 44.796875 43.242188 C 45.742188 42.296875 46.265625 41.042969 46.265625 39.707031 C 46.265625 38.710938 45.972656 37.761719 45.433594 36.949219 L 50.453125 31.925781 C 52.15625 30.230469 53.09375 27.96875 53.09375 25.5625 C 53.09375 23.160156 52.15625 20.898438 50.453125 19.203125 L 49.75 18.496094 L 57.28125 10.957031 C 57.675781 10.566406 57.675781 9.9375 57.28125 9.546875 C 56.890625 9.152344 56.261719 9.152344 55.871094 9.546875 L 48.332031 17.078125 L 47.625 16.375 L 46.921875 15.664063 L 57.28125 5.304688 C 57.675781 4.910156 57.675781 4.28125 57.28125 3.890625 C 57.085938 3.691406 56.832031 3.59375 56.578125 3.59375 Z M 38.433594 12.910156 C 40.226563 12.910156 42.019531 13.59375 43.386719 14.957031 L 46.214844 17.785156 L 48.332031 19.90625 L 49.039063 20.613281 C 50.363281 21.9375 51.09375 23.695313 51.09375 25.5625 C 51.09375 27.433594 50.363281 29.191406 49.042969 30.515625 L 44.09375 35.464844 L 28.535156 19.90625 L 33.484375 14.957031 C 34.847656 13.59375 36.640625 12.910156 38.433594 12.910156 Z M 34.546875 17.847656 C 34.289063 17.847656 34.035156 17.945313 33.839844 18.140625 L 32.425781 19.554688 C 32.035156 19.945313 32.035156 20.578125 32.425781 20.96875 C 32.621094 21.164063 32.875 21.261719 33.132813 21.261719 C 33.390625 21.261719 33.644531 21.164063 33.839844 20.96875 L 35.253906 19.554688 C 35.644531 19.164063 35.644531 18.53125 35.253906 18.140625 C 35.058594 17.945313 34.800781 17.847656 34.546875 17.847656 Z M 24.292969 19.734375 C 25.09375 19.734375 25.847656 20.046875 26.414063 20.613281 L 43.386719 37.589844 C 43.949219 38.152344 44.265625 38.90625 44.265625 39.707031 C 44.265625 40.507813 43.949219 41.261719 43.386719 41.828125 L 42.949219 42.265625 L 21.734375 21.050781 L 22.171875 20.613281 C 22.738281 20.050781 23.492188 19.734375 24.292969 19.734375 Z M 38.082031 21.382813 C 37.828125 21.382813 37.570313 21.480469 37.375 21.675781 L 35.960938 23.089844 C 35.570313 23.480469 35.570313 24.113281 35.960938 24.503906 C 36.15625 24.699219 36.410156 24.796875 36.667969 24.796875 C 36.925781 24.796875 37.179688 24.699219 37.375 24.503906 L 38.785156 23.089844 C 39.179688 22.699219 39.179688 22.066406 38.785156 21.675781 C 38.589844 21.480469 38.335938 21.382813 38.082031 21.382813 Z M 20.050781 22.734375 L 41.265625 43.949219 L 40.828125 44.386719 C 39.695313 45.519531 37.71875 45.519531 36.585938 44.386719 L 19.613281 27.414063 C 19.050781 26.847656 18.734375 26.09375 18.734375 25.292969 C 18.734375 24.492188 19.050781 23.738281 19.613281 23.171875 Z M 41.617188 24.917969 C 41.363281 24.917969 41.105469 25.015625 40.910156 25.214844 L 39.496094 26.625 C 39.101563 27.019531 39.101563 27.648438 39.496094 28.039063 C 39.6875 28.234375 39.945313 28.332031 40.203125 28.332031 C 40.457031 28.332031 40.714844 28.234375 40.90625 28.039063 L 42.324219 26.625 C 42.714844 26.234375 42.714844 25.605469 42.324219 25.214844 C 42.128906 25.015625 41.871094 24.917969 41.617188 24.917969 Z M 45.152344 28.453125 C 44.898438 28.453125 44.640625 28.550781 44.445313 28.746094 L 43.03125 30.160156 C 42.640625 30.550781 42.640625 31.183594 43.03125 31.574219 C 43.226563 31.769531 43.480469 31.867188 43.738281 31.867188 C 43.996094 31.867188 44.25 31.769531 44.445313 31.574219 L 45.859375 30.160156 C 46.25 29.769531 46.25 29.136719 45.859375 28.746094 C 45.664063 28.550781 45.40625 28.453125 45.152344 28.453125 Z M 18.910156 29.535156 L 34.46875 45.09375 L 29.515625 50.042969 C 26.785156 52.773438 22.34375 52.773438 19.613281 50.042969 L 16.785156 47.214844 L 14.667969 45.09375 L 13.960938 44.386719 C 12.640625 43.0625 11.910156 41.304688 11.910156 39.4375 C 11.910156 37.566406 12.640625 35.804688 13.960938 34.484375 Z M 19.261719 33.128906 C 19.007813 33.128906 18.75 33.230469 18.554688 33.425781 L 17.140625 34.839844 C 16.75 35.230469 16.75 35.863281 17.140625 36.253906 C 17.335938 36.449219 17.589844 36.546875 17.847656 36.546875 C 18.105469 36.546875 18.359375 36.449219 18.554688 36.253906 L 19.96875 34.839844 C 20.359375 34.449219 20.359375 33.816406 19.96875 33.425781 C 19.773438 33.230469 19.515625 33.128906 19.261719 33.128906 Z M 22.796875 36.667969 C 22.542969 36.667969 22.289063 36.765625 22.09375 36.960938 L 20.675781 38.375 C 20.285156 38.765625 20.285156 39.394531 20.675781 39.785156 C 20.871094 39.980469 21.125 40.078125 21.382813 40.078125 C 21.640625 40.078125 21.894531 39.980469 22.089844 39.785156 L 23.503906 38.375 C 23.898438 37.980469 23.898438 37.351563 23.503906 36.960938 C 23.308594 36.765625 23.054688 36.667969 22.796875 36.667969 Z M 26.332031 40.203125 C 26.078125 40.203125 25.820313 40.300781 25.625 40.496094 L 24.210938 41.910156 C 23.820313 42.300781 23.820313 42.933594 24.210938 43.324219 C 24.40625 43.519531 24.664063 43.617188 24.917969 43.617188 C 25.175781 43.617188 25.429688 43.519531 25.625 43.324219 L 27.039063 41.910156 C 27.429688 41.519531 27.429688 40.886719 27.039063 40.496094 C 26.84375 40.300781 26.585938 40.203125 26.332031 40.203125 Z M 29.867188 43.738281 C 29.613281 43.738281 29.355469 43.835938 29.160156 44.03125 L 27.746094 45.445313 C 27.355469 45.835938 27.355469 46.46875 27.746094 46.859375 C 27.941406 47.054688 28.195313 47.152344 28.453125 47.152344 C 28.710938 47.152344 28.964844 47.054688 29.160156 46.859375 L 30.574219 45.445313 C 30.964844 45.054688 30.964844 44.421875 30.574219 44.03125 C 30.378906 43.835938 30.121094 43.738281 29.867188 43.738281 Z"/></svg>