<svg xmlns="http://www.w3.org/2000/svg"  viewBox="0 0 64 64" width="64px" height="64px"><path fill="currentColor"  d="M 7 6 C 5.347656 6 4 7.347656 4 9 L 4 55 C 4 56.652344 5.347656 58 7 58 L 57 58 C 58.652344 58 60 56.652344 60 55 L 60 9 C 60 7.347656 58.652344 6 57 6 Z M 7 8 L 57 8 C 57.550781 8 58 8.449219 58 9 L 58 55 C 58 55.550781 57.550781 56 57 56 L 7 56 C 6.449219 56 6 55.550781 6 55 L 6 9 C 6 8.449219 6.449219 8 7 8 Z M 26 14 C 24.898438 14 24 14.898438 24 16 L 24 18 C 24 19.101563 24.898438 20 26 20 L 48 20 C 49.101563 20 50 19.101563 50 18 L 50 16 C 50 14.898438 49.101563 14 48 14 Z M 13 16 C 12.445313 16 12 16.445313 12 17 C 12 17.554688 12.445313 18 13 18 L 19 18 C 19.554688 18 20 17.554688 20 17 C 20 16.445313 19.554688 16 19 16 Z M 26 16 L 48 16 L 48 18 L 26 18 Z M 26 24 C 24.898438 24 24 24.898438 24 26 L 24 32 C 24 33.101563 24.898438 34 26 34 L 48 34 C 49.101563 34 50 33.101563 50 32 L 50 26 C 50 24.898438 49.101563 24 48 24 Z M 13 26 C 12.445313 26 12 26.445313 12 27 C 12 27.554688 12.445313 28 13 28 L 19 28 C 19.554688 28 20 27.554688 20 27 C 20 26.445313 19.554688 26 19 26 Z M 26 26 L 48 26 L 48 32 L 26 32 Z M 26 38 C 24.347656 38 23 39.347656 23 41 C 23 42.652344 24.347656 44 26 44 C 27.652344 44 29 42.652344 29 41 C 29 39.347656 27.652344 38 26 38 Z M 32 38 C 31.445313 38 31 38.445313 31 39 C 31 39.554688 31.445313 40 32 40 L 49 40 C 49.554688 40 50 39.554688 50 39 C 50 38.445313 49.554688 38 49 38 Z M 26 40 C 26.550781 40 27 40.449219 27 41 C 27 41.550781 26.550781 42 26 42 C 25.449219 42 25 41.550781 25 41 C 25 40.449219 25.449219 40 26 40 Z M 32 42 C 31.445313 42 31 42.445313 31 43 C 31 43.554688 31.445313 44 32 44 L 45 44 C 45.554688 44 46 43.554688 46 43 C 46 42.445313 45.554688 42 45 42 Z M 9 50 C 8.445313 50 8 50.445313 8 51 L 8 53 C 8 53.554688 8.445313 54 9 54 C 9.554688 54 10 53.554688 10 53 L 10 51 C 10 50.445313 9.554688 50 9 50 Z M 14 50 C 13.445313 50 13 50.445313 13 51 L 13 53 C 13 53.554688 13.445313 54 14 54 C 14.554688 54 15 53.554688 15 53 L 15 51 C 15 50.445313 14.554688 50 14 50 Z M 19 50 C 18.445313 50 18 50.445313 18 51 L 18 53 C 18 53.554688 18.445313 54 19 54 C 19.554688 54 20 53.554688 20 53 L 20 51 C 20 50.445313 19.554688 50 19 50 Z M 24 50 C 23.445313 50 23 50.445313 23 51 L 23 53 C 23 53.554688 23.445313 54 24 54 C 24.554688 54 25 53.554688 25 53 L 25 51 C 25 50.445313 24.554688 50 24 50 Z M 29 50 C 28.445313 50 28 50.445313 28 51 L 28 53 C 28 53.554688 28.445313 54 29 54 C 29.554688 54 30 53.554688 30 53 L 30 51 C 30 50.445313 29.554688 50 29 50 Z M 34 50 C 33.445313 50 33 50.445313 33 51 L 33 53 C 33 53.554688 33.445313 54 34 54 C 34.554688 54 35 53.554688 35 53 L 35 51 C 35 50.445313 34.554688 50 34 50 Z M 39 50 C 38.445313 50 38 50.445313 38 51 L 38 53 C 38 53.554688 38.445313 54 39 54 C 39.554688 54 40 53.554688 40 53 L 40 51 C 40 50.445313 39.554688 50 39 50 Z M 44 50 C 43.445313 50 43 50.445313 43 51 L 43 53 C 43 53.554688 43.445313 54 44 54 C 44.554688 54 45 53.554688 45 53 L 45 51 C 45 50.445313 44.554688 50 44 50 Z M 49 50 C 48.445313 50 48 50.445313 48 51 L 48 53 C 48 53.554688 48.445313 54 49 54 C 49.554688 54 50 53.554688 50 53 L 50 51 C 50 50.445313 49.554688 50 49 50 Z M 54 50 C 53.445313 50 53 50.445313 53 51 L 53 53 C 53 53.554688 53.445313 54 54 54 C 54.554688 54 55 53.554688 55 53 L 55 51 C 55 50.445313 54.554688 50 54 50 Z"/></svg>