<svg xmlns="http://www.w3.org/2000/svg"  viewBox="0 0 64 64" width="64px" height="64px"><path fill="currentColor" d="M 3 2 C 1.351563 2 0 3.351563 0 5 L 0 47 C 0 48.648438 1.351563 50 3 50 L 19.269531 50 L 25.597656 58.699219 C 28.039063 62.050781 31.882813 64 36.023438 64 L 48.023438 64 C 51.953125 64 55.648438 62.46875 58.328125 59.589844 C 61.011719 56.71875 62.332031 52.980469 62.050781 49.0625 L 61.28125 38.359375 C 61.089844 35.949219 59.039063 34.0625 56.621094 34.0625 C 55.417969 34.0625 54.289063 34.519531 53.429688 35.347656 C 52.859375 33.800781 51.570313 32.640625 50 32.230469 L 50 5 C 50 3.351563 48.648438 2 47 2 Z M 3 4 L 47 4 C 47.550781 4 48 4.449219 48 5 L 48 32.171875 C 46.96875 32.378906 46.070313 32.902344 45.378906 33.628906 C 45.089844 32.789063 44.589844 32.050781 43.960938 31.46875 C 43.992188 31.320313 44 31.160156 44 31 L 44 27 C 44 26.230469 43.699219 25.53125 43.21875 25 C 43.699219 24.46875 44 23.769531 44 23 L 44 19 C 44 18.230469 43.699219 17.53125 43.21875 17 C 43.699219 16.46875 44 15.769531 44 15 L 44 11 C 44 9.351563 42.648438 8 41 8 L 33 8 C 32.230469 8 31.53125 8.300781 31 8.78125 C 30.46875 8.300781 29.769531 8 29 8 L 21 8 C 20.230469 8 19.53125 8.300781 19 8.78125 C 18.46875 8.300781 17.769531 8 17 8 L 9 8 C 7.351563 8 6 9.351563 6 11 L 6 15 C 6 15.769531 6.300781 16.46875 6.78125 17 C 6.300781 17.53125 6 18.230469 6 19 L 6 23 C 6 23.769531 6.300781 24.46875 6.78125 25 C 6.300781 25.53125 6 26.230469 6 27 L 6 31 C 6 32.648438 7.351563 34 9 34 L 17 34 C 17.769531 34 18.46875 33.699219 19 33.21875 C 19.53125 33.699219 20.230469 34 21 34 L 27 34 L 27 40.230469 L 21 36.359375 C 19.378906 35.320313 17.398438 35.25 15.699219 36.171875 C 14.007813 37.101563 13 38.800781 13 40.730469 C 13 41.152344 13.128906 41.558594 13.378906 41.902344 L 14.019531 42.789063 L 14.019531 42.800781 L 14.035156 42.824219 C 14.023438 42.882813 14 42.9375 14 43 L 14 45 C 14 45.554688 14.449219 46 15 46 C 15.414063 46 15.769531 45.75 15.921875 45.390625 L 17.820313 48 L 3 48 C 2.449219 48 2 47.550781 2 47 L 2 5 C 2 4.449219 2.449219 4 3 4 Z M 9 10 L 17 10 C 17.550781 10 18 10.449219 18 11 L 18 15 C 18 15.550781 17.550781 16 17 16 L 9 16 C 8.449219 16 8 15.550781 8 15 L 8 11 C 8 10.449219 8.449219 10 9 10 Z M 21 10 L 29 10 C 29.550781 10 30 10.449219 30 11 L 30 12.578125 C 28.601563 13.21875 27.550781 14.480469 27.199219 16 L 21 16 C 20.449219 16 20 15.550781 20 15 L 20 11 C 20 10.449219 20.449219 10 21 10 Z M 33 10 L 41 10 C 41.550781 10 42 10.449219 42 11 L 42 15 C 42 15.550781 41.550781 16 41 16 L 36.949219 16 C 36.4375 13.78125 34.441406 12.128906 32.070313 12.128906 L 32 12.128906 L 32 11 C 32 10.449219 32.449219 10 33 10 Z M 32.078125 14.128906 C 33.328125 14.128906 34.410156 14.898438 34.847656 16 C 35 16.351563 35.078125 16.730469 35.078125 17.128906 L 35.011719 37.0625 C 35.011719 37.621094 35.460938 38.0625 36.011719 38.0625 C 36.558594 38.0625 37.011719 37.621094 37.011719 37.0625 L 37.011719 35.390625 C 37.011719 35.289063 37.007813 35.191406 37.019531 35.089844 C 37.058594 34.988281 37.078125 34.890625 37.078125 34.78125 L 37.078125 34.738281 C 37.128906 34.480469 37.210938 34.230469 37.320313 34 C 37.839844 32.851563 39 32.0625 40.339844 32.0625 C 41.378906 32.0625 42.308594 32.527344 42.929688 33.289063 C 43.28125 33.71875 43.53125 34.257813 43.628906 34.847656 L 44.019531 37.230469 C 44.109375 37.742188 44.578125 38.101563 45.089844 38.0625 C 45.609375 38.019531 46.011719 37.582031 46.011719 37.0625 C 46.011719 35.769531 46.839844 34.660156 48 34.238281 C 48.269531 34.140625 48.570313 34.082031 48.871094 34.070313 C 49.269531 34.089844 49.660156 34.179688 50 34.347656 C 50.839844 34.738281 51.480469 35.519531 51.671875 36.480469 L 52.011719 38.160156 L 52.011719 38.679688 C 52.011719 39.230469 52.460938 39.671875 53.011719 39.671875 C 53.558594 39.671875 54.011719 39.230469 54.011719 38.671875 C 54.011719 37.980469 54.28125 37.320313 54.769531 36.828125 C 55.269531 36.339844 55.917969 36.0625 56.621094 36.0625 C 58 36.0625 59.179688 37.148438 59.289063 38.511719 L 60.050781 49.199219 C 60.289063 52.558594 59.160156 55.769531 56.871094 58.230469 C 54.570313 60.699219 51.449219 62.050781 48.078125 62.050781 L 36.109375 62.050781 C 32.597656 62.050781 29.28125 60.359375 27.210938 57.519531 L 21.738281 50 L 20.289063 48 L 15 40.730469 C 15 39.539063 15.621094 38.5 16.660156 37.929688 C 17.148438 37.660156 17.667969 37.53125 18.1875 37.53125 C 18.789063 37.53125 19.378906 37.699219 19.921875 38.039063 L 27 42.59375 L 27 45.054688 C 27 45.609375 27.449219 46.054688 28 46.054688 C 28.550781 46.054688 29 45.609375 29 45.054688 L 29 17.121094 C 29 16.699219 29.160156 16.300781 29.320313 15.9375 C 29.480469 15.570313 29.710938 15.242188 30 14.960938 C 30.519531 14.460938 31.230469 14.152344 32 14.140625 C 32.03125 14.128906 32.050781 14.128906 32.078125 14.128906 Z M 9 18 L 17 18 C 17.550781 18 18 18.449219 18 19 L 18 23 C 18 23.550781 17.550781 24 17 24 L 9 24 C 8.449219 24 8 23.550781 8 23 L 8 19 C 8 18.449219 8.449219 18 9 18 Z M 21 18 L 27 18 L 27 24 L 21 24 C 20.449219 24 20 23.550781 20 23 L 20 19 C 20 18.449219 20.449219 18 21 18 Z M 37 18 L 41 18 C 41.550781 18 42 18.449219 42 19 L 42 23 C 42 23.550781 41.550781 24 41 24 L 37 24 Z M 9 26 L 17 26 C 17.550781 26 18 26.449219 18 27 L 18 31 C 18 31.550781 17.550781 32 17 32 L 9 32 C 8.449219 32 8 31.550781 8 31 L 8 27 C 8 26.449219 8.449219 26 9 26 Z M 21 26 L 27 26 L 27 32 L 21 32 C 20.449219 32 20 31.550781 20 31 L 20 27 C 20 26.449219 20.449219 26 21 26 Z M 37 26 L 41 26 C 41.550781 26 42 26.449219 42 27 L 42 30.320313 C 41.480469 30.148438 40.917969 30.0625 40.339844 30.0625 C 39.109375 30.0625 37.898438 30.300781 37 31 Z M 5 42 C 4.449219 42 4 42.445313 4 43 L 4 45 C 4 45.554688 4.449219 46 5 46 C 5.550781 46 6 45.554688 6 45 L 6 43 C 6 42.445313 5.550781 42 5 42 Z M 10 42 C 9.449219 42 9 42.445313 9 43 L 9 45 C 9 45.554688 9.449219 46 10 46 C 10.550781 46 11 45.554688 11 45 L 11 43 C 11 42.445313 10.550781 42 10 42 Z"/></svg>