<?xml version="1.0"?><svg xmlns="http://www.w3.org/2000/svg"  viewBox="0 0 64 64" width="64px" height="64px">    <path d="M 37 4 C 35.897 4 35 4.897 35 6 L 35 9 L 30 9 C 28.897 9 28 9.897 28 11 L 28 31 L 14 31 L 14 26 C 14 24.897 13.103 24 12 24 L 6 24 C 4.897 24 4 24.897 4 26 L 4 38 C 4 39.103 4.897 40 6 40 L 12 40 C 13.103 40 14 39.103 14 38 L 14 33 L 28 33 L 28 53 C 28 54.103 28.897 55 30 55 L 35 55 L 35 58 C 35 59.103 35.897 60 37 60 L 45 60 C 46.103 60 47 59.103 47 58 L 47 50 C 47 48.897 46.103 48 45 48 L 37 48 C 35.897 48 35 48.897 35 50 L 35 53 L 30 53 L 30 33 L 48 33 L 48 36 C 48 37.103 48.897 38 50 38 L 58 38 C 59.103 38 60 37.103 60 36 L 60 28 C 60 26.897 59.103 26 58 26 L 50 26 C 48.897 26 48 26.897 48 28 L 48 31 L 30 31 L 30 11 L 35 11 L 35 14 C 35 15.103 35.897 16 37 16 L 45 16 C 46.103 16 47 15.103 47 14 L 47 6 C 47 4.897 46.103 4 45 4 L 37 4 z M 36.998047 6 L 45 6 L 45 14 L 37 14 L 37 9 L 36.998047 9 L 36.998047 6 z M 23 12 C 22.447 12 22 12.448 22 13 C 22 13.552 22.447 14 23 14 L 25 14 C 25.553 14 26 13.552 26 13 C 26 12.448 25.553 12 25 12 L 23 12 z M 23 17 C 22.447 17 22 17.448 22 18 C 22 18.552 22.447 19 23 19 L 25 19 C 25.553 19 26 18.552 26 18 C 26 17.448 25.553 17 25 17 L 23 17 z M 23 22 C 22.447 22 22 22.448 22 23 C 22 23.552 22.447 24 23 24 L 25 24 C 25.553 24 26 23.552 26 23 C 26 22.448 25.553 22 25 22 L 23 22 z M 5.9980469 26 L 12 26 L 12 38 L 6 38 L 5.9980469 26 z M 23 27 C 22.447 27 22 27.448 22 28 C 22 28.552 22.447 29 23 29 L 25 29 C 25.553 29 26 28.552 26 28 C 26 27.448 25.553 27 25 27 L 23 27 z M 49.998047 28 L 58 28 L 58 36 L 50 36 L 49.998047 31.003906 C 49.998047 31.002906 50 31.001 50 31 C 50 30.999 49.998047 30.997094 49.998047 30.996094 L 49.998047 28 z M 23 35 C 22.447 35 22 35.447 22 36 C 22 36.553 22.447 37 23 37 L 25 37 C 25.553 37 26 36.553 26 36 C 26 35.447 25.553 35 25 35 L 23 35 z M 23 40 C 22.447 40 22 40.447 22 41 C 22 41.553 22.447 42 23 42 L 25 42 C 25.553 42 26 41.553 26 41 C 26 40.447 25.553 40 25 40 L 23 40 z M 23 45 C 22.447 45 22 45.447 22 46 C 22 46.553 22.447 47 23 47 L 25 47 C 25.553 47 26 46.553 26 46 C 26 45.447 25.553 45 25 45 L 23 45 z M 23 50 C 22.447 50 22 50.447 22 51 C 22 51.553 22.447 52 23 52 L 25 52 C 25.553 52 26 51.553 26 51 C 26 50.447 25.553 50 25 50 L 23 50 z M 37 50 L 45 50 L 45 58 L 36.998047 58 L 36.998047 55 L 37 55 L 37 50 z"/></svg>