<?xml version="1.0"?><svg xmlns="http://www.w3.org/2000/svg"  viewBox="0 0 64 64" width="64px" height="64px">    <path d="M 8 5 C 7.448 5 7 5.447 7 6 L 7 54 C 7 54.553 7.448 55 8 55 L 56 55 C 56.552 55 57 54.553 57 54 L 57 6 C 57 5.447 56.552 5 56 5 L 8 5 z M 9 7 L 19 7 L 19 17 L 9 17 L 9 7 z M 21 7 L 31 7 L 31 17 L 21 17 L 21 7 z M 33 7 L 43 7 L 43 17 L 33 17 L 33 7 z M 45 7 L 55 7 L 55 17 L 45 17 L 45 7 z M 14 10 A 2 2 0 0 0 12 12 A 2 2 0 0 0 14 14 A 2 2 0 0 0 16 12 A 2 2 0 0 0 14 10 z M 26 10 A 2 2 0 0 0 24 12 A 2 2 0 0 0 26 14 A 2 2 0 0 0 28 12 A 2 2 0 0 0 26 10 z M 38 10 A 2 2 0 0 0 36 12 A 2 2 0 0 0 38 14 A 2 2 0 0 0 40 12 A 2 2 0 0 0 38 10 z M 50 10 A 2 2 0 0 0 48 12 A 2 2 0 0 0 50 14 A 2 2 0 0 0 52 12 A 2 2 0 0 0 50 10 z M 9 19 L 19 19 L 19 29 L 9 29 L 9 19 z M 21 19 L 31 19 L 31 29 L 21 29 L 21 19 z M 33 19 L 43 19 L 43 29 L 33 29 L 33 19 z M 45 19 L 55 19 L 55 29 L 45 29 L 45 19 z M 14 22 A 2 2 0 0 0 12 24 A 2 2 0 0 0 14 26 A 2 2 0 0 0 16 24 A 2 2 0 0 0 14 22 z M 9 31 L 19 31 L 19 41 L 9 41 L 9 31 z M 21 31 L 31 31 L 31 41 L 21 41 L 21 31 z M 33 31 L 43 31 L 43 41 L 33 41 L 33 31 z M 45 31 L 55 31 L 55 41 L 45 41 L 45 31 z M 14 34 A 2 2 0 0 0 12 36 A 2 2 0 0 0 14 38 A 2 2 0 0 0 16 36 A 2 2 0 0 0 14 34 z M 9 43 L 19 43 L 19 53 L 9 53 L 9 43 z M 21 43 L 31 43 L 31 53 L 21 53 L 21 43 z M 33 43 L 43 43 L 43 53 L 33 53 L 33 43 z M 45 43 L 55 43 L 55 53 L 45 53 L 45 43 z M 14 46 A 2 2 0 0 0 12 48 A 2 2 0 0 0 14 50 A 2 2 0 0 0 16 48 A 2 2 0 0 0 14 46 z M 9 57 C 8.448 57 8 57.447 8 58 L 8 60 C 8 60.553 8.448 61 9 61 C 9.552 61 10 60.553 10 60 L 10 58 C 10 57.447 9.552 57 9 57 z M 14 57 C 13.448 57 13 57.447 13 58 L 13 60 C 13 60.553 13.448 61 14 61 C 14.552 61 15 60.553 15 60 L 15 58 C 15 57.447 14.552 57 14 57 z M 19 57 C 18.448 57 18 57.447 18 58 L 18 60 C 18 60.553 18.448 61 19 61 C 19.552 61 20 60.553 20 60 L 20 58 C 20 57.447 19.552 57 19 57 z M 24 57 C 23.448 57 23 57.447 23 58 L 23 60 C 23 60.553 23.448 61 24 61 C 24.552 61 25 60.553 25 60 L 25 58 C 25 57.447 24.552 57 24 57 z M 29 57 C 28.448 57 28 57.447 28 58 L 28 60 C 28 60.553 28.448 61 29 61 C 29.552 61 30 60.553 30 60 L 30 58 C 30 57.447 29.552 57 29 57 z M 34 57 C 33.448 57 33 57.447 33 58 L 33 60 C 33 60.553 33.448 61 34 61 C 34.552 61 35 60.553 35 60 L 35 58 C 35 57.447 34.552 57 34 57 z M 39 57 C 38.448 57 38 57.447 38 58 L 38 60 C 38 60.553 38.448 61 39 61 C 39.552 61 40 60.553 40 60 L 40 58 C 40 57.447 39.552 57 39 57 z M 44 57 C 43.448 57 43 57.447 43 58 L 43 60 C 43 60.553 43.448 61 44 61 C 44.552 61 45 60.553 45 60 L 45 58 C 45 57.447 44.552 57 44 57 z M 49 57 C 48.448 57 48 57.447 48 58 L 48 60 C 48 60.553 48.448 61 49 61 C 49.552 61 50 60.553 50 60 L 50 58 C 50 57.447 49.552 57 49 57 z M 54 57 C 53.448 57 53 57.447 53 58 L 53 60 C 53 60.553 53.448 61 54 61 C 54.552 61 55 60.553 55 60 L 55 58 C 55 57.447 54.552 57 54 57 z"/></svg>