<svg xmlns="http://www.w3.org/2000/svg"  viewBox="0 0 64 64" width="64px" height="64px"><path d="M 31 2 C 15.007813 2 2 15.011719 2 31 C 2 46.988281 15.007813 60 31 60 C 46.992188 60 60 46.988281 60 31 C 60 15.011719 46.992188 2 31 2 Z M 31 4 C 45.886719 4 58 16.113281 58 31 C 58 45.886719 45.886719 58 31 58 C 16.113281 58 4 45.886719 4 31 C 4 16.113281 16.113281 4 31 4 Z M 31 11 C 19.972656 11 11 19.972656 11 31 C 11 42.027344 19.972656 51 31 51 C 36.5 51 41.820313 48.699219 45.585938 44.6875 C 45.964844 44.285156 45.941406 43.652344 45.542969 43.269531 C 45.136719 42.894531 44.507813 42.914063 44.125 43.316406 C 40.6875 46.980469 36.023438 49 31 49 C 21.074219 49 13 40.925781 13 31 C 13 21.074219 21.074219 13 31 13 C 36.988281 13 42.636719 16.046875 45.960938 21 L 41 21 C 40.449219 21 40 21.445313 40 22 C 40 22.554688 40.449219 23 41 23 L 48 23 C 48.550781 23 49 22.554688 49 22 L 49 14.917969 C 49 14.363281 48.550781 13.917969 48 13.917969 C 47.449219 13.917969 47 14.363281 47 14.917969 L 47 19.015625 C 43.25 14.03125 37.296875 11 31 11 Z M 31 16 C 30.449219 16 30 16.445313 30 17 L 30 29.277344 C 29.40625 29.625 29 30.261719 29 31 C 29 31.179688 29.03125 31.347656 29.074219 31.511719 L 24.792969 35.792969 C 24.402344 36.183594 24.402344 36.816406 24.792969 37.207031 C 24.988281 37.402344 25.242188 37.5 25.5 37.5 C 25.757813 37.5 26.011719 37.402344 26.207031 37.207031 L 30.488281 32.925781 C 30.652344 32.96875 30.820313 33 31 33 C 32.101563 33 33 32.101563 33 31 C 33 30.261719 32.59375 29.625 32 29.277344 L 32 17 C 32 16.445313 31.550781 16 31 16 Z M 25.285156 17.207031 C 25.15625 17.210938 25.027344 17.242188 24.902344 17.296875 C 24.394531 17.523438 24.167969 18.109375 24.390625 18.613281 L 25.203125 20.441406 C 25.371094 20.816406 25.734375 21.035156 26.121094 21.035156 C 26.253906 21.035156 26.394531 21.007813 26.527344 20.949219 C 27.03125 20.722656 27.257813 20.136719 27.03125 19.628906 L 26.21875 17.804688 C 26.050781 17.425781 25.675781 17.203125 25.285156 17.207031 Z M 20.910156 20.273438 C 20.65625 20.277344 20.402344 20.378906 20.210938 20.578125 C 19.828125 20.972656 19.835938 21.609375 20.234375 21.992188 L 21.671875 23.382813 C 21.867188 23.570313 22.117188 23.660156 22.367188 23.660156 C 22.628906 23.660156 22.890625 23.558594 23.089844 23.359375 C 23.472656 22.960938 23.460938 22.328125 23.0625 21.941406 L 21.625 20.554688 C 21.425781 20.363281 21.167969 20.269531 20.910156 20.273438 Z M 18.003906 24.753906 C 17.613281 24.761719 17.25 25 17.09375 25.382813 C 16.886719 25.894531 17.132813 26.476563 17.644531 26.683594 L 19.5 27.433594 C 19.621094 27.480469 19.75 27.503906 19.875 27.503906 C 20.269531 27.503906 20.644531 27.269531 20.800781 26.878906 C 21.007813 26.367188 20.761719 25.785156 20.25 25.578125 L 18.394531 24.828125 C 18.265625 24.777344 18.132813 24.753906 18.003906 24.753906 Z M 17 30 C 16.449219 30 16 30.445313 16 31 C 16 31.554688 16.449219 32 17 32 L 19 32 C 19.550781 32 20 31.554688 20 31 C 20 30.445313 19.550781 30 19 30 Z M 43 30 C 42.449219 30 42 30.445313 42 31 C 42 31.554688 42.449219 32 43 32 L 45 32 C 45.550781 32 46 31.554688 46 31 C 46 30.445313 45.550781 30 45 30 Z M 19.890625 34.496094 C 19.761719 34.492188 19.625 34.515625 19.5 34.566406 L 17.644531 35.316406 C 17.132813 35.523438 16.886719 36.105469 17.09375 36.617188 C 17.25 37.007813 17.625 37.246094 18.019531 37.246094 C 18.144531 37.246094 18.273438 37.222656 18.394531 37.171875 L 20.25 36.421875 C 20.761719 36.214844 21.007813 35.632813 20.800781 35.121094 C 20.644531 34.738281 20.28125 34.5 19.890625 34.496094 Z M 48.5 37.40625 C 48.113281 37.40625 47.742188 37.636719 47.578125 38.015625 C 47.277344 38.734375 46.925781 39.4375 46.53125 40.109375 C 46.25 40.585938 46.410156 41.199219 46.886719 41.480469 C 47.042969 41.574219 47.21875 41.613281 47.390625 41.613281 C 47.734375 41.613281 48.066406 41.4375 48.253906 41.125 C 48.691406 40.375 49.085938 39.59375 49.421875 38.796875 C 49.636719 38.289063 49.402344 37.703125 48.890625 37.484375 C 48.765625 37.433594 48.632813 37.410156 48.5 37.40625 Z M 22.386719 38.339844 C 22.128906 38.332031 21.871094 38.425781 21.671875 38.617188 L 20.234375 40.007813 C 19.835938 40.390625 19.828125 41.027344 20.210938 41.421875 C 20.40625 41.625 20.667969 41.726563 20.929688 41.726563 C 21.179688 41.726563 21.429688 41.632813 21.625 41.445313 L 23.0625 40.058594 C 23.460938 39.671875 23.472656 39.039063 23.089844 38.640625 C 22.894531 38.445313 22.640625 38.34375 22.386719 38.339844 Z M 31 42 C 30.449219 42 30 42.445313 30 43 L 30 45 C 30 45.554688 30.449219 46 31 46 C 31.550781 46 32 45.554688 32 45 L 32 43 C 32 42.445313 31.550781 42 31 42 Z"/></svg>