<?xml version="1.0" encoding="UTF-8" standalone="no"?>
<!-- Generator: Adobe Illustrator 19.0.0, SVG Export Plug-In . SVG Version: 6.00 Build 0)  -->

<svg
   version="1.1"
   id="Layer_1"
   x="0px"
   y="0px"
   viewBox="0 0 100.00001 100.00001"
   xml:space="preserve"
   sodipodi:docname="clock.svg"
   width="100"
   height="100"
   inkscape:version="1.1.2 (1:1.1+202202050950+0a00cf5339)"
   xmlns:inkscape="http://www.inkscape.org/namespaces/inkscape"
   xmlns:sodipodi="http://sodipodi.sourceforge.net/DTD/sodipodi-0.dtd"
   xmlns="http://www.w3.org/2000/svg"
   xmlns:svg="http://www.w3.org/2000/svg"><defs
   id="defs86967"><clipPath
     id="_clipPath_qWdgEYOhPdxn7LEE7kcrbvZICeenHuQX"><rect
       width="200"
       height="200"
       id="rect88336"
       x="0"
       y="0" /></clipPath><filter
     id="filter3811"
     x="-0.092436545"
     y="-0.091610961"
     width="1.1848731"
     height="1.1832219"><feGaussianBlur
       id="feGaussianBlur3813"
       stdDeviation="6.1652538" /></filter><filter
     id="filter3890"
     x="-3.1769152e-06"
     y="-3.0630907e-06"
     width="1.0000064"
     height="1.0000061"><feGaussianBlur
       id="feGaussianBlur3892"
       stdDeviation="0.00034763528" /></filter><filter
     id="filter3931"
     y="-0.10175875"
     width="1.062814"
     x="-0.031406976"
     height="1.2035176"><feGaussianBlur
       id="feGaussianBlur3933"
       stdDeviation="3.9259375" /></filter><filter
     id="filter4047"
     y="-0.024636298"
     width="15.20396"
     x="-7.10198"
     height="1.0492726"><feGaussianBlur
       id="feGaussianBlur4049"
       stdDeviation="1.1718344" /></filter><filter
     id="filter4121"
     y="-0.10795665"
     width="1.0608213"
     x="-0.03041065"
     height="1.2159133"><feGaussianBlur
       id="feGaussianBlur4123"
       stdDeviation="2.8525318e-06" /></filter><filter
     id="filter4247"
     y="-0.24569213"
     width="1.637438"
     x="-0.31871898"
     height="1.4913843"><feGaussianBlur
       id="feGaussianBlur4249"
       stdDeviation="1.9546344" /></filter><filter
     id="filter4363"
     y="-0.00032658544"
     width="8.2724132"
     x="-3.6362066"
     height="1.0006532"><feGaussianBlur
       id="feGaussianBlur4365"
       stdDeviation="2.8525318e-06" /></filter></defs><sodipodi:namedview
   id="namedview86965"
   pagecolor="#ffffff"
   bordercolor="#666666"
   borderopacity="1.0"
   inkscape:pageshadow="2"
   inkscape:pageopacity="0.0"
   inkscape:pagecheckerboard="0"
   showgrid="false"
   fit-margin-top="0"
   fit-margin-left="0"
   fit-margin-right="0"
   fit-margin-bottom="0"
   inkscape:zoom="1.7519498"
   inkscape:cx="47.375787"
   inkscape:cy="131.5677"
   inkscape:window-width="1916"
   inkscape:window-height="934"
   inkscape:window-x="0"
   inkscape:window-y="144"
   inkscape:window-maximized="1"
   inkscape:current-layer="Layer_1" />





<g
   id="g86934"
   transform="translate(-76.785918,-133.66041)">
</g>
<g
   id="g86936"
   transform="translate(-76.785918,-133.66041)">
</g>
<g
   id="g86938"
   transform="translate(-76.785918,-133.66041)">
</g>
<g
   id="g86940"
   transform="translate(-76.785918,-133.66041)">
</g>
<g
   id="g86942"
   transform="translate(-76.785918,-133.66041)">
</g>
<g
   id="g86944"
   transform="translate(-76.785918,-133.66041)">
</g>
<g
   id="g86946"
   transform="translate(-76.785918,-133.66041)">
</g>
<g
   id="g86948"
   transform="translate(-76.785918,-133.66041)">
</g>
<g
   id="g86950"
   transform="translate(-76.785918,-133.66041)">
</g>
<g
   id="g86952"
   transform="translate(-76.785918,-133.66041)">
</g>
<g
   id="g86954"
   transform="translate(-76.785918,-133.66041)">
</g>
<g
   id="g86956"
   transform="translate(-76.785918,-133.66041)">
</g>
<g
   id="g86958"
   transform="translate(-76.785918,-133.66041)">
</g>
<g
   id="g86960"
   transform="translate(-76.785918,-133.66041)">
</g>
<g
   id="g86962"
   transform="translate(-76.785918,-133.66041)">
</g>
<g
   id="g37728"
   transform="matrix(0.49855624,0,0,0.49975579,13.895796,13.689505)"><path
     id="path3905"
     fill="#ff5555"
     d="m 43.490481,22.632045 c -11.720339,0 -21.217759,9.49742 -21.217759,21.217757 0,3.510529 0.851998,6.819935 2.36102,9.736596 L 55.170554,26.131702 C 51.82106,23.920541 47.804659,22.632045 43.490645,22.632045 Z m 57.854249,0 c -4.314011,0 -8.330076,1.288429 -11.679904,3.499657 L 120.2013,53.586398 c 1.50902,-2.916565 2.36101,-6.226067 2.36101,-9.736596 0,-11.720337 -9.49741,-21.217757 -21.21775,-21.217757 z"
     style="fill:#5b855c;fill-opacity:1;stroke-width:0.33974" /><path
     id="path3845"
     style="color:#000000;text-indent:0;text-transform:none"
     d="m 150,13.812 c -72.423,0 -131.31,58.889 -131.31,131.31 0,40.196 18.13,76.209 46.656,100.31 l -25.127,30.6 12.343,10.16 25.626,-31.19 c 20.648,13.535 45.325,21.438 71.812,21.438 26.493,0 51.162,-7.8973 71.812,-21.438 l 25.594,31.188 12.375,-10.156 -25.16,-30.59 c 28.53,-24.11 46.69,-60.12 46.69,-100.32 0,-72.418 -58.89,-131.31 -131.31,-131.31 z m 0,16 c 63.776,0 115.31,51.537 115.31,115.31 0,63.776 -51.537,115.31 -115.31,115.31 C 86.224,260.442 34.69,208.902 34.69,145.122 34.688,81.351 86.224,29.812 150,29.812 Z"
     transform="matrix(0.33430374,0,0,0.33430374,22.272722,27.005139)"
     filter="url(#filter3890)"
     fill="#191113" /><path
     id="path3009"
     fill="#494843"
     d="m 113.63928,75.025654 a 41.222995,41.222995 0 1 1 -82.442644,0 41.222995,41.222995 0 1 1 82.442644,0 z"
     style="fill:#126d82;fill-opacity:1;stroke-width:0.334304" /><path
     id="path4051"
     d="m 117.16,194.44 61.664,-32.728"
     filter="url(#filter4121)"
     stroke="#251e1d"
     stroke-width="8"
     fill="none"
     transform="matrix(0.33973958,0,0,0.33973958,21.457346,20.865366)" /><path
     id="path3963"
     d="M 166.78,176.2 165.68,60.12"
     filter="url(#filter4363)"
     stroke="#1c1516"
     stroke-width="8"
     fill="none"
     transform="matrix(0.33973958,0,0,0.33973958,21.457346,20.865366)" /><path
     id="path3953"
     style="color:#000000;text-indent:0;text-transform:none;fill:#5b855c;fill-opacity:1;stroke-width:0.33974"
     fill="#ff5555"
     d="m 48.360645,53.119559 -0.891816,1.029818 34.164208,29.812156 0.891817,-1.029826 z" /><path
     id="path3949"
     style="color:#000000;text-indent:0;text-transform:none;fill:#f17839;fill-opacity:1;stroke-width:0.33974"
     fill="#f1f5f4"
     d="m 78.503015,71.157015 -20.948336,11.116278 1.592524,3.004589 20.946986,-11.115936 -1.59253,-3.004595 z" /><path
     id="path4025"
     d="M 152.78,176.2 151.68,60.12"
     filter="url(#filter4047)"
     stroke="#000000"
     stroke-width="10"
     fill="#808080"
     transform="matrix(0.33973958,0,0,0.33973958,21.457346,20.865366)" /><path
     id="path4125"
     style="color:#000000;text-indent:0;text-transform:none"
     d="m 159,152.75 -14.454,7.7135 -0.26468,11.38 14.544,-7.5927 z"
     transform="matrix(0.28827922,0,0,0.35417851,29.533975,18.543212)"
     filter="url(#filter4247)"
     fill="#4d4c47" /><path
     id="path3951"
     style="color:#000000;text-indent:0;text-transform:none;fill:#f17839;fill-opacity:1;stroke-width:0.33974"
     fill="#f1f5f4"
     d="m 74.691141,41.270801 -3.397397,0.03185 0.37161,39.440365 3.397396,-0.03185 -0.370315,-39.443762 z" /><path
     id="path3011"
     style="color:#000000;text-indent:0;text-transform:none;fill:#5b855c;fill-opacity:1;stroke-width:0.33974"
     fill="#f1f5f4"
     d="m 72.418285,31.620504 c -24.211203,0 -43.901152,19.689265 -43.901152,43.901146 3.43e-4,13.440097 6.067412,25.48047 15.607298,33.5391 l -8.408554,10.22276 4.129874,3.3974 8.567892,-10.42662 c 6.902488,4.52534 15.151028,7.15492 24.004642,7.15492 8.853608,0 17.102491,-2.62958 24.005997,-7.15492 l 8.568228,10.42662 4.12784,-3.3974 -8.40856,-10.22276 c 9.53989,-8.05863 15.60764,-20.099003 15.60764,-33.5391 0,-24.212224 -19.691306,-43.901146 -43.901145,-43.901146 z m 0,5.350898 c 21.322054,0 38.550245,17.229213 38.550245,38.550248 0,21.318659 -17.228191,38.54006 -38.550245,38.54006 -21.320699,0 -38.550254,-17.221401 -38.550254,-38.54006 3.43e-4,-21.321377 17.229555,-38.550248 38.550254,-38.550248 z" /></g></svg>
