<?xml version="1.0" encoding="UTF-8" standalone="no"?>
<!-- Generator: Adobe Illustrator 19.0.0, SVG Export Plug-In . SVG Version: 6.00 Build 0)  -->

<svg
   version="1.1"
   id="Layer_1"
   x="0px"
   y="0px"
   viewBox="0 0 300.00001 300.00002"
   xml:space="preserve"
   sodipodi:docname="clock.svg"
   width="300"
   height="300"
   inkscape:version="1.1.2 (1:1.1+202202050950+0a00cf5339)"
   xmlns:inkscape="http://www.inkscape.org/namespaces/inkscape"
   xmlns:sodipodi="http://sodipodi.sourceforge.net/DTD/sodipodi-0.dtd"
   xmlns="http://www.w3.org/2000/svg"
   xmlns:svg="http://www.w3.org/2000/svg"><defs
   id="defs86967"><clipPath
     id="_clipPath_qWdgEYOhPdxn7LEE7kcrbvZICeenHuQX"><rect
       width="200"
       height="200"
       id="rect88336"
       x="0"
       y="0" /></clipPath><filter
     id="filter3811"
     x="-0.092436546"
     y="-0.091610959"
     width="1.1848731"
     height="1.1832219"><feGaussianBlur
       id="feGaussianBlur3813"
       stdDeviation="6.1652538" /></filter><filter
     id="filter3890"
     x="-3.1769152e-06"
     y="-3.0630907e-06"
     width="1.0000064"
     height="1.0000061"><feGaussianBlur
       id="feGaussianBlur3892"
       stdDeviation="0.00034763528" /></filter><filter
     id="filter3931"
     y="-0.10175875"
     width="1.062814"
     x="-0.031406976"
     height="1.2035175"><feGaussianBlur
       id="feGaussianBlur3933"
       stdDeviation="3.9259375" /></filter><filter
     id="filter4047"
     y="-0.024636298"
     width="15.20396"
     x="-7.10198"
     height="1.0492726"><feGaussianBlur
       id="feGaussianBlur4049"
       stdDeviation="1.1718344" /></filter><filter
     id="filter4121"
     y="-0.10795665"
     width="1.0608213"
     x="-0.03041065"
     height="1.2159133"><feGaussianBlur
       id="feGaussianBlur4123"
       stdDeviation="2.8525318e-06" /></filter><filter
     id="filter4247"
     y="-0.24569213"
     width="1.637438"
     x="-0.31871898"
     height="1.4913843"><feGaussianBlur
       id="feGaussianBlur4249"
       stdDeviation="1.9546344" /></filter><filter
     id="filter4363"
     y="-0.00032658544"
     width="8.2724132"
     x="-3.6362066"
     height="1.0006532"><feGaussianBlur
       id="feGaussianBlur4365"
       stdDeviation="2.8525318e-06" /></filter></defs><sodipodi:namedview
   id="namedview86965"
   pagecolor="#ffffff"
   bordercolor="#666666"
   borderopacity="1.0"
   inkscape:pageshadow="2"
   inkscape:pageopacity="0.0"
   inkscape:pagecheckerboard="0"
   showgrid="false"
   fit-margin-top="0"
   fit-margin-left="0"
   fit-margin-right="0"
   fit-margin-bottom="0"
   inkscape:zoom="1.7519498"
   inkscape:cx="96.463952"
   inkscape:cy="250.86335"
   inkscape:window-width="1916"
   inkscape:window-height="970"
   inkscape:window-x="0"
   inkscape:window-y="108"
   inkscape:window-maximized="1"
   inkscape:current-layer="Layer_1" />





<g
   id="g86934"
   transform="translate(0,-56.69875)">
</g>
<g
   id="g86936"
   transform="translate(0,-56.69875)">
</g>
<g
   id="g86938"
   transform="translate(0,-56.69875)">
</g>
<g
   id="g86940"
   transform="translate(0,-56.69875)">
</g>
<g
   id="g86942"
   transform="translate(0,-56.69875)">
</g>
<g
   id="g86944"
   transform="translate(0,-56.69875)">
</g>
<g
   id="g86946"
   transform="translate(0,-56.69875)">
</g>
<g
   id="g86948"
   transform="translate(0,-56.69875)">
</g>
<g
   id="g86950"
   transform="translate(0,-56.69875)">
</g>
<g
   id="g86952"
   transform="translate(0,-56.69875)">
</g>
<g
   id="g86954"
   transform="translate(0,-56.69875)">
</g>
<g
   id="g86956"
   transform="translate(0,-56.69875)">
</g>
<g
   id="g86958"
   transform="translate(0,-56.69875)">
</g>
<g
   id="g86960"
   transform="translate(0,-56.69875)">
</g>
<g
   id="g86962"
   transform="translate(0,-56.69875)">
</g>
<path
   id="path3905"
   fill="#ff5555"
   d="m 107.76498,76.961661 c -17.112322,0 -30.979062,13.86674 -30.979062,30.979059 0,5.12556 1.243963,9.95747 3.447215,14.21595 L 124.81851,82.071347 c -4.89044,-3.228413 -10.7546,-5.109686 -17.05329,-5.109686 z m 84.4703,0 c -6.29869,0 -12.16236,1.881174 -17.05329,5.109686 l 44.58488,40.085323 c 2.20325,-4.25834 3.44721,-9.09039 3.44721,-14.21595 0,-17.112319 -13.86673,-30.979059 -30.97905,-30.979059 z"
   style="fill:#5b855c;fill-opacity:1;stroke-width:0.496038" /><path
   id="path3845"
   style="color:#000000;text-indent:0;text-transform:none"
   d="m 150,13.812 c -72.423,0 -131.31,58.889 -131.31,131.31 0,40.196 18.13,76.209 46.656,100.31 l -25.127,30.6 12.343,10.16 25.626,-31.19 c 20.648,13.535 45.325,21.438 71.812,21.438 26.493,0 51.162,-7.8973 71.812,-21.438 l 25.594,31.188 12.375,-10.156 -25.16,-30.59 c 28.53,-24.11 46.69,-60.12 46.69,-100.32 0,-72.418 -58.89,-131.31 -131.31,-131.31 z m 0,16 c 63.776,0 115.31,51.537 115.31,115.31 0,63.776 -51.537,115.31 -115.31,115.31 C 86.224,260.442 34.69,208.902 34.69,145.122 34.688,81.351 86.224,29.812 150,29.812 Z"
   transform="matrix(0.48810133,0,0,0.48810133,76.785918,83.346611)"
   filter="url(#filter3890)"
   fill="#191113" /><path
   id="path3009"
   fill="#494843"
   d="m 210.18598,153.45913 a 60.187775,60.187775 0 1 1 -120.370671,0 60.187775,60.187775 0 1 1 120.370671,0 z"
   style="fill:#126d82;fill-opacity:1;stroke-width:0.488101" /><path
   id="path4051"
   d="m 117.16,194.44 61.664,-32.728"
   filter="url(#filter4121)"
   stroke="#251e1d"
   stroke-width="8"
   fill="none"
   transform="matrix(0.49603794,0,0,0.49603794,75.595426,74.382214)" /><path
   id="path3963"
   d="M 166.78,176.2 165.68,60.12"
   filter="url(#filter4363)"
   stroke="#1c1516"
   stroke-width="8"
   fill="none"
   transform="matrix(0.49603794,0,0,0.49603794,75.595426,74.382214)" /><path
   id="path3953"
   style="color:#000000;text-indent:0;text-transform:none;fill:#5b855c;fill-opacity:1;stroke-width:0.496038"
   fill="#ff5555"
   d="m 114.87568,121.47506 -1.3021,1.50359 49.88157,43.52734 1.3021,-1.5036 z" /><path
   id="path3949"
   style="color:#000000;text-indent:0;text-transform:none;fill:#f17839;fill-opacity:1;stroke-width:0.496038"
   fill="#f1f5f4"
   d="m 158.88515,147.81071 -30.58569,16.23036 2.32517,4.38686 30.58372,-16.22986 -2.32518,-4.38687 z" /><path
   id="path4025"
   d="M 152.78,176.2 151.68,60.12"
   filter="url(#filter4047)"
   stroke="#000000"
   stroke-width="10"
   fill="#808080"
   transform="matrix(0.49603794,0,0,0.49603794,75.595426,74.382214)" /><path
   id="path4125"
   style="color:#000000;text-indent:0;text-transform:none"
   d="m 159,152.75 -14.454,7.7135 -0.26468,11.38 14.544,-7.5927 z"
   transform="matrix(0.42090307,0,0,0.51711955,87.387736,70.991745)"
   filter="url(#filter4247)"
   fill="#4d4c47" /><path
   id="path3951"
   style="color:#000000;text-indent:0;text-transform:none;fill:#f17839;fill-opacity:1;stroke-width:0.496038"
   fill="#f1f5f4"
   d="m 153.31961,104.17524 -4.96038,0.0465 0.54257,57.58504 4.96038,-0.0465 -0.54068,-57.59 z" /><path
   id="path3011"
   style="color:#000000;text-indent:0;text-transform:none;fill:#5b855c;fill-opacity:1;stroke-width:0.496038"
   fill="#f1f5f4"
   d="m 150.00112,90.085291 c -35.34965,0 -64.098028,28.747379 -64.098028,64.098019 5e-4,19.62326 8.858745,37.20285 22.787488,48.96887 l -12.276937,14.92578 6.029837,4.96038 12.50958,-15.22341 c 10.078,6.60723 22.12131,10.44656 35.04806,10.44656 12.92674,0 24.97055,-3.83933 35.05004,-10.44656 l 12.51007,15.22341 6.02687,-4.96038 -12.27695,-14.92578 c 13.92875,-11.76602 22.78799,-29.34561 22.78799,-48.96887 0,-35.35114 -28.75036,-64.098019 -64.09802,-64.098019 z m 0,7.812597 c 31.13134,0 56.28542,25.155572 56.28542,56.285422 0,31.12638 -25.15408,56.27054 -56.28542,56.27054 -31.12936,0 -56.285431,-25.14416 -56.285431,-56.27054 5e-4,-31.13035 25.156071,-56.285422 56.285431,-56.285422 z" /><ellipse
   style="color:#000000;overflow:visible;fill:#5b855c;fill-opacity:1;fill-rule:evenodd;stroke:#126d82;stroke-width:13.2283;stroke-linecap:round;stroke-linejoin:round"
   id="path132303"
   cx="-60.668526"
   cy="166.59755"
   rx="28.034283"
   ry="23.478775" /></svg>
