<svg xmlns="http://www.w3.org/2000/svg"  viewBox="0 0 64 64" width="64px" height="64px"><path fill="currentColor"  d="M 17 4 C 15.347656 4 14 5.347656 14 7 L 14 8 L 13 8 C 11.347656 8 10 9.347656 10 11 L 10 57 C 10 58.652344 11.347656 60 13 60 L 49 60 C 50.652344 60 52 58.652344 52 57 L 52 56 L 53 56 C 54.652344 56 56 54.652344 56 53 L 56 17.65625 C 56 16.320313 55.480469 15.066406 54.535156 14.121094 L 45.878906 5.464844 C 44.933594 4.519531 43.679688 4 42.34375 4 Z M 17 6 L 42 6 L 42 15 C 42 16.652344 43.347656 18 45 18 L 54 18 L 54 53 C 54 53.550781 53.550781 54 53 54 L 17 54 C 16.449219 54 16 53.550781 16 53 L 16 7 C 16 6.449219 16.449219 6 17 6 Z M 44 6.5 C 44.164063 6.613281 44.324219 6.738281 44.464844 6.878906 L 53.121094 15.535156 C 53.265625 15.679688 53.390625 15.835938 53.5 16 L 45 16 C 44.449219 16 44 15.550781 44 15 Z M 13 10 L 14 10 L 14 53 C 14 54.652344 15.347656 56 17 56 L 50 56 L 50 57 C 50 57.550781 49.550781 58 49 58 L 13 58 C 12.449219 58 12 57.550781 12 57 L 12 11 C 12 10.449219 12.449219 10 13 10 Z M 39 24 C 38.449219 24 38 24.449219 38 25 C 38 25.550781 38.449219 26 39 26 L 44.585938 26 L 36 34.585938 L 31.707031 30.292969 C 31.316406 29.902344 30.683594 29.902344 30.292969 30.292969 L 22.292969 38.292969 C 21.902344 38.683594 21.902344 39.316406 22.292969 39.707031 C 22.488281 39.902344 22.742188 40 23 40 C 23.257813 40 23.511719 39.902344 23.707031 39.707031 L 31 32.414063 L 35.292969 36.707031 C 35.683594 37.097656 36.316406 37.097656 36.707031 36.707031 L 46 27.414063 L 46 33 C 46 33.550781 46.449219 34 47 34 C 47.550781 34 48 33.550781 48 33 L 48 25 C 48 24.871094 47.972656 24.738281 47.921875 24.617188 C 47.824219 24.375 47.628906 24.179688 47.382813 24.078125 C 47.261719 24.027344 47.128906 24 47 24 Z M 20 46 C 19.449219 46 19 46.449219 19 47 L 19 49 C 19 49.550781 19.449219 50 20 50 C 20.550781 50 21 49.550781 21 49 L 21 47 C 21 46.449219 20.550781 46 20 46 Z M 25 46 C 24.449219 46 24 46.449219 24 47 L 24 49 C 24 49.550781 24.449219 50 25 50 C 25.550781 50 26 49.550781 26 49 L 26 47 C 26 46.449219 25.550781 46 25 46 Z M 30 46 C 29.449219 46 29 46.449219 29 47 L 29 49 C 29 49.550781 29.449219 50 30 50 C 30.550781 50 31 49.550781 31 49 L 31 47 C 31 46.449219 30.550781 46 30 46 Z M 35 46 C 34.449219 46 34 46.449219 34 47 L 34 49 C 34 49.550781 34.449219 50 35 50 C 35.550781 50 36 49.550781 36 49 L 36 47 C 36 46.449219 35.550781 46 35 46 Z M 40 46 C 39.449219 46 39 46.449219 39 47 L 39 49 C 39 49.550781 39.449219 50 40 50 C 40.550781 50 41 49.550781 41 49 L 41 47 C 41 46.449219 40.550781 46 40 46 Z M 45 46 C 44.449219 46 44 46.449219 44 47 L 44 49 C 44 49.550781 44.449219 50 45 50 C 45.550781 50 46 49.550781 46 49 L 46 47 C 46 46.449219 45.550781 46 45 46 Z M 50 46 C 49.449219 46 49 46.449219 49 47 L 49 49 C 49 49.550781 49.449219 50 50 50 C 50.550781 50 51 49.550781 51 49 L 51 47 C 51 46.449219 50.550781 46 50 46 Z"/></svg>