<svg xmlns="http://www.w3.org/2000/svg"  viewBox="0 0 64 64" width="64px" height="64px"><path fill="currentColor" d="M 30.824219 0 C 22.800781 0 15.976563 5.46875 14.230469 13.296875 L 11.78125 24.269531 C 11.277344 26.527344 10.375 28.65625 9.101563 30.589844 L 7.4375 33.109375 C 6.945313 33.859375 6.8125 34.777344 7.074219 35.636719 C 7.339844 36.496094 7.96875 37.1875 8.804688 37.535156 C 10.097656 38.070313 11.558594 38.570313 13.144531 39.035156 L 8.25 41.378906 C 4.460938 43.199219 2 47.089844 2 51.300781 L 2 59 C 2 60.648438 3.351563 62 5 62 L 59 62 C 60.648438 62 62 60.648438 62 59 L 62 51.300781 C 62 47.089844 59.539063 43.199219 55.75 41.378906 L 50.8125 39.015625 C 52.425781 38.554688 53.90625 38.058594 55.199219 37.53125 C 56.027344 37.1875 56.660156 36.5 56.925781 35.644531 C 57.195313 34.785156 57.0625 33.863281 56.570313 33.109375 L 54.710938 30.261719 C 53.476563 28.375 52.597656 26.304688 52.09375 24.109375 L 49.824219 14.203125 C 48.136719 6.847656 41.75 1.476563 34.230469 1.046875 C 33.207031 0.359375 32.035156 0 30.824219 0 Z M 30.824219 2 C 31.707031 2 32.5625 2.285156 33.296875 2.828125 C 33.457031 2.949219 33.652344 3.019531 33.851563 3.023438 C 40.601563 3.292969 46.367188 8.074219 47.875 14.648438 L 50.144531 24.554688 C 50.703125 26.980469 51.671875 29.269531 53.035156 31.355469 L 54.894531 34.199219 C 55.0625 34.453125 55.105469 34.761719 55.015625 35.050781 C 54.960938 35.21875 54.820313 35.523438 54.4375 35.675781 C 52.648438 36.410156 50.488281 37.082031 48.035156 37.6875 L 42.480469 35.03125 C 43.550781 33.371094 44.410156 31.558594 45.011719 29.730469 C 46.238281 29.269531 47.359375 27.769531 47.902344 25.78125 C 48.210938 24.597656 48.28125 23.410156 48.078125 22.429688 C 47.828125 21.21875 47.199219 20.410156 46.289063 20.171875 C 46.167969 20.140625 46.019531 20.109375 45.859375 20.109375 C 45.75 19.300781 45.570313 18.519531 45.328125 17.75 C 45.160156 17.21875 44.589844 16.929688 44.070313 17.097656 C 43.539063 17.269531 43.25 17.828125 43.421875 18.347656 C 43.738281 19.347656 43.921875 20.378906 43.96875 21.429688 C 43.992188 21.789063 44.191406 22.109375 44.511719 22.28125 C 44.828125 22.4375 45.210938 22.421875 45.511719 22.21875 C 45.691406 22.109375 45.78125 22.097656 45.78125 22.097656 C 45.808594 22.109375 46 22.28125 46.121094 22.828125 C 46.25 23.5 46.199219 24.390625 45.96875 25.261719 C 45.71875 26.179688 45.359375 26.839844 45.019531 27.261719 C 44.691406 27.679688 44.378906 27.878906 44.230469 27.878906 C 43.789063 27.878906 43.398438 28.167969 43.269531 28.597656 C 42.699219 30.519531 41.808594 32.460938 40.679688 34.171875 C 40.308594 34.75 39.910156 35.300781 39.46875 35.8125 C 37.429688 38.289063 34.828125 40 32 40 C 29.171875 40 26.570313 38.289063 24.53125 35.8125 C 24.089844 35.300781 23.691406 34.75 23.320313 34.171875 C 22.191406 32.460938 21.300781 30.519531 20.730469 28.597656 C 20.601563 28.167969 20.210938 27.878906 19.769531 27.878906 C 19.46875 27.878906 18.53125 27.101563 18.03125 25.261719 C 17.800781 24.390625 17.75 23.5 17.878906 22.828125 C 18 22.269531 18.191406 22.109375 18.210938 22.097656 C 18.222656 22.097656 18.300781 22.109375 18.488281 22.21875 C 18.789063 22.421875 19.171875 22.4375 19.488281 22.28125 C 19.808594 22.109375 20.007813 21.789063 20.03125 21.429688 C 20.078125 20.390625 20.261719 19.359375 20.578125 18.371094 C 20.738281 17.839844 20.449219 17.28125 19.921875 17.109375 C 19.398438 16.949219 18.839844 17.238281 18.671875 17.769531 C 18.429688 18.53125 18.25 19.308594 18.140625 20.109375 C 17.980469 20.109375 17.832031 20.140625 17.710938 20.171875 C 16.800781 20.410156 16.171875 21.21875 15.921875 22.429688 C 15.71875 23.410156 15.789063 24.597656 16.097656 25.78125 C 16.640625 27.769531 17.761719 29.269531 18.988281 29.730469 C 19.589844 31.558594 20.449219 33.371094 21.519531 35.03125 L 15.90625 37.71875 C 13.503906 37.117188 11.367188 36.4375 9.570313 35.6875 C 9.289063 35.574219 9.074219 35.339844 8.984375 35.050781 C 8.933594 34.882813 8.882813 34.550781 9.109375 34.207031 L 10.769531 31.6875 C 12.175781 29.550781 13.175781 27.203125 13.734375 24.703125 L 16.183594 13.730469 C 17.726563 6.824219 23.746094 2 30.824219 2 Z M 26.527344 12.125 C 25.8125 12.0625 25.09375 12.390625 24.683594 13.015625 L 23.078125 15.449219 C 22.773438 15.910156 22.902344 16.53125 23.363281 16.835938 C 23.53125 16.949219 23.722656 17 23.910156 17 C 24.238281 17 24.554688 16.84375 24.75 16.550781 L 26.355469 14.117188 L 27.917969 14.878906 C 30.765625 16.265625 33.941406 17 37.109375 17 L 39.667969 17 C 40.222656 17 40.667969 16.550781 40.667969 16 C 40.667969 15.449219 40.222656 15 39.667969 15 L 37.109375 15 C 34.246094 15 31.367188 14.335938 28.792969 13.078125 L 27.230469 12.316406 C 27.003906 12.207031 26.765625 12.144531 26.527344 12.125 Z M 22.699219 36.6875 C 25.148438 39.800781 28.410156 42 32 42 C 35.589844 42 38.851563 39.800781 41.300781 36.6875 L 41.941406 36.996094 L 37.089844 50.945313 L 35.078125 46.921875 L 35.949219 44.316406 C 36.121094 43.792969 35.839844 43.226563 35.316406 43.050781 C 34.789063 42.875 34.226563 43.160156 34.050781 43.683594 L 33.28125 46 L 30.71875 46 L 29.949219 43.683594 C 29.773438 43.160156 29.214844 42.875 28.683594 43.050781 C 28.160156 43.226563 27.875 43.792969 28.050781 44.316406 L 28.921875 46.921875 L 26.90625 50.945313 L 22.058594 37 Z M 20.242188 37.863281 L 27.941406 60 L 25.5 60 L 17.25 49 L 19.800781 45.597656 C 19.960938 45.386719 20.027344 45.121094 19.988281 44.859375 L 19.070313 38.421875 Z M 43.757813 37.863281 L 44.929688 38.425781 L 44.011719 44.859375 C 43.972656 45.121094 44.039063 45.386719 44.199219 45.601563 L 46.730469 48.972656 L 38.222656 59.367188 C 38.074219 59.550781 38.015625 59.777344 38.015625 60 L 36.058594 60 Z M 17.179688 39.328125 L 17.953125 44.730469 L 15.199219 48.402344 C 14.933594 48.753906 14.933594 49.246094 15.199219 49.597656 L 23 60 L 5 60 C 4.449219 60 4 59.550781 4 59 L 4 51.300781 C 4 47.859375 6.007813 44.667969 9.117188 43.179688 Z M 46.820313 39.328125 L 54.878906 43.183594 C 57.992188 44.671875 60 47.859375 60 51.300781 L 60 59 C 60 59.550781 59.550781 60 59 60 L 40.292969 60 L 48.777344 49.632813 C 49.066406 49.277344 49.078125 48.769531 48.800781 48.402344 L 46.046875 44.734375 Z M 30.617188 48 L 33.382813 48 L 36.105469 53.449219 C 36.125 53.488281 36.15625 53.519531 36.183594 53.558594 L 34.058594 59.671875 C 34.019531 59.78125 34.011719 59.890625 34.011719 60 L 29.988281 60 C 29.988281 59.890625 29.984375 59.78125 29.945313 59.671875 L 27.8125 53.546875 C 27.839844 53.511719 27.875 53.488281 27.894531 53.449219 Z M 7 54 C 6.445313 54 6 54.449219 6 55 L 6 57 C 6 57.550781 6.445313 58 7 58 C 7.554688 58 8 57.550781 8 57 L 8 55 C 8 54.449219 7.554688 54 7 54 Z M 12 54 C 11.445313 54 11 54.449219 11 55 L 11 57 C 11 57.550781 11.445313 58 12 58 C 12.554688 58 13 57.550781 13 57 L 13 55 C 13 54.449219 12.554688 54 12 54 Z M 17 54 C 16.445313 54 16 54.449219 16 55 L 16 57 C 16 57.550781 16.445313 58 17 58 C 17.554688 58 18 57.550781 18 57 L 18 55 C 18 54.449219 17.554688 54 17 54 Z M 47 54 C 46.445313 54 46 54.449219 46 55 L 46 57 C 46 57.550781 46.445313 58 47 58 C 47.554688 58 48 57.550781 48 57 L 48 55 C 48 54.449219 47.554688 54 47 54 Z M 52 54 C 51.445313 54 51 54.449219 51 55 L 51 57 C 51 57.550781 51.445313 58 52 58 C 52.554688 58 53 57.550781 53 57 L 53 55 C 53 54.449219 52.554688 54 52 54 Z M 57 54 C 56.445313 54 56 54.449219 56 55 L 56 57 C 56 57.550781 56.445313 58 57 58 C 57.554688 58 58 57.550781 58 57 L 58 55 C 58 54.449219 57.554688 54 57 54 Z"/></svg>