<?xml version="1.0" encoding="UTF-8" standalone="no"?>
<!-- Created with Inkscape (http://www.inkscape.org/) -->

<svg
   width="177.62148mm"
   height="36.387508mm"
   viewBox="0 0 177.62148 36.387508"
   version="1.1"
   id="svg131728"
   inkscape:version="1.1.2 (1:1.1+202202050950+0a00cf5339)"
   sodipodi:docname="spiffworkflow_white.svg"
   xmlns:inkscape="http://www.inkscape.org/namespaces/inkscape"
   xmlns:sodipodi="http://sodipodi.sourceforge.net/DTD/sodipodi-0.dtd"
   xmlns="http://www.w3.org/2000/svg"
   xmlns:svg="http://www.w3.org/2000/svg">
  <sodipodi:namedview
     id="namedview131730"
     pagecolor="#ffffff"
     bordercolor="#666666"
     borderopacity="1.0"
     inkscape:pageshadow="2"
     inkscape:pageopacity="0.0"
     inkscape:pagecheckerboard="0"
     inkscape:document-units="mm"
     showgrid="false"
     fit-margin-top="0"
     fit-margin-left="0"
     fit-margin-right="0"
     fit-margin-bottom="0"
     inkscape:zoom="0.79909512"
     inkscape:cx="324.11661"
     inkscape:cy="295.95976"
     inkscape:window-width="1916"
     inkscape:window-height="970"
     inkscape:window-x="0"
     inkscape:window-y="108"
     inkscape:window-maximized="1"
     inkscape:current-layer="layer1" />
  <defs
     id="defs131725" />
  <g
     inkscape:label="Layer 1"
     inkscape:groupmode="layer"
     id="layer1"
     transform="translate(-19.223453,-70.231053)">
    <path
       d="m 60.907173,88.431383 q 2.10753,0 3.40104,1.63919 1.30466,1.63918 1.30466,4.80606 0,2.11867 -0.6133,3.56829 -0.61331,1.43847 -1.69494,2.174427 -1.08165,0.73597 -2.48666,0.73597 -0.90323,0 -1.54998,-0.22302 -0.64675,-0.23417 -1.10395,-0.591 -0.45719,-0.36798 -0.79171,-0.780567 h -0.17842 q 0.0892,0.446037 0.13383,0.914387 0.0446,0.46833 0.0446,0.91437 v 5.02907 h -3.40104 V 88.665543 h 2.76543 l 0.47949,1.6169 h 0.15605 q 0.33452,-0.5018 0.81401,-0.92554 0.47949,-0.42374 1.14855,-0.66905 0.68021,-0.25647 1.57228,-0.25647 z m -1.09279,2.72082 q -0.89207,0 -1.41617,0.36799 -0.52408,0.36798 -0.76942,1.10393 -0.23416,0.73597 -0.25646,1.86222 v 0.36798 q 0,1.2043 0.22301,2.04062 0.23418,0.83631 0.76942,1.27121 0.54639,0.43488 1.49423,0.43488 0.78056,0 1.28236,-0.43488 0.50179,-0.4349 0.74711,-1.27121 0.25646,-0.84748 0.25646,-2.06292 0,-1.82875 -0.56869,-2.75428 -0.56869,-0.92554 -1.76185,-0.92554 z"
       id="path105589-9-3"
       style="font-weight:bold;font-size:13.4639px;line-height:125%;font-family:'Open Sans';-inkscape-font-specification:'Open Sans Bold';letter-spacing:0px;word-spacing:0px;fill:#ffffff;fill-opacity:1;stroke-width:1.42731px" />
    <path
       d="M 70.644103,88.665543 V 101.1323 h -3.40104 V 88.665543 Z m -1.69494,-4.8841 q 0.75826,0 1.30466,0.35683 0.54639,0.34568 0.54639,1.30466 0,0.94782 -0.54639,1.31581 -0.5464,0.35682 -1.30466,0.35682 -0.76942,0 -1.31581,-0.35682 -0.53524,-0.36799 -0.53524,-1.31581 0,-0.95898 0.53524,-1.30466 0.54639,-0.35683 1.31581,-0.35683 z"
       id="path105591-5-6"
       style="font-weight:bold;font-size:13.4639px;line-height:125%;font-family:'Open Sans';-inkscape-font-specification:'Open Sans Bold';letter-spacing:0px;word-spacing:0px;fill:#ffffff;fill-opacity:1;stroke-width:1.42731px" />
    <path
       style="font-weight:bold;font-size:13.4639px;line-height:125%;font-family:'Open Sans';-inkscape-font-specification:'Open Sans Bold';letter-spacing:0px;word-spacing:0px;fill:#ffffff;fill-opacity:1;stroke-width:1.42731px"
       d="m 89.605293,91.219113 h -2.94385 v 9.913187 h -3.40103 v -9.913187 h -1.87336 v -1.63918 l 1.87336,-0.91439 v -0.91437 q 0,-1.59458 0.53524,-2.4755 0.54639,-0.89209 1.52768,-1.24891 0.99243,-0.36799 2.34169,-0.36799 0.99245,0 1.80646,0.16725 0.81401,0.15605 1.32696,0.35684 l -0.86978,2.4978 q -0.39027,-0.12263 -0.84747,-0.22301 -0.45719,-0.10041 -1.04819,-0.10041 -0.71365,0 -1.04818,0.43488 -0.32338,0.42374 -0.32338,1.09279 v 0.78056 h 2.94385 z"
       id="path106049-0-7" />
    <path
       style="font-weight:bold;font-size:13.4639px;line-height:125%;font-family:'Open Sans';-inkscape-font-specification:'Open Sans Bold';letter-spacing:0px;word-spacing:0px;fill:#ffffff;fill-opacity:1;stroke-width:1.42731px"
       d="m 80.503703,91.219113 h -2.94384 v 9.913187 h -3.40104 v -9.913187 h -1.87335 v -1.63918 l 1.87335,-0.91439 v -0.91437 q 0,-1.59458 0.53525,-2.4755 0.5464,-0.89209 1.52767,-1.24891 0.99244,-0.36799 2.34171,-0.36799 0.99243,0 1.80644,0.16725 0.81403,0.15605 1.32697,0.35684 l -0.86978,2.4978 q -0.39028,-0.12263 -0.84746,-0.22301 -0.45719,-0.10041 -1.04819,-0.10041 -0.71366,0 -1.0482,0.43488 -0.32337,0.42374 -0.32337,1.09279 v 0.78056 h 2.94384 z"
       id="path105593-48-5" />
    <path
       d="M 113.46505,84.829633 109.3169,101.1323 h -3.93629 l -2.20788,-8.563927 q -0.0668,-0.24532 -0.17842,-0.74711 -0.11144,-0.50178 -0.23417,-1.09278 -0.12264,-0.60216 -0.22302,-1.12626 -0.0892,-0.53524 -0.12263,-0.84746 -0.0334,0.31222 -0.13383,0.83632 -0.0892,0.5241 -0.21187,1.11509 -0.11144,0.591 -0.22303,1.10394 -0.11144,0.51294 -0.1784,0.78057 l -2.196747,8.541617 h -3.92512 l -4.1593,-16.302667 h 3.40103 l 2.08522,8.89845 q 0.0892,0.40143 0.20073,0.95898 0.12263,0.55753 0.23417,1.17084 0.12264,0.60216 0.21185,1.17085 0.10042,0.55755 0.14503,0.97013 0.0558,-0.42373 0.14502,-0.98128 0.0892,-0.56869 0.18956,-1.14854 0.11144,-0.591 0.22303,-1.0928 0.11144,-0.50179 0.20071,-0.81401 l 2.375157,-9.13262 h 3.26722 l 2.37515,9.13262 q 0.078,0.30107 0.17842,0.81401 0.11144,0.5018 0.22301,1.0928 0.11144,0.591 0.20073,1.15969 0.10041,0.55755 0.14502,0.97013 0.078,-0.55754 0.21187,-1.34926 0.14502,-0.80287 0.30107,-1.59459 0.16724,-0.79171 0.28993,-1.32695 l 2.07408,-8.89845 z"
       id="path105595-7-3"
       style="font-weight:bold;font-size:13.4639px;line-height:125%;font-family:'Open Sans';-inkscape-font-specification:'Open Sans Bold';letter-spacing:0px;word-spacing:0px;fill:#ffffff;fill-opacity:1;stroke-width:1.42731px" />
    <path
       d="m 125.24277,94.876633 q 0,1.56112 -0.42374,2.76542 -0.41257,1.2043 -1.21544,2.04062 -0.79173,0.825167 -1.91797,1.248907 -1.11508,0.42374 -2.52011,0.42374 -1.3158,0 -2.41974,-0.42374 -1.09279,-0.42374 -1.90682,-1.248907 -0.80287,-0.83632 -1.2489,-2.04062 -0.43489,-1.2043 -0.43489,-2.76542 0,-2.07409 0.73597,-3.51256 0.73595,-1.43846 2.09636,-2.18557 1.36042,-0.74712 3.24494,-0.74712 1.75069,0 3.09996,0.74712 1.3604,0.74711 2.12982,2.18557 0.78056,1.43847 0.78056,3.51256 z m -8.61967,0 q 0,1.2266 0.26762,2.06292 0.26763,0.83631 0.83632,1.26005 0.56871,0.42374 1.48308,0.42374 0.90323,0 1.46077,-0.42374 0.56871,-0.42374 0.82517,-1.26005 0.26762,-0.83632 0.26762,-2.06292 0,-1.23777 -0.26762,-2.05178 -0.25646,-0.82517 -0.82517,-1.23775 -0.5687,-0.41259 -1.48307,-0.41259 -1.34927,0 -1.96256,0.92553 -0.60216,0.92552 -0.60216,2.77659 z"
       id="path105597-17-5"
       style="font-weight:bold;font-size:13.4639px;line-height:125%;font-family:'Open Sans';-inkscape-font-specification:'Open Sans Bold';letter-spacing:0px;word-spacing:0px;fill:#ffffff;fill-opacity:1;stroke-width:1.42731px" />
    <path
       d="m 133.68624,88.431383 q 0.25648,0 0.59102,0.0334 0.34566,0.0222 0.55753,0.0668 l -0.25646,3.18918 q -0.16725,-0.0558 -0.47949,-0.078 -0.30108,-0.0334 -0.52411,-0.0334 -0.65789,0 -1.28235,0.16724 -0.61331,0.16725 -1.10394,0.54639 -0.49064,0.36799 -0.78056,0.98129 -0.27879,0.60214 -0.27879,1.48307 v 6.344887 h -3.40103 V 88.665493 h 2.57588 l 0.50178,2.09639 h 0.16724 q 0.36797,-0.63561 0.91437,-1.15971 0.55755,-0.53525 1.26006,-0.84746 0.71366,-0.32338 1.53882,-0.32338 z"
       id="path105599-2-6"
       style="font-weight:bold;font-size:13.4639px;line-height:125%;font-family:'Open Sans';-inkscape-font-specification:'Open Sans Bold';letter-spacing:0px;word-spacing:0px;fill:#ffffff;fill-opacity:1;stroke-width:1.42731px" />
    <path
       d="m 139.72111,83.781443 v 7.76105 q 0,0.7025 -0.0558,1.40503 -0.0558,0.7025 -0.12264,1.40501 h 0.0446 q 0.34568,-0.49064 0.70252,-0.97013 0.36797,-0.47949 0.78057,-0.92554 l 3.49023,-3.79132 h 3.83593 l -4.95101,5.40822 5.25208,7.058537 h -3.92513 l -3.5906,-5.051367 -1.46078,1.17085 v 3.880517 h -3.40103 V 83.781443 Z"
       id="path105601-7-2"
       style="font-weight:bold;font-size:13.4639px;line-height:125%;font-family:'Open Sans';-inkscape-font-specification:'Open Sans Bold';letter-spacing:0px;word-spacing:0px;fill:#ffffff;fill-opacity:1;stroke-width:1.42731px" />
    <path
       d="m 157.50353,91.219113 h -2.94385 v 9.913187 h -3.40103 v -9.913187 h -1.87336 v -1.63918 l 1.87336,-0.91439 v -0.91437 q 0,-1.59458 0.53524,-2.4755 0.54639,-0.89209 1.52768,-1.24891 0.99243,-0.36799 2.34169,-0.36799 0.99245,0 1.80646,0.16725 0.81401,0.15605 1.32696,0.35684 l -0.86978,2.4978 q -0.39027,-0.12263 -0.84747,-0.22301 -0.45719,-0.10041 -1.04819,-0.10041 -0.71365,0 -1.04818,0.43488 -0.32338,0.42374 -0.32338,1.09279 v 0.78056 h 2.94385 z"
       id="path105603-22-9"
       style="font-weight:bold;font-size:13.4639px;line-height:125%;font-family:'Open Sans';-inkscape-font-specification:'Open Sans Bold';letter-spacing:0px;word-spacing:0px;fill:#ffffff;fill-opacity:1;stroke-width:1.42731px" />
    <path
       d="m 163.58297,101.1323 h -3.40103 V 83.781443 h 3.40103 z"
       id="path105605-6-1"
       style="font-weight:bold;font-size:13.4639px;line-height:125%;font-family:'Open Sans';-inkscape-font-specification:'Open Sans Bold';letter-spacing:0px;word-spacing:0px;fill:#ffffff;fill-opacity:1;stroke-width:1.42731px" />
    <path
       d="m 177.15584,94.876633 q 0,1.56112 -0.42372,2.76542 -0.41259,1.2043 -1.21546,2.04062 -0.79171,0.825167 -1.91797,1.248907 -1.11508,0.42374 -2.5201,0.42374 -1.31581,0 -2.41975,-0.42374 -1.09279,-0.42374 -1.90682,-1.248907 -0.80287,-0.83632 -1.24889,-2.04062 -0.4349,-1.2043 -0.4349,-2.76542 0,-2.07409 0.73597,-3.51256 0.73595,-1.43846 2.09637,-2.18557 1.36041,-0.74712 3.24493,-0.74712 1.75069,0 3.09996,0.74712 1.3604,0.74711 2.12982,2.18557 0.78056,1.43847 0.78056,3.51256 z m -8.61967,0 q 0,1.2266 0.26763,2.06292 0.26762,0.83631 0.83631,1.26005 0.56871,0.42374 1.48309,0.42374 0.90323,0 1.46076,-0.42374 0.56871,-0.42374 0.82517,-1.26005 0.26762,-0.83632 0.26762,-2.06292 0,-1.23777 -0.26762,-2.05178 -0.25646,-0.82517 -0.82517,-1.23775 -0.5687,-0.41259 -1.48307,-0.41259 -1.34925,0 -1.96256,0.92553 -0.60216,0.92552 -0.60216,2.77659 z"
       id="path105607-1-2"
       style="font-weight:bold;font-size:13.4639px;line-height:125%;font-family:'Open Sans';-inkscape-font-specification:'Open Sans Bold';letter-spacing:0px;word-spacing:0px;fill:#ffffff;fill-opacity:1;stroke-width:1.42731px" />
    <path
       d="m 189.55245,101.1323 -0.95898,-4.360007 q -0.078,-0.39029 -0.25648,-1.14855 -0.17842,-0.76942 -0.39027,-1.6392 -0.20073,-0.88092 -0.37915,-1.62804 -0.16724,-0.7471 -0.24532,-1.09278 h -0.10041 q -0.078,0.34568 -0.24532,1.09278 -0.16724,0.74712 -0.37913,1.62804 -0.20071,0.88093 -0.37913,1.66149 -0.17842,0.76942 -0.26762,1.17085 l -1.00359,4.315417 h -3.6575 l -3.546,-12.466757 h 3.38989 l 1.43847,5.51973 q 0.14503,0.57985 0.27877,1.38272 0.13383,0.7917 0.23417,1.53882 0.11144,0.73597 0.16725,1.17085 h 0.0892 q 0.0222,-0.32338 0.0892,-0.85862 0.078,-0.53525 0.16725,-1.10394 0.10041,-0.57985 0.17842,-1.03704 0.0892,-0.46835 0.13383,-0.63561 l 1.53882,-5.97691 h 3.74671 l 1.46078,5.97691 q 0.078,0.32338 0.20071,1.02588 0.13382,0.70252 0.23417,1.44964 0.10041,0.73595 0.11144,1.15969 h 0.0892 q 0.0446,-0.37913 0.15604,-1.12624 0.11144,-0.74712 0.25648,-1.56115 0.15605,-0.82515 0.31223,-1.405 l 1.49423,-5.51973 h 3.33412 l -3.5906,12.466757 z"
       id="path105609-0-7"
       style="font-weight:bold;font-size:13.4639px;line-height:125%;font-family:'Open Sans';-inkscape-font-specification:'Open Sans Bold';letter-spacing:0px;word-spacing:0px;fill:#ffffff;fill-opacity:1;stroke-width:1.42731px" />
    <path
       id="path73257-7-2-9-159-9"
       style="vector-effect:none;fill:#ffffff;fill-opacity:1;fill-rule:evenodd;stroke:none;stroke-width:4.433;stroke-linecap:butt;stroke-linejoin:miter;stroke-miterlimit:4;stroke-dasharray:none;stroke-dashoffset:0;stroke-opacity:1"
       d="m 44.715883,70.231053 v 0.91595 c 0.96107,0.84548 1.66181,1.94689 2.02041,3.17567 h -17.54738 c -3.11685,0 -5.68164,2.56482 -5.68164,5.68159 v 3.91192 c 0,3.11682 2.56479,5.68164 5.68164,5.68164 h 5.6851 4.69113 5.6878 c 1.21493,0 2.13344,0.91846 2.13344,2.13344 v 3.91632 c 0,1.21498 -0.91851,2.13346 -2.13344,2.13346 h -14.79076 c -0.75878,-2.29982 -2.93713,-3.97943 -5.47735,-3.97943 -3.16218,0 -5.76138,2.60267 -5.76138,5.76489 0,3.162197 2.5992,5.763987 5.76138,5.763987 2.54974,0 4.73517,-1.69176 5.48615,-4.00482 h 14.78196 c 3.1168,0 5.67808,-2.561297 5.67808,-5.678087 v -3.91632 c 0,-3.11677 -2.56128,-5.68164 -5.67808,-5.68164 h -5.6878 -4.69113 -5.6851 c -1.21497,0 -2.13609,-0.91837 -2.13609,-2.13344 v -3.91192 c 0,-1.21499 0.92112,-2.13696 2.13609,-2.13696 h 17.60609 c -0.33391,1.31874 -1.05865,2.50576 -2.07912,3.4053 v 0.68721 l 11.72877,-5.86483 z m -19.73105,27.11871 c 1.24555,0 2.21936,0.97116 2.21936,2.21674 0,1.245557 -0.97381,2.219357 -2.21936,2.219357 -1.24559,0 -2.21675,-0.9738 -2.21675,-2.219357 0,-1.24558 0.97116,-2.21674 2.21675,-2.21674 z"
       sodipodi:nodetypes="cccssssccsssscssscssssccsssscccccsssss" />
  </g>
</svg>
