<?xml version="1.0" encoding="UTF-8" standalone="no"?>
<!-- Created with Inkscape (http://www.inkscape.org/) -->

<svg
   width="141.84972mm"
   height="50mm"
   viewBox="0 0 141.84972 50"
   version="1.1"
   id="svg168627"
   inkscape:version="1.1.2 (1:1.1+202202050950+0a00cf5339)"
   sodipodi:docname="appomni.svg"
   xmlns:inkscape="http://www.inkscape.org/namespaces/inkscape"
   xmlns:sodipodi="http://sodipodi.sourceforge.net/DTD/sodipodi-0.dtd"
   xmlns="http://www.w3.org/2000/svg"
   xmlns:svg="http://www.w3.org/2000/svg">
  <sodipodi:namedview
     id="namedview168629"
     pagecolor="#ffffff"
     bordercolor="#666666"
     borderopacity="1.0"
     inkscape:pageshadow="2"
     inkscape:pageopacity="0.0"
     inkscape:pagecheckerboard="0"
     inkscape:document-units="mm"
     showgrid="false"
     fit-margin-top="0"
     fit-margin-left="0"
     fit-margin-right="0"
     fit-margin-bottom="0"
     inkscape:zoom="1.5981902"
     inkscape:cx="294.08264"
     inkscape:cy="10.949885"
     inkscape:window-width="1916"
     inkscape:window-height="970"
     inkscape:window-x="0"
     inkscape:window-y="108"
     inkscape:window-maximized="1"
     inkscape:current-layer="layer1" />
  <defs
     id="defs168624" />
  <g
     inkscape:label="Layer 1"
     inkscape:groupmode="layer"
     id="layer1"
     transform="translate(0.85713959,-132.57043)">
    <path
       style="fill:#d3d3d3;stroke-width:0.264583"
       d="m 43.195986,161.83236 v -9.12813 h 1.058333 1.058334 v 1.34322 1.34322 l 0.659807,-0.78414 c 1.400305,-1.66417 4.110416,-2.31392 6.585537,-1.57889 1.431968,0.42525 3.383084,2.37636 3.808333,3.80833 0.487241,1.64073 0.406694,4.36134 -0.168878,5.70409 -1.654066,3.85878 -7.004023,4.92884 -10.024904,2.00511 l -0.859895,-0.83224 v 3.62377 3.62378 h -1.058334 -1.058333 z m 9.419174,1.70343 c 1.884217,-1.16451 2.537082,-4.17641 1.40997,-6.50471 -0.984858,-2.03444 -3.442702,-2.94248 -5.666176,-2.09332 -3.815339,1.45709 -4.062627,6.93944 -0.398333,8.83104 1.432629,0.73956 3.226173,0.64977 4.654539,-0.23301 z m 6.984993,-1.7194 v -9.1441 l 0.992187,0.0821 0.992188,0.0821 v 1.24429 1.24429 l 0.690477,-0.75695 c 2.212896,-2.42593 6.238367,-2.51744 8.65927,-0.19686 1.512499,1.44982 2.002034,2.68456 2.013985,5.07982 0.0094,1.88842 -0.07791,2.27358 -0.809863,3.57187 -0.571955,1.0145 -1.206643,1.6956 -2.095714,2.24896 -1.144596,0.7124 -1.49423,0.79336 -3.411517,0.78996 -1.866995,-0.003 -2.275075,-0.0936 -3.237973,-0.71658 -0.605965,-0.39203 -1.260809,-0.94039 -1.455209,-1.21858 -0.300617,-0.43019 -0.340579,0.0428 -0.267313,3.16397 l 0.08615,3.66977 h -1.078333 -1.07833 z m 8.619754,2.02777 c 1.942486,-0.88223 2.981587,-2.90138 2.645722,-5.14108 -0.382656,-2.55174 -2.558796,-4.31141 -4.999863,-4.04299 -2.54857,0.28024 -4.148947,2.12828 -4.148947,4.79102 0,3.66233 3.26126,5.86542 6.503088,4.39305 z m -59.7883225,4.05197 c -0.08833,-0.23018 -0.160599,-0.70938 -0.160599,-1.06488 0,-0.4672 -0.201682,-0.71672 -0.727604,-0.9002 -0.400183,-0.13961 -1.025261,-0.41256 -1.389063,-0.60654 -0.590682,-0.31497 -0.7693931,-0.28218 -1.6701972,0.30649 l -1.0087393,0.65921 -1.1745772,-1.17458 -1.1745773,-1.17458 0.6567118,-0.96643 0.6567119,-0.96644 -0.5582263,-1.27854 c -0.6932642,-1.58782 -0.5615774,-1.46282 -1.74345509,-1.65493 l -0.9951094,-0.16175 v -1.70693 -1.70694 l 1.0583333,-0.21536 c 0.95121699,-0.19357 1.11920389,-0.35354 1.65974819,-1.58054 l 0.6014146,-1.36517 -0.66742,-0.93803 -0.66742,-0.93803 1.1650923,-1.1651 1.1650924,-1.16509 0.9483175,0.58609 0.9483175,0.5861 1.3921783,-0.51863 c 0.914776,-0.34079 1.418394,-0.68777 1.468627,-1.01185 0.2681,-1.72968 0.21343,-1.68383 2.0076675,-1.68383 h 1.677158 l 0.236031,1.08926 c 0.21879,1.0097 0.339537,1.12777 1.6532,1.61648 l 1.41717,0.52721 0.754929,-0.55814 c 0.41521,-0.30698 0.844539,-0.55814 0.954065,-0.55814 0.109524,0 0.700737,0.49228 1.313804,1.09396 l 1.114669,1.09397 -0.641441,0.96928 -0.64144,0.96928 0.579095,1.37068 c 0.527155,1.24774 0.675456,1.38973 1.653453,1.58314 l 1.074359,0.21246 v 1.70694 1.70693 l -0.935028,0.15199 c -1.163365,0.1891 -1.578514,0.43739 -1.578514,0.94408 0,0.21692 -0.184682,0.75153 -0.410405,1.18803 -0.38419,0.74295 -0.373567,0.85324 0.16632,1.7268 l 0.576725,0.93316 -1.026216,1.10027 c -0.564419,0.60515 -1.053561,1.14929 -1.086983,1.2092 -0.03342,0.0599 -0.509672,-0.18603 -1.058333,-0.54654 l -0.997566,-0.65546 -1.367077,0.62427 c -1.237131,0.56493 -1.383953,0.72415 -1.544611,1.67508 l -0.177533,1.05081 h -1.668228 c -1.2771305,0 -1.7058795,-0.0981 -1.8288275,-0.41852 z m 4.8599285,-6.02803 c 1.517542,-1.00426 2.47028,-2.78091 2.482477,-4.62928 0.02118,-3.20944 -2.330641,-5.59292 -5.518629,-5.59292 -6.1407396,0 -7.6762397,8.4172 -1.9764695,10.83447 1.149825,0.48764 3.8486895,0.15799 5.0126215,-0.61227 z m -4.6236525,-0.95231 c -1.313151,-0.54984 -2.513542,-2.38752 -2.513542,-3.84797 0,-1.06033 0.951095,-2.66665 1.941234,-3.27859 1.124695,-0.6951 3.0904315,-0.73866 4.1877815,-0.0928 1.813783,1.06752 2.534741,3.98772 1.372018,5.55729 -1.228312,1.65811 -3.326809,2.35743 -4.9874915,1.66208 z m 1.4552085,-3.97822 c 0.291042,-0.29105 0.529167,-0.70776 0.529167,-0.92605 0,-0.21828 -0.238125,-0.635 -0.529167,-0.92604 -0.2910415,-0.29104 -0.7077605,-0.52916 -0.9260415,-0.52916 -0.218282,0 -0.635,0.23812 -0.926042,0.52916 -0.291042,0.29104 -0.529167,0.70776 -0.529167,0.92604 0,0.21829 0.238125,0.635 0.529167,0.92605 0.291042,0.29104 0.70776,0.52916 0.926042,0.52916 0.218281,0 0.635,-0.23812 0.9260415,-0.52916 z m 73.157292,9.26785 c -2.993438,-0.45753 -5.675821,-2.48012 -6.958783,-5.24711 -0.579553,-1.24995 -0.70014,-1.89187 -0.706485,-3.76087 -0.0069,-2.02197 0.0819,-2.43566 0.86336,-4.02379 0.981053,-1.99377 2.32647,-3.29287 4.523451,-4.36776 2.044295,-1.00018 5.057378,-1.00572 7.21959,-0.0133 1.992638,0.91461 3.65228,2.48855 4.601549,4.36392 0.696947,1.37689 0.775105,1.78665 0.771676,4.04561 -0.0032,2.12445 -0.103995,2.71832 -0.650957,3.83646 -1.781924,3.64271 -5.750857,5.76481 -9.663401,5.16681 z m 3.97851,-4.14536 c 1.344576,-0.69778 2.400025,-2.05025 2.810262,-3.60114 0.63324,-2.39395 -0.608259,-5.00317 -2.967652,-6.23701 -0.978802,-0.51187 -1.457023,-0.59395 -2.860511,-0.49096 -2.126416,0.15604 -3.55619,1.08398 -4.501991,2.92185 -1.534335,2.98151 -0.01878,6.86825 3.061158,7.85054 1.139531,0.36343 3.32242,0.14641 4.458734,-0.44328 z m -64.171218,4.04472 c 0,-0.16821 6.959237,-15.71585 7.519341,-16.79897 0.408507,-0.78997 0.539904,-0.85703 1.534629,-0.78328 l 1.087871,0.0807 3.900435,8.73125 3.900437,8.73125 -1.069803,0.0831 c -0.588394,0.0457 -1.153676,-0.0138 -1.256186,-0.1323 -0.102508,-0.11847 -0.5841,-1.13814 -1.0702,-2.26592 l -0.883822,-2.05052 -4.78083,0.005 -4.780831,0.005 -0.94143,2.17829 -0.941431,2.1783 -1.10909,0.0814 c -0.61,0.0447 -1.10909,0.0257 -1.10909,-0.0423 z m 12.7,-6.61361 c 0,-0.15921 -3.610997,-8.10488 -3.743632,-8.23751 -0.06935,-0.0694 -0.762966,1.32998 -1.54136,3.10963 -0.778393,1.77965 -1.623306,3.68222 -1.877581,4.22792 l -0.462322,0.99219 h 3.812447 c 2.096847,0 3.812448,-0.0415 3.812448,-0.0922 z m 60.179565,6.37109 c -0.0709,-0.18465 -0.0969,-3.25051 -0.0578,-6.81303 l 0.071,-6.47729 1.91823,-0.0777 c 1.89891,-0.0769 1.91823,-0.0709 1.91823,0.59532 0,0.82633 0.0149,0.82656 1.205492,0.0186 1.40029,-0.95026 2.48548,-1.08067 3.8756,-0.46576 0.64158,0.2838 1.44764,0.86031 1.79124,1.28114 l 0.62474,0.76513 0.87595,-0.83673 c 2.50177,-2.38976 6.78794,-1.98573 8.41661,0.79338 0.65903,1.12455 0.67287,1.25519 0.67287,6.35045 v 5.20227 h -1.85208 -1.85209 l -0.002,-3.9026 c -0.002,-4.36592 -0.25456,-5.69582 -1.20111,-6.31602 -0.8574,-0.56179 -2.22119,-0.30018 -3.05458,0.58595 -0.61397,0.65283 -0.64073,0.84409 -0.7212,5.15533 l -0.0834,4.47734 h -1.96696 -1.96695 v -4.64223 c 0,-4.57602 -0.009,-4.6515 -0.64943,-5.29167 -0.74752,-0.74751 -1.43685,-0.81556 -2.53087,-0.24982 -1.27912,0.66147 -1.427952,1.23147 -1.536392,5.88424 l -0.10019,4.29948 h -1.8332 c -1.23703,0 -1.87509,-0.10918 -1.96202,-0.33572 z m 24.751682,-6.54344 v -6.87917 h 1.98438 c 1.97117,0 1.98437,0.005 1.98437,0.70247 0,0.65773 0.0301,0.67522 0.47271,0.27467 0.70832,-0.64103 2.30894,-1.24247 3.28911,-1.23591 1.08777,0.007 2.80264,0.78428 3.56774,1.61654 1.22706,1.33475 1.40169,2.27029 1.40169,7.50886 v 4.91488 l -1.91822,-0.0777 -1.91823,-0.0777 -0.1323,-4.85261 c -0.13009,-4.77193 -0.14318,-4.86142 -0.78763,-5.38269 -0.90791,-0.73436 -2.28827,-0.49079 -3.24726,0.57299 l -0.72761,0.80712 v 4.49374 4.49374 h -1.98437 -1.98438 z m 16.13959,0 v -6.87917 h 1.98437 1.98438 v 6.87917 6.87916 h -1.98438 -1.98437 z m 0.93208,-8.08692 c -1.01218,-0.52778 -1.18767,-0.82548 -1.19261,-2.02309 -0.005,-1.24797 0.80249,-2.06083 2.0476,-2.06083 1.19865,0 1.77852,0.3496 2.17749,1.31281 0.46628,1.1257 -0.0577,2.33366 -1.22352,2.82078 -1.05288,0.43992 -0.85987,0.44522 -1.80896,-0.0497 z"
       id="path168964" />
  </g>
</svg>
