<?xml version="1.0" encoding="UTF-8" standalone="no"?>
<!-- Created with Inkscape (http://www.inkscape.org/) -->

<svg
   width="258.78815mm"
   height="158.97292mm"
   viewBox="0 0 258.78815 158.97292"
   version="1.1"
   id="svg166007"
   inkscape:version="1.1.2 (1:1.1+202202050950+0a00cf5339)"
   sodipodi:docname="uva.svg"
   xmlns:inkscape="http://www.inkscape.org/namespaces/inkscape"
   xmlns:sodipodi="http://sodipodi.sourceforge.net/DTD/sodipodi-0.dtd"
   xmlns="http://www.w3.org/2000/svg"
   xmlns:svg="http://www.w3.org/2000/svg">
  <sodipodi:namedview
     id="namedview166009"
     pagecolor="#ffffff"
     bordercolor="#666666"
     borderopacity="1.0"
     inkscape:pageshadow="2"
     inkscape:pageopacity="0.0"
     inkscape:pagecheckerboard="0"
     inkscape:document-units="mm"
     showgrid="false"
     fit-margin-top="0"
     fit-margin-left="0"
     fit-margin-right="0"
     fit-margin-bottom="0"
     inkscape:zoom="0.39954756"
     inkscape:cx="252.78593"
     inkscape:cy="839.69978"
     inkscape:window-width="1916"
     inkscape:window-height="988"
     inkscape:window-x="0"
     inkscape:window-y="90"
     inkscape:window-maximized="1"
     inkscape:current-layer="layer1" />
  <defs
     id="defs166004" />
  <g
     inkscape:label="Layer 1"
     inkscape:groupmode="layer"
     id="layer1"
     transform="translate(-11.324991,8.9613773)">
    <path
       style="fill:#d3d3d3;fill-opacity:1;stroke-width:0.0751837"
       d="m 108.92173,10.06785 c 0,-0.0735 1.13861,-1.9337 1.65466,-2.70334 2.7173,-4.0526 6.39217,-7.70414 10.42537,-10.3592 9.24521,-6.08611 20.765,-7.60856 31.33857,-4.14169 8.53168,2.79738 16.08204,8.99451 20.48406,16.81279 l 0.24341,0.4323 h -32.07303 c -17.64017,0 -32.07304,-0.0184 -32.07304,-0.0409 z"
       id="path157575" />
    <path
       style="fill:#d3d3d3;fill-opacity:1;stroke-width:0.0751837"
       d="m 153.97088,17.92791 c -4.66798,-3.03935 -8.56844,-5.58353 -8.66771,-5.65372 -0.17,-0.12022 0.76149,-0.12786 16.04041,-0.13157 l 16.22089,-0.004 v 5.65767 5.65767 h -7.55319 -7.55318 z"
       id="path157573" />
    <path
       style="fill:#d3d3d3;fill-opacity:1;stroke-width:0.0751837"
       d="m 123.49225,23.40455 c 0.029,-0.0272 4.09196,-2.53607 9.02882,-5.57529 l 8.97611,-5.52584 0.49704,0.32037 c 0.27337,0.17621 1.63044,1.06197 3.0157,1.96837 1.38526,0.90639 4.97762,3.25369 7.98302,5.21622 3.0054,1.96253 5.44701,3.58559 5.4258,3.6068 -0.0212,0.0212 -7.90021,0.0386 -17.50888,0.0387 -9.60867,7e-5 -17.4466,-0.0221 -17.41761,-0.0493 z"
       id="path157571" />
    <path
       style="fill:#d3d3d3;fill-opacity:1;stroke-width:0.0751837"
       d="m 104.26034,17.79653 v -5.65786 h 16.66823 c 10.04135,0 16.63984,0.0273 16.59681,0.0686 -0.0393,0.0377 -4.13135,2.58174 -9.09347,5.6534 l -9.02205,5.58483 -7.57476,0.004 -7.57476,0.004 v -5.65786 z"
       id="path157569" />
    <path
       style="fill:#d3d3d3;fill-opacity:1;stroke-width:0.0751837"
       d="m 177.51306,29.94202 c -0.15303,-0.50299 -0.15558,-0.54622 -0.0376,-0.63591 0.0696,-0.0529 0.15197,-0.0973 0.18299,-0.0986 0.031,-10e-4 0.0564,0.28519 0.0564,0.63667 0,0.35148 -0.008,0.63872 -0.0188,0.6383 -0.0103,-4.5e-4 -0.0927,-0.24361 -0.18298,-0.54043 z"
       id="path157567" />
    <path
       style="fill:#d3d3d3;fill-opacity:1;stroke-width:0.0751837"
       d="m 104.2644,29.97312 c -0.004,-0.74318 0.002,-0.77024 0.14212,-0.69505 0.0804,0.043 0.15927,0.10343 0.17526,0.13422 0.016,0.0308 -0.048,0.34356 -0.14212,0.69504 l -0.17121,0.63907 z"
       id="path157565" />
    <path
       id="path157559"
       style="fill:#d3d3d3;fill-opacity:1;stroke-width:0.0751837"
       d="m 163.2045,25.52163 v 15.1112 15.11226 h 7.14218 7.14272 v -9.02632 c 0,-7.19968 -0.019,-9.01538 -0.0941,-8.97257 -0.0517,0.0295 -0.31411,0.20619 -0.5829,0.39274 -0.26876,0.18656 -0.49583,0.3433 -0.50385,0.3483 -0.008,0.005 0.0987,0.37142 0.23773,0.81441 0.13904,0.443 0.23469,0.80563 0.21238,0.80563 -0.0223,0 -0.33726,-0.21711 -0.69969,-0.48212 l -0.65889,-0.48165 -0.66043,0.48112 c -0.36319,0.26458 -0.67357,0.46744 -0.68987,0.45114 -0.0163,-0.0163 0.0741,-0.37661 0.20103,-0.801 0.12697,-0.42439 0.22267,-0.77959 0.21238,-0.78959 -0.0102,-0.01 -0.32097,-0.23966 -0.68987,-0.5111 l -0.67078,-0.4935 0.89091,-0.0212 0.8909,-0.0212 0.23308,-0.76686 c 0.21873,-0.7188 0.34208,-0.99907 0.34208,-0.77981 0,0.0521 0.10276,0.4255 0.22841,0.82992 l 0.22842,0.73535 0.69246,0.0512 c 0.3809,0.0281 0.75184,0.0687 0.82423,0.0899 0.12359,0.0363 0.13126,-0.15957 0.13126,-3.37394 v -3.4122 l -0.6351,-0.43614 -0.63511,-0.43616 -0.68056,0.49971 c -0.37428,0.2747 -0.67979,0.45641 -0.67903,0.4036 7.2e-4,-0.0528 0.10197,-0.41587 0.2253,-0.80666 0.12332,-0.39079 0.22428,-0.71993 0.22428,-0.73123 0,-0.0113 -0.31263,-0.2495 -0.69453,-0.5297 l -0.69403,-0.5095 0.90229,-0.0212 0.90175,-0.0207 0.2222,-0.75552 c 0.12207,-0.41539 0.24238,-0.76761 0.26717,-0.7829 0.0248,-0.0154 0.15304,0.32512 0.28525,0.75705 l 0.24029,0.7855 h 0.33745 0.33745 V 26.87446 25.5216 h -7.14272 z m 8.69868,18.98332 0.25114,0.80616 0.25117,0.80616 0.90691,0.0207 0.90641,0.0212 -0.65577,0.47333 c -0.36058,0.26035 -0.67456,0.50451 -0.69816,0.54261 -0.0236,0.0381 0.0635,0.41124 0.19328,0.82889 0.1297,0.41767 0.22368,0.77078 0.20929,0.78496 -0.0145,0.0142 -0.32256,-0.19288 -0.68525,-0.45992 -0.39634,-0.29181 -0.69628,-0.46337 -0.75189,-0.43045 -0.0508,0.0301 -0.32962,0.22796 -0.61907,0.43976 -0.56058,0.41019 -0.7144,0.51263 -0.71366,0.47543 2.3e-4,-0.0128 0.11424,-0.38497 0.25323,-0.82682 l 0.25268,-0.80306 -0.71107,-0.51263 -0.71157,-0.5121 0.90641,-0.0212 0.90588,-0.0212 0.25527,-0.80563 z m -5.22293,6.87607 c 0.041,-0.003 0.15311,0.29165 0.32401,0.85318 l 0.23357,0.76636 0.89194,0.0217 0.8914,0.0212 -0.6604,0.48112 c -0.36319,0.26456 -0.67392,0.49511 -0.69093,0.5121 -0.017,0.017 0.0716,0.36388 0.1969,0.77102 0.12534,0.40712 0.21852,0.76801 0.20723,0.80201 -0.0113,0.034 -0.31949,-0.15613 -0.68472,-0.4222 l -0.66405,-0.48368 -0.66043,0.48318 c -0.36322,0.26559 -0.67894,0.48265 -0.70125,0.48265 -0.0223,0 0.0733,-0.36242 0.21241,-0.80563 0.13917,-0.44323 0.22627,-0.82396 0.19325,-0.84595 -0.0329,-0.022 -0.34049,-0.24281 -0.68315,-0.49093 l -0.6227,-0.45114 0.86918,-0.0212 0.86921,-0.0212 0.23048,-0.74258 c 0.12687,-0.40836 0.23048,-0.78508 0.23048,-0.83717 0,-0.048 0.006,-0.0721 0.0176,-0.0729 z" />
    <path
       style="fill:#d3d3d3;fill-opacity:1;stroke-width:0.0751837"
       d="M 154.93417,40.63305 V 25.52138 h 3.19531 3.1953 V 40.6333 55.74523 h -3.1953 -3.19531 z"
       id="path157557" />
    <path
       style="fill:#d3d3d3;fill-opacity:1;stroke-width:0.0751837"
       d="M 146.28804,40.63305 V 25.52138 h 3.2329 3.2329 V 40.6333 55.74523 h -3.2329 -3.2329 z"
       id="path157555" />
    <path
       style="fill:#d3d3d3;fill-opacity:1;stroke-width:0.0751837"
       d="M 137.7171,40.63305 V 25.52138 h 3.2329 3.2329 V 40.6333 55.74523 h -3.2329 -3.2329 z"
       id="path157553" />
    <path
       style="fill:#d3d3d3;fill-opacity:1;stroke-width:0.0751837"
       d="M 129.07097,40.63305 V 25.52138 h 3.2329 3.2329 V 40.6333 55.74523 h -3.2329 -3.2329 z"
       id="path157551" />
    <path
       style="fill:#d3d3d3;fill-opacity:1;stroke-width:0.0751837"
       d="M 120.80076,40.63305 V 25.52138 h 3.04494 3.04494 V 40.6333 55.74523 h -3.04494 -3.04494 z"
       id="path157549" />
    <path
       id="path157543"
       style="fill:#d3d3d3;fill-opacity:1;stroke-width:0.0751837"
       d="m 104.26028,25.52163 v 1.35286 1.35343 h 0.38034 0.37983 l 0.17312,-0.39482 c 0.0951,-0.21709 0.23238,-0.57501 0.30488,-0.79581 0.0725,-0.22082 0.15666,-0.37319 0.18706,-0.33848 0.0304,0.0347 0.1519,0.3923 0.27027,0.79425 l 0.2155,0.73073 0.90538,0.0207 0.90535,0.0212 -0.65577,0.47334 c -0.36055,0.26035 -0.67455,0.5045 -0.69815,0.5426 -0.0236,0.0381 0.0635,0.41124 0.19327,0.82889 0.12981,0.41764 0.22371,0.77076 0.20929,0.78497 -0.0144,0.0142 -0.32255,-0.19238 -0.68522,-0.4594 -0.40359,-0.29718 -0.6953,-0.46395 -0.75189,-0.42945 -0.17066,0.10414 -1.18319,0.94909 -1.19219,0.99531 -0.005,0.0251 -0.0141,1.51797 -0.0191,3.31761 l -0.01,3.27216 h 0.82733 0.82735 l 0.27131,-0.82838 0.27127,-0.82889 0.25996,0.82682 0.25992,0.82735 0.84077,-0.002 c 0.46249,-9e-4 0.84129,0.0204 0.84129,0.0476 0,0.0271 -0.28773,0.25828 -0.63923,0.51366 -0.35147,0.25535 -0.63923,0.48225 -0.63923,0.50435 0,0.0221 0.10491,0.37769 0.23304,0.79012 0.12817,0.41246 0.22003,0.76287 0.20413,0.77878 -0.0159,0.0159 -0.32581,-0.19029 -0.68831,-0.45837 l -0.6589,-0.48731 -0.24029,0.1669 c -0.13219,0.0919 -0.43717,0.31618 -0.67747,0.49869 -0.24029,0.18253 -0.44992,0.31903 -0.46611,0.30281 -0.0163,-0.0162 0.0823,-0.38748 0.2196,-0.82473 l 0.24961,-0.79531 -0.57259,-0.41082 c -0.3149,-0.22598 -0.6065,-0.43024 -0.64801,-0.45424 -0.0503,-0.0291 -0.0749,2.96381 -0.0749,8.97155 v 9.01494 h 7.16132 7.16131 V 40.63351 25.52178 h -7.21764 z m 5.79448,19.05672 c 0.0302,0.006 0.15459,0.33911 0.28268,0.75755 l 0.24029,0.7855 h 0.8635 c 0.47498,0 0.8619,0.0253 0.85989,0.0563 -0.002,0.031 -0.30255,0.27093 -0.66712,0.53279 l -0.66249,0.47593 0.13229,0.42582 c 0.33251,1.07048 0.36807,1.22073 0.27697,1.16684 -0.0498,-0.0295 -0.32755,-0.22693 -0.61701,-0.43873 -0.28945,-0.2118 -0.56935,-0.41074 -0.62166,-0.44236 -0.0598,-0.0362 -0.34558,0.12634 -0.7705,0.43823 -0.37152,0.27268 -0.67542,0.46712 -0.67542,0.43201 2e-5,-0.0521 0.24675,-0.91122 0.41859,-1.4578 0.0294,-0.0936 -0.14377,-0.2617 -0.65836,-0.63923 l -0.69816,-0.5121 0.90229,-0.0212 0.90225,-0.0207 0.22223,-0.75552 c 0.12207,-0.4154 0.24238,-0.76761 0.26715,-0.7829 7.9e-4,-4.8e-4 0.002,-7.2e-4 0.003,-5e-4 z m 5.29116,6.89104 c 0.0455,-0.006 0.11401,0.18063 0.2775,0.70435 l 0.25839,0.82682 0.89037,0.0212 0.89091,0.0217 -0.63045,0.45733 c -0.34663,0.25168 -0.65818,0.48321 -0.69247,0.5147 -0.0343,0.0315 0.0443,0.40291 0.17465,0.82529 0.13034,0.42238 0.22352,0.78158 0.20723,0.79787 -0.0163,0.0163 -0.32766,-0.1878 -0.69194,-0.4532 l -0.66249,-0.48215 -0.65836,0.48318 c -0.68361,0.50176 -0.76648,0.54658 -0.7147,0.38912 0.18466,-0.56089 0.4155,-1.36326 0.4155,-1.44436 0,-0.0562 -0.28977,-0.3166 -0.64389,-0.57877 l -0.64389,-0.47646 0.86143,-0.0212 0.86146,-0.0212 0.19997,-0.65527 c 0.11018,-0.36055 0.22747,-0.74049 0.26046,-0.84386 0.0127,-0.0397 0.0251,-0.063 0.0403,-0.0651 z" />
    <path
       style="fill:#d3d3d3;fill-opacity:1;stroke-width:0.0751837"
       d="m 163.35474,61.94764 v -4.02233 h 7.10486 7.10487 v 4.02233 4.02233 h -7.10487 -7.10486 z"
       id="path157541" />
    <path
       id="path157533"
       style="fill:#d3d3d3;fill-opacity:1;stroke-width:0.0751837"
       d="m 120.80086,57.92533 v 4.02302 4.02248 l 9.45113,-0.0191 9.4511,-0.0191 0.17206,-0.56378 c 0.0946,-0.31014 0.17095,-0.59785 0.17002,-0.63923 -9.2e-4,-0.0414 -0.30953,-0.29501 -0.68574,-0.5638 l -0.68369,-0.48885 0.89969,-0.0207 0.89919,-0.0212 0.24029,-0.78706 c 0.13192,-0.43296 0.25355,-0.78753 0.27027,-0.78753 0.0167,0 0.13888,0.35459 0.27181,0.78753 l 0.24186,0.78706 0.89916,0.0212 0.89916,0.0207 -0.62423,0.45112 c -0.34338,0.2481 -0.65779,0.47397 -0.69869,0.50178 -0.0469,0.0319 -0.007,0.2894 0.10647,0.69556 l 0.18087,0.64492 h 9.53222 9.53225 l -0.0191,-4.00335 -0.0196,-4.00392 -1.22732,-0.0207 c -1.14544,-0.0193 -1.22487,-0.0119 -1.18857,0.11266 0.0214,0.0734 0.11184,0.37872 0.20103,0.67852 l 0.16174,0.54518 h 0.87541 0.8754 l -0.68419,0.50022 -0.68368,0.50025 0.24495,0.81544 c 0.13483,0.44855 0.22974,0.81545 0.21082,0.81545 -0.0279,0 -0.95679,-0.66519 -1.27434,-0.9126 -0.0519,-0.0404 -0.33213,0.11594 -0.75189,0.4196 -0.36801,0.26625 -0.67816,0.459 -0.68935,0.42788 -0.0112,-0.0311 0.0826,-0.39073 0.20825,-0.7989 0.12557,-0.40818 0.20233,-0.76761 0.17053,-0.79891 -0.0318,-0.0313 -0.34063,-0.26078 -0.68625,-0.51007 l -0.62839,-0.4532 0.88313,-0.0212 0.88368,-0.0212 0.17724,-0.59738 c 0.0976,-0.32851 0.17725,-0.62455 0.17725,-0.65786 0,-0.0333 -7.89953,-0.061 -17.555,-0.061 -13.99442,0 -17.555,0.0192 -17.555,0.094 2.4e-4,0.0517 0.0776,0.34772 0.17209,0.65786 l 0.17155,0.56431 0.86146,0.0372 0.86196,0.0377 -0.65783,0.4749 c -0.36182,0.26125 -0.65784,0.49472 -0.65784,0.51832 0,0.0236 0.10396,0.37949 0.23098,0.79115 0.12708,0.41167 0.21797,0.76132 0.20207,0.77722 -0.0159,0.0159 -0.32663,-0.19026 -0.69041,-0.45837 l -0.66146,-0.48731 -0.38653,0.27803 c -0.21256,0.15293 -0.51482,0.37711 -0.6718,0.49816 -0.15698,0.12102 -0.29935,0.20603 -0.31626,0.18912 -0.0168,-0.0168 0.0815,-0.38656 0.21807,-0.82164 l 0.24805,-0.79118 -0.66611,-0.48419 -0.66609,-0.48421 0.85524,-0.0212 0.85524,-0.0212 0.17105,-0.58031 c 0.0942,-0.31922 0.18687,-0.6227 0.20619,-0.6744 0.0271,-0.0727 -0.23119,-0.094 -1.13845,-0.094 z m 11.0009,2.89491 0.26252,0.84336 0.26252,0.84336 0.8604,0.0212 0.8599,0.0212 -0.64596,0.47077 c -0.39603,0.28864 -0.64481,0.52142 -0.64182,0.60154 0.002,0.0718 0.10051,0.43502 0.21756,0.80719 0.11708,0.37211 0.20172,0.68857 0.18862,0.70278 -0.0188,0.0203 -0.83648,-0.55382 -1.28002,-0.89866 -0.0482,-0.0375 -0.34484,0.1306 -0.74724,0.42376 v 5e-4 c -0.36716,0.26747 -0.67823,0.48628 -0.69093,0.48628 -0.0478,0 -0.0154,-0.13184 0.20259,-0.82732 0.12311,-0.39286 0.22402,-0.73637 0.22479,-0.76327 4.5e-4,-0.0269 -0.30777,-0.2711 -0.68472,-0.54261 l -0.68524,-0.4935 0.88937,-0.0212 0.88934,-0.0212 0.25943,-0.82732 z m 18.24228,0.11266 c 0.0256,0 0.15034,0.34666 0.27699,0.7705 l 0.22998,0.77049 0.88985,0.0212 0.88987,0.0217 -0.66043,0.48059 c -0.36319,0.26455 -0.67442,0.49511 -0.69143,0.5121 -0.017,0.017 0.0716,0.36441 0.1969,0.77155 0.12533,0.40711 0.21894,0.76523 0.20772,0.79632 -0.0112,0.0311 -0.31908,-0.15897 -0.68365,-0.4227 l -0.66252,-0.47956 -0.66196,0.48369 c -0.36407,0.26619 -0.67998,0.48421 -0.70228,0.48421 -0.0223,0 0.0727,-0.36137 0.21135,-0.80306 0.23397,-0.74528 0.24272,-0.80989 0.12453,-0.9002 -0.07,-0.0535 -0.37441,-0.2759 -0.67643,-0.49403 l -0.5488,-0.39637 0.86712,-0.0212 0.86715,-0.0212 0.23976,-0.78703 c 0.13192,-0.43288 0.2607,-0.78703 0.28628,-0.78703 z" />
    <path
       style="fill:#d3d3d3;fill-opacity:1;stroke-width:0.0751837"
       d="m 104.26034,61.94789 v -4.02233 h 7.21764 7.21764 v 4.02233 4.02233 h -7.21764 -7.21764 z"
       id="path157531" />
    <path
       style="fill:#d3d3d3;fill-opacity:1;stroke-width:0.0751837"
       d="m 248.90472,105.18238 c -0.044,-0.16329 -0.0684,-0.5974 -0.0542,-0.9647 0.0204,-0.53059 0.0529,-0.68767 0.15792,-0.76444 0.0875,-0.0639 0.51988,-0.10992 1.27813,-0.13593 1.17666,-0.0404 1.65289,-0.14117 1.96079,-0.41506 0.34753,-0.30917 0.35047,-0.35162 0.35047,-5.06761 v -4.45413 l -0.61544,-0.9803 c -1.90103,-3.028 -6.13252,-9.15776 -7.74333,-11.21705 -0.69507,-0.88859 -0.96904,-1.09953 -1.75033,-1.34763 -0.93393,-0.29658 -0.89466,-0.43912 -0.44077,1.59981 0.21814,0.97992 0.45525,2.12818 0.5269,2.55169 0.16483,0.97427 0.14756,0.99966 -0.84263,1.23837 -0.60182,0.14509 -0.72011,0.15447 -0.82715,0.0656 -0.0687,-0.057 -0.3252,-0.50321 -0.57,-0.99156 -0.88369,-1.76286 -1.76567,-3.11207 -2.45719,-3.75891 -0.33651,-0.31477 -0.41255,-0.34861 -1.03544,-0.46085 -1.28964,-0.2324 -3.24056,-0.39387 -5.33365,-0.44144 l -0.97739,-0.0222 -0.0219,10.90164 c -0.0229,11.38975 -0.0194,11.53107 0.29893,12.05002 0.27525,0.44873 0.45789,0.49407 2.12885,0.52851 0.85523,0.0176 1.54421,0.0639 1.59766,0.10726 0.0655,0.0532 0.094,0.34334 0.094,0.95762 0,0.75681 -0.0193,0.89884 -0.13685,1.00518 -0.12357,0.11184 -0.35124,0.11843 -2.34949,0.068 -2.82447,-0.0712 -5.36199,-0.0707 -8.32025,0.002 -2.86469,0.0701 -2.6513,0.15378 -2.6513,-1.03979 0,-0.43691 0.035,-0.85982 0.0778,-0.9398 0.0725,-0.13547 0.17004,-0.14543 1.42479,-0.14543 0.74083,0 1.52046,-0.0372 1.73251,-0.0827 0.46574,-0.0999 0.85499,-0.41783 0.98175,-0.80189 0.14429,-0.4372 0.19274,-3.52586 0.20756,-13.23117 l 0.0137,-8.96566 h -1.33565 c -1.96083,7.5e-4 -4.43403,0.20936 -5.35881,0.45265 -0.33058,0.087 -1.18339,0.85646 -1.81241,1.63535 -0.6112,0.75682 -1.25523,1.75247 -1.72809,2.67158 -0.20871,0.40565 -0.43271,0.75799 -0.49779,0.78296 -0.16939,0.065 -1.57624,-0.41125 -1.6302,-0.55187 -0.0931,-0.24263 -0.0333,-0.54798 0.30027,-1.53253 0.18912,-0.55824 0.66031,-2.11454 1.04707,-3.45845 l 0.7032,-2.44347 0.43729,0.002 c 0.24051,0.001 1.11394,0.0463 1.94096,0.10049 3.29785,0.21616 9.41188,0.25997 17.81854,0.12767 1.44729,-0.0228 5.6087,-0.0602 9.2476,-0.0832 3.63889,-0.023 6.70944,-0.044 6.82346,-0.0467 0.38559,-0.009 0.43176,0.10071 0.43176,1.02756 0,0.5861 -0.0289,0.86968 -0.094,0.92259 -0.0517,0.042 -0.47275,0.0889 -0.9357,0.10423 -0.70825,0.0234 -0.87515,0.0527 -1.05257,0.18461 -0.2941,0.21863 -0.31665,0.55772 -0.0626,0.94162 0.10804,0.16326 1.22107,1.94474 2.4734,3.95883 3.52648,5.67161 3.89516,6.23251 3.98992,6.07011 0.19559,-0.33518 2.65123,-3.99269 4.28347,-6.37992 0.98469,-1.44018 1.89041,-2.8125 2.01269,-3.04961 0.38857,-0.75341 0.35899,-1.37897 -0.0752,-1.59082 -0.11505,-0.0561 -0.57304,-0.11213 -1.06629,-0.13037 -0.47553,-0.0176 -0.9069,-0.0664 -0.95859,-0.10852 -0.1245,-0.1014 -0.13294,-1.82959 -0.009,-1.90599 0.0466,-0.0288 0.68093,-0.0396 1.40969,-0.024 1.68001,0.036 5.67676,0.0379 6.99007,0.003 0.68745,-0.0181 1.03091,8.3e-4 1.09016,0.06 0.0519,0.0518 0.0967,0.43296 0.11192,0.95294 0.0338,1.1533 0.0313,1.15621 -1.00418,1.15621 -1.78268,0 -2.17287,0.22657 -3.69025,2.14274 -1.54195,1.94721 -5.35896,7.19564 -7.19846,9.89798 l -0.80097,1.17667 7.5e-4,3.78546 c 9.1e-4,5.47275 0.0692,5.9837 0.85181,6.37167 0.31844,0.15787 0.49911,0.18494 1.45024,0.21722 0.98107,0.0333 1.09414,0.0512 1.16534,0.18423 0.0897,0.16751 0.0619,1.66531 -0.0326,1.75952 -0.0333,0.0332 -2.71552,0.0613 -5.96047,0.0625 l -5.89992,0.002 -0.0799,-0.29689 z"
       id="path157529" />
    <path
       style="fill:#d3d3d3;fill-opacity:1;stroke-width:0.0751837"
       d="m 199.49187,105.70543 c -0.065,-0.065 -0.13999,-0.23427 -0.1666,-0.3761 -0.0773,-0.41191 -0.008,-1.52174 0.10244,-1.63196 0.0709,-0.071 0.52249,-0.10871 1.65404,-0.13803 1.69095,-0.0438 1.95366,-0.0999 2.25372,-0.48141 0.34504,-0.43864 0.34974,-0.5628 0.35262,-9.32733 0.003,-9.31151 -0.0555,-12.72083 -0.2242,-13.04703 -0.13275,-0.25669 -0.4708,-0.46925 -1.01361,-0.63734 -0.3047,-0.0944 -0.79931,-0.13812 -1.8796,-0.16629 -0.80827,-0.0211 -1.50825,-0.0722 -1.56006,-0.11388 -0.13508,-0.10871 -0.1302,-1.78335 0.006,-1.96926 0.0922,-0.12607 0.22421,-0.13426 1.74803,-0.10835 2.15208,0.0366 8.18865,0.036 9.9361,-9.8e-4 1.06209,-0.0225 1.39795,-0.007 1.49099,0.0707 0.10003,0.083 0.11594,0.24231 0.0952,0.95287 -0.0179,0.61463 -0.0534,0.87076 -0.12667,0.91597 -0.056,0.0345 -0.65112,0.0778 -1.32256,0.0962 -1.10529,0.0302 -1.25536,0.0507 -1.58597,0.2163 -0.20084,0.10059 -0.43458,0.2784 -0.51944,0.39512 -0.151,0.20772 -0.15471,0.30927 -0.17476,4.79296 -0.018,4.02262 -0.007,4.58074 0.0918,4.58074 0.0985,0 0.11489,0.74062 0.13327,6.0335 l 0.0209,6.03349 0.17093,0.42259 c 0.20684,0.51139 0.60164,0.93531 1.06434,1.14287 0.27071,0.12144 0.56694,0.16377 1.39665,0.19958 0.57918,0.025 1.09513,0.0715 1.14655,0.10324 0.0663,0.041 0.0935,0.32621 0.0935,0.98148 0,1.26735 0.11104,1.19576 -1.73919,1.12125 -1.90121,-0.0766 -8.05073,-0.0778 -9.88709,-0.002 -1.26058,0.052 -1.45354,0.0448 -1.55711,-0.0588 z"
       id="path157527" />
    <path
       id="path157523"
       style="fill:#d3d3d3;fill-opacity:1;stroke-width:0.0751837"
       d="m 153.01854,77.68897 c -0.39362,-1.4e-4 -0.63913,0.016 -0.7152,0.0475 -0.18695,0.0774 -0.18809,0.085 -0.18809,1.0382 0,0.77171 0.022,0.97372 0.11264,1.03092 0.062,0.0391 0.40169,0.0716 0.75448,0.0724 1.17602,0.002 1.8179,0.28442 2.14096,0.94101 l 0.18499,0.37621 -0.0553,10.67583 c -0.0551,10.61898 -0.056,10.67748 -0.21186,10.97659 -0.10054,0.19299 -0.2758,0.3679 -0.48887,0.48731 -0.29805,0.16711 -0.44352,0.19002 -1.42213,0.22582 -0.5996,0.022 -1.13221,0.0671 -1.18391,0.10025 -0.13345,0.0856 -0.13107,1.70238 0.003,1.88516 0.0913,0.12491 0.23487,0.12819 2.34971,0.061 2.2294,-0.0709 3.67151,-0.0646 7.26003,0.03 l 1.85002,0.0486 0.12351,-0.17621 c 0.17928,-0.2562 0.17904,-1.65733 -5.3e-4,-1.80663 -0.0892,-0.0741 -0.46538,-0.11356 -1.3348,-0.14055 -1.46547,-0.0455 -1.666,-0.12848 -1.99059,-0.82063 l -0.19688,-0.42013 -0.0222,-4.15169 -0.0217,-4.15168 0.20982,-0.0584 c 0.11536,-0.0322 0.66648,-0.0583 1.22473,-0.0563 1.51831,0.004 2.14278,0.23204 3.07163,1.11985 0.79412,0.75903 1.48137,1.79599 3.31816,5.00536 1.66934,2.91684 2.79339,4.65577 3.48401,5.39141 h 5.3e-4 c 0.36549,0.38931 0.37055,0.39164 0.71675,0.34055 0.50605,-0.0746 5.57848,-0.0672 6.29314,0.009 0.8494,0.0909 0.8594,0.0773 0.8594,-1.12035 0,-0.81116 -0.0167,-0.94075 -0.13126,-1.00047 -0.0724,-0.0378 -0.48721,-0.0848 -0.92141,-0.10491 -1.23603,-0.0573 -1.81946,-0.36335 -3.04478,-1.59678 -0.90887,-0.91493 -1.5367,-1.71834 -3.38066,-4.3248 -2.21406,-3.12963 -2.80368,-3.80143 -3.71088,-4.23024 -0.26144,-0.12356 -0.44741,-0.24786 -0.41341,-0.27646 0.034,-0.0286 0.31567,-0.14785 0.62579,-0.26459 2.30537,-0.86778 4.32546,-2.26531 5.2529,-3.63389 0.93631,-1.3816 1.41304,-3.1332 1.31054,-4.8147 -0.0702,-1.15192 -0.80815,-2.73833 -1.7906,-3.84988 -1.27084,-1.43785 -3.40505,-2.39686 -6.09057,-2.73626 -1.12917,-0.14275 -1.61473,-0.14928 -7.10293,-0.10078 -2.46038,0.0216 -5.09926,0.0173 -5.86425,-0.009 -0.33769,-0.0117 -0.62733,-0.0175 -0.86352,-0.0176 z m 8.53281,2.08568 c 0.16338,-0.003 0.36904,-0.002 0.63667,5e-4 1.78625,0.0136 3.11049,0.31742 4.60282,1.0573 0.89443,0.44344 1.46643,0.91099 1.91564,1.56528 1.16062,1.6905 1.28201,3.85379 0.32454,5.78932 -1.00941,2.04049 -2.99397,3.31454 -5.6741,3.64318 v 5.3e-4 c -0.65955,0.0808 -2.10986,0.0851 -2.89697,0.009 l -0.45112,-0.0439 v -5.56348 c 0,-5.45608 0.003,-5.56858 0.15296,-5.82342 0.093,-0.15825 0.29829,-0.33465 0.52501,-0.45112 0.26472,-0.13626 0.37449,-0.17528 0.86455,-0.18293 z" />
    <path
       style="fill:#d3d3d3;fill-opacity:1;stroke-width:0.0751837"
       d="m 83.93,105.65418 c -0.092,-0.13138 -0.11936,-0.36208 -0.11848,-0.99987 7.5e-4,-0.45599 0.0332,-0.87984 0.0723,-0.94186 0.0583,-0.0924 0.3607,-0.11982 1.67169,-0.15172 1.47137,-0.0358 1.62618,-0.0525 1.9185,-0.2075 0.43861,-0.23249 0.56083,-0.50773 0.62504,-1.4076 0.0618,-0.86553 0.0621,-15.79345 7.5e-4,-18.9598 -0.0389,-1.99582 -0.0504,-2.13094 -0.19829,-2.3307 -0.40115,-0.5417 -1.30977,-0.76921 -3.08852,-0.7733 -0.62722,-10e-4 -1.19391,-0.0231 -1.25932,-0.0483 -0.10028,-0.0385 -0.11893,-0.20394 -0.11893,-1.05499 0,-0.97774 0.005,-1.01136 0.16916,-1.07311 0.093,-0.0351 0.23683,-0.0503 0.31954,-0.0338 0.27118,0.054 9.6657,0.0854 11.06884,0.0369 0.75357,-0.026 1.44714,-0.0289 1.54126,-0.006 0.16453,0.0393 0.17195,0.0752 0.19238,0.92914 0.0129,0.54069 -0.01,0.92541 -0.0575,0.98318 -0.0547,0.066 -0.45111,0.10727 -1.29938,0.13544 -0.67134,0.0223 -1.35327,0.0806 -1.51542,0.1296 -0.3793,0.11459 -0.6844,0.42249 -0.78784,0.79506 -0.0547,0.19694 -0.082,1.74867 -0.0823,4.67426 -7.5e-4,4.31266 0.002,4.37945 0.14824,4.37945 0.1467,0 0.14893,0.0805 0.16916,6.10868 l 0.0205,6.10868 0.17964,0.39755 c 0.10183,0.22534 0.32002,0.5211 0.50371,0.68281 0.45874,0.40379 0.93115,0.53609 1.91423,0.53609 0.44742,0 0.90027,0.033 1.00634,0.0733 l 0.19286,0.0733 v 0.97661 c 0,0.9045 -0.0113,0.98264 -0.15264,1.05829 -0.10579,0.0566 -0.58458,0.0637 -1.56006,0.023 -1.82891,-0.0763 -8.15195,-0.0768 -9.95272,-8.3e-4 l -1.40286,0.0592 -0.11962,-0.17078 z"
       id="path157521" />
    <path
       style="fill:#d3d3d3;fill-opacity:1;stroke-width:0.0751837"
       d="m 110.74902,106.05092 c -0.13214,-0.083 -0.29089,-0.2287 -0.35278,-0.32372 -0.0619,-0.095 -0.52174,-1.31632 -1.0219,-2.71401 -0.50016,-1.3977 -1.55582,-4.30731 -2.34592,-6.4658 -0.79009,-2.1585 -1.66458,-4.60119 -1.9433,-5.42822 -1.06515,-3.16046 -3.27138,-9.2172 -3.58325,-9.83705 -0.25479,-0.50638 -0.71789,-0.98501 -1.17209,-1.21134 -0.30469,-0.15183 -0.49643,-0.19157 -0.92434,-0.19157 -0.36911,0 -0.56734,-0.0331 -0.62661,-0.10447 -0.0581,-0.0701 -0.0797,-0.42182 -0.0656,-1.06808 0.0204,-0.93236 0.0267,-0.96496 0.19217,-1.0045 0.0941,-0.0225 0.77073,-0.0197 1.50367,0.006 0.73294,0.0259 3.12574,0.0309 5.31735,0.0111 2.1916,-0.0198 4.0768,-0.0365 4.18934,-0.0372 0.42709,-0.003 0.43445,0.014 0.43445,0.97481 0,1.26659 0.0761,1.20329 -1.48469,1.23465 -1.44325,0.029 -1.74379,0.11608 -1.95916,0.56771 -0.2297,0.48169 -0.005,1.36402 1.44989,5.69751 0.72199,2.15025 1.94398,5.90568 2.71553,8.34539 0.77155,2.43971 1.438,4.5458 1.48099,4.68019 0.043,0.13439 0.1148,0.24433 0.15955,0.24431 0.0448,-3e-5 0.17752,-0.27915 0.29504,-0.62027 0.11752,-0.34112 0.89078,-2.36261 1.71837,-4.49219 0.82758,-2.12958 1.92141,-5.05611 2.43073,-6.50339 0.50932,-1.44729 1.25078,-3.53693 1.64768,-4.64364 0.94878,-2.64554 0.98738,-2.93878 0.41692,-3.16703 -0.20313,-0.0813 -0.53474,-0.12121 -1.00646,-0.12121 -0.5603,0 -0.72435,-0.0251 -0.80585,-0.1233 -0.13171,-0.1587 -0.14134,-1.86185 -0.0113,-1.99193 0.0604,-0.0604 0.48481,-0.0773 1.4251,-0.0568 0.73651,0.0161 7.5724,0.0293 15.19087,0.0293 12.24217,0 13.85711,0.0131 13.89767,0.11277 0.0252,0.062 0.14136,0.48494 0.25803,0.9398 0.18734,0.73042 1.42039,4.7656 1.80849,5.91835 0.0796,0.23646 0.14475,0.46188 0.14475,0.50091 0,0.0964 -0.96752,0.46005 -1.22383,0.46005 -0.12137,0 -0.26344,-0.0693 -0.34665,-0.16916 -1.1689,-1.40243 -3.03489,-3.50383 -3.96323,-4.46322 -0.47299,-0.4888 -1.06959,-0.83854 -1.76304,-1.03355 -0.29544,-0.0831 -0.94384,-0.12697 -2.32677,-0.15752 -1.05445,-0.0233 -2.60229,-0.0621 -3.43965,-0.0863 l -1.52247,-0.0439 v 5.27356 5.27358 l 0.95859,-0.0449 c 3.45114,-0.16168 3.83745,-0.22166 4.60664,-0.71524 0.74966,-0.48107 1.04721,-1.1081 1.16794,-2.46123 l 0.0486,-0.54508 h 0.81324 c 0.44728,0 0.86238,0.0189 0.92245,0.0419 0.0936,0.0359 0.10398,0.42489 0.0726,2.72541 -0.0284,2.08498 -0.01,3.0029 0.0849,4.11553 0.15185,1.78981 0.15391,2.11067 0.014,2.16438 -0.0592,0.0227 -0.4795,0.0648 -0.93411,0.0936 l -0.82658,0.0523 -0.085,-0.32988 c -0.37745,-1.4646 -0.77755,-2.10337 -1.56855,-2.50419 -0.7012,-0.35533 -2.30431,-0.58698 -4.14688,-0.59922 l -1.24046,-0.008 0.004,1.27812 c 0.01,3.04462 0.12209,7.63287 0.19807,8.08225 0.20349,1.20362 0.74639,1.78782 1.9389,2.08648 0.5857,0.14668 3.48216,0.20949 4.65961,0.10103 1.71155,-0.15765 2.6297,-0.4858 3.85093,-1.37635 0.66805,-0.48716 1.74704,-1.78014 3.14775,-3.77204 0.81987,-1.16593 0.86795,-1.1879 1.69837,-0.77606 0.38407,0.19049 0.63337,0.36191 0.65684,0.45168 0.0376,0.14381 -2.07078,6.48567 -2.30999,6.94825 -0.0688,0.13316 -0.19672,0.28038 -0.28413,0.32716 -0.11442,0.0612 -0.90912,0.0723 -2.83741,0.0395 -5.11217,-0.087 -14.42036,-0.1027 -16.88337,-0.0284 -2.37251,0.0715 -2.48059,0.0688 -2.57987,-0.0649 -0.12237,-0.16479 -0.10633,-1.84963 0.0188,-1.97399 0.0414,-0.0411 0.48118,-0.0816 0.97739,-0.0899 1.23479,-0.0208 2.15021,-0.1129 2.47639,-0.24919 0.54911,-0.22943 0.51813,0.46219 0.46331,-10.34456 -0.0598,-11.78655 -0.0673,-12.04003 -0.37058,-12.4955 -0.36163,-0.54312 -1.20043,-0.69399 -3.57895,-0.64374 -1.31851,0.0278 -1.61891,0.0564 -2.0383,0.19353 -0.63386,0.20731 -1.1508,0.55282 -1.47431,0.98542 -0.64577,0.86349 -2.31684,4.52139 -4.48506,9.81755 -2.1697,5.29979 -5.26633,12.5628 -6.0287,14.14005 -0.53194,1.10053 -0.67666,1.24663 -1.27867,1.29092 -0.28143,0.0207 -0.4363,-0.0103 -0.61618,-0.12331 z"
       id="path157519" />
    <path
       style="fill:#d3d3d3;fill-opacity:1;stroke-width:0.0751837"
       d="m 188.35333,106.26113 c -1.91761,-0.20004 -3.65881,-0.83381 -4.93585,-1.79657 -0.61534,-0.46391 -0.90376,-0.54241 -1.06631,-0.29021 -0.0628,0.0974 -0.13749,0.30463 -0.16596,0.46042 -0.0715,0.39108 -0.35639,0.60789 -0.73285,0.55769 -0.37696,-0.0503 -0.64077,-0.23185 -0.70431,-0.48478 -0.0284,-0.11319 0.0758,-1.60233 0.23157,-3.30921 0.15579,-1.70687 0.30143,-3.44925 0.32363,-3.87196 0.0574,-1.09428 0.028,-1.06303 0.94376,-0.99996 0.73019,0.0503 1.00738,0.12403 1.12425,0.29905 0.0304,0.0455 0.0557,0.2912 0.0564,0.546 0.002,0.97588 0.30318,2.0503 0.92262,3.29591 0.61731,1.24133 1.21134,1.96931 2.10938,2.58501 1.19039,0.81615 2.90001,1.1705 4.22504,0.87571 1.90898,-0.42471 3.4787,-1.71786 3.86978,-3.18796 0.0481,-0.18078 0.0855,-0.65552 0.0832,-1.05497 -0.0112,-1.92023 -0.874,-3.45576 -2.58455,-4.59993 -0.8535,-0.5709 -1.77242,-1.0132 -3.73736,-1.79891 -4.39452,-1.75719 -6.15473,-3.11922 -7.00003,-5.41655 -0.37938,-1.03107 -0.52152,-1.8484 -0.56804,-3.26617 -0.0459,-1.39938 0.0164,-1.83886 0.39837,-2.80837 0.45075,-1.14416 1.49859,-2.56778 2.35288,-3.19667 0.86442,-0.63635 2.05757,-1.16003 3.28877,-1.44345 0.33044,-0.0761 1.06169,-0.13274 2.05433,-0.1592 2.22131,-0.0592 3.51574,0.15173 4.75349,0.77466 0.27809,0.13995 0.57241,0.25446 0.65403,0.25446 0.084,0 0.23961,-0.12234 0.35858,-0.28194 0.28779,-0.38609 0.30067,-0.39227 0.82207,-0.39357 0.31621,-8.2e-4 0.48966,0.0338 0.55306,0.11015 0.0508,0.0612 0.10695,0.39109 0.12476,0.73305 0.0526,1.0104 0.17575,2.32529 0.37139,3.96666 0.22618,1.89752 0.28488,2.71757 0.20294,2.83502 -0.0802,0.1149 -1.40195,0.41223 -1.56109,0.35117 -0.13362,-0.0513 -0.20491,-0.20565 -0.68114,-1.47513 -0.82291,-2.19361 -1.69063,-3.43397 -2.8941,-4.13698 -1.13165,-0.66103 -2.76964,-0.88559 -4.13248,-0.56653 -1.0533,0.2466 -2.12138,1.05756 -2.60546,1.97824 -0.49996,0.95087 -0.58782,1.68048 -0.32675,2.71336 0.358,1.41648 1.07722,2.3524 2.40593,3.13088 0.64085,0.37547 1.98753,0.99765 2.48106,1.14629 0.62048,0.18686 3.32777,1.24836 4.03849,1.58345 2.01553,0.95028 3.18221,1.99627 3.93766,3.53032 0.90782,1.84344 1.08147,5.01951 0.39423,7.21021 -0.69772,2.22406 -1.99485,3.77507 -3.97213,4.74958 -1.56917,0.77337 -3.40118,1.06163 -5.41323,0.85173 z"
       id="path157517" />
    <path
       style="fill:#d3d3d3;fill-opacity:1;stroke-width:0.0751837"
       d="m 29.56069,109.87811 c -1.15385,-0.0968 -2.45922,-0.28806 -3.41032,-0.49959 -2.33563,-0.51946 -4.4854,-1.64228 -5.94784,-3.10653 -1.801,-1.80322 -2.77491,-4.12139 -3.22316,-7.67204 C 16.61042,95.67748 16.54662,93.33121 16.5306,82.09713 16.5166,72.3076 16.5185,72.3525 16.1076,71.75961 16.003,71.60866 15.77409,71.40306 15.59891,71.30273 15.2911,71.12642 15.22368,71.11964 13.58878,71.10042 c -1.83303,-0.0216 -1.96047,-0.0341 -2.13748,-0.21115 -0.15831,-0.15831 -0.17213,-1.80898 -0.0169,-2.02124 0.094,-0.12861 0.2162,-0.13619 1.74802,-0.10835 2.15905,0.0392 10.81557,0.0385 12.91654,-0.001 1.53629,-0.029 1.6529,-0.0217 1.74802,0.10836 0.15557,0.21275 0.14243,1.78859 -0.0162,1.94726 -0.10083,0.10084 -0.38445,0.11827 -1.93598,0.11904 -2.2769,0.001 -2.66006,0.0843 -3.31318,0.71964 -0.4417,0.42964 -0.66895,0.9923 -0.72625,1.79812 -0.0782,1.0996 -0.1091,3.60158 -0.1091,8.83409 0,4.41928 0.0246,6.23576 0.14993,11.0896 0.0203,0.78567 0.0547,2.13359 0.0765,2.99538 0.0616,2.43834 0.32383,4.04039 0.91276,5.57556 1.15582,3.01284 3.51446,4.90226 7.04743,5.64546 1.12117,0.23585 3.33758,0.32823 4.52379,0.18855 3.5236,-0.4149 6.30107,-1.89315 7.79876,-4.15072 0.78495,-1.18321 1.33497,-2.5802 1.66917,-4.23954 0.37395,-1.85672 0.37682,-1.94628 0.37682,-11.76625 0,-14.40452 -0.0249,-14.82487 -0.93482,-15.81207 -0.17004,-0.18447 -0.48601,-0.41535 -0.70215,-0.51307 -0.36692,-0.1659 -0.50855,-0.18018 -2.13494,-0.21528 -0.95807,-0.0207 -1.77005,-0.0657 -1.80441,-0.10002 -0.0883,-0.0882 -0.11886,-2.02046 -0.034,-2.14844 0.0576,-0.0869 0.34924,-0.10028 1.63728,-0.0752 1.94993,0.038 9.25017,0.0401 10.94699,0.003 0.92532,-0.0202 1.28977,-0.003 1.37211,0.0656 0.14531,0.1206 0.16434,1.87192 0.0219,2.01438 -0.0642,0.0642 -0.5266,0.0902 -1.60281,0.0902 -1.67075,0 -2.04659,0.0643 -2.56349,0.43877 -0.37004,0.26805 -0.74053,0.94816 -0.84633,1.5536 -0.0504,0.28833 -0.0923,3.598 -0.1161,9.17241 -0.0205,4.79672 -0.0544,8.80104 -0.0754,8.89847 -0.021,0.0975 -0.0449,0.82485 -0.0531,1.61645 -0.0535,5.14513 -0.64879,8.09346 -2.17431,10.76964 -1.14156,2.00261 -3.11843,3.83834 -5.29705,4.91889 -1.56741,0.77741 -2.96085,1.19189 -4.92453,1.46483 -1.01126,0.14056 -4.31115,0.20873 -5.45545,0.1127 z"
       id="path157515" />
    <path
       id="path157511"
       style="fill:#d3d3d3;fill-opacity:1;stroke-width:0.0751837"
       d="m 48.54895,108.80595 c -2.91618,0.0121 -5.68314,2.18228 -7.45382,5.84562 -0.52535,1.08699 -0.97274,2.41814 -1.2025,3.5786 -0.23334,1.17872 -0.23633,2.91812 -0.006,3.76256 0.29242,1.07299 0.9298,2.08963 1.64952,2.63136 0.44728,0.33668 0.62719,0.43127 1.14877,0.60463 0.50837,0.16896 1.89039,0.14578 2.59416,-0.0434 0.62547,-0.16815 1.85647,-0.79288 2.45202,-1.24436 1.97639,-1.49826 3.7592,-4.43516 4.56613,-7.52256 0.34443,-1.31776 0.42307,-1.89431 0.41807,-3.08247 -0.004,-0.9719 -0.0261,-1.15613 -0.20463,-1.6976 -0.60836,-1.84449 -2.00163,-2.84038 -3.96153,-2.83236 z m 0.53332,1.6805 c 1.16123,-0.007 1.96395,0.76761 1.95646,2.20453 -0.005,1.04953 -0.44709,2.43213 -1.39475,4.36666 -1.5812,3.22781 -3.64969,5.54125 -5.52627,6.18101 -0.56404,0.19222 -1.41145,0.22477 -1.77096,0.0677 -0.95528,-0.41732 -1.26945,-1.39014 -0.97875,-3.03133 0.54007,-3.04914 2.95172,-7.15465 5.15781,-8.78033 0.92057,-0.67836 1.81206,-1.00377 2.55646,-1.00822 z" />
    <path
       style="fill:#d3d3d3;fill-opacity:1;stroke-width:0.0751837"
       d="m 206.66259,142.07929 c -0.33753,-0.17363 -0.67137,-0.4217 -0.89122,-0.66225 -0.52046,-0.56946 -2.77688,-3.2541 -5.27644,-6.27777 -1.21351,-1.46796 -3.05467,-3.66343 -4.09146,-4.87881 -2.75398,-3.22837 -2.83391,-3.32635 -5.18911,-6.36115 -3.13971,-4.04568 -3.89818,-4.99972 -3.97475,-4.99972 -0.0923,0 -0.0133,13.4166 0.091,15.45025 0.16932,3.30138 0.25363,3.97984 0.57465,4.6238 0.33059,0.66322 0.68516,0.82702 1.79017,0.82702 0.75284,0 0.78426,0.007 0.81384,0.16917 0.0636,0.34947 0.0151,1.86254 -0.0622,1.93978 -0.0553,0.0553 -0.66017,0.0586 -1.98886,0.0108 -1.05016,-0.0378 -2.73827,-0.0481 -3.75137,-0.0228 -1.0131,0.0252 -2.18033,0.0459 -2.59384,0.0459 h -0.75176 l -0.0211,-0.9715 c -0.0158,-0.72673 0.003,-0.98691 0.0752,-1.03263 0.053,-0.0336 0.53615,-0.0624 1.07371,-0.0639 1.10276,-0.003 1.39642,-0.0896 1.81939,-0.5354 0.4695,-0.49486 0.50225,-0.65932 0.552,-2.77219 0.0248,-1.05445 0.0427,-5.53728 0.0398,-9.96184 l -0.005,-8.04466 -0.20555,-0.43876 c -0.55587,-1.18654 -1.35401,-1.68055 -2.86757,-1.77488 -1.03167,-0.0643 -1.02439,-0.0563 -1.02439,-1.12967 0,-0.62017 0.0276,-0.83531 0.12491,-0.97426 l 0.12491,-0.17833 1.35997,0.0635 c 1.54642,0.0722 3.14074,0.0819 5.15674,0.0314 1.13859,-0.0285 1.43103,-0.0144 1.61209,0.0779 0.12866,0.0656 0.72437,0.75751 1.42405,1.65404 0.66157,0.8477 3.08257,3.89599 5.38,6.77399 2.29742,2.87798 5.06243,6.34583 6.14446,7.70633 2.88444,3.62676 3.46622,4.31561 3.64476,4.31561 0.15287,0 0.15301,-0.007 0.11701,-5.43202 -0.0365,-5.50148 -0.10932,-7.75039 -0.31709,-9.79268 -0.21599,-2.12311 -0.33341,-2.39754 -1.21061,-2.82938 -0.48228,-0.23743 -0.55776,-0.2514 -1.56463,-0.2896 -0.58185,-0.0221 -1.1002,-0.0672 -1.15189,-0.10026 -0.0669,-0.0428 -0.094,-0.3291 -0.094,-0.99406 0,-0.90607 0.005,-0.93516 0.16917,-0.97551 0.093,-0.0229 1.11648,-0.0108 2.2743,0.0268 2.07929,0.0676 3.55335,0.0607 5.82674,-0.0271 0.74419,-0.0287 1.20611,-0.0173 1.27813,0.0317 0.0865,0.0588 0.11862,0.27742 0.13787,0.93739 0.0336,1.15158 0.0192,1.1749 -0.72319,1.17563 -0.77637,7.5e-4 -1.51538,0.1243 -1.74538,0.29179 -0.55307,0.40273 -0.6103,0.93954 -0.64896,6.0861 -0.0304,4.04847 -0.0293,4.08573 0.12117,4.12508 0.15105,0.0395 0.15187,0.0788 0.15145,7.30497 0,4.74751 -0.0272,7.36178 -0.0778,7.54378 -0.18015,0.64862 -0.77238,0.7594 -1.649,0.30847 z"
       id="path157509" />
    <path
       style="fill:#d3d3d3;fill-opacity:1;stroke-width:0.0751837"
       d="m 165.78931,142.17099 c -0.1379,-0.19688 -0.14582,-1.68627 -0.01,-1.86087 0.0794,-0.10195 0.32765,-0.1249 1.59765,-0.14763 1.42194,-0.0255 1.5239,-0.0371 1.87569,-0.21319 0.54651,-0.27363 0.64054,-0.44601 0.71962,-1.31919 0.0929,-1.0254 0.12532,-12.598 0.0485,-17.28448 -0.0693,-4.22893 -0.0533,-4.10168 -0.55954,-4.43583 -0.44348,-0.29273 -1.19083,-0.4242 -2.72331,-0.47909 l -1.3909,-0.0498 -0.0211,-0.9669 c -0.0151,-0.69111 0.006,-0.99927 0.0731,-1.08039 0.0815,-0.0983 0.3621,-0.10704 2.08866,-0.0655 3.87974,0.0934 6.23191,0.10194 8.55896,0.0311 1.80175,-0.0548 2.37957,-0.0506 2.46227,0.018 0.0823,0.0683 0.10778,0.2895 0.10691,0.92629 -7.5e-4,0.46014 -0.0332,0.88736 -0.0724,0.94939 -0.0572,0.0905 -0.32751,0.12039 -1.37095,0.15142 -1.09677,0.0326 -1.34597,0.062 -1.59564,0.18796 -0.3561,0.1797 -0.55524,0.43566 -0.64711,0.83178 -0.0376,0.1622 -0.0692,2.23184 -0.0702,4.59919 -0.002,4.2386 7.5e-4,4.30426 0.14689,4.30426 0.14678,0 0.14896,0.0805 0.16917,6.25905 l 0.0205,6.25904 0.22555,0.40772 c 0.42969,0.77672 1.03729,1.04086 2.57934,1.12134 l 0.95429,0.0498 0.0213,0.89595 c 0.0127,0.53608 -0.009,0.92663 -0.0551,0.97234 -0.0505,0.0505 -2.27409,0.0781 -6.55238,0.0814 -6.36362,0.005 -6.4778,0.002 -6.57987,-0.14325 z"
       id="path157507" />
    <path
       id="path157503"
       style="fill:#d3d3d3;fill-opacity:1;stroke-width:0.0751837"
       d="m 125.71169,114.26089 c -0.65842,-0.001 -1.44894,0.008 -2.43036,0.0248 -4.47238,0.0752 -4.51498,0.0748 -7.3179,0.004 -1.7373,-0.0442 -2.34505,-0.0366 -2.42464,0.0294 -0.08,0.0664 -0.10647,0.29742 -0.10647,0.93792 0,1.0871 -1.6e-4,1.08625 0.93173,1.08625 0.94396,0 1.42261,0.14875 1.82367,0.56533 0.23135,0.24033 0.3333,0.42347 0.39481,0.71004 0.10882,0.50586 0.11565,6.61924 0.008,6.61924 -0.0496,0 -0.0749,2.50074 -0.0749,7.352 v 7.35201 l -0.16899,0.33538 c -0.1294,0.25662 -0.25677,0.37902 -0.54104,0.51986 -0.32507,0.16105 -0.50649,0.18912 -1.45005,0.22532 -0.84087,0.0323 -1.09556,0.0666 -1.15496,0.15451 -0.1029,0.15245 -0.0488,1.85394 0.0625,1.96525 0.0593,0.059 0.50173,0.0761 1.46193,0.0558 1.73254,-0.0364 6.54315,-0.0365 8.50027,0 1.11035,0.0207 1.51323,0.004 1.59782,-0.0661 0.14904,-0.12369 0.16565,-1.74305 0.0191,-1.86396 -0.0523,-0.0432 -0.61032,-0.0885 -1.25937,-0.10284 -1.11164,-0.0245 -1.18136,-0.0353 -1.51513,-0.23151 -0.25183,-0.14804 -0.39966,-0.306 -0.5266,-0.56378 l -0.17622,-0.35811 -0.0212,-4.21992 -0.0212,-4.21936 0.17156,-0.046 c 0.33189,-0.0889 2.194,-0.0484 2.58744,0.0563 1.5022,0.4 2.39726,1.44992 4.82036,5.65238 1.94395,3.3714 2.95625,4.95937 3.6308,5.69732 h -5.3e-4 l 0.35399,0.38759 3.74396,-0.005 c 3.63011,-0.005 3.74613,-0.009 3.80132,-0.15037 0.0987,-0.25209 0.0778,-1.72048 -0.0264,-1.85158 -0.0693,-0.0873 -0.29123,-0.12964 -0.84595,-0.16174 -0.4135,-0.0239 -0.92602,-0.0957 -1.13896,-0.15967 -0.56396,-0.16958 -1.24986,-0.65432 -2.01898,-1.4273 -0.87709,-0.88154 -1.4319,-1.58136 -2.91714,-3.67678 -2.65803,-3.75005 -3.37563,-4.59134 -4.20645,-4.93459 -0.23778,-0.0982 -0.43204,-0.20185 -0.43204,-0.22997 0,-0.028 0.36373,-0.19508 0.80823,-0.37153 3.56465,-1.41512 5.44811,-3.22974 6.165,-5.93918 0.15888,-0.60045 0.19092,-0.89638 0.19793,-1.8433 0.01,-1.28873 -0.0869,-1.7132 -0.63201,-2.77659 -1.12773,-2.1999 -2.84588,-3.44271 -5.72471,-4.13978 -1.18596,-0.28715 -1.97281,-0.38706 -3.94808,-0.39121 z m -1.89238,2.08309 c 1.20187,-8.7e-4 2.40567,0.18217 3.38272,0.5147 0.89826,0.30569 2.09468,0.93524 2.54196,1.33738 0.44114,0.39661 0.96422,1.16094 1.23095,1.79782 1.12921,2.69642 -0.14743,6.02724 -2.87478,7.50033 -0.66087,0.35695 -1.68852,0.68988 -2.56262,0.83042 h -5.3e-4 c -0.71567,0.11515 -2.19432,0.21352 -2.40604,0.16021 -0.062,-0.0156 -0.40868,-0.0502 -0.77049,-0.077 l -0.65784,-0.0486 0.002,-5.50045 c 0.002,-5.28355 0.008,-5.51331 0.14779,-5.82237 0.11848,-0.26104 0.22069,-0.35632 0.54311,-0.50644 0.36076,-0.16793 0.49197,-0.18529 1.4237,-0.18603 z" />
    <path
       id="path157471"
       style="fill:#d3d3d3;fill-opacity:1;stroke-width:0.0751837"
       d="m 72.46842,77.68743 c -0.25209,-0.001 -0.43204,0.004 -0.47903,0.015 -0.166,0.0397 -0.17137,0.0697 -0.18965,1.05264 -0.0104,0.55642 0.014,1.06217 0.0537,1.12398 0.056,0.0872 0.30506,0.12147 1.11569,0.15295 1.00298,0.039 1.06344,0.0507 1.56268,0.30128 0.54888,0.27544 0.7919,0.54568 0.93536,1.04127 0.35213,1.21653 0.55099,5.68479 0.58859,13.22245 l 0.0186,3.77756 -0.17312,-0.004 c -0.13004,-0.003 -0.35226,-0.23241 -0.89347,-0.92138 -1.9391,-2.46856 -5.33744,-6.71264 -6.42286,-8.02174 -1.40846,-1.69871 -5.67841,-7.04525 -7.50602,-9.3984 -0.69046,-0.88903 -1.34752,-1.72934 -1.46037,-1.86759 -0.30512,-0.37377 -0.63812,-0.41227 -2.64843,-0.30747 -1.26454,0.0659 -1.95865,0.0665 -2.74865,0.004 -0.58126,-0.0462 -1.49219,-0.0837 -2.02416,-0.0837 -1.27556,0 -1.24275,-0.03 -1.24077,1.12035 6.1e-4,0.47945 0.0317,0.92049 0.0693,0.97978 0.0493,0.0778 0.30959,0.12232 0.93636,0.16071 0.74282,0.0455 0.93766,0.0861 1.35342,0.28062 0.92316,0.43198 1.51599,1.20634 1.70892,2.23242 0.0616,0.32771 0.0721,2.74378 0.0372,8.83406 -0.0576,10.07502 -0.0738,10.58744 -0.34727,11.13267 -0.0919,0.18309 -0.25619,0.42883 -0.36536,0.54623 -0.37783,0.40637 -0.56383,0.45992 -1.73995,0.50072 l -1.09038,0.0377 -0.0207,1.04026 -0.0212,1.03974 1.82523,-0.0625 c 2.19467,-0.075 2.67605,-0.0742 4.21783,0.005 1.05921,0.0546 1.18343,0.075 1.13842,0.18499 -0.1811,0.44199 -0.63661,1.78504 -0.7493,2.20967 l -0.13488,0.50747 h -1.70479 c -1.6737,0 -1.70765,0.003 -1.86449,0.17002 -0.39143,0.41664 -0.69242,1.64238 -0.45218,1.84174 0.0764,0.0634 0.63524,0.0964 1.87225,0.1106 l 1.76371,0.0202 -2.19522,7.25535 c -2.54852,8.42195 -2.66954,8.80409 -3.31092,10.44744 -1.22171,3.13031 -2.57963,5.18763 -3.79769,5.75469 -0.76518,0.35621 -1.24095,0.18198 -1.41801,-0.51885 -0.28668,-1.13485 -0.89202,-1.70492 -1.81435,-1.70894 -0.58389,-0.003 -1.06482,0.23349 -1.37616,0.67646 -0.19068,0.27138 -0.22971,0.40563 -0.2537,0.88056 -0.0246,0.48696 -0.002,0.61325 0.17052,0.96583 0.76573,1.56509 3.05805,1.92109 5.26894,0.81804 0.75266,-0.37552 1.42848,-0.90093 2.1916,-1.70275 1.13675,-1.19444 1.98961,-2.50571 3.03908,-4.6731 1.4682,-3.03215 2.71058,-6.52388 4.88135,-13.72111 0.4178,-1.38527 0.89556,-2.95216 1.06143,-3.48197 l 0.30128,-0.96324 2.94608,0.0233 c 2.91391,0.0232 2.95061,0.0254 3.34037,0.20153 0.75004,0.33907 1.05735,0.82884 1.84742,2.94246 1.09368,2.92587 3.94182,11.49935 4.48757,13.50925 0.15928,0.58661 0.70165,2.22737 1.20563,3.64628 0.50398,1.41891 2.16284,6.13915 3.68607,10.4893 1.52323,4.35015 2.82202,8.01084 2.88613,8.13491 0.0641,0.12403 0.17566,0.26019 0.24805,0.30228 0.42799,0.24929 0.87428,-0.19478 1.36218,-1.35599 0.74729,-1.77845 4.29842,-10.53361 6.24821,-15.40422 5.07976,-12.68939 7.44188,-18.21829 8.48011,-19.84838 0.86421,-1.35695 2.13407,-2.29116 3.41992,-2.51564 0.29964,-0.0523 1.01865,-0.10101 1.59735,-0.10903 0.57869,-0.008 1.07852,-0.0404 1.11103,-0.0729 0.033,-0.0325 0.0498,-0.51271 0.0382,-1.06762 l -0.0212,-1.00925 -1.91719,0.0377 c -1.05445,0.0207 -3.03358,0.0377 -4.39817,0.0377 -1.36459,0 -3.53023,-0.017 -4.81211,-0.0377 l -2.33061,-0.0377 -0.0207,1.07127 -0.0207,1.07175 0.84752,5.3e-4 c 2.34114,10e-4 2.84723,0.46334 2.50526,2.28822 -0.12875,0.68712 -0.31679,1.26196 -1.76837,5.41777 -0.46218,1.32323 -1.2237,3.53949 -1.69241,4.92477 -1.39226,4.11501 -6.81651,18.04466 -7.02643,18.04384 -0.046,-1.6e-4 -0.18616,-0.38449 -1.59938,-4.39817 -3.39215,-9.63393 -6.09764,-18.19759 -7.16857,-22.68905 -0.23871,-1.00201 -0.26818,-1.22875 -0.24598,-1.9167 l 0.0253,-0.77978 0.31059,-0.2899 c 0.50962,-0.47514 0.83296,-0.5374 3.0706,-0.59171 l 1.95286,-0.0475 0.0982,-0.18759 c 0.14367,-0.27453 0.0986,-1.78311 -0.0563,-1.88362 -0.0717,-0.0465 -0.86694,-0.0519 -2.18075,-0.0155 -3.61498,0.10012 -15.65008,0.0322 -15.77113,-0.0889 -0.0136,-0.0136 0.27747,-1.08776 0.64699,-2.38744 1.03037,-3.62429 1.63849,-5.00917 2.63705,-6.00533 0.75173,-0.74991 1.69849,-1.12456 2.58175,-1.02113 0.81015,0.0949 1.18541,0.4569 1.36427,1.31466 0.21058,1.01002 0.60574,1.36125 1.53427,1.36424 0.96189,0.003 1.54866,-0.57179 1.65727,-1.62417 l 0.0491,-0.47596 1.3534,1.63351 c 0.74432,0.89837 1.8362,2.19827 2.42622,2.8887 0.96999,1.13511 1.11951,1.27865 1.56425,1.49759 0.77221,0.38016 1.31876,0.31843 1.5911,-0.17984 0.12459,-0.22796 0.13253,-0.90852 0.13954,-11.63235 0.005,-7.44318 0.035,-11.66995 0.0873,-12.19721 0.14951,-1.50773 0.4654,-1.78141 2.06187,-1.78541 0.96798,-0.002 0.96377,0.003 0.96377,-1.08262 0,-0.89339 -0.0647,-1.1049 -0.33951,-1.10691 -0.0819,-5e-4 -1.58708,0.0136 -3.3445,0.0315 -1.75741,0.0179 -3.74422,0.0114 -4.41523,-0.0145 -0.33552,-0.0129 -0.66,-0.0201 -0.9121,-0.0212 z m -15.11689,5.04878 c 0.0456,0 0.14883,0.076 0.22942,0.16899 0.52792,0.60902 2.25782,2.79003 4.36772,5.50714 2.44448,3.14804 4.67172,5.8923 7.0595,8.69664 l 1.25884,1.47847 -0.46458,-0.21654 c -0.70528,-0.32821 -1.2727,-0.44751 -2.12649,-0.44751 -2.2167,0 -4.23952,0.90321 -5.75003,2.56728 -0.7538,0.83044 -1.15744,1.37033 -1.71926,2.30063 v 5.3e-4 l -0.46561,0.77049 -0.46459,-5.3e-4 c -0.69265,-7.1e-4 -1.08473,-0.32745 -1.39784,-1.16424 -0.3818,-1.02053 -0.57648,-5.7209 -0.59738,-14.41723 -0.009,-3.7792 0.0106,-5.24412 0.0703,-5.24412 z" />
    <path
       style="fill:#d3d3d3;fill-opacity:1;stroke-width:0.0751837"
       d="m 98.65025,142.17099 c -0.13929,-0.19887 -0.14757,-1.79019 -0.01,-1.90192 0.0537,-0.0436 0.73854,-0.0885 1.59765,-0.10489 1.4201,-0.027 1.52435,-0.039 1.87569,-0.21488 0.55416,-0.27746 0.64312,-0.44496 0.7214,-1.35834 0.0914,-1.0658 0.12105,-12.28521 0.0453,-17.09683 -0.0468,-2.97362 -0.0856,-3.96625 -0.16189,-4.14891 -0.24895,-0.59582 -1.08785,-0.84174 -3.11951,-0.91451 l -1.3909,-0.0498 -0.0211,-0.9669 c -0.0151,-0.69111 0.006,-0.99927 0.0731,-1.08039 0.0815,-0.0983 0.3621,-0.10704 2.08865,-0.0655 3.87974,0.0934 6.23191,0.10194 8.55896,0.0311 1.80175,-0.0548 2.37957,-0.0506 2.46227,0.018 0.0823,0.0683 0.10778,0.2895 0.10691,0.92629 -7.5e-4,0.46014 -0.0332,0.88736 -0.0723,0.94939 -0.0572,0.0905 -0.32751,0.12039 -1.37095,0.15142 -1.09677,0.0326 -1.34596,0.062 -1.59564,0.18796 -0.3561,0.1797 -0.55524,0.43566 -0.64711,0.83178 -0.0376,0.1622 -0.0692,2.22789 -0.0702,4.59042 -0.002,4.2126 0.001,4.29625 0.14645,4.33427 0.14581,0.0381 0.1486,0.14027 0.16916,6.19262 l 0.0209,6.15387 0.21133,0.43036 c 0.43069,0.87705 1.03275,1.16767 2.58693,1.24874 l 0.96093,0.0501 0.0213,0.89595 c 0.0127,0.53491 -0.009,0.92667 -0.0549,0.97218 -0.0503,0.0503 -2.28302,0.078 -6.55238,0.0814 -6.36387,0.005 -6.47796,0.003 -6.58003,-0.14309 z"
       id="path157501" />
    <path
       id="path157497"
       style="fill:#d3d3d3;fill-opacity:1;stroke-width:0.0751837"
       d="m 243.11588,113.19224 c -0.21738,0.004 -0.45741,0.12427 -0.69709,0.35605 -0.61685,0.59642 -2.11916,1.42377 -3.16622,1.74355 -0.7797,0.23812 -0.92477,0.30176 -0.97255,0.42635 -0.0418,0.10895 0.1565,0.60404 0.34623,0.86402 0.17711,0.2427 -0.0724,1.07535 -0.95292,3.18172 -1.22865,2.93931 -2.85118,6.67271 -4.24831,9.77408 -0.67062,1.48863 -1.74451,3.87384 -2.38644,5.30045 -1.66785,3.70676 -1.87563,4.1061 -2.38125,4.56819 -0.81701,0.74671 -1.85354,1.0273 -3.18791,0.86299 -1.09585,-0.13491 -1.7031,-0.5457 -2.02107,-1.36683 -0.12155,-0.31396 -0.13621,-0.85381 -0.17312,-6.47042 -0.0294,-4.47563 -0.0645,-6.19566 -0.1302,-6.38151 -0.16156,-0.45656 -0.25453,-2.39535 -0.26252,-5.45962 -0.008,-3.27367 0.008,-3.42339 0.40047,-3.75378 0.33819,-0.28456 0.67133,-0.35049 2.0097,-0.39738 1.21242,-0.0425 1.2287,-0.0454 1.29709,-0.22531 0.0895,-0.23445 0.0884,-1.52988 -10e-4,-1.67122 -0.0584,-0.0923 -1.01404,-0.10866 -6.62234,-0.11266 -6.07065,-0.005 -6.55902,0.005 -6.62183,0.12197 -0.10766,0.20114 -0.0858,1.83317 0.0258,1.92286 0.0517,0.0415 0.73724,0.0928 1.52289,0.11422 1.50357,0.041 2.0892,0.14161 2.57246,0.44027 0.39545,0.24442 0.44858,0.43072 0.50126,1.75649 0.0707,1.77699 0.11393,17.19162 0.0532,18.98385 -0.0563,1.66355 -0.10086,1.85629 -0.50281,2.1725 -0.32462,0.25532 -0.67001,0.31128 -2.23605,0.36068 -1.744,0.055 -1.62883,-0.0185 -1.62883,1.0382 0,0.63034 0.0819,0.99573 0.24908,1.11103 v -5.2e-4 c 0.0491,0.0339 0.49496,0.0427 0.99116,0.0196 1.69598,-0.079 16.46084,-0.10306 18.44487,-0.0299 1.50069,0.0553 2.00528,0.0517 2.08618,-0.0155 0.0812,-0.0674 0.10695,-0.30144 0.10695,-0.97874 0,-0.80333 -0.014,-0.89824 -0.1452,-0.96843 -0.0806,-0.0431 -0.62045,-0.0775 -1.21079,-0.0775 -1.20883,0 -1.47111,-0.0749 -1.68929,-0.48006 -0.1062,-0.19727 -0.12602,-0.37163 -0.0992,-0.87902 0.0315,-0.59724 0.1034,-0.82264 1.26918,-3.95893 l 1.23608,-3.32537 4.98885,0.0176 4.98832,0.017 0.14314,0.37568 c 0.29223,0.76653 1.86423,5.5177 2.09756,6.33968 0.23913,0.84244 0.24016,0.85477 0.11369,1.18597 -0.17854,0.46749 -0.41709,0.57505 -1.39218,0.62736 l -0.7896,0.0424 -0.0207,0.95083 c -0.0178,0.80524 -0.002,0.97052 0.10388,1.07644 0.11387,0.11379 0.328,0.11914 2.38953,0.0635 2.83792,-0.0762 4.33628,-0.0765 7.01093,-0.001 1.91238,0.0539 2.12685,0.0477 2.23861,-0.0641 0.10467,-0.10414 0.12055,-0.27328 0.10285,-1.07434 l -0.0212,-0.95136 -0.97718,-0.0491 c -0.60251,-0.0305 -1.12168,-0.099 -1.35343,-0.17827 -0.81219,-0.27787 -1.58848,-0.96589 -1.99107,-1.76475 -0.58152,-1.15387 -2.27692,-5.82363 -3.98478,-10.97661 -1.31059,-3.9543 -1.68537,-5.04621 -3.40857,-9.92444 -1.38528,-3.92162 -1.38962,-3.9321 -1.60714,-4.1243 -0.12065,-0.1066 -0.25847,-0.15758 -0.40722,-0.15451 z m -2.80394,5.07513 c 0.0955,-0.004 0.17581,0.0716 0.24701,0.22791 0.0473,0.10385 0.815,2.58019 1.70582,5.50302 0.89085,2.92282 1.63386,5.35622 1.65108,5.40792 0.0248,0.0745 -0.83756,0.0941 -4.14446,0.0941 h -4.17547 l 0.0517,-0.16899 c 0.0282,-0.093 1.01219,-2.57122 2.18641,-5.50714 1.32295,-3.30774 2.19282,-5.38663 2.28772,-5.46582 0.07,-0.0584 0.13285,-0.0888 0.19019,-0.091 z" />
    <path
       style="fill:#d3d3d3;fill-opacity:1;stroke-width:0.0751837"
       d="m 151.11982,142.80037 c -3.40074,-0.39575 -6.80225,-1.90625 -8.85049,-3.93021 -2.24964,-2.22298 -3.54813,-4.8953 -4.07785,-8.39231 -0.18605,-1.22823 -0.18788,-4.33978 -0.003,-5.30667 1.03568,-5.42025 4.65195,-9.32043 10.09206,-10.88438 1.91135,-0.54948 4.43139,-0.81416 6.25526,-0.65697 2.2388,0.19294 4.47958,0.87208 5.75909,1.74546 0.51794,0.35355 0.92804,0.54236 1.03476,0.4764 0.0403,-0.0249 0.1572,-0.21086 0.25973,-0.41321 0.10254,-0.20234 0.25191,-0.40294 0.33196,-0.44577 0.16632,-0.089 0.82835,-0.10316 0.95238,-0.0204 0.13685,0.0914 0.2556,0.37016 0.2556,0.60006 0,0.11901 0.20351,1.79238 0.45226,3.71861 0.31205,2.41646 0.43134,3.55724 0.38477,3.67973 -0.0527,0.13873 -0.20592,0.22259 -0.70109,0.38386 -0.97082,0.31615 -0.96414,0.31844 -1.26057,-0.43273 -0.73478,-1.86203 -2.68738,-4.32231 -4.55266,-5.73632 -0.70463,-0.53416 -1.87828,-1.10133 -2.70569,-1.30755 -0.91115,-0.22708 -2.70419,-0.24346 -3.60882,-0.033 -1.10216,0.25645 -2.20655,0.763 -3.19054,1.4634 -0.76044,0.54127 -2.03542,1.81644 -2.58659,2.58696 -0.93194,1.30282 -1.71867,3.13441 -2.09117,4.86848 -0.14551,0.67731 -0.16962,1.01367 -0.16977,2.36829 0,1.66671 0.0749,2.43382 0.38259,3.90955 0.69037,3.311 2.4427,6.15557 4.72331,7.66735 2.35683,1.56231 4.56885,1.93254 7.38423,1.23594 1.1709,-0.28971 2.27634,-0.85421 2.64244,-1.34939 0.37878,-0.51233 0.41246,-0.73019 0.44431,-2.8744 0.0289,-1.94725 0.0246,-2.02277 -0.13454,-2.35154 -0.1995,-0.41211 -0.51596,-0.66484 -1.09977,-0.87831 -0.37488,-0.13707 -0.64891,-0.16571 -1.84735,-0.19309 -1.02214,-0.0233 -1.42914,-0.0586 -1.48742,-0.12883 -0.0495,-0.0596 -0.0721,-0.4242 -0.0589,-0.95053 l 0.0213,-0.85385 1.16535,0.006 c 0.64094,0.003 2.72165,0.0154 4.6238,0.0269 1.90215,0.0115 4.17689,-0.004 5.05498,-0.0349 1.23881,-0.0434 1.62205,-0.0347 1.71042,0.0387 0.14985,0.12435 0.16719,1.7449 0.0199,1.86105 -0.0517,0.0408 -0.46614,0.0946 -0.921,0.11962 -0.98152,0.054 -1.42924,0.19062 -1.7672,0.5393 l -0.24951,0.25743 0.0134,2.65289 c 0.007,1.45909 0.0508,2.96547 0.0965,3.34753 0.10291,0.85998 0.0575,0.9486 -0.66175,1.29318 -2.11518,1.01327 -4.6086,1.79932 -6.79186,2.14113 -1.65181,0.25861 -3.9275,0.33956 -5.24284,0.1865 z"
       id="path157495" />
  </g>
</svg>
