<svg xmlns="http://www.w3.org/2000/svg"  viewBox="0 0 64 64" width="64px" height="64px"><path fill="currentColor"  d="M 35 0 C 34.605469 0 34.25 0.230469 34.089844 0.585938 L 24.578125 21.515625 C 23.667969 20.585938 22.402344 20 21 20 L 4 20 C 2.898438 20 2 20.898438 2 22 L 2 58 C 2 59.101563 2.898438 60 4 60 L 21 60 C 22.898438 60 24.53125 58.925781 25.378906 57.363281 C 25.410156 57.375 25.433594 57.398438 25.464844 57.40625 C 26.5625 57.703125 28.375 57.859375 29.78125 57.859375 C 30.101563 57.859375 30.40625 57.851563 30.675781 57.835938 L 56.679688 56.210938 C 59.101563 56.058594 61 54.039063 61 51.609375 C 61 50.378906 60.519531 49.21875 59.648438 48.347656 C 59.5625 48.265625 59.480469 48.183594 59.390625 48.109375 C 60.960938 47.25 62 45.582031 62 43.71875 L 62 43 C 62 41.570313 61.394531 40.273438 60.425781 39.363281 C 62.542969 38.628906 64 36.640625 64 34.328125 C 64 32.441406 63.011719 30.78125 61.53125 29.832031 C 63.03125 28.882813 64 27.210938 64 25.332031 L 64 25 C 64 22.242188 61.757813 20 59 20 L 39.28125 20 L 42.105469 8.695313 C 42.632813 6.59375 42.167969 4.402344 40.832031 2.691406 C 39.496094 0.980469 37.484375 0 35.3125 0 Z M 35.640625 2.007813 C 37.066406 2.101563 38.371094 2.785156 39.257813 3.921875 C 40.210938 5.144531 40.542969 6.707031 40.167969 8.210938 L 37.21875 20 L 35 20 C 34.445313 20 34 20.445313 34 21 C 34 21.554688 34.445313 22 35 22 L 59 22 C 60.652344 22 62 23.347656 62 25 L 62 25.332031 C 62 26.96875 60.828125 28.347656 59.21875 28.613281 L 56.835938 29.015625 C 56.324219 29.101563 55.960938 29.5625 56.003906 30.082031 C 56.046875 30.601563 56.480469 31 57 31 L 58.671875 31 C 60.507813 31 62 32.496094 62 34.332031 C 62 35.96875 60.828125 37.347656 59.21875 37.613281 L 56.835938 38.015625 C 56.324219 38.101563 55.960938 38.5625 56.003906 39.082031 C 56.046875 39.601563 56.480469 40 57 40 C 58.652344 40 60 41.347656 60 43 L 60 43.71875 C 60 45.148438 58.984375 46.382813 57.589844 46.660156 L 55.804688 47.019531 C 55.300781 47.121094 54.953125 47.585938 55.003906 48.097656 C 55.058594 48.609375 55.484375 49 56 49 L 56.390625 49 C 57.085938 49 57.742188 49.269531 58.234375 49.765625 C 58.730469 50.257813 59 50.914063 59 51.609375 C 59 52.984375 57.925781 54.128906 56.554688 54.214844 L 30.550781 55.839844 C 29.3125 55.917969 27.097656 55.777344 25.988281 55.476563 C 25.976563 55.472656 25.964844 55.476563 25.953125 55.472656 C 25.96875 55.316406 26 55.164063 26 55 L 26 25 C 26 24.515625 25.910156 24.058594 25.78125 23.613281 C 25.832031 23.554688 25.875 23.488281 25.910156 23.414063 Z M 4 22 L 21 22 C 22.652344 22 24 23.347656 24 25 L 24 55 C 24 56.652344 22.652344 58 21 58 L 4 58 Z M 7 24 C 6.445313 24 6 24.445313 6 25 C 6 25.554688 6.445313 26 7 26 L 9 26 C 9.554688 26 10 25.554688 10 25 C 10 24.445313 9.554688 24 9 24 Z M 7 29 C 6.445313 29 6 29.445313 6 30 C 6 30.554688 6.445313 31 7 31 L 9 31 C 9.554688 31 10 30.554688 10 30 C 10 29.445313 9.554688 29 9 29 Z M 7 34 C 6.445313 34 6 34.445313 6 35 C 6 35.554688 6.445313 36 7 36 L 9 36 C 9.554688 36 10 35.554688 10 35 C 10 34.445313 9.554688 34 9 34 Z M 7 39 C 6.445313 39 6 39.445313 6 40 C 6 40.554688 6.445313 41 7 41 L 9 41 C 9.554688 41 10 40.554688 10 40 C 10 39.445313 9.554688 39 9 39 Z M 7 44 C 6.445313 44 6 44.445313 6 45 C 6 45.554688 6.445313 46 7 46 L 9 46 C 9.554688 46 10 45.554688 10 45 C 10 44.445313 9.554688 44 9 44 Z M 17 48 C 15.347656 48 14 49.347656 14 51 C 14 52.652344 15.347656 54 17 54 C 18.652344 54 20 52.652344 20 51 C 20 49.347656 18.652344 48 17 48 Z M 7 49 C 6.445313 49 6 49.445313 6 50 C 6 50.554688 6.445313 51 7 51 L 9 51 C 9.554688 51 10 50.554688 10 50 C 10 49.445313 9.554688 49 9 49 Z M 17 49.667969 C 17.734375 49.667969 18.332031 50.265625 18.332031 51 C 18.332031 51.734375 17.734375 52.332031 17 52.332031 C 16.265625 52.332031 15.667969 51.734375 15.667969 51 C 15.667969 50.265625 16.265625 49.667969 17 49.667969 Z M 7 54 C 6.445313 54 6 54.445313 6 55 C 6 55.554688 6.445313 56 7 56 L 9 56 C 9.554688 56 10 55.554688 10 55 C 10 54.445313 9.554688 54 9 54 Z"/></svg>