<?xml version="1.0" encoding="UTF-8" standalone="no"?>
<!-- Created with Inkscape (http://www.inkscape.org/) -->

<svg
   width="99.999962mm"
   height="83.73304mm"
   viewBox="0 0 99.999961 83.733039"
   version="1.1"
   id="svg10508"
   sodipodi:docname="spiffworks.svg"
   inkscape:version="1.1.2 (0a00cf5339, 2022-02-04)"
   xmlns:inkscape="http://www.inkscape.org/namespaces/inkscape"
   xmlns:sodipodi="http://sodipodi.sourceforge.net/DTD/sodipodi-0.dtd"
   xmlns="http://www.w3.org/2000/svg"
   xmlns:svg="http://www.w3.org/2000/svg">
  <sodipodi:namedview
     id="namedview10510"
     pagecolor="#ffffff"
     bordercolor="#666666"
     borderopacity="1.0"
     inkscape:pageshadow="2"
     inkscape:pageopacity="0.0"
     inkscape:pagecheckerboard="0"
     inkscape:document-units="mm"
     showgrid="false"
     fit-margin-top="0"
     fit-margin-left="0"
     fit-margin-right="0"
     fit-margin-bottom="0"
     inkscape:zoom="0.16013082"
     inkscape:cx="1480.0399"
     inkscape:cy="3609.5487"
     inkscape:window-width="1049"
     inkscape:window-height="487"
     inkscape:window-x="26"
     inkscape:window-y="23"
     inkscape:window-maximized="0"
     inkscape:current-layer="layer1" />
  <defs
     id="defs10505" />
  <g
     inkscape:label="Layer 1"
     inkscape:groupmode="layer"
     id="layer1"
     transform="translate(293.19737,209.8491)">
    <path
       id="rect14637-3-0-7-1-9-6-8-0"
       style="color:#000000;fill:#184e77;fill-opacity:1;stroke-width:2.45723;-inkscape-stroke:none"
       d="m -216.55587,-209.8491 v 6.0018 h -39.96133 c -9.86301,0 -17.82986,8.23202 -17.82986,18.18993 v 0.18725 c 0,9.95793 7.96685,18.18437 17.82986,18.18437 h 23.44947 v -0.0151 a 3.8345852,3.8345863 0 0 0 0.0406,0.001 3.8345852,3.8345863 0 0 0 3.83489,-3.83414 3.8345852,3.8345863 0 0 0 -3.83489,-3.8349 3.8345852,3.8345863 0 0 0 -0.0406,0 v 0 h -23.44947 c -5.63555,0 -10.15148,-4.56496 -10.15148,-10.50524 v -0.18726 c 0,-5.94013 4.51593,-10.51141 10.15148,-10.51141 h 39.96133 v 6.00028 l 23.35847,-9.14438 v -0.28516 z"
       inkscape:export-filename="/home/dan/projects/github/sartography/spiffworks-azure-horizon/public/images/logo/logo.png"
       inkscape:export-xdpi="12.360268"
       inkscape:export-ydpi="12.360268" />
    <path
       id="rect14637-3-0-4-7-0-9-41-0-2"
       style="color:#000000;fill:#184e77;fill-opacity:1;stroke-width:2.45723;-inkscape-stroke:none"
       d="m -256.49464,-190.17391 a 3.8345852,3.8345863 0 0 0 -3.83413,3.83414 3.8345852,3.8345863 0 0 0 3.83413,3.83492 3.8345852,3.8345863 0 0 0 0.17252,0 v 0.0211 h 23.31742 c 5.63555,0 10.15074,4.5713 10.15074,10.51143 v 0.18723 c 0,5.9403 -4.51519,10.50526 -10.15074,10.50526 h -34.93717 c -1.63568,-4.32914 -5.83697,-7.44598 -10.7065,-7.44598 -6.27161,0 -11.44182,5.16944 -11.44182,11.44107 0,6.27147 5.17021,11.43715 11.44182,11.43715 4.98521,0 9.27072,-3.26424 10.81931,-7.75296 h 34.82436 c 9.863,0 17.8291,-8.2266 17.8291,-18.18454 v -0.18723 c 0,-9.9578 -7.9661,-18.1898 -17.8291,-18.1898 h -23.27998 a 3.8345852,3.8345863 0 0 0 -0.20996,0 z m -22.15373,29.12008 c 2.12147,0 3.75789,1.64124 3.75789,3.76269 0,2.12164 -1.63642,3.75805 -3.75789,3.75805 -2.12162,0 -3.76271,-1.63641 -3.76271,-3.75805 0,-2.12145 1.64109,-3.76269 3.76271,-3.76269 z"
       inkscape:export-filename="/home/dan/projects/github/sartography/spiffworks-azure-horizon/public/images/logo/logo.png"
       inkscape:export-xdpi="12.360268"
       inkscape:export-ydpi="12.360268" />
    <text
       xml:space="preserve"
       style="font-style:italic;font-variant:normal;font-weight:300;font-stretch:normal;font-size:16.384px;line-height:1.25;font-family:Montserrat;-inkscape-font-specification:'Montserrat Light Italic';text-align:center;letter-spacing:0px;word-spacing:0px;text-anchor:middle;fill:#184e77;fill-opacity:1;stroke-width:0.255999"
       x="-243.0788"
       y="-129.29456"
       id="text752215-7-8-9-1"
       inkscape:export-filename="/home/dan/projects/github/sartography/spiffworks-azure-horizon/public/images/logo/logo.png"
       inkscape:export-xdpi="12.360268"
       inkscape:export-ydpi="12.360268"><tspan
         sodipodi:role="line"
         id="tspan752213-6-8-0-3"
         style="font-style:italic;font-variant:normal;font-weight:900;font-stretch:normal;font-family:Montserrat;-inkscape-font-specification:'Montserrat Heavy Italic';text-align:center;text-anchor:middle;fill:#184e77;fill-opacity:1;stroke-width:0.255999"
         x="-243.0788"
         y="-129.29456">SpiffWorks</tspan></text>
  </g>
</svg>
