<?xml version="1.0" encoding="UTF-8" standalone="no"?>
<!-- Created with Inkscape (http://www.inkscape.org/) -->

<svg
   version="1.1"
   id="svg854"
   width="232"
   height="232"
   viewBox="0 0 232 232"
   sodipodi:docname="alex_contact.svg"
   inkscape:version="1.1.2 (0a00cf5339, 2022-02-04)"
   xmlns:inkscape="http://www.inkscape.org/namespaces/inkscape"
   xmlns:sodipodi="http://sodipodi.sourceforge.net/DTD/sodipodi-0.dtd"
   xmlns="http://www.w3.org/2000/svg"
   xmlns:svg="http://www.w3.org/2000/svg">
  <defs
     id="defs858" />
  <sodipodi:namedview
     id="namedview856"
     pagecolor="#ffffff"
     bordercolor="#666666"
     borderopacity="1.0"
     inkscape:pageshadow="2"
     inkscape:pageopacity="0.0"
     inkscape:pagecheckerboard="0"
     showgrid="false"
     inkscape:zoom="1.27"
     inkscape:cx="74.015748"
     inkscape:cy="154.33071"
     inkscape:window-width="1890"
     inkscape:window-height="1013"
     inkscape:window-x="1930"
     inkscape:window-y="1090"
     inkscape:window-maximized="0"
     inkscape:current-layer="g860"
     fit-margin-top="0"
     fit-margin-left="0"
     fit-margin-right="0"
     fit-margin-bottom="0" />
  <g
     inkscape:groupmode="layer"
     inkscape:label="Image"
     id="g860"
     transform="translate(-34.243276,-33.926902)">
    <path
       style="fill:#116c86;fill-opacity:1"
       d="m 34.243276,237.9269 v -28 h 28 28 v 28 28 h -28 -28 z m 48,0 v -20 h -20 -20 v 20 20 h 20 20 z m -32,0 v -12 h 12 12 v 12 12 h -12 -12 z m 48,8 v -20 h 4.000004 4 v 4 4 h 4 4 v 8 8 h -4 -4 v 4 4 h 8 8 v -4 -4 h 4 4 v -4 -4 h -4 -4 v -4 -4 h 8 8 v -8 -8 h -4 -4 v 4 4 h -4 -4 v -4 -4 h -12 -12.000004 v -8 -8 h 16.000004 16 v -16 -16 h -4 -4 v 4 4 h -4 -4 v 4 4 h 4 4 v 4 4 h -4 -4 v -4 -4 h -4 -4 v 4 4 h -4 -4.000004 v -8 -8 h -4 -4 v 4 4 h -4 -4 v -4 -4 h 4 4 v -4 -4 h -12 -12 v 4 4 h 4 4 v 4 4 h -4 -4 v -4 -4 h -4 -4 v -4 -4 h 4 4 v -4 -4 h 16 16 v -4 -4 h 8.000004 8 v -4 -4 h 24 24 v 4 4 h 4 4 v -4 -4 h 4 4 v 4 4 h -4 -4 v 4 4 h 4 4 v 4 4 h -4 -4 v 4 4 h 8 8 v -4 -4 h 8 8 v -4 -4 h -8 -8 v -4 -4 h 4 4 v -4 -4 h -4 -4 v -4 -4 h 4 4 v -4 -4 h -8 -8 v 4 4 h -16 -16 v -4 -4 h -4 -4 v 4 4 h -4 -4 v -8 -8 h 4 4 v -4 -4 h -4 -4 v -4 -4 h -4 -4 v 8 8 h -4 -4 v -8 -8 h -4 -4 v 12 12 h 8 8 v 4 4 h -8 -8 v -4 -4 h -4 -4.000004 v -4 -4 h -8 -8 v 4 4 h 4 4 v 4 4 h -4 -4 v 4 4 h 4 4 v 4 4 h -8 -8 v -8 -8 h -4 -4 v -4 -4 h 4 4 v -4 -4 h 4 4 v -4 -4 h -4 -4 v -4 -4 h -4 -4 v 4 4 h -4 -4 v 4 4 h -8 -8 v 8 8 h 8 8 v 4 4 h 4 4 v 4 4 h -12 -12 v 8 8 h 4 4 v 4 4 h -4 -4 v 12 12 h -4 -4 v -24 -24 h 4 4 v -4 -4 h -4 -4 v -24 -24.000002 h 20 20 v 4.000002 4 h 4 4 v -4 -4.000002 h 12 12.000004 v -4 -3.999996 h -4 -4.000004 v -8 -8 h 4.000004 4 v -4 -4 h -4 -4.000004 v -4 -4 h 12.000004 12 v 4 4 h -4 -4 v 8 8 h 4 4 v -4 -4 h 12 12 v -4 -4 h -8 -8 v -8 -8 h 4 4 v -4 -4 h -4 -4 v -4 -4 h 4 4 v 4 4 h 4 4 v 8 8 h 8 8 v -4 -4 h -4 -4 v -8 -8 h 8 8 v 4 4 h 4 4 v 4 4 h 4 4 v -8 -8 h 4 4 v 8 8 h 4 4 v 4 4 h -12 -12 v 4 4 h 8 8 v 4 4 h 4 4 v 12 11.999996 h 4 4 v 4.000002 4 h 4 4 v -4 -4.000002 h 4 4 v 4.000002 4 h 4 4 v -4 -4.000002 h 4 4 v 8.000002 8 h 4 4 v -8 -8.000002 h 4 4 v 8.000002 8 h -4 -4 v 4 4 h -4 -4 v 4 4 h -8 -8 v 4 4 h 8 8 v 4 4 h 4 4 v -4 -4 h 4 4 v 4 4 h 4 4 v 8 8 h -8 -8 v -4 -4 h -8 -8 v 4 4 h -4 -4 v 4 4 h 8 8 v 4 4 h 4 4 v -4 -4 h 4 4 v 4 4 h 4 4 v 8 8 h -4 -4 v 8 8 h -4 -4 v 4 4 h 8 8 v 8 8 h -12 -12 v -8 -8 h -4 -4 v 8 8 h -4 -4 v 8 8 h -4 -4 v -8 -8 h -4 -4 v 8 8 h -4 -4 v -4 -4 h -4 -4 v 8 8 h 12 12 v 4 4 h -12 -12 v -4 -4 h -4 -4 v 4 4 h -8 -8 v -4 -4 h -4 -4 v 4 4 h -16 -16 v -4 -4 h -4 -4 v 4 4 h -12 -12.000004 z m 48.000004,8 v -4 h -8 -8 v 4 4 h 8 8 z m 16,0 v -4 h 4 4 v 4 4 h 8 8 v -8 -8 h 4 4 v -8 -8 h -8 -8 v 4 4 h -4 -4 v 4 4 h -4 -4 v -4 -4 h -12 -12 v 4 4 h 12 12 v 4 4 h -4 -4 v 4 4 h 4 4 z m 8,-8 v -4 h 4 4 v 4 4 h -4 -4 z m 0,-28 v -8 h 4 4 v 4 4 h 4 4 v -4 -4 h 4 4 v -8 -8 h -8 -8 v 4 4 h -4 -4 v 4 4 h -4 -4 v -4 -4 h -4 -4 v -4 -4 h 4 4 v -4 -4 h -4 -4 v 4 4 h -8 -8 v 4 4 h -4 -4 v 4 4 h -4 -4 v 4 4 h 4 4 v -4 -4 h 8 8 v 8 8 h 12 12 z m 8,-12 v -4 h 4 4 v 4 4 h -4 -4 z m 48,8 v -12 h -12 -12 v 12 12 h 12 12 z m -16,0 v -4 h 4 4 v 4 4 h -4 -4 z m 40,-8 v -4 h -8 -8 v 4 4 h 8 8 z m -40,-16 v -4 h 4 4 v -4 -4 h -4 -4 v -4 -4 h 4 4 v -4 -4 h -4 -4 v -4 -4 h 4 4 v -4 -4 h -8 -8 v 8 8 h 4 4 v 4 4 h -4 -4 v 4 4 h -8 -8 v 4 4 h 8 8 v 4 4 h 4 4 z m 40,0 v -4 h 4 4 v -4 -4 h -4 -4 v 4 4 h -8 -8 v -4 -4 h -4 -4 v 4 4 h 4 4 v 4 4 h 8 8 z m -144,-20 v -8 h -4 -4.000004 v 8 8 h 4.000004 4 z m 40,0 v -8 h 8 8 v 4 4 h -4 -4 v 4 4 h 4 4 v -4 -4 h 4 4 v -4 -4 h -4 -4 v -4 -4 h -16 -16 v 4 4 h 4 4 v 8 8 h 4 4 z m -24,-12 v -4 h -4 -4 v 4 4 h 4 4 z m 112,-8 v -4 h -4 -4 v 4 4 h 4 4 z m -24,-16 v -4 h -4 -4 v 4 4 h 4 4 z m -48,-8 v -4 h 4 4 v -4 -4 h 4 4 v 4 4 h 4 4 v -4 -4 h -4 -4 v -4 -4 h 8 8 v -4 -4.000002 h -12 -12 v 4.000002 4 h -4 -4 v 8 8 h -8 -8 v 4 4 h 8 8 z m 40,-8 v -4 h 4 4 v 4 4 h 4 4 v -4 -4 h -4 -4 v -4 -4 h -4 -4 v 4 4 h -4 -4 v 4 4 h 4 4 z m 32,0 v -4 h -4 -4 v 4 4 h 4 4 z m -184.000004,-8 v -4 h -4 -4 v 4 4 h 4 4 z m 40,0 v -4 h -4 -4 v 4 4 h 4 4 z m 56.000004,0 v -4 h 4 4 v -4 -4.000002 h 4 4 v -7.999996 -8 h -4 -4 v 4 4 h -4 -4 v -4 -4 h -4 -4 v 4 4 h -4 -4 v -4 -4 h -4 -4 v 4 4 h 4 4 v 7.999996 8.000002 h 4 4 v 4 4 h 4 4 z m -24,-8 v -4.000002 h -4 -4 v 4.000002 4 h 4 4 z m -8,-15.999998 v -4 h -4 -4 v 4 4 h 4 4 z m 64,0 v -4 h 4 4 v 4 4 h 4 4 v -8 -8 h -8 -8 v -4 -4 h -4 -4 v -4 -4 h 4 4 v -4 -4 h -4 -4 v -4 -4 h -4 -4 v 4 4 h 4 4 v 4 4 h -4 -4 v 4 4 h -4 -4 v 4 4 h 12 12 v 4 4 h -4 -4 v 4 4 h 4 4 z m 48,175.999998 v -4 h 4 4 v -4 -4 h 4 4 v -4 -4 h 8 8 v 4 4 h 4 4 v 4 4 h -4 -4 v -4 -4 h -4 -4 v 8 8 h -12 -12 z m -176.000004,-64 v -4 h 12 12 v 4 4 h -12 -12 z m 32,0 v -4 h 4 4 v 4 4 h -4 -4 z m 176.000004,-72 v -4 h 4 4 v 4 4 h -4 -4 z M 34.243276,61.926902 v -28 h 28 28 v 28 28 h -28 -28 z m 48,0 v -20 h -20 -20 v 20 20 h 20 20 z m -32,0 v -12 h 12 12 v 12 12 h -12 -12 z m 160.000004,0 v -28 h 28 28 v 28 28 h -28 -28 z m 48,0 v -20 h -20 -20 v 20 20 h 20 20 z m -32,0 v -12 h 12 12 v 12 12 h -12 -12 z m -128.000004,-16 v -4 h 4.000004 4 v 4 4 h -4 -4.000004 z m 16.000004,-4 v -8 h 4 4 v 8 8 h -4 -4 z"
       id="path962" />
  </g>
</svg>
