<?xml version="1.0" encoding="UTF-8" standalone="no"?>
<!-- Created with Inkscape (http://www.inkscape.org/) -->

<svg
   version="1.1"
   id="svg854"
   width="225.85211"
   height="225.85211"
   viewBox="0 0 225.85211 225.85211"
   sodipodi:docname="bob.svg"
   inkscape:version="1.1.2 (0a00cf5339, 2022-02-04)"
   xmlns:inkscape="http://www.inkscape.org/namespaces/inkscape"
   xmlns:sodipodi="http://sodipodi.sourceforge.net/DTD/sodipodi-0.dtd"
   xmlns="http://www.w3.org/2000/svg"
   xmlns:svg="http://www.w3.org/2000/svg">
  <defs
     id="defs858" />
  <sodipodi:namedview
     id="namedview856"
     pagecolor="#ffffff"
     bordercolor="#666666"
     borderopacity="1.0"
     inkscape:pageshadow="2"
     inkscape:pageopacity="0.0"
     inkscape:pagecheckerboard="0"
     showgrid="false"
     inkscape:zoom="0.89802561"
     inkscape:cx="385.28968"
     inkscape:cy="675.92727"
     inkscape:window-width="3840"
     inkscape:window-height="2123"
     inkscape:window-x="0"
     inkscape:window-y="0"
     inkscape:window-maximized="1"
     inkscape:current-layer="g860"
     fit-margin-top="0"
     fit-margin-left="0"
     fit-margin-right="0"
     fit-margin-bottom="0" />
  <g
     inkscape:groupmode="layer"
     inkscape:label="Image"
     id="g860"
     transform="translate(-37.358948,-40.113995)">
    <path
       style="fill:#116c86;fill-opacity:1;stroke-width:0.236"
       d="m 37.358948,238.70809 v -27.25801 h 27.258013 27.258013 v 27.25801 27.25801 H 64.616961 37.358948 Z m 46.728022,0 V 219.23808 H 64.616961 45.146952 v 19.47001 19.47001 H 64.616961 84.08697 Z m -31.152014,0 v -11.68201 h 11.682005 11.682006 v 11.68201 11.682 H 64.616961 52.934956 Z m 46.728022,7.788 v -19.47001 h 3.894002 3.894 v 11.68201 11.682 h 3.894 3.89401 v -11.682 -11.68201 h 3.894 3.894 v 7.78801 7.788 h 19.47 19.47001 v -3.894 -3.894 h -15.57601 -15.576 v -7.78801 -7.788 h 3.894 3.894 v -3.894 -3.894 h -3.894 -3.894 v -3.89401 -3.894 h -7.788 -7.788 v 3.894 3.89401 h 3.894 3.894 v 3.894 3.894 h -3.894 -3.894 v -3.894 -3.894 h -3.89401 -3.894 v 3.894 3.894 h -3.894 -3.894002 v -7.788 -7.78801 H 91.874974 84.08697 v -3.894 -3.894 h 11.682006 11.682004 v 3.894 3.894 h 3.894 3.89401 v -7.788 -7.788 h -3.89401 -3.894 v -3.89401 -3.894 h -7.788002 -7.788004 v 3.894 3.89401 H 87.980972 84.08697 v -3.89401 -3.894 h -3.894001 -3.894002 v 11.68201 11.682 h -3.894002 -3.894002 v -15.576 -15.57601 h -3.894002 -3.894002 v 3.894 3.894 h -7.788003 -7.788004 v 11.68201 11.682 H 41.25295 37.358948 v -23.36401 -23.36401 h 3.894002 3.894002 v -11.682 -11.68201 H 41.25295 37.358948 v -3.894 -3.894 h 3.894002 3.894002 v -7.78801 -7.788 H 41.25295 37.358948 v -3.894 -3.894 h 19.47001 19.470009 v 3.894 3.894 h -3.894002 -3.894002 v 7.788 7.78801 h 3.894002 3.894002 v -3.89401 -3.894 h 7.788003 7.788004 v -3.894 -3.894 H 87.980972 84.08697 v -3.894 -3.894 h 19.47001 19.47001 v 3.894 3.894 h -3.894 -3.894 v 7.788 7.78801 h 3.894 3.894 v -3.89401 -3.894 h 11.682 11.682 v 3.894 3.89401 h -7.788 -7.788 v 7.788 7.788 h 3.894 3.894 v -3.894 -3.894 h 3.894 3.894 v 7.788 7.78801 h 7.78801 7.788 v -3.894 -3.89401 h -3.894 -3.894 v -3.894 -3.894 h 15.57601 15.576 v -3.894 -3.894 h 3.89401 3.894 v 3.894 3.894 h 3.894 3.89401 v 7.788 7.78801 h 3.894 3.894 v -3.894 -3.89401 h 3.894 3.894 v 3.89401 3.894 h 3.89401 3.894 v -3.894 -3.89401 h 3.894 3.894 v -7.788 -7.788 h 3.894 3.89401 v 3.894 3.894 h 3.894 3.894 v -3.894 -3.894 h 3.894 3.894 v 3.894 3.894 h -3.894 -3.894 v 3.894 3.894 h -7.788 -7.78801 v 3.89401 3.894 h 7.78801 7.788 v 3.894 3.894 h 3.894 3.894 v 3.894 3.894 h -3.894 -3.894 v 11.68201 11.68201 h 3.894 3.894 v 3.894 3.894 h 3.89401 3.894 v 7.788 7.78801 h -7.78801 -7.788 v 3.894 3.894 h -7.788 -7.78801 v 7.788 7.78801 h 3.894 3.89401 v -3.894 -3.89401 h 7.788 7.788 v -3.894 -3.894 h 3.89401 3.894 v 11.68201 11.682 h -3.894 -3.89401 v 7.788 7.78801 h -3.894 -3.894 v 3.894 3.894 h -23.36401 -23.36401 v -3.894 -3.894 h -3.89401 -3.894 v 3.894 3.894 h -11.68201 -11.682 v -3.894 -3.894 h -3.89401 -3.894 v -3.894 -3.89401 h -15.57601 -15.576 v 3.89401 3.894 h 3.894 3.894 v 3.894 3.894 h -11.682 -11.682 v -3.894 -3.894 h -3.89401 -3.894 v 3.894 3.894 h -3.894 -3.894002 z m 23.364012,7.78801 v -3.89401 h -3.894 -3.894 v 3.89401 3.894 h 3.894 3.894 z m 70.09203,0 v -3.89401 h 3.894 3.89401 v 3.89401 3.894 h 7.788 7.788 v -3.894 -3.89401 h -7.788 -7.788 v -3.894 -3.894 h 7.788 7.788 v -3.894 -3.894 h -7.788 -7.788 v 3.894 3.894 h -3.89401 -3.894 v -7.788 -7.78801 h -7.78801 -7.788 v -3.894 -3.894 h -3.894 -3.894 v -3.894 -3.894 h 7.788 7.788 v -3.89401 -3.894 h 3.89401 3.894 v -3.894 -3.894 h -3.894 -3.89401 v -3.894 -3.894 h 3.89401 3.894 v -3.89401 -3.894 h -7.78801 -7.788 v 3.894 3.89401 H 154.179 130.81499 v 7.788 7.788 h 3.894 3.894 v 3.894 3.89401 h 3.894 3.894 v 3.894 3.894 h -3.894 -3.894 v 3.894 3.894 h 3.894 3.894 v -3.894 -3.894 h 3.89401 3.894 v 3.894 3.894 h 3.894 3.894 v -3.894 -3.894 h 3.894 3.89401 v 3.894 3.894 h 3.894 3.894 v 3.89401 3.894 h -3.894 -3.894 v 3.894 3.894 h 3.894 3.894 v 3.894 3.894 h -3.894 -3.894 v 3.89401 3.894 h 11.682 11.68201 z m -7.78801,-7.78801 v -3.894 h -3.894 -3.894 v -3.894 -3.894 h 3.894 3.894 v 3.894 3.894 h 3.89401 3.894 v 3.894 3.894 h -3.894 -3.89401 z M 154.179,215.34408 v -3.894 h 3.894 3.894 v -3.89401 -3.894 h -11.682 -11.68201 v -3.894 -3.894 h 11.68201 11.682 v 3.894 3.894 h 3.894 3.89401 v -3.894 -3.894 h 3.894 3.894 v 3.894 3.894 h -3.894 -3.894 v 3.894 3.89401 h -3.89401 -3.894 v 3.894 3.894 h -3.894 -3.894 z m 77.88004,38.94002 v -3.89401 h -3.894 -3.894 v 3.89401 3.894 h 3.894 3.894 z m 15.57601,0 v -3.89401 h -3.894 -3.894 v 3.89401 3.894 h 3.894 3.894 z m -15.57601,-15.57601 v -3.894 h -3.894 -3.894 v 3.894 3.894 h 3.894 3.894 z m -7.788,-23.36401 v -11.68201 h -11.68201 -11.682 v 11.68201 11.682 h 11.682 11.68201 z m -15.57601,0 v -3.894 h 3.894 3.894 v 3.894 3.894 h -3.894 -3.894 z m 31.15202,-15.57601 v -3.894 h 3.894 3.894 v -3.894 -3.894 h -3.894 -3.894 v -7.78801 -7.788 h -3.89401 -3.894 v -3.894 -3.89401 h 7.78801 7.788 v -3.894 -3.894 h -7.788 -7.78801 v -3.894 -3.894 h -3.894 -3.894 v 3.894 3.894 h 3.894 3.894 v 3.894 3.894 h -3.894 -3.894 v 3.89401 3.894 h 3.894 3.894 v 3.894 3.894 h -3.894 -3.894 v 3.894 3.89401 h 3.894 3.894 v 7.788 7.788 h 3.894 3.89401 z m -23.36402,-7.788 v -3.894 h -7.788 -7.788 v 3.894 3.894 h 7.788 7.788 z M 91.874974,176.40406 v -3.894 h 3.894002 3.894002 v -3.894 -3.89401 h -3.894002 -3.894002 v -3.894 -3.894 h 15.576006 15.57601 v 3.894 3.894 h -7.788 -7.78801 v 3.89401 3.894 h 7.78801 7.788 v 3.894 3.894 h 11.682 11.682 v -3.894 -3.894 h -7.788 -7.788 v -7.78801 -7.788 h 3.894 3.894 v 3.894 3.894 h 7.788 7.78801 v -3.894 -3.894 h -7.78801 -7.788 v -3.894 -3.894 h -3.894 -3.894 v -3.894 -3.89401 h -3.894 -3.894 v -3.894 -3.894 h -3.894 -3.894 v 3.894 3.894 h 3.894 3.894 v 3.89401 3.894 h -7.788 -7.78801 v -7.78801 -7.788 h -3.894 -3.894002 v -7.788 -7.78801 h 3.894002 3.894 v -3.894 -3.894 h -3.894 -3.894002 v 3.894 3.894 h -3.894002 -3.894002 v 3.894 3.89401 H 87.980972 84.08697 v 3.894 3.894 h -7.788003 -7.788004 v -3.894 -3.894 h -3.894002 -3.894002 v -3.89401 -3.894 h -3.894001 -3.894002 v 7.78801 7.788 h 7.788003 7.788004 v 3.894 3.894 h -7.788004 -7.788003 v 7.78801 7.788 h 3.894002 3.894001 v 3.894 3.894 h 3.894002 3.894002 v 3.89401 3.894 h 7.788004 7.788003 v 3.894 3.894 h 3.894002 3.894002 z m -7.788004,-7.788 v -3.89401 h -7.788003 -7.788004 v -7.788 -7.788 h 3.894002 3.894002 v -3.894 -3.89401 h 3.894002 3.894001 v -3.894 -3.894 h 7.788004 7.788004 v 3.894 3.894 H 91.874974 84.08697 v 3.89401 3.894 h 3.894002 3.894002 v 3.894 3.894 H 87.980972 84.08697 v 3.894 3.894 h 3.894002 3.894002 v 3.89401 3.894 H 87.980972 84.08697 Z m 0,-15.57601 v -3.894 h -3.894001 -3.894002 v 3.894 3.894 h 3.894002 3.894001 z m 77.88003,23.36401 v -3.894 h 3.894 3.89401 v -3.894 -3.89401 h 3.894 3.894 v 3.89401 3.894 h 3.894 3.894 v -3.894 -3.89401 h -3.894 -3.894 v -3.894 -3.894 h 7.788 7.78801 v -3.894 -3.894 h -7.78801 -7.788 v 3.894 3.894 h -7.788 -7.78801 v 7.788 7.78801 h -3.894 -3.894 v 3.894 3.894 h 3.894 3.894 z m 54.51603,-15.57601 v -11.682 h -3.894 -3.894 v 7.788 7.788 h -7.788 -7.78801 v 3.89401 3.894 h 11.68201 11.682 z m -23.36401,-23.36401 v -3.894 h -3.894 -3.89401 v 3.894 3.894 h 3.89401 3.894 z M 52.934956,191.98007 v -3.894 h 3.894002 3.894001 v 3.894 3.894 H 56.828958 52.934956 Z M 255.42305,176.40406 v -3.894 h 3.89401 3.894 v 3.894 3.894 h -3.894 -3.89401 z m 0,-31.15201 v -3.89401 h 3.89401 3.894 v 3.89401 3.894 h -3.894 -3.89401 z m -46.72802,-15.57601 v -3.894 h -3.894 -3.894 v -3.89401 -3.894 h -7.78801 -7.78801 v -11.682 -11.682008 h -3.894 -3.894 V 90.73602 86.842018 h -3.894 -3.894 v 7.788004 7.788008 h 3.894 3.894 v 3.894 3.894 h -3.894 -3.894 v 3.894 3.894 h 3.894 3.894 v 3.894 3.89401 h -3.894 -3.894 v -3.89401 -3.894 h -3.89401 -3.894 v 3.894 3.89401 h -3.894 -3.894 v -3.89401 -3.894 h 3.894 3.894 v -3.894 -3.894 h -15.57601 -15.576 V 98.524024 86.842018 h 3.894 3.894 v -3.894002 -3.894002 h -3.894 -3.894 v -3.894001 -3.894002 h -3.894 -3.894 v 11.682005 11.682006 h -3.894 -3.894 V 82.948016 71.266011 h -7.78801 -7.788002 v -3.894002 -3.894002 h 3.894002 3.894 v -3.894002 -3.894002 h -3.894 -3.894002 V 51.796 47.901999 h 3.894002 3.894 v -3.894002 -3.894002 h 3.894 3.89401 v 7.788004 7.788004 h 3.894 3.894 V 51.796 47.901999 h 11.682 11.682 V 51.796 55.690003 h -7.788 -7.788 v 7.788004 7.788004 h 3.894 3.894 v -3.894002 -3.894002 h 7.788 7.78801 v 3.894002 3.894002 h -3.894 -3.89401 v 3.894002 3.894001 h 7.78801 7.788 v 3.894002 3.894002 h 3.894 3.89401 V 75.160013 63.478007 h -3.89401 -3.894 v -3.894002 -3.894002 h -3.894 -3.894 V 51.796 47.901999 h 3.894 3.894 v -3.894002 -3.894002 h 19.47001 19.47002 v 3.894002 3.894002 h -15.57602 -15.576 v 7.788004 7.788004 h 3.894 3.894 v -3.894002 -3.894002 h 11.68201 11.68201 v 3.894002 3.894002 h -11.68201 -11.68201 v 3.894002 3.894002 h 11.68201 11.68201 v 11.682005 11.682006 h -3.89401 -3.894 v 7.788008 7.788 h 3.894 3.89401 v -3.894 -3.894 h 3.894 3.894 v 3.894 3.894 h 3.894 3.894 v -3.894 -3.894 h 3.89401 3.894 v 3.894 3.894 h 3.894 3.894 v -3.894 -3.894 h 3.894 3.89401 v 3.894 3.894 h -3.89401 -3.894 v 3.894 3.894 h -11.682 -11.68201 v 3.894 3.89401 h 7.788 7.78801 v 3.894 3.894 h -7.78801 -7.788 z m 0,-15.57601 v -3.894 h -3.894 -3.894 v 3.894 3.894 h 3.894 3.894 z m -38.94002,-7.788 v -3.894 h -3.89401 -3.894 v 3.894 3.894 h 3.894 3.89401 z M 146.39099,94.630022 v -7.788004 h -3.894 -3.894 v 7.788004 7.788008 h 3.894 3.894 z M 161.967,90.73602 v -3.894002 h -3.894 -3.894 v 3.894002 3.894002 h 3.894 3.894 z m 31.15202,-3.894002 v -7.788004 h -7.78801 -7.788 v 3.894002 3.894002 h 3.894 3.894 v 3.894002 3.894002 h 3.89401 3.894 z M 123.02699,67.372009 v -3.894002 h -3.894 -3.894 v 3.894002 3.894002 h 3.894 3.894 z m 132.39606,46.728021 v -3.894 h -3.894 -3.894 v -3.894 -3.894 h 3.894 3.894 v 3.894 3.894 h 3.89401 3.894 v 3.894 3.894 h -3.894 -3.89401 z M 37.358948,67.372009 V 40.113995 H 64.616961 91.874974 V 67.372009 94.630022 H 64.616961 37.358948 Z m 46.728022,0 V 47.901999 H 64.616961 45.146952 v 19.47001 19.470009 H 64.616961 84.08697 Z m -31.152014,0 V 55.690003 H 64.616961 76.298967 V 67.372009 79.054014 H 64.616961 52.934956 Z m 46.728022,19.470009 v -7.788004 h 3.894002 3.894 v 7.788004 7.788004 h -3.894 -3.894002 z M 208.69503,67.372009 V 40.113995 h 27.25801 27.25802 v 27.258014 27.258013 h -27.25802 -27.25801 z m 46.72802,0 v -19.47001 h -19.47001 -19.47001 v 19.47001 19.470009 h 19.47001 19.47001 z m -31.15201,0 V 55.690003 h 11.682 11.68201 v 11.682006 11.682005 h -11.68201 -11.682 z"
       id="path9585" />
  </g>
</svg>
