<?xml version="1.0" encoding="UTF-8" standalone="no"?>
<!-- Created with Inkscape (http://www.inkscape.org/) -->

<svg
   version="1.1"
   id="svg854"
   width="225"
   height="225.00002"
   viewBox="0 0 224.99999 225.00002"
   sodipodi:docname="elizabeth.svg"
   inkscape:version="1.1.2 (0a00cf5339, 2022-02-04)"
   xmlns:inkscape="http://www.inkscape.org/namespaces/inkscape"
   xmlns:sodipodi="http://sodipodi.sourceforge.net/DTD/sodipodi-0.dtd"
   xmlns="http://www.w3.org/2000/svg"
   xmlns:svg="http://www.w3.org/2000/svg">
  <defs
     id="defs858" />
  <sodipodi:namedview
     id="namedview856"
     pagecolor="#ffffff"
     bordercolor="#666666"
     borderopacity="1.0"
     inkscape:pageshadow="2"
     inkscape:pageopacity="0.0"
     inkscape:pagecheckerboard="0"
     showgrid="false"
     inkscape:zoom="0.89802561"
     inkscape:cx="14.476202"
     inkscape:cy="733.83208"
     inkscape:window-width="3840"
     inkscape:window-height="2123"
     inkscape:window-x="0"
     inkscape:window-y="0"
     inkscape:window-maximized="1"
     inkscape:current-layer="g860"
     fit-margin-top="0"
     fit-margin-left="0"
     fit-margin-right="0"
     fit-margin-bottom="0" />
  <g
     inkscape:groupmode="layer"
     inkscape:label="Image"
     id="g860"
     transform="translate(-419.65112,16.920879)">
    <path
       style="fill:#000000;stroke-width:0.23511"
       d="m 419.65112,180.92395 v -27.15517 h 27.15517 27.15518 v 27.15517 27.15518 h -27.15518 -27.15517 z m 46.55173,0 V 161.5274 h -19.39656 -19.39655 v 19.39655 19.39655 h 19.39655 19.39656 z m -31.03449,0 v -11.63793 h 11.63793 11.63793 v 11.63793 11.63793 h -11.63793 -11.63793 z m 46.55173,19.39655 v -7.75862 h 3.87931 3.87931 v 7.75862 7.75863 h -3.87931 -3.87931 z m 54.31034,3.87932 v -3.87932 h -15.51724 -15.51724 v -7.75862 -7.75862 h 3.87931 3.87931 v -3.87931 -3.87931 h -7.75862 -7.75862 v 3.87931 3.87931 h -7.75862 -7.75862 v -3.87931 -3.87931 h 3.87931 3.87931 v -7.75862 -7.75862 h -3.87931 -3.87931 v -11.63793 -11.63793 h -3.87931 -3.87931 v 3.87931 3.87931 h -15.51725 -15.51724 v -7.75862 -7.75862 h -3.87931 -3.87931 v -3.87931 -3.87931 h -3.87931 -3.87931 v 3.87931 3.87931 h -3.87931 -3.87931 v -3.87931 -3.87931 h 3.87931 3.87931 v -3.87931 -3.87931 h -3.87931 -3.87931 v -3.87932 -3.87931 h 3.87931 3.87931 v 3.87931 3.87932 h 15.51724 15.51724 v -3.87932 -3.87931 h 7.75863 7.75862 v 3.87931 3.87932 h -3.87931 -3.87931 v 3.87931 3.87931 h 3.87931 3.87931 v 3.87931 3.87931 h 3.87931 3.87931 v -3.87931 -3.87931 h 3.87931 3.87931 v -3.87931 -3.87931 h -3.87931 -3.87931 v -7.75863 -7.758616 h 3.87931 3.87931 v -3.879311 -3.87931 h 3.87931 3.87931 v 3.87931 3.879311 h -3.87931 -3.87931 v 7.758616 7.75863 h 3.87931 3.87931 v -3.87932 -3.87931 h 3.87931 3.87931 v 3.87931 3.87932 h 15.51724 15.51724 v 15.51724 15.51724 h -3.87931 -3.87931 v 3.87931 3.87931 h 3.87931 3.87931 v 7.75862 7.75862 h -3.87931 -3.87931 v 3.87931 3.87931 h -3.87931 -3.87931 v 7.75862 7.75862 h 3.87931 3.87931 v -3.87931 -3.87931 h 3.87931 3.87931 v 7.75862 7.75862 h 3.87931 3.87931 v -3.87931 -3.87931 h 11.63793 11.63793 v -3.87931 -3.87931 h 3.87931 3.87931 V 161.5274 138.25154 H 563.1856 551.54767 v 3.87931 3.87931 h 7.75862 7.75862 v 7.75862 7.75862 h -7.75862 -7.75862 v 3.87931 3.87931 h 3.87931 3.87931 v 7.75862 7.75862 h -3.87931 -3.87931 v -7.75862 -7.75862 h -3.87931 -3.87931 v -3.87931 -3.87931 h 3.87931 3.87931 v -3.87931 -3.87931 h -3.87931 -3.87931 v -11.63793 -11.63793 h 3.87931 3.87931 v -3.87931 -3.87931 h -3.87931 -3.87931 v -3.87931 -3.87931 h 3.87931 3.87931 v -7.75863 -7.758616 h 3.87931 3.87931 v 15.517246 15.51724 h 11.63793 11.63793 v 3.87931 3.87931 h 3.87931 3.87931 v -3.87931 -3.87931 h 3.87931 3.87931 v -3.87931 -3.87931 h -7.75862 -7.75862 v -3.87931 -3.87931 h -3.87931 -3.87931 V 103.33774 91.699813 h -3.87931 -3.87931 v -3.879311 -3.87931 h -7.75862 -7.75862 v -3.879311 -3.87931 h 3.87931 3.87931 v -3.87931 -3.879311 h -3.87931 -3.87931 v -3.87931 -3.879311 h -3.87931 -3.87931 v -7.758621 -7.75862 h -3.87931 -3.87931 v 3.87931 3.87931 h -7.75862 -7.75862 v 3.879311 3.87931 h 7.75862 7.75862 v 3.879311 3.87931 h -3.87931 -3.87931 v 7.758621 7.758621 h 3.87931 3.87931 v 3.87931 3.879311 h -3.87931 -3.87931 v 7.758621 7.758616 h -7.75862 -7.75862 v -3.87931 -3.879306 h -3.87931 -3.87931 v -3.879311 -3.87931 h 3.87931 3.87931 v -7.758621 -7.758621 h -3.87931 -3.87931 v 3.87931 3.879311 h -3.87931 -3.87931 v -3.879311 -3.87931 h -3.87931 -3.87931 v 3.87931 3.879311 h -3.87931 -3.87931 v 3.87931 3.879311 h -3.87931 -3.87931 v 3.87931 3.879311 h -3.87931 -3.87931 v -3.879311 -3.87931 h -7.75863 -7.75862 v 3.87931 3.879311 h -7.75862 -7.75862 v -7.758621 -7.758621 h 3.87931 3.87931 v 3.87931 3.879311 h 3.87931 3.87931 v -3.879311 -3.87931 h 7.75862 7.75863 v -3.879311 -3.87931 h 3.87931 3.87931 v 3.87931 3.879311 h 3.87931 3.87931 V 68.42395 52.906708 h -7.75862 -7.75862 v -3.87931 -3.87931 h 7.75862 7.75862 V 29.630846 14.113604 h 3.87931 3.87931 v -3.87931 -3.8793104 h -3.87931 -3.87931 v -7.7586209 -7.7586208 h 7.75862 7.75862 v -3.8793109 -3.87931 h 3.87931 3.87931 v 7.7586209 7.7586208 h -7.75862 -7.75862 v 3.8793104 3.8793105 h 3.87931 3.87931 v 3.8793104 3.87931 h 3.87931 3.87931 v 15.517242 15.517242 h 3.87931 3.87931 v -7.758621 -7.758621 h 3.87931 3.87931 v -3.879311 -3.87931 h -3.87931 -3.87931 v -3.87931 -3.879311 h 3.87931 3.87931 v 3.879311 3.87931 h 3.87931 3.87931 V 2.4756731 -16.920879 h 7.75862 7.75862 V -5.2829477 6.3549836 h -3.87931 -3.87931 v 3.8793104 3.87931 h 3.87931 3.87931 v 7.758621 7.758621 h 3.87931 3.87931 v -7.758621 -7.758621 h 3.87931 3.87931 v -3.87931 -3.8793104 h -3.87931 -3.87931 V -5.2829477 -16.920879 h 11.63793 11.63793 v 3.87931 3.8793109 h -3.87931 -3.87931 v 3.8793104 3.8793104 h 7.75862 7.75862 v 3.8793104 3.8793105 h -3.87931 -3.87931 v 3.8793104 3.87931 h -3.87931 -3.87931 v 3.879311 3.87931 h 3.87931 3.87931 v 3.87931 3.879311 h 3.87931 3.87931 v 3.87931 3.879311 h -3.87931 -3.87931 v 7.758621 7.75862 h 3.87931 3.87931 V 64.54464 76.182571 h 3.87931 3.87931 v -3.87931 -3.879311 h 11.63794 11.63793 v -7.758621 -7.758621 h -7.75862 -7.75863 v 3.879311 3.87931 h -3.87931 -3.87931 v -7.758621 -7.75862 h 11.63794 11.63793 v 3.87931 3.87931 h 3.87931 3.87931 v -3.87931 -3.87931 h 7.75862 7.75862 v 3.87931 3.87931 h 3.87931 3.87931 v 3.879311 3.87931 h -3.87931 -3.87931 v 7.758621 7.758621 h 3.87931 3.87931 v 3.87931 3.879311 h -7.75862 -7.75862 v -3.879311 -3.87931 h -3.87931 -3.87931 v 3.87931 3.879311 h -3.87931 -3.87931 v -3.879311 -3.87931 h -7.75862 -7.75863 v 3.87931 3.879311 h 3.87932 3.87931 v 3.87931 3.879311 h -3.87931 -3.87932 v 3.87931 3.879311 h -3.87931 -3.87931 v 7.758616 7.75863 h 3.87931 3.87931 v -3.87932 -3.87931 h 3.87932 3.87931 v 11.63794 11.63793 h -3.87931 -3.87932 v 3.87931 3.87931 h 7.75863 7.75862 v 11.63793 11.63793 h 7.75862 7.75862 v -3.87931 -3.87931 h -3.87931 -3.87931 v -7.75862 -7.75862 h 3.87931 3.87931 v -7.75862 -7.75862 h 3.87931 3.87931 v -3.87931 -3.87931 h -3.87931 -3.87931 v -7.75863 -7.758616 h -3.87931 -3.87931 v 3.879306 3.87931 h -3.87931 -3.87931 v -7.758616 -7.758621 h 15.51724 15.51724 v 3.87931 3.879311 h -3.87931 -3.87931 v 7.758616 7.75863 h 3.87931 3.87931 v 11.63793 11.63793 h -7.75862 -7.75862 v 3.87931 3.87931 h 7.75862 7.75862 v 3.87931 3.87931 h -3.87931 -3.87931 v 3.87931 3.87931 h -3.87931 -3.87931 v 3.87931 3.87931 h -7.75862 -7.75862 v 3.87931 3.87931 h 7.75862 7.75862 v 7.75862 7.75862 h 3.87931 3.87931 v -3.87931 -3.87931 h 3.87931 3.87931 v 3.87931 3.87931 h -3.87931 -3.87931 v 7.75862 7.75863 h -3.87931 -3.87931 v -7.75863 -7.75862 h -7.75862 -7.75862 v 7.75862 7.75863 h -11.63793 -11.63794 v -3.87931 -3.87932 h 7.75862 7.75863 v -11.63793 -11.63793 h -3.87931 -3.87932 v 3.87931 3.87931 h -3.87931 -3.87931 v -3.87931 -3.87931 h -3.87931 -3.87931 v 3.87931 3.87931 h -3.87931 -3.87931 v 3.87931 3.87931 h 3.87931 3.87931 v 7.75862 7.75863 h -3.87931 -3.87931 v -3.87931 -3.87932 h -3.87931 -3.87931 v 3.87932 3.87931 h -7.75862 -7.75862 v -3.87931 -3.87932 h -3.87931 -3.87931 v 3.87932 3.87931 h -3.87931 -3.87931 z m -15.51724,-38.79311 v -3.87931 h 3.87931 3.87931 v -3.87931 -3.87931 h -3.87931 -3.87931 v -3.87931 -3.87931 h -3.87931 -3.87931 V 134.37223 122.7343 h -3.87931 -3.87931 v -3.87931 -3.87931 h -3.87931 -3.87931 v 3.87931 3.87931 h 3.87931 3.87931 v 3.87931 3.87931 h -3.87931 -3.87931 v 3.87931 3.87931 h -3.87931 -3.87931 v -3.87931 -3.87931 h -3.87931 -3.87931 v 3.87931 3.87931 h 3.87931 3.87931 v 3.87931 3.87931 h 3.87931 3.87931 v 3.87931 3.87931 h -3.87931 -3.87931 v 3.87931 3.87931 h 7.75862 7.75862 v 3.87931 3.87931 h 7.75862 7.75862 z m -7.75862,-7.75862 v -3.87931 h 3.87931 3.87931 v 3.87931 3.87931 h -3.87931 -3.87931 z m 93.10345,0 v -11.63793 h -11.63794 -11.63793 v 11.63793 11.63793 h 11.63793 11.63794 z m -15.51725,0 v -3.87931 h 3.87931 3.87931 v 3.87931 3.87931 h -3.87931 -3.87931 z m -116.3793,-23.27586 v -3.87931 h -3.87931 -3.87931 v -3.87931 -3.87931 h -11.63794 -11.63793 v 3.87931 3.87931 h 3.87931 3.87931 v 3.87931 3.87931 h 11.63793 11.63794 z m 54.31034,-3.87931 v -7.75862 h -3.87931 -3.87931 v 7.75862 7.75862 h 3.87931 3.87931 z m 62.06896,-34.913797 v -3.87931 h 3.87931 3.87931 v -3.879311 -3.87931 h -7.75862 -7.75862 v -3.879311 -3.87931 h -3.87931 -3.87931 v -3.87931 -3.879311 h -3.87931 -3.87931 v -3.87931 -3.879311 h 3.87931 3.87931 v -3.87931 -3.879311 h -3.87931 -3.87931 v -3.87931 -3.87931 h -7.75862 -7.75862 v -3.879311 -3.87931 h 3.87931 3.87931 v -3.879311 -3.87931 h -3.87931 -3.87931 v 3.87931 3.879311 h -3.87931 -3.87931 v -3.879311 -3.87931 h -3.87931 -3.87931 v -3.879311 -3.87931 h -3.87931 -3.87931 v 3.87931 3.879311 h -3.87931 -3.87931 v 7.758621 7.758621 h 7.75862 7.75862 v -3.879311 -3.87931 h 3.87931 3.87931 v 3.87931 3.879311 h 3.87931 3.87931 v 3.87931 3.87931 h 7.75862 7.75862 v 3.879311 3.87931 h -3.87931 -3.87931 v 3.879311 3.87931 h 3.87931 3.87931 v 7.758621 7.758621 h 7.75862 7.75862 v 7.758621 7.758621 h 3.87931 3.87931 z M 528.27181,33.510156 v -3.87931 h 3.87931 3.87931 v 3.87931 3.879311 h -3.87931 -3.87931 z m -54.31034,54.310346 v -3.87931 h -3.87931 -3.87931 v 3.87931 3.879311 h 3.87931 3.87931 z M 520.51319,68.42395 v -7.758621 h -3.87931 -3.87931 v -3.87931 -3.879311 h -3.87931 -3.87931 v -3.87931 -3.87931 h -3.87931 -3.87931 V 33.510156 21.872225 h -3.87931 -3.87931 v 11.637931 11.637932 h -3.87931 -3.87931 v 3.87931 3.87931 h 7.75862 7.75862 v 3.879311 3.87931 h -3.87931 -3.87931 v 3.879311 3.87931 h 11.63793 11.63793 v 3.879311 3.87931 h 3.87931 3.87931 z m 100.86207,3.879311 V 68.42395 h -3.87931 -3.87931 v 3.879311 3.87931 h 3.87931 3.87931 z M 636.8925,56.786019 v -3.879311 h -7.75862 -7.75862 v 3.879311 3.87931 h 7.75862 7.75862 z M 574.82353,33.510156 v -3.87931 h -3.87931 -3.87931 v 3.87931 3.879311 h 3.87931 3.87931 z M 636.8925,173.16533 v -3.87931 h 3.87931 3.87931 v 3.87931 3.87931 h -3.87931 -3.87931 z M 419.65112,142.13085 v -3.87931 h 3.87931 3.87931 v 3.87931 3.87931 h -3.87931 -3.87931 z m 193.96552,-23.27586 v -3.87931 h 3.87931 3.87931 v 3.87931 3.87931 h -3.87931 -3.87931 z m -77.58621,-15.51725 v -3.879306 h 3.87931 3.87931 v 3.879306 3.87931 h -3.87931 -3.87931 z M 419.65112,91.699813 v -7.758621 h 3.87931 3.87931 v 7.758621 7.758621 h -3.87931 -3.87931 z m 0,-19.396552 V 68.42395 h 7.75862 7.75862 v 3.879311 3.87931 h -7.75862 -7.75862 z m 23.27586,-3.879311 v -7.758621 h -3.87931 -3.87931 v -3.87931 -3.879311 h -7.75862 -7.75862 v -3.87931 -3.87931 h 7.75862 7.75862 v 3.87931 3.87931 h 3.87931 3.87931 v -3.87931 -3.87931 h 3.87931 3.87931 v 3.87931 3.87931 h 3.87931 3.87931 v 3.879311 3.87931 h 7.75863 7.75862 v 3.879311 3.87931 h -7.75862 -7.75863 v 3.879311 3.87931 h -7.75862 -7.75862 z m 15.51724,-3.87931 v -3.879311 h -3.87931 -3.87931 v 3.879311 3.87931 h 3.87931 3.87931 z m -38.7931,-54.310346 v -27.155173 h 27.15517 27.15518 v 27.155173 27.155173 h -27.15518 -27.15517 z m 46.55173,0 V -9.1622581 H 446.80629 427.40974 V 10.234294 29.630846 h 19.39655 19.39656 z m -31.03449,0 V -1.4036373 h 11.63793 11.63793 V 10.234294 21.872225 h -11.63793 -11.63793 z m 155.17241,0 v -27.155173 h 27.15518 27.15517 v 27.155173 27.155173 h -27.15517 -27.15518 z m 46.55173,0 V -9.1622581 H 617.49595 598.09939 V 10.234294 29.630846 h 19.39656 19.39655 z m -31.03448,0 V -1.4036373 h 11.63793 11.63793 V 10.234294 21.872225 h -11.63793 -11.63793 z"
       id="path35737" />
  </g>
</svg>
