<?xml version="1.0" encoding="UTF-8" standalone="no"?>
<!-- Created with Inkscape (http://www.inkscape.org/) -->

<svg
   version="1.1"
   id="svg854"
   width="223.27943"
   height="223.2794"
   viewBox="0 0 223.27943 223.2794"
   sodipodi:docname="jaon.svg"
   inkscape:version="1.1.2 (0a00cf5339, 2022-02-04)"
   xmlns:inkscape="http://www.inkscape.org/namespaces/inkscape"
   xmlns:sodipodi="http://sodipodi.sourceforge.net/DTD/sodipodi-0.dtd"
   xmlns="http://www.w3.org/2000/svg"
   xmlns:svg="http://www.w3.org/2000/svg">
  <defs
     id="defs858" />
  <sodipodi:namedview
     id="namedview856"
     pagecolor="#ffffff"
     bordercolor="#666666"
     borderopacity="1.0"
     inkscape:pageshadow="2"
     inkscape:pageopacity="0.0"
     inkscape:pagecheckerboard="0"
     showgrid="false"
     inkscape:zoom="0.89802561"
     inkscape:cx="380.83546"
     inkscape:cy="673.70016"
     inkscape:window-width="3840"
     inkscape:window-height="2123"
     inkscape:window-x="0"
     inkscape:window-y="0"
     inkscape:window-maximized="1"
     inkscape:current-layer="g860"
     fit-margin-top="0"
     fit-margin-left="0"
     fit-margin-right="0"
     fit-margin-bottom="0" />
  <g
     inkscape:groupmode="layer"
     inkscape:label="Image"
     id="g860"
     transform="translate(-41.50533,-42.291106)">
    <path
       style="fill:#116c86;fill-opacity:1;stroke-width:0.233312"
       d="M 41.50533,238.62301 V 211.67549 H 68.452844 95.40036 v 26.94752 26.9475 H 68.452844 41.50533 Z m 46.195739,0 V 219.37478 H 68.452844 49.20462 v 19.24823 19.24821 h 19.248224 19.248225 z m -30.797158,0 v -11.54894 h 11.548933 11.548935 v 11.54894 11.54893 H 68.452844 56.903911 Z m 46.195739,7.69929 v -19.24823 h 7.69929 7.69929 v -3.84964 -3.84965 h -7.69929 -7.69929 v -7.69929 -7.69929 h 7.69929 7.69929 v -3.84964 -3.84965 h 3.84965 3.84964 v -3.84964 -3.84965 h -7.69929 -7.69929 v 3.84965 3.84964 h -3.84964 -3.84965 v -7.69929 -7.69929 H 99.250005 95.40036 v 3.84964 3.84965 h -3.849646 -3.849645 v 3.84965 3.84964 h 3.849645 3.849646 v 3.84965 3.84964 h -3.849646 -3.849645 v -3.84964 -3.84965 h -3.849645 -3.849645 v 3.84965 3.84964 H 68.452844 56.903911 v -7.69929 -7.69929 h 3.849642 3.849646 v 3.84965 3.84964 h 7.69929 7.69929 v -3.84964 -3.84965 h -3.849645 -3.849645 v -7.69929 -7.69929 h 3.849645 3.849645 v 7.69929 7.69929 h 3.849645 3.849645 v -3.84965 -3.84964 h 3.849645 3.849646 v -3.84965 -3.84964 h -3.849646 -3.849645 v -3.84965 -3.84964 h -3.849645 -3.849645 v -3.84965 -3.84964 H 68.452844 56.903911 v 3.84964 3.84965 h 3.849642 3.849646 v 7.69929 7.69929 H 56.903911 49.20462 v 11.54894 11.54893 H 45.354975 41.50533 v -15.39858 -15.39858 h 3.849645 3.849645 v -7.69929 -7.69929 h 3.849645 3.849646 V 146.23152 134.68259 H 49.20462 41.50533 v -3.84965 -3.84964 h 3.849645 3.849645 v -7.69929 -7.69929 H 45.354975 41.50533 v -3.84965 -3.84964 h 19.248223 19.248226 v 3.84964 3.84965 h 3.849645 3.849645 v -3.84965 -3.84964 h 19.248231 19.24822 v 3.84964 3.84965 h -3.84964 -3.84965 v 7.69929 7.69929 h 3.84965 3.84964 v -3.84965 -3.84964 h 11.54894 11.54893 v -3.84965 -3.84964 h -7.69929 -7.69929 V 100.03578 88.486846 h 3.84965 3.84964 v 7.699291 7.699293 h 3.84965 3.84964 v -7.699293 -7.699291 h 3.84965 3.84964 v -3.849645 -3.849645 h 3.84965 3.84964 v 3.849645 3.849645 h 3.84965 3.84964 V 76.937911 65.388975 h -3.84964 -3.84965 V 61.53933 57.689685 h -3.84964 -3.84965 v -3.849644 -3.849645 h 3.84965 3.84964 V 46.14075 42.291106 h 19.24823 19.24822 v 3.849644 3.849646 h -15.39858 -15.39858 v 7.699289 7.69929 h 3.84965 3.84964 V 61.53933 57.689685 h 11.54894 11.54893 v 3.849645 3.849645 h -11.54893 -11.54894 v 3.849646 3.849645 h 11.54894 11.54893 v 11.548935 11.548936 h -3.84964 -3.84965 v 7.699293 7.69929 h 3.84965 3.84964 v -3.84965 -3.84964 h 3.84965 3.84964 v 3.84964 3.84965 h 3.84965 3.84964 v -3.84965 -3.84964 h 3.84965 3.84964 v 3.84964 3.84965 h 3.84965 3.84964 v -3.84965 -3.84964 h 3.84966 3.84965 v 3.84964 3.84965 h -3.84965 -3.84966 v 3.84964 3.84965 h -11.54893 -11.54894 v 3.84964 3.84965 h 7.69929 7.69929 v 3.84964 3.84965 h -7.69929 -7.69929 v -3.84965 -3.84964 h -3.84964 -3.84965 v -3.84965 -3.84964 h -7.69929 -7.69929 V 107.73507 96.186137 h -3.84964 -3.84965 v -3.849646 -3.849645 h -3.84964 -3.84965 v 7.699291 7.699293 h 3.84965 3.84964 v 3.84964 3.84965 h -3.84964 -3.84965 v 3.84964 3.84965 h 3.84965 3.84964 v 3.84964 3.84965 h -3.84964 -3.84965 v -3.84965 -3.84964 h -3.84964 -3.84965 v 3.84964 3.84965 h -3.84964 -3.84965 v 3.84964 3.84965 h 15.39858 15.39858 v -3.84965 -3.84964 h 3.84965 3.84964 v 3.84964 3.84965 h 3.84965 3.84964 v 7.69929 7.69929 h 3.84965 3.84964 v -3.84965 -3.84964 h 3.84965 3.84964 v 3.84964 3.84965 h 3.84965 3.84964 v -3.84965 -3.84964 h 3.84965 3.84964 v -7.69929 -7.69929 h 3.84966 3.84965 v 3.84964 3.84965 h 3.84964 3.84965 v -3.84965 -3.84964 h 3.84964 3.84965 v 3.84964 3.84965 h -3.84965 -3.84964 v 3.84964 3.84965 h -7.69929 -7.69931 v 3.84964 3.84965 h 7.69931 7.69929 v 3.84964 3.84965 h 3.84964 3.84965 v 3.84964 3.84965 h -3.84965 -3.84964 v 11.54893 11.54894 h 3.84964 3.84965 v 3.84965 3.84964 h 3.84964 3.84965 v 7.69929 7.69929 h -7.69929 -7.69929 v 3.84965 3.84964 h -7.69929 -7.69931 v 7.69929 7.69929 h 3.84966 3.84965 v -3.84964 -3.84965 h 3.84964 3.84965 v 3.84965 3.84964 h 3.84964 3.84965 v -3.84964 -3.84965 h 3.84964 3.84965 v 7.69929 7.69929 h -3.84965 -3.84964 v 7.69929 7.69928 h -3.84965 -3.84964 v 3.84965 3.84964 h -23.09789 -23.09787 v -3.84964 -3.84965 h -3.84964 -3.84965 v 3.84965 3.84964 H 183.9422 172.39326 v -3.84964 -3.84965 h -3.84964 -3.84965 v -3.84963 -3.84965 H 153.14504 141.5961 v 3.84965 3.84963 h 7.69929 7.69929 v 3.84965 3.84964 h -11.54893 -11.54894 v -3.84964 -3.84965 h -3.84964 -3.84965 v -3.84963 -3.84965 h 7.69929 7.69929 v -3.84964 -3.84965 h 3.84965 3.84964 v -3.84964 -3.84965 h -7.69929 -7.69929 v 3.84965 3.84964 h -3.84964 -3.84965 v -3.84964 -3.84965 h -7.69929 -7.69929 v 3.84965 3.84964 h 3.84965 3.84964 v 3.84965 3.84964 h -3.84964 -3.84965 v 3.84965 3.84963 h 3.84965 3.84964 v 3.84965 3.84964 h -7.69929 -7.69929 z m 92.39148,7.69929 v -3.84965 h 3.84965 3.84964 v 3.84965 3.84963 h 7.69929 7.69929 v -3.84963 -3.84965 h -7.69929 -7.69929 v -3.84964 -3.84965 h 7.69929 7.69929 v -3.84964 -3.84965 h -7.69929 -7.69929 v 3.84965 3.84964 h -3.84964 -3.84965 v -7.69929 -7.69929 h -7.69929 -7.69929 v -3.84964 -3.84965 h -3.84964 -3.84965 v -3.84964 -3.84965 h 7.69929 7.69929 v -3.84964 -3.84965 h 3.84965 3.84964 v -3.84964 -3.84965 h -3.84964 -3.84965 v -3.84964 -3.84965 h 3.84965 3.84964 v -3.84965 -3.84964 h -7.69929 -7.69929 v 3.84964 3.84965 h -23.09787 -23.09787 v 3.84965 3.84964 h 7.69929 7.69929 v 7.69929 7.69929 h 7.69929 7.69929 v 3.84965 3.84964 h -15.39858 -15.39858 v -7.69929 -7.69929 h -3.84964 -3.84965 v 7.69929 7.69929 h 3.84965 3.84964 v 3.84965 3.84964 h -3.84964 -3.84965 v 3.84965 3.84964 h 3.84965 3.84964 v -3.84964 -3.84965 h 15.39858 15.39858 v -3.84964 -3.84965 h 3.84965 3.84964 v 3.84965 3.84964 h 3.84965 3.84964 v 3.84965 3.84964 h -3.84964 -3.84965 v 3.84965 3.84964 h 3.84965 3.84964 v 3.84965 3.84964 h -3.84964 -3.84965 v 3.84965 3.84963 h 11.54894 11.54893 z m -7.69929,-7.69929 v -3.84965 h -3.84964 -3.84965 v -3.84964 -3.84965 h 3.84965 3.84964 v 3.84965 3.84964 h 3.84965 3.84964 v 3.84965 3.84964 h -3.84964 -3.84965 z m -23.09787,-38.49645 v -3.84965 h -3.84964 -3.84965 v -3.84964 -3.84965 h 3.84965 3.84964 v 3.84965 3.84964 h 3.84965 3.84964 v -3.84964 -3.84965 h 3.84965 3.84964 v 3.84965 3.84964 h -3.84964 -3.84965 v 3.84965 3.84964 h -3.84964 -3.84965 z m 69.29361,46.19574 v -3.84965 h -3.84964 -3.84965 v 3.84965 3.84963 h 3.84965 3.84964 z m 15.3986,0 v -3.84965 h -3.84965 -3.84964 v 3.84965 3.84963 h 3.84964 3.84965 z m -84.69221,-15.39858 v -3.84965 h -3.84964 -3.84965 v 3.84965 3.84964 h 3.84965 3.84964 z m 69.29361,0 v -3.84965 h -3.84964 -3.84965 v 3.84965 3.84964 h 3.84965 3.84964 z m -7.69929,-23.09787 V 203.9762 h -11.54893 -11.54894 v 11.54894 11.54893 h 11.54894 11.54893 z m -15.39858,0 v -3.84965 h 3.84965 3.84964 v 3.84965 3.84964 h -3.84964 -3.84965 z m 30.79718,-15.39858 v -3.84965 h 3.84964 3.84965 v -3.84964 -3.84965 h -3.84965 -3.84964 v -7.69929 -7.69929 h -3.84965 -3.84966 v -3.84965 -3.84964 h 7.69931 7.69929 v -3.84965 -3.84964 h -7.69929 -7.69931 v -3.84965 -3.84964 h -3.84964 -3.84965 v 3.84964 3.84965 h 3.84965 3.84964 v 3.84964 3.84965 h -3.84964 -3.84965 v 3.84964 3.84965 h 3.84965 3.84964 v 3.84964 3.84965 h -3.84964 -3.84965 v 3.84964 3.84965 h 3.84965 3.84964 v 7.69929 7.69929 h 3.84966 3.84965 z M 218.589,192.42727 v -3.84965 h -7.69929 -7.69929 v 3.84965 3.84964 h 7.69929 7.69929 z m -76.9929,-15.39859 v -3.84964 h -3.84964 -3.84965 v -7.69929 -7.69929 h 3.84965 3.84964 v 3.84964 3.84965 h 3.84965 3.84964 v -3.84965 -3.84964 h -3.84964 -3.84965 v -3.84965 -3.84964 h -3.84964 -3.84965 v -3.84965 -3.84964 h 3.84965 3.84964 v -3.84965 -3.84964 h 3.84965 3.84964 v -3.84965 -3.84964 h 3.84965 3.84964 v -3.84965 -3.84964 h 3.84965 3.84964 v -3.84965 -3.84964 h 3.84965 3.84964 v -3.84965 -3.84964 h -3.84964 -3.84965 v 3.84964 3.84965 h -3.84964 -3.84965 v 3.84964 3.84965 h -3.84964 -3.84965 v 3.84964 3.84965 h -7.69929 -7.69929 v 7.69929 7.69929 h -3.84964 -3.84965 v -3.84965 -3.84964 h -3.84964 -3.84965 v 3.84964 3.84965 h 3.84965 3.84964 v 3.84964 3.84965 h -7.69929 -7.69929 v -3.84965 -3.84964 h -3.84964 -3.84965 v -3.84965 -3.84964 H 99.250005 95.40036 v -3.84965 -3.84964 h -7.699291 -7.69929 v -3.84965 -3.84964 h -3.849645 -3.849645 v -3.84965 -3.84964 h -3.849645 -3.849645 v 3.84964 3.84965 h -3.849646 -3.849642 v 7.69929 7.69929 h 3.849642 3.849646 v 7.69929 7.69929 h 3.849645 3.849645 v -7.69929 -7.69929 h 3.849645 3.849645 v 7.69929 7.69929 h 7.69929 7.699291 v -3.84965 -3.84964 h 3.849645 3.849645 v 7.69929 7.69929 h -7.69929 -7.699291 v 3.84964 3.84965 h 7.699291 7.69929 v -3.84965 -3.84964 h 3.84965 3.84964 v 11.54893 11.54894 h 15.39858 15.39858 z m -23.09787,-7.69929 v -3.84964 h 3.84965 3.84964 v 3.84964 3.84965 h -3.84964 -3.84965 z M 87.701069,138.53223 v -3.84964 h 3.849645 3.849646 v 3.84964 3.84965 H 91.550714 87.701069 Z M 64.603199,126.9833 v -7.69929 h 3.849645 3.849645 v 7.69929 7.69929 h -3.849645 -3.849645 z m 100.090771,50.04538 v -3.84964 h 3.84965 3.84964 v -3.84965 -3.84964 h 3.84965 3.84964 v 3.84964 3.84965 h 3.84965 3.84964 v -3.84965 -3.84964 h -3.84964 -3.84965 v -3.84965 -3.84964 h 7.69929 7.69929 v -3.84965 -3.84964 h -7.69929 -7.69929 v 3.84964 3.84965 h -7.69929 -7.69929 v 7.69929 7.69929 h -7.69929 -7.69929 v 3.84964 3.84965 h 7.69929 7.69929 z M 218.589,161.6301 v -11.54893 h -3.84964 -3.84965 v 7.69929 7.69929 h -7.69929 -7.69929 v 3.84964 3.84965 h 11.54894 11.54893 z m -53.89503,-15.39858 v -3.84964 h -7.69929 -7.69929 v 3.84964 3.84965 h 7.69929 7.69929 z m 30.79716,-7.69929 v -3.84964 h -3.84964 -3.84965 v 3.84964 3.84965 h 3.84965 3.84964 z M 95.40036,115.43436 v -3.84964 h -3.849646 -3.849645 v 3.84964 3.84965 h 3.849645 3.849646 z m 115.48935,0 v -3.84964 h -3.84964 -3.84965 v 3.84964 3.84965 h 3.84965 3.84964 z M 164.69397,92.336491 v -3.849645 h -3.84964 -3.84965 v 3.849645 3.849646 h 3.84965 3.84964 z m 30.79716,-3.849645 v -7.69929 h -7.69929 -7.69929 v 3.849645 3.849645 h 3.84965 3.84964 v 3.849645 3.849646 h 3.84965 3.84964 z m 61.59434,88.541834 v -3.84964 h 3.84964 3.84965 v 3.84964 3.84965 h -3.84965 -3.84964 z m 0,-30.79716 v -3.84964 h 3.84964 3.84965 v 3.84964 3.84965 h -3.84965 -3.84964 z m 0,-30.79716 v -3.84964 h -3.84965 -3.84964 v -3.84965 -3.84964 h 3.84964 3.84965 v 3.84964 3.84965 h 3.84964 3.84965 v 3.84964 3.84965 h -3.84965 -3.84964 z M 41.50533,69.238621 V 42.291106 H 68.452844 95.40036 V 69.238621 96.186137 H 68.452844 41.50533 Z m 46.195739,0 V 49.990396 H 68.452844 49.20462 v 19.248225 19.248225 h 19.248224 19.248225 z m -30.797158,0 V 57.689685 H 68.452844 80.001779 V 69.238621 80.787556 H 68.452844 56.903911 Z m 46.195739,19.248225 v -7.69929 h 3.84965 3.84964 v 7.69929 7.699291 h -3.84964 -3.84965 z m 15.39858,-3.849645 V 73.088266 h -7.69929 -7.69929 v -3.849645 -3.849646 h 3.84965 3.84964 V 61.53933 57.689685 h -3.84964 -3.84965 v -3.849644 -3.849645 h 3.84965 3.84964 V 46.14075 42.291106 h 3.84965 3.84964 v 7.69929 7.699289 h 3.84965 3.84964 v -3.849644 -3.849645 h 7.69929 7.69929 V 46.14075 42.291106 h 3.84965 3.84964 v 7.69929 7.699289 h -7.69929 -7.69929 v 7.69929 7.699291 h 3.84965 3.84964 v -3.849645 -3.849646 h 7.69929 7.69929 v 3.849646 3.849645 h -7.69929 -7.69929 v 3.849645 3.849645 h -3.84964 -3.84965 v -3.849645 -3.849645 h -3.84964 -3.84965 v 11.548935 11.548936 h -3.84964 -3.84965 z m 7.69929,-15.39858 v -3.849646 h -3.84964 -3.84965 v 3.849646 3.849645 h 3.84965 3.84964 z m 84.69219,0 V 42.291106 h 26.94753 26.94752 v 26.947515 26.947516 h -26.94752 -26.94753 z m 46.19576,0 V 49.990396 H 237.83724 218.589 v 19.248225 19.248225 h 19.24824 19.24823 z m -30.79718,0 V 57.689685 h 11.54895 11.54894 v 11.548936 11.548935 h -11.54894 -11.54895 z"
       id="path15595" />
  </g>
</svg>
