<?xml version="1.0" encoding="UTF-8" standalone="no"?>
<!-- Created with Inkscape (http://www.inkscape.org/) -->

<svg
   version="1.1"
   id="svg854"
   width="223.65973"
   height="223.65973"
   viewBox="0 0 223.65972 223.65973"
   sodipodi:docname="jon.svg"
   inkscape:version="1.1.2 (0a00cf5339, 2022-02-04)"
   xmlns:inkscape="http://www.inkscape.org/namespaces/inkscape"
   xmlns:sodipodi="http://sodipodi.sourceforge.net/DTD/sodipodi-0.dtd"
   xmlns="http://www.w3.org/2000/svg"
   xmlns:svg="http://www.w3.org/2000/svg">
  <defs
     id="defs858" />
  <sodipodi:namedview
     id="namedview856"
     pagecolor="#ffffff"
     bordercolor="#666666"
     borderopacity="1.0"
     inkscape:pageshadow="2"
     inkscape:pageopacity="0.0"
     inkscape:pagecheckerboard="0"
     showgrid="false"
     inkscape:zoom="0.89802561"
     inkscape:cx="390.85745"
     inkscape:cy="673.70016"
     inkscape:window-width="3840"
     inkscape:window-height="2123"
     inkscape:window-x="0"
     inkscape:window-y="0"
     inkscape:window-maximized="1"
     inkscape:current-layer="g860"
     fit-margin-top="0"
     fit-margin-left="0"
     fit-margin-right="0"
     fit-margin-bottom="0" />
  <g
     inkscape:groupmode="layer"
     inkscape:label="Image"
     id="g860"
     transform="translate(-43.730194,-43.163248)">
    <path
       style="fill:#116c86;fill-opacity:1;stroke-width:0.233709"
       d="m 43.730194,239.82956 v -26.99341 h 26.993415 26.993415 v 26.99341 26.99341 H 70.723609 43.730194 Z m 46.274426,0 V 220.54855 H 70.723609 51.442598 v 19.28101 19.28101 H 70.723609 90.00462 Z m -30.849618,0 v -11.5686 h 11.568607 11.568606 v 11.5686 11.56861 H 70.723609 59.155002 Z m 46.274428,7.71241 v -19.28101 h 3.8562 3.8562 v -3.85621 -3.8562 h -3.8562 -3.8562 v -7.7124 -7.71241 H 97.717024 90.00462 v -3.8562 -3.8562 h -3.856202 -3.856203 v 3.8562 3.8562 h -3.856202 -3.856202 v -3.8562 -3.8562 h -3.856202 -3.856203 v 3.8562 3.8562 h -3.856202 -3.856202 v -3.8562 -3.8562 h 3.856202 3.856202 v -3.8562 -3.85621 h -3.856202 -3.856202 v -3.8562 -3.8562 h -3.856201 -3.856203 v 11.56861 11.5686 h -3.856202 -3.856202 v -19.28101 -19.28101 h 3.856202 3.856202 v -7.7124 -7.71241 h -3.856202 -3.856202 v -7.7124 -7.71241 h 3.856202 3.856202 v -3.8562 -3.8562 h -3.856202 -3.856202 v -11.56861 -11.56861 h 19.28101 19.281011 v 3.85621 3.8562 h -7.712404 -7.712405 v 3.8562 3.8562 h 15.424809 15.424809 v -3.8562 -3.8562 H 93.860822 90.00462 v -3.8562 -3.85621 h 19.28101 19.281 v 3.85621 3.8562 h -3.8562 -3.85619 v 7.7124 7.71241 h 3.85619 3.8562 v -3.8562 -3.85621 h 7.71241 7.7124 v -3.8562 -3.8562 h -3.8562 -3.8562 V 101.00628 89.437675 h 3.8562 3.8562 v -3.856202 -3.856202 h -3.8562 -3.8562 v -3.856202 -3.856203 h -3.8562 -3.85621 V 85.581473 97.15008 h -3.8562 -3.85619 V 85.581473 74.012866 h -7.71241 -7.7124 v -3.856202 -3.856202 h 3.8562 3.8562 V 62.44426 58.588057 h -3.8562 -3.8562 v -3.856202 -3.856203 h 3.8562 3.8562 V 47.01945 43.163248 h 3.85621 3.8562 v 7.712404 7.712405 h 3.85619 3.8562 v -3.856202 -3.856203 h 7.71241 7.7124 V 47.01945 43.163248 h 3.8562 3.85621 v 7.712404 7.712405 h -7.71241 -7.7124 v 7.712405 7.712404 h 3.8562 3.8562 v -3.856202 -3.856202 h 7.71241 7.7124 v 3.856202 3.856202 h -3.8562 -3.8562 v 3.856203 3.856202 h 7.7124 7.71241 v 3.856202 3.856202 h 3.8562 3.8562 V 77.869069 66.300462 h -3.8562 -3.8562 V 62.44426 58.588057 h -3.85621 -3.8562 v -3.856202 -3.856203 h 3.8562 3.85621 V 47.01945 43.163248 h 19.28101 19.28101 v 3.856202 3.856202 h -15.42481 -15.42481 v 7.712405 7.712405 h 3.8562 3.8562 V 62.44426 58.588057 h 11.56861 11.56861 v 3.856203 3.856202 h -11.56861 -11.56861 v 3.856202 3.856202 h 11.56861 11.56861 V 85.581473 97.15008 h -3.8562 -3.85621 v 7.7124 7.71241 h 3.85621 3.8562 v -3.8562 -3.85621 h 3.8562 3.8562 v 3.85621 3.8562 h 3.8562 3.85621 v -3.8562 -3.85621 h 3.8562 3.8562 v 3.85621 3.8562 h 3.8562 3.85621 v -3.8562 -3.85621 h 3.8562 3.8562 v 3.85621 3.8562 h -3.8562 -3.8562 v 3.8562 3.8562 h -11.56861 -11.56861 v 3.85621 3.8562 h 7.71241 7.7124 v 3.8562 3.8562 h -7.7124 -7.71241 v -3.8562 -3.8562 h -3.8562 -3.8562 v -3.8562 -3.85621 h -7.71241 -7.7124 v -11.5686 -11.56861 h -3.8562 -3.85621 v -3.856203 -3.856202 h -3.8562 -3.8562 v 7.712405 7.7124 h 3.8562 3.8562 v 3.85621 3.8562 h -3.8562 -3.8562 v 3.8562 3.8562 h 3.8562 3.8562 v 3.85621 3.8562 h -3.8562 -3.8562 v -3.8562 -3.85621 h -3.8562 -3.8562 v 3.85621 3.8562 h -15.42481 -15.42481 v 7.7124 7.71241 h 3.8562 3.8562 v -3.85621 -3.8562 h 3.8562 3.85621 v 7.71241 7.7124 h 7.7124 7.71241 v -3.8562 -3.8562 h -3.85621 -3.8562 v -3.85621 -3.8562 h 15.42481 15.42481 v -3.8562 -3.8562 h 3.8562 3.8562 v 3.8562 3.8562 h 3.85621 3.8562 v 7.71241 7.7124 h 3.8562 3.8562 v -3.8562 -3.8562 h 3.8562 3.85621 v 3.8562 3.8562 h 3.8562 3.8562 v -3.8562 -3.8562 h 3.8562 3.85621 v -7.71241 -7.7124 h 3.8562 3.8562 v 3.8562 3.8562 h 3.8562 3.8562 v -3.8562 -3.8562 h 3.85621 3.8562 v 3.8562 3.8562 h -3.8562 -3.85621 v 3.8562 3.85621 h -7.7124 -7.7124 v 3.8562 3.8562 h 7.7124 7.7124 v 3.8562 3.85621 h 3.85621 3.8562 v 3.8562 3.8562 h -3.8562 -3.85621 v 11.56861 11.5686 h 3.85621 3.8562 v 3.85621 3.8562 h 3.8562 3.85621 v 7.7124 7.71241 h -7.71241 -7.71241 v 3.8562 3.8562 h -7.7124 -7.7124 v 7.71241 7.7124 h 3.8562 3.8562 v -3.8562 -3.8562 h 7.7124 7.71241 v -3.85621 -3.8562 h 3.8562 3.85621 v 11.56861 11.5686 h -3.85621 -3.8562 v 7.71241 7.7124 h -3.8562 -3.85621 v 3.85621 3.85619 h -23.13721 -23.13721 v -3.85619 -3.85621 h -3.8562 -3.85621 v 3.85621 3.85619 h -11.5686 -11.56861 v -3.85619 -3.85621 h -3.8562 -3.8562 v -3.8562 -3.8562 h -15.42481 -15.42481 v 3.8562 3.8562 h 3.8562 3.8562 v 3.85621 3.85619 h -7.7124 -7.71241 v -3.85619 -3.85621 h -3.8562 -3.85619 v 3.85621 3.85619 h -7.71241 -7.7124 z m 92.54884,7.7124 v -3.8562 h 3.85621 3.8562 v 3.8562 3.8562 h 7.7124 7.71241 v -3.8562 -3.8562 h -7.71241 -7.7124 v -3.8562 -3.85621 h 7.7124 7.71241 v -3.8562 -3.8562 h -7.71241 -7.7124 v 3.8562 3.8562 h -3.8562 -3.85621 v -7.7124 -7.7124 h -7.7124 -7.71241 v -3.85621 -3.8562 h -3.8562 -3.8562 v -3.8562 -3.8562 h 7.7124 7.71241 v -3.85621 -3.8562 h 3.8562 3.8562 v -3.8562 -3.8562 h -3.8562 -3.8562 v -3.8562 -3.85621 h 3.8562 3.8562 v -3.8562 -3.8562 h -7.7124 -7.71241 v 3.8562 3.8562 h -23.13721 -23.13721 v 7.71241 7.7124 h -7.71241 -7.71239 v -3.8562 -3.8562 h 3.85619 3.8562 v -7.71241 -7.7124 h 11.56861 11.56861 v -3.8562 -3.85621 h -7.71241 -7.7124 v -7.7124 -7.7124 h 3.8562 3.8562 v 3.8562 3.8562 h 7.71241 7.7124 v -3.8562 -3.8562 h -7.7124 -7.71241 v -3.85621 -3.8562 h -3.8562 -3.8562 v -3.8562 -3.8562 h -3.8562 -3.85621 v -3.85621 -3.8562 h -3.8562 -3.85619 v 3.8562 3.85621 h -3.8562 -3.85621 v 3.8562 3.8562 h -7.7124 -7.712406 v -3.8562 -3.8562 H 93.860822 90.00462 v -3.85621 -3.8562 h 11.56861 11.5686 v -3.8562 -3.8562 H 86.148418 59.155002 v -3.8562 -3.85621 h -3.856201 -3.856203 v 3.85621 3.8562 h 3.856203 3.856201 v 3.8562 3.8562 h -3.856201 -3.856203 v 7.71241 7.7124 h 3.856203 3.856201 v -7.7124 -7.71241 h 3.856202 3.856202 v 3.8562 3.85621 h 7.712405 7.712404 v 11.5686 11.56861 h 7.712405 7.712404 v 3.8562 3.8562 H 86.148418 74.579811 v -11.5686 -11.56861 h -3.856202 -3.856203 v 3.8562 3.85621 h -3.856202 -3.856202 v 3.8562 3.8562 h 3.856202 3.856202 v 3.8562 3.8562 h -3.856202 -3.856202 v 3.85621 3.8562 h 3.856202 3.856202 v -3.8562 -3.85621 h 3.856203 3.856202 v 11.56861 11.56861 h 3.856202 3.856202 v -7.71241 -7.7124 h 7.712405 7.712404 v 3.8562 3.8562 H 93.860822 90.00462 v 3.85621 3.8562 h 7.712404 7.712406 v 3.8562 3.8562 h 3.8562 3.8562 v 7.71241 7.7124 h 7.71241 7.71239 v 3.8562 3.85621 h -7.71239 -7.71241 v 3.8562 3.8562 h 3.85621 3.8562 v 3.8562 3.8562 h -3.8562 -3.85621 v 3.85621 3.8562 h 3.85621 3.8562 v -3.8562 -3.85621 h 23.1372 23.13722 v -3.8562 -3.8562 h -15.42481 -15.42481 v -7.7124 -7.71241 h 3.8562 3.8562 v 3.8562 3.85621 h 3.8562 3.85621 v -3.85621 -3.8562 h 3.8562 3.8562 v 3.8562 3.85621 h 3.8562 3.85621 v -3.85621 -3.8562 h 3.8562 3.8562 v 3.8562 3.85621 h 3.8562 3.8562 v 3.8562 3.8562 h -3.8562 -3.8562 v 3.8562 3.8562 h 3.8562 3.8562 v 3.85621 3.8562 h -3.8562 -3.8562 v 3.8562 3.8562 h 11.56861 11.5686 z m -7.7124,-7.7124 v -3.85621 h -3.8562 -3.85621 v -3.8562 -3.8562 h 3.85621 3.8562 v 3.8562 3.8562 h 3.8562 3.8562 v 3.85621 3.8562 h -3.8562 -3.8562 z m -46.27443,-30.84962 v -3.8562 h -3.8562 -3.8562 v -3.85621 -3.8562 h 3.8562 3.8562 v -3.8562 -3.8562 h 11.56861 11.56861 v 3.8562 3.8562 h 3.8562 3.8562 v -3.8562 -3.8562 h 3.8562 3.8562 v 3.8562 3.8562 h -3.8562 -3.8562 v 3.8562 3.85621 h -3.8562 -3.8562 v 3.8562 3.8562 h -3.85621 -3.8562 v -3.8562 -3.8562 h 3.8562 3.85621 v -3.85621 -3.8562 h -11.56861 -11.56861 v 3.8562 3.85621 h 3.8562 3.85621 v 3.8562 3.8562 h -3.85621 -3.8562 z m -38.56201,-26.99342 v -7.7124 h 3.8562 3.8562 v -3.8562 -3.85621 h -3.8562 -3.8562 v -3.8562 -3.8562 h -3.8562 -3.856206 v -3.8562 -3.8562 H 93.860822 90.00462 v -3.85621 -3.8562 h 3.856202 3.856202 v 3.8562 3.85621 h 15.424806 15.4248 v 11.5686 11.56861 h -7.71239 -7.71241 v 3.8562 3.8562 h 3.85621 3.8562 v 3.85621 3.8562 h -7.71241 -7.7124 z m 15.42481,-42.41822 v -3.8562 h 3.85619 3.8562 v 3.8562 3.8562 h -3.8562 -3.85619 z M 236.5403,255.25437 v -3.8562 h -3.85621 -3.8562 v 3.8562 3.8562 h 3.8562 3.85621 z m 15.4248,0 v -3.8562 h -3.8562 -3.8562 v 3.8562 3.8562 h 3.8562 3.8562 z m -15.4248,-15.42481 v -3.8562 h -3.85621 -3.8562 v 3.8562 3.8562 h 3.8562 3.85621 z m -7.71241,-23.13721 v -11.56861 h -11.56861 -11.5686 v 11.56861 11.56861 h 11.5686 11.56861 z m -15.42481,0 v -3.8562 h 3.8562 3.85621 v 3.8562 3.8562 h -3.85621 -3.8562 z m 30.84962,-15.42481 v -3.8562 h 3.8562 3.8562 v -3.8562 -3.85621 h -3.8562 -3.8562 v -7.7124 -7.71241 h -3.8562 -3.8562 v -3.8562 -3.8562 h 7.7124 7.7124 v -3.8562 -3.8562 h -7.7124 -7.7124 v -3.85621 -3.8562 h -3.85621 -3.8562 v 3.8562 3.85621 h 3.8562 3.85621 v 3.8562 3.8562 h -3.85621 -3.8562 v 3.8562 3.8562 h 3.8562 3.85621 v 3.85621 3.8562 h -3.85621 -3.8562 v 3.8562 3.8562 h 3.8562 3.85621 v 7.71241 7.7124 h 3.8562 3.8562 z m -23.13721,-7.7124 v -3.85621 h -7.71241 -7.7124 v 3.85621 3.8562 h 7.7124 7.71241 z m -53.98683,-15.42481 v -3.85621 h 3.8562 3.8562 v -3.8562 -3.8562 h 3.8562 3.8562 v 3.8562 3.8562 h 3.85621 3.8562 v -3.8562 -3.8562 h -3.8562 -3.85621 v -3.8562 -3.8562 h 7.71241 7.7124 v -3.85621 -3.8562 h -7.7124 -7.71241 v 3.8562 3.85621 h -7.7124 -7.7124 v 7.7124 7.7124 h -3.85621 -3.8562 v 3.85621 3.8562 h 3.8562 3.85621 z m 53.98683,-15.42481 v -11.56861 h -3.85621 -3.8562 v 7.71241 7.7124 h -7.7124 -7.71241 v 3.8562 3.8562 h 11.56861 11.56861 z M 197.97827,139.5683 v -3.8562 h -3.8562 -3.8562 v 3.8562 3.85621 h 3.8562 3.8562 z m -84.83644,-23.13721 v -3.8562 h -3.8562 -3.8562 v 3.8562 3.8562 h 3.8562 3.8562 z m 53.98683,0 v -3.8562 h 3.8562 3.8562 v -3.8562 -3.85621 h -3.8562 -3.8562 v 3.85621 3.8562 h -7.71241 -7.7124 v 3.8562 3.8562 h 7.7124 7.71241 z m 46.27442,0 v -3.8562 h -3.8562 -3.8562 v 3.8562 3.8562 h 3.8562 3.8562 z M 151.70385,97.15008 v -7.712405 h -3.85621 -3.8562 v 7.712405 7.7124 h 3.8562 3.85621 z m 15.42481,-3.856203 v -3.856202 h -3.85621 -3.8562 v 3.856202 3.856203 h 3.8562 3.85621 z m 30.84961,-3.856202 v -7.712404 h -7.7124 -7.71241 v 3.856202 3.856202 h 3.85621 3.8562 v 3.856202 3.856203 h 3.8562 3.8562 z M 128.56663,70.156664 v -3.856202 h -3.8562 -3.85619 v 3.856202 3.856202 h 3.85619 3.8562 z M 259.67751,178.13033 v -3.85621 h 3.8562 3.85621 v 3.85621 3.8562 h -3.85621 -3.8562 z m 0,-30.84962 v -3.8562 h 3.8562 3.85621 v 3.8562 3.8562 h -3.85621 -3.8562 z m 0,-30.84962 v -3.8562 h -3.8562 -3.85621 v -3.8562 -3.85621 h 3.85621 3.8562 v 3.85621 3.8562 h 3.8562 3.85621 v 3.8562 3.8562 h -3.85621 -3.8562 z M 43.730194,70.156664 V 43.163248 H 70.723609 97.717024 V 70.156664 97.15008 H 70.723609 43.730194 Z m 46.274426,0 V 50.875652 H 70.723609 51.442598 V 70.156664 89.437675 H 70.723609 90.00462 Z m -30.849618,0 V 58.588057 H 70.723609 82.292215 V 70.156664 81.725271 H 70.723609 59.155002 Z m 46.274428,19.281011 v -7.712404 h 3.8562 3.8562 v 7.712404 7.712405 h -3.8562 -3.8562 z M 213.40308,70.156664 V 43.163248 h 26.99342 26.99342 V 70.156664 97.15008 H 240.3965 213.40308 Z m 46.27443,0 V 50.875652 H 240.3965 221.11549 v 19.281012 19.281011 h 19.28101 19.28101 z m -30.84962,0 V 58.588057 h 11.56861 11.5686 v 11.568607 11.568607 h -11.5686 -11.56861 z"
       id="path20612" />
  </g>
</svg>
