<?xml version="1.0" encoding="UTF-8" standalone="no"?>
<!-- Created with Inkscape (http://www.inkscape.org/) -->

<svg
   version="1.1"
   id="svg854"
   width="229.26341"
   height="229.26343"
   viewBox="0 0 229.26341 229.26343"
   sodipodi:docname="kevin.svg"
   inkscape:version="1.1.2 (0a00cf5339, 2022-02-04)"
   xmlns:inkscape="http://www.inkscape.org/namespaces/inkscape"
   xmlns:sodipodi="http://sodipodi.sourceforge.net/DTD/sodipodi-0.dtd"
   xmlns="http://www.w3.org/2000/svg"
   xmlns:svg="http://www.w3.org/2000/svg">
  <defs
     id="defs858" />
  <sodipodi:namedview
     id="namedview856"
     pagecolor="#ffffff"
     bordercolor="#666666"
     borderopacity="1.0"
     inkscape:pageshadow="2"
     inkscape:pageopacity="0.0"
     inkscape:pagecheckerboard="0"
     showgrid="false"
     inkscape:zoom="2.54"
     inkscape:cx="138.97638"
     inkscape:cy="153.14961"
     inkscape:window-width="3840"
     inkscape:window-height="2123"
     inkscape:window-x="0"
     inkscape:window-y="0"
     inkscape:window-maximized="1"
     inkscape:current-layer="g860"
     fit-margin-top="0"
     fit-margin-left="0"
     fit-margin-right="0"
     fit-margin-bottom="0" />
  <g
     inkscape:groupmode="layer"
     inkscape:label="Image"
     id="g860"
     transform="translate(-35.450374,-36.580144)">
    <path
       style="fill:#116c86;fill-opacity:1;stroke-width:0.239564"
       d="M 35.450374,238.17384 V 210.50412 H 63.1201 90.789816 v 27.66972 27.66973 H 63.1201 35.450374 Z m 47.433816,0 V 218.40976 H 63.1201 43.356012 v 19.76408 19.76409 H 63.1201 82.88419 Z m -31.62254,0 V 226.31539 H 63.1201 74.978552 v 11.85845 11.85845 H 63.1201 51.26165 Z m 47.433804,7.90563 v -19.76408 h 3.952816 3.95281 v -3.95282 -3.95281 h -3.95281 -3.952816 v -7.90564 -7.90563 H 90.789816 82.88419 v -3.95283 -3.95281 h -3.952826 -3.952812 v 3.95281 3.95283 H 63.1201 51.26165 v -3.95283 -3.95281 h 3.952812 3.952814 v -3.95281 -3.95283 H 55.214462 51.26165 v -3.95281 -3.95281 h -3.952825 -3.952813 v 11.85845 11.85845 h -3.952825 -3.952813 v -15.81128 -15.81127 h 11.858451 11.858451 v -7.90563 -7.90562 h 3.952824 3.952814 v -3.95283 -3.95282 H 63.1201 59.167276 v -3.95281 -3.95282 h 3.952824 3.952814 v -3.95282 -3.95281 h 3.952813 3.952825 v -3.95282 -3.95282 h -7.905638 -7.905638 v -3.95282 -3.95281 H 51.26165 43.356012 v -3.95282 -3.95283 h -3.952825 -3.952813 v -3.95281 -3.952827 h 19.764088 19.76409 v 3.952827 3.95281 h -7.905638 -7.905638 v 3.95283 3.95282 h 15.811276 15.811264 v 3.95281 3.95282 h 7.905638 7.905626 v -3.95282 -3.95281 h -3.95281 -3.952816 v -3.95282 -3.95283 H 90.789816 82.88419 v -3.95281 -3.952827 h 19.76408 19.76408 v 3.952827 3.95281 h -3.95282 -3.9528 v 7.90565 7.90563 h 3.9528 3.95282 v -3.95282 -3.95281 h 11.85845 11.85846 v -3.95282 -3.95283 h -7.90563 -7.90564 V 95.87241 84.013959 h 3.95281 3.95283 v 7.905637 7.905627 h 3.95282 3.95281 V 87.966772 76.108321 h 7.90564 7.90563 v 3.952813 3.952825 h 3.95282 3.95281 V 72.155508 60.297046 h -3.95281 -3.95282 v -3.952814 -3.952813 h -3.95282 -3.95281 v 7.905627 7.905638 h -7.90564 -7.90563 v 3.952824 3.952813 h -3.95283 -3.95281 v -3.952813 -3.952824 h -3.95281 -3.95283 v 11.85845 11.858462 h -3.95282 -3.9528 V 80.061134 68.202684 h -7.90565 -7.905626 V 64.24987 60.297046 h 3.952816 3.95281 v -3.952814 -3.952813 h -3.95281 -3.952816 v -3.952824 -3.952814 h 3.952816 3.95281 v -3.952813 -3.952824 h 3.95282 3.95283 v 7.905637 7.905638 h 3.9528 3.95282 v -3.952824 -3.952814 h 7.90564 7.90564 v -3.952813 -3.952824 h 3.95282 3.95281 v 7.905637 7.905638 h 3.95282 3.95282 v -3.952824 -3.952814 h 3.95281 3.95282 v -3.952813 -3.952824 h 19.76408 19.7641 v 3.952824 3.952813 h -15.81128 -15.81127 v 7.905638 7.905627 h 3.95282 3.95283 v -3.952814 -3.952813 h 11.85845 11.85845 v 3.952813 3.952814 h -11.85845 -11.85845 v 3.952824 3.952814 h 11.85845 11.85845 v 11.85845 11.858462 h -3.95283 -3.95281 v 7.905627 7.905637 h 3.95281 3.95283 v -3.95281 -3.952827 h 3.95283 3.9528 v 3.952827 3.95281 h 3.95282 3.95283 v -3.95281 -3.952827 h 3.9528 3.95282 v 3.952827 3.95281 h 3.95283 3.9528 v -3.95281 -3.952827 h 3.95283 3.95282 v 3.952827 3.95281 h -3.95282 -3.95283 v 3.95283 3.95282 h -11.85845 -11.85845 v 3.95281 3.95282 h 7.90565 7.90562 v 3.95282 3.95282 h -7.90562 -7.90565 v -3.95282 -3.95282 h -3.9528 -3.95283 v -3.95282 -3.95281 h -7.90564 -7.90564 V 103.77805 91.919596 h -3.95282 -3.9528 v -3.952824 -3.952813 h -3.95283 -3.95282 v 7.905637 7.905627 h 3.95282 3.95283 v 3.952827 3.95281 h -3.95283 -3.95282 v 3.95283 3.95282 h 3.95282 3.95283 v 3.95281 3.95282 h -3.95283 -3.95282 v -3.95282 -3.95281 h -3.95281 -3.95282 v 3.95281 3.95282 h -15.81127 -15.81127 v 7.90564 7.90563 h 3.95281 3.95283 v -3.95282 -3.95281 h 23.7169 23.7169 v -3.95282 -3.95282 h 3.95283 3.95281 v 3.95282 3.95282 h 3.95281 3.95283 v 7.90563 7.90563 h 3.95283 3.9528 v -3.95281 -3.95282 h 3.95282 3.95283 v 3.95282 3.95281 h 3.9528 3.95282 v -3.95281 -3.95282 h 3.95283 3.9528 v -7.90563 -7.90564 h 3.95283 3.95282 v 3.95282 3.95282 h 3.9528 3.95283 v -3.95282 -3.95282 h 3.95282 3.95281 v 3.95282 3.95282 h -3.95281 -3.95282 v 3.95281 3.95282 h -7.90563 -7.90565 v 3.95282 3.95281 h 7.90565 7.90563 v 3.95282 3.95283 h 3.95282 3.95281 v 3.9528 3.95282 h -3.95281 -3.95282 v 11.85845 11.85845 h 3.95282 3.95281 v 3.95283 3.95281 h 3.95282 3.95282 v 7.90564 7.90563 h -7.90564 -7.90563 v 3.95282 3.95282 h -7.90563 -7.90565 v 7.90563 7.90563 h 3.95283 3.95282 v -3.95281 -3.95282 h 3.9528 3.95283 v 3.95282 3.95281 h 3.95282 3.95281 v -3.95281 -3.95282 h 3.95282 3.95282 v 7.90563 7.90565 h -3.95282 -3.95282 v 7.90562 7.90564 h -3.95281 -3.95282 v 3.95281 3.95283 h -23.71691 -23.7169 v -3.95283 -3.95281 h -3.95283 -3.95281 v 3.95281 3.95283 h -11.85846 -11.85845 v -3.95283 -3.95281 h -3.95281 -3.95282 v -3.95281 -3.95283 h -11.85845 -11.85845 v 3.95283 3.95281 h 7.90563 7.90564 v 3.95281 3.95283 h -11.85845 -11.85846 v -3.95283 -3.95281 h -3.95281 -3.95283 v 3.95281 3.95283 h -3.95282 -3.9528 v -3.95283 -3.95281 h -3.95283 -3.95282 v 3.95281 3.95283 h -3.95281 -3.952816 z m 94.867616,7.90565 v -3.95283 h 3.95281 3.95283 v 3.95283 3.95281 h 7.90563 7.90565 v -3.95281 -3.95283 h -7.90565 -7.90563 v -3.95282 -3.9528 h 7.90563 7.90565 v -3.95283 -3.95282 h -7.90565 -7.90563 v 3.95282 3.95283 h -3.95283 -3.95281 v -7.90565 -7.90563 h -7.90564 -7.90562 v -3.95282 -3.95281 h -3.95283 -3.95282 v -3.95282 -3.95282 h 7.90565 7.90562 v -3.95281 -3.95282 h 3.95283 3.95281 v -3.95283 -3.95281 h -3.95281 -3.95283 v -3.95281 -3.95283 h 3.95283 3.95281 v -3.95281 -3.95281 h -7.90564 -7.90562 v 3.95281 3.95281 H 154.0349 130.31799 v 3.95283 3.95281 h 7.90564 7.90563 v 7.90564 7.90563 h 7.90564 7.90563 v 3.95282 3.95282 h -15.81127 -15.81127 v -7.90564 -7.90563 h -3.95281 -3.95283 v 3.95282 3.95281 h -3.95282 -3.9528 v -7.90563 -7.90564 h -3.95283 -3.95282 v 7.90564 7.90563 h 3.95282 3.95283 v 7.90564 7.90563 h -3.95283 -3.95282 v 3.95282 3.95281 h 3.95282 3.95283 v 3.95282 3.95283 h -3.95283 -3.95282 v 3.9528 3.95282 h 15.81127 15.81128 v -3.95282 -3.9528 h 3.95282 3.95281 v -3.95283 -3.95282 h -7.90563 -7.90564 v -3.95281 -3.95282 h 15.81127 15.81127 v -3.95282 -3.95281 h 3.95282 3.95281 v 3.95281 3.95282 h 3.95282 3.95283 v 3.95282 3.95281 h -3.95283 -3.95282 v 3.95282 3.95283 h 3.95282 3.95283 v 3.9528 3.95282 h -3.95283 -3.95282 v 3.95283 3.95281 h 11.85845 11.85846 z m -7.90564,-7.90565 v -3.9528 h -3.95282 -3.9528 v -3.95283 -3.95282 h 3.9528 3.95282 v 3.95282 3.95283 h 3.95283 3.95281 v 3.9528 3.95282 h -3.95281 -3.95283 z m -63.24508,-7.90563 v -3.95282 h 3.95283 3.95281 v 3.95282 3.95283 h -3.95281 -3.95283 z m 0,-15.81127 v -3.95281 h 3.95283 3.95281 v 3.95281 3.95282 h -3.95281 -3.95283 z m 39.52818,-15.81126 v -3.95282 h -3.95282 -3.95281 v -3.95283 -3.95281 h 3.95281 3.95282 v 3.95281 3.95283 h 3.95282 3.95281 v -3.95283 -3.95281 h 3.95282 3.95283 v 3.95281 3.95283 h -3.95283 -3.95282 v 3.95282 3.95281 h -3.95281 -3.95282 z m 71.15071,47.43381 v -3.95283 h -3.9528 -3.95283 v 3.95283 3.95281 h 3.95283 3.9528 z m 15.81128,0 v -3.95283 h -3.95283 -3.9528 v 3.95283 3.95281 h 3.9528 3.95283 z m -86.96199,-15.81128 v -3.95282 h -3.95282 -3.95281 v 3.95282 3.95283 h 3.95281 3.95282 z m 71.15071,0 v -3.95282 h -3.9528 -3.95283 v 3.95282 3.95283 h 3.95283 3.9528 z m -7.90563,-23.7169 v -11.85845 h -11.85845 -11.85845 v 11.85845 11.85845 h 11.85845 11.85845 z m -15.81127,0 v -3.95282 h 3.95282 3.95283 v 3.95282 3.95282 h -3.95283 -3.95282 z m 31.62255,-15.81128 v -3.95281 h 3.9528 3.95283 v -3.95281 -3.95283 h -3.95283 -3.9528 v -7.90562 -7.90565 h -3.95282 -3.95283 v -3.9528 -3.95283 h 7.90565 7.90563 v -3.95282 -3.9528 h -7.90563 -7.90565 v -3.95283 -3.95282 h -3.9528 -3.95283 v 3.95282 3.95283 h 3.95283 3.9528 v 3.9528 3.95282 h -3.9528 -3.95283 v 3.95283 3.9528 h 3.95283 3.9528 v 3.95282 3.95283 h -3.9528 -3.95283 v 3.95281 3.95281 h 3.95283 3.9528 v 7.90564 7.90564 h 3.95283 3.95282 z M 90.789816,190.74004 v -3.95283 H 86.837002 82.88419 v -3.95281 -3.95281 h 7.905626 7.905638 v 3.95281 3.95281 h 7.905626 7.90565 v -3.95281 -3.95281 h 11.85845 11.85845 v -3.95283 -3.95282 h -3.95283 -3.95281 v -7.90563 -7.90562 h 3.95281 3.95283 v 3.9528 3.95282 h 3.95282 3.95281 v -3.95282 -3.9528 h 3.95282 3.95282 v -3.95283 -3.95282 h 3.95281 3.95282 v -3.95281 -3.95282 h -7.90563 -7.90564 v 3.95282 3.95281 h -7.90563 -7.90564 v -3.95281 -3.95282 h -3.95281 -3.95283 v -3.95282 -3.95281 h -3.95282 -3.9528 v 3.95281 3.95282 h -3.95283 -3.95282 v -3.95282 -3.95281 h -3.95281 -3.952816 v 7.90563 7.90563 H 94.74264 90.789816 v -3.95281 -3.95282 H 86.837002 82.88419 v -3.95282 -3.95281 h 3.952812 3.952814 v -3.95282 -3.95282 H 86.837002 82.88419 v 3.95282 3.95282 h -3.952826 -3.952812 v 7.90563 7.90563 h 7.905638 7.905626 v 3.95282 3.95283 H 86.837002 82.88419 v 3.9528 3.95282 h 7.905626 7.905638 v -7.90562 -7.90565 h 3.952816 3.95281 v 11.85845 11.85845 H 82.88419 59.167276 v 7.90565 7.90562 H 71.025727 82.88419 v 3.95283 3.95281 h 3.952812 3.952814 z m 23.716914,-39.52818 v -11.85845 h 3.9528 3.95282 v 11.85845 11.85845 h -3.95282 -3.9528 z m 102.77326,39.52818 v -3.95283 h -7.90565 -7.90563 v 3.95283 3.95281 h 7.90563 7.90565 z m -55.33946,-15.81128 v -3.95282 h 3.95282 3.95281 v -3.9528 -3.95283 h 3.95282 3.95283 v 3.95283 3.9528 h 3.9528 3.95282 v -3.9528 -3.95283 h -3.95282 -3.9528 v -3.95282 -3.9528 h 7.90562 7.90564 v -3.95283 -3.95282 h -7.90564 -7.90562 v 3.95282 3.95283 h -7.90565 -7.90563 v 7.90562 7.90563 h -7.90563 -7.90564 v 3.95282 3.95283 h 7.90564 7.90563 z m 55.33946,-15.81127 v -11.85845 h -3.95283 -3.95282 v 7.90565 7.90562 h -7.90563 -7.90564 v 3.95283 3.9528 h 11.85847 11.85845 z m -23.71692,-23.7169 v -3.95281 h -3.95281 -3.95283 v 3.95281 3.95282 h 3.95283 3.95281 z m -31.62254,-23.7169 v -3.95283 h 3.95282 3.95281 v -3.95281 -3.952827 h -3.95281 -3.95282 v 3.952827 3.95281 h -3.95282 -3.95281 v 3.95283 3.95282 h 3.95281 3.95282 z m 47.43381,0 v -3.95283 h -3.9528 -3.95283 v 3.95283 3.95282 h 3.95283 3.9528 z M 161.94053,87.966772 v -3.952813 h -3.95282 -3.95281 v 3.952813 3.952824 h 3.95281 3.95282 z m 31.62254,-3.952813 v -7.905638 h -7.90564 -7.90562 v 3.952813 3.952825 h 3.9528 3.95282 v 3.952813 3.952824 h 3.95283 3.95281 z M 122.41235,64.24987 v -3.952824 h -3.95282 -3.9528 v 3.952824 3.952814 h 3.9528 3.95282 z m 15.81128,0 v -3.952824 h 3.95282 3.95281 v -3.952814 -3.952813 h -7.90563 -7.90564 v 7.905627 7.905638 h 3.95281 3.95283 z m 118.58452,110.67889 v -3.95282 h 3.95282 3.95282 v 3.95282 3.95283 h -3.95282 -3.95282 z M 35.450374,151.21186 v -11.85845 h 3.952813 3.952825 v -7.90563 -7.90564 h 3.952813 3.952825 v 7.90564 7.90563 h -3.952825 -3.952813 v 3.95282 3.95281 h 3.952813 3.952825 v 3.95282 3.95283 h -3.952825 -3.952813 v 3.9528 3.95282 h -3.952825 -3.952813 z m 221.357776,-7.90563 v -3.95282 h 3.95282 3.95282 v 3.95282 3.95281 h -3.95282 -3.95282 z m 0,-31.62254 v -3.95283 h -3.95281 -3.95282 v -3.95281 -3.952827 h 3.95282 3.95281 v 3.952827 3.95281 h 3.95282 3.95282 v 3.95283 3.95282 h -3.95282 -3.95282 z M 35.450374,64.24987 V 36.580144 H 63.1201 90.789816 V 64.24987 91.919596 H 63.1201 35.450374 Z m 47.433816,0 V 44.485781 H 63.1201 43.356012 V 64.24987 84.013959 H 63.1201 82.88419 Z m -31.62254,0 V 52.391419 H 63.1201 74.978552 V 64.24987 76.108321 H 63.1201 51.26165 Z m 47.433804,19.764089 v -7.905638 h 3.952816 3.95281 v 7.905638 7.905637 h -3.95281 -3.952816 z M 209.37434,64.24987 V 36.580144 h 27.66973 27.66972 V 64.24987 91.919596 h -27.66972 -27.66973 z m 47.43381,0 V 44.485781 H 237.04407 217.27999 V 64.24987 84.013959 h 19.76408 19.76408 z m -31.62254,0 V 52.391419 h 11.85846 11.85845 V 64.24987 76.108321 h -11.85845 -11.85846 z"
       id="path864" />
  </g>
</svg>
