<?xml version="1.0" encoding="UTF-8" standalone="no"?>
<!-- Uploaded to: SVG Repo, www.svgrepo.com, Generator: SVG Repo Mixer Tools -->

<svg
   xmlns:dc="http://purl.org/dc/elements/1.1/"
   xmlns:cc="http://creativecommons.org/ns#"
   xmlns:rdf="http://www.w3.org/1999/02/22-rdf-syntax-ns#"
   xmlns:svg="http://www.w3.org/2000/svg"
   xmlns="http://www.w3.org/2000/svg"
   xmlns:sodipodi="http://sodipodi.sourceforge.net/DTD/sodipodi-0.dtd"
   xmlns:inkscape="http://www.inkscape.org/namespaces/inkscape"
   fill="#000000"
   version="1.1"
   id="Layer_1"
   viewBox="0 0 496 496"
   xml:space="preserve"
   sodipodi:docname="training.svg"
   inkscape:version="0.92.5 (2060ec1f9f, 2020-04-08)"><metadata
   id="metadata1728"><rdf:RDF><cc:Work
       rdf:about=""><dc:format>image/svg+xml</dc:format><dc:type
         rdf:resource="http://purl.org/dc/dcmitype/StillImage" /><dc:title></dc:title></cc:Work></rdf:RDF></metadata><defs
   id="defs1726">
	

		
	
			
			
			
			
			
			
			
		</defs><sodipodi:namedview
   pagecolor="#ffffff"
   bordercolor="#666666"
   borderopacity="1"
   objecttolerance="10"
   gridtolerance="10"
   guidetolerance="10"
   inkscape:pageopacity="0"
   inkscape:pageshadow="2"
   inkscape:window-width="476"
   inkscape:window-height="1056"
   id="namedview1724"
   showgrid="false"
   inkscape:zoom="0.33644597"
   inkscape:cx="169.9677"
   inkscape:cy="34.028845"
   inkscape:window-x="480"
   inkscape:window-y="20"
   inkscape:window-maximized="0"
   inkscape:current-layer="Layer_1" />
<path
   inkscape:connector-curvature="0"
   id="path1703"
   d="M 432,336 H 421.16 C 437.504,322.792 448,302.608 448,280 v -32 c 0,-30.872 -25.128,-56 -56,-56 h -32 c -2.72,0 -5.376,0.264 -8,0.64 V 48 h 16 V 0 H 0 V 48 H 16 V 280 H 0 v 48 h 187.056 l 40,80 H 304 v 88 h 192 v -96 c 0,-35.288 -28.712,-64 -64,-64 z m -9.416,35.328 -32.472,13.92 L 412.28,352 h 5.472 z M 358.944,352 h 34.112 L 376,377.576 Z m 2.928,33.248 L 329.4,371.328 334.24,352 h 5.472 z M 432.008,280 C 432,310.872 406.872,336 376,336 c -30.872,0 -56,-25.128 -56,-56 h 37.424 c 14.12,0 27.392,-5.504 37.368,-15.48 l 4.128,-4.128 c 8.304,10.272 20.112,16.936 33.088,18.92 z m -276.832,-16 0.312,0.856 7.568,15.144 H 32 V 48 h 304 v 149.48 c -18.888,9.008 -32,28.24 -32,50.52 v 32 H 238.936 L 214.12,233.472 C 208.368,222.696 197.208,216 185,216 c -10.04,0 -18.944,4.608 -25,11.712 -11.28878,7.94709 -6.77877,22.6651 -4.824,36.288 z M 360,208 h 32 c 22.056,0 40,17.944 40,40 v 15.072 c -9.168,-2.032 -17.32,-7.48 -22.656,-15.48 L 401.24,235.44 383.472,253.208 C 376.512,260.168 367.264,264 357.424,264 H 320 v -16 c 0,-22.056 17.944,-40 40,-40 z M 16,16 H 352 V 32 H 16 Z m 0,296 v -16 h 155.056 l 8,16 z m 240,80 H 236.944 L 169.8,257.712 c -1.176,-2.36 -1.8,-4.992 -1.8,-7.608 V 249 c 0,-9.376 7.624,-17 17,-17 6.288,0 12.04,3.456 15,9 l 56,104.992 z m -8.536,-96 h 58.392 c 1.28,5.616 3.232,10.968 5.744,16 H 256 Z m 17.072,32 h 57.952 c 2.584,2.872 5.352,5.568 8.36,8 H 268.8 Z M 480,480 h -32 v -32 h 32 z m 0,-48 h -32 v -32 h -16 v 80 H 320 v -88 h -48 v -40 h 45.76 l -7.168,28.672 65.408,28.032 65.416,-28.032 -7.144,-28.56 C 459.68,353.312 480,374.296 480,400 Z"
   sodipodi:nodetypes="scsssscccccccccccccccsscccccccccccccccscssccccccccccscccsccssscccsscsscccccccccccccsssccccccccccccccccccccccccccccccccsc"
   style="stroke:#126d82;stroke-opacity:1;fill:#126d82;fill-opacity:1" />
<g
   id="g4126"
   transform="translate(0,18)"
   style="stroke:#126d82;stroke-opacity:1"><rect
     ry="8.1736698"
     y="93.478386"
     x="119.29931"
     height="46.069805"
     width="46.069805"
     id="rect3677"
     style="fill:none;fill-opacity:1;stroke:#126d82;stroke-width:4;stroke-miterlimit:4;stroke-dasharray:none;stroke-opacity:1" /><circle
     r="13.375105"
     cy="115.55258"
     cx="63.160217"
     id="path3682"
     style="fill:none;fill-opacity:1;stroke:#126d82;stroke-width:4;stroke-miterlimit:4;stroke-dasharray:none;stroke-opacity:1" /><path
     inkscape:connector-curvature="0"
     id="path3684"
     d="M 78.764505,115.55258 H 116.66063"
     style="fill:none;stroke:#126d82;stroke-width:4;stroke-linecap:butt;stroke-linejoin:miter;stroke-miterlimit:4;stroke-dasharray:none;stroke-opacity:1" /><path
     inkscape:connector-curvature="0"
     id="path3968"
     d="m 118.66063,115.55258 -8.70429,-5.02543 v 11.71298 z"
     style="fill:#000000;stroke:#126d82;stroke-width:1px;stroke-linecap:butt;stroke-linejoin:miter;stroke-opacity:1" /><g
     transform="translate(15.559322,0.52542372)"
     id="g3997"
     style="stroke:#126d82;stroke-opacity:1"><rect
       style="fill:none;fill-opacity:1;stroke:#126d82;stroke-width:4;stroke-miterlimit:4;stroke-dasharray:none;stroke-opacity:1"
       id="rect3970"
       width="18.915255"
       height="18.915255"
       x="216.43303"
       y="-72.617844"
       ry="0"
       transform="rotate(45)" /><text
       xml:space="preserve"
       style="font-style:normal;font-weight:normal;font-size:13.33333302px;line-height:1.25;font-family:sans-serif;letter-spacing:0px;word-spacing:0px;fill:#000000;fill-opacity:1;stroke:#126d82;stroke-opacity:1"
       x="198.61017"
       y="119.27119"
       id="text3974"><tspan
         sodipodi:role="line"
         id="tspan3972"
         x="198.61017"
         y="119.27119">+</tspan></text>
</g><g
     transform="translate(4.8550308,-4.5000099)"
     id="g4001"
     style="stroke:#126d82;stroke-opacity:1"><path
       style="fill:none;stroke:#126d82;stroke-width:4;stroke-linecap:butt;stroke-linejoin:miter;stroke-miterlimit:4;stroke-dasharray:none;stroke-opacity:1"
       d="m 159.82289,120.09323 h 37.89613"
       id="path3684-3"
       inkscape:connector-curvature="0" /><path
       style="fill:#000000;stroke:#126d82;stroke-width:1px;stroke-linecap:butt;stroke-linejoin:miter;stroke-opacity:1"
       d="m 199.71902,120.09323 -8.70429,-5.02543 v 11.71298 z"
       id="path3968-6"
       inkscape:connector-curvature="0" /></g><g
     transform="translate(74.403938,-45.856045)"
     id="g4001-7-5"
     style="stroke:#126d82;stroke-opacity:1"><path
       sodipodi:nodetypes="ccc"
       style="fill:none;stroke:#126d82;stroke-width:4;stroke-linecap:butt;stroke-linejoin:miter;stroke-miterlimit:4;stroke-dasharray:none;stroke-opacity:1"
       d="m 145.54522,148.07416 -0.74606,-27.98093 h 52.91986"
       id="path3684-3-5-6"
       inkscape:connector-curvature="0" /><path
       style="fill:#000000;stroke:#126d82;stroke-width:1px;stroke-linecap:butt;stroke-linejoin:miter;stroke-opacity:1"
       d="m 199.71902,120.09323 -8.70429,-5.02543 v 11.71298 z"
       id="path3968-6-3-2"
       inkscape:connector-curvature="0" /></g><g
     transform="translate(74.403938,36.623766)"
     id="g4001-7-5-9"
     style="stroke:#126d82;stroke-opacity:1"><path
       sodipodi:nodetypes="ccc"
       style="fill:none;stroke:#126d82;stroke-width:4;stroke-linecap:butt;stroke-linejoin:miter;stroke-miterlimit:4;stroke-dasharray:none;stroke-opacity:1"
       d="m 146.07625,91.485367 0.20904,28.607863 h 51.43373"
       id="path3684-3-5-6-1"
       inkscape:connector-curvature="0" /><path
       style="fill:#000000;stroke:#126d82;stroke-width:1px;stroke-linecap:butt;stroke-linejoin:miter;stroke-opacity:1"
       d="m 199.71902,120.09323 -8.70429,-5.02543 v 11.71298 z"
       id="path3968-6-3-2-2"
       inkscape:connector-curvature="0" /></g><rect
     ry="8.1736698"
     y="50.524418"
     x="276.4566"
     height="46.069805"
     width="46.069805"
     id="rect3677-7"
     style="fill:none;fill-opacity:1;stroke:#126d82;stroke-width:4;stroke-miterlimit:4;stroke-dasharray:none;stroke-opacity:1" /><rect
     ry="8.1736698"
     y="136.69391"
     x="276.4566"
     height="46.069805"
     width="46.069805"
     id="rect3677-7-0"
     style="fill:none;fill-opacity:1;stroke:#126d82;stroke-width:4;stroke-miterlimit:4;stroke-dasharray:none;stroke-opacity:1" /></g></svg>