<?xml version="1.0" encoding="UTF-8" standalone="no"?>
<!-- Uploaded to: SVG Repo, www.svgrepo.com, Generator: SVG Repo Mixer Tools -->

<svg
   xmlns:dc="http://purl.org/dc/elements/1.1/"
   xmlns:cc="http://creativecommons.org/ns#"
   xmlns:rdf="http://www.w3.org/1999/02/22-rdf-syntax-ns#"
   xmlns:svg="http://www.w3.org/2000/svg"
   xmlns="http://www.w3.org/2000/svg"
   xmlns:sodipodi="http://sodipodi.sourceforge.net/DTD/sodipodi-0.dtd"
   xmlns:inkscape="http://www.inkscape.org/namespaces/inkscape"
   width="400"
   height="400"
   viewBox="0 0 400 400.00001"
   id="svg2"
   version="1.1"
   inkscape:version="0.92.5 (2060ec1f9f, 2020-04-08)"
   sodipodi:docname="enterprise.svg">
  <defs
     id="defs4" />
  <sodipodi:namedview
     id="base"
     pagecolor="#ffffff"
     bordercolor="#666666"
     borderopacity="1.0"
     inkscape:pageopacity="0.0"
     inkscape:pageshadow="2"
     inkscape:zoom="1.5998291"
     inkscape:cx="124.04023"
     inkscape:cy="205.56869"
     inkscape:document-units="px"
     inkscape:current-layer="layer1"
     showgrid="false"
     units="px"
     showguides="true"
     inkscape:guide-bbox="true"
     inkscape:window-width="1916"
     inkscape:window-height="968"
     inkscape:window-x="0"
     inkscape:window-y="110"
     inkscape:window-maximized="0">
    <sodipodi:guide
       position="200.71429,121.42857"
       orientation="1,0"
       id="guide23298"
       inkscape:locked="false" />
  </sodipodi:namedview>
  <metadata
     id="metadata7">
    <rdf:RDF>
      <cc:Work
         rdf:about="">
        <dc:format>image/svg+xml</dc:format>
        <dc:type
           rdf:resource="http://purl.org/dc/dcmitype/StillImage" />
        <dc:title />
      </cc:Work>
    </rdf:RDF>
  </metadata>
  <g
     inkscape:label="Capa 1"
     inkscape:groupmode="layer"
     id="layer1"
     transform="translate(0,-652.36216)">
    <path
       style="color:#000000;font-style:normal;font-variant:normal;font-weight:normal;font-stretch:normal;font-size:medium;line-height:normal;font-family:sans-serif;text-indent:0;text-align:start;text-decoration:none;text-decoration-line:none;text-decoration-style:solid;text-decoration-color:#000000;letter-spacing:normal;word-spacing:normal;text-transform:none;writing-mode:lr-tb;direction:ltr;baseline-shift:baseline;text-anchor:start;white-space:normal;clip-rule:nonzero;display:inline;overflow:visible;visibility:visible;opacity:1;isolation:auto;mix-blend-mode:normal;color-interpolation:sRGB;color-interpolation-filters:linearRGB;solid-color:#000000;solid-opacity:1;fill:none;fill-opacity:1;fill-rule:nonzero;stroke:#126d82;stroke-width:20;stroke-linecap:butt;stroke-linejoin:miter;stroke-miterlimit:4;stroke-dasharray:none;stroke-dashoffset:0;stroke-opacity:1;color-rendering:auto;image-rendering:auto;shape-rendering:auto;text-rendering:auto;enable-background:accumulate"
       d="m 161.23878,669.68299 c -12.53852,1.01028 -27.20681,1.81817 -36.72558,11.39084 -9.80522,11.37012 -9.95764,29.95751 0.364,41.09469 4.33497,5.97506 10.31265,13.13905 8.51038,20.97477 -4.78084,9.11096 -16.75568,9.58017 -25.73703,10.14768 -26.640003,1.96586 -53.48394,-0.62296 -80.032694,1.65494 -5.655823,0.69669 -7.983091,6.39561 -7.509096,11.50614 -2.652893,30.72408 -3.368891,61.55562 -3.7152,92.37305 -0.08864,8.74886 4.212722,19.19416 13.967687,20.30549 13.242044,0.91978 19.608327,-12.10192 27.642552,-20.10967 3.292891,-3.65675 8.189651,-5.25129 12.847638,-3.34917 15.848926,4.04219 26.511671,20.57387 24.907171,36.66992 -0.287344,14.36034 -9.069766,30.68296 -24.369107,33.04407 -10.974117,1.23933 -17.602531,-9.25543 -26.072286,-14.1507 -7.155167,-5.21547 -19.743304,-7.67569 -24.835105,1.5355 -4.041594,8.7986 -2.695242,18.92508 -3.519458,28.30855 0.04876,26.44925 0.685855,52.98381 2.158773,79.32441 0.386976,5.4776 1.269168,12.81 8.152363,13.3929 30.112541,1.337 60.420047,1.1998 90.526672,0.2104 7.89682,0.1504 18.20366,-0.2117 21.39601,-9.0592 2.60707,-10.5757 -3.34625,-21.13 -11.25541,-27.89144 -8.09775,-8.5362 -4.34934,-25.00836 7.57499,-27.76883 11.37209,-2.78783 23.8388,-3.45977 35.1004,0.17569 7.71388,2.22219 12.93893,10.5992 10.35864,18.41129 -4.08396,10.95847 -14.94044,19.72539 -13.99697,32.35159 0.19861,8.9588 9.90862,12.8208 17.63165,13.0745 34.38073,2.2501 68.95741,1.8468 103.40517,1.2591 6.67751,-0.9698 9.46171,-7.972 8.88098,-14.0093 2.31559,-29.75709 -1.5485,-60.31152 4.86526,-89.76552 2.14649,-5.88348 9.1364,-11.17411 15.26892,-7.35354 12.55815,4.95469 22.37797,18.71455 37.17579,16.16021 15.29074,-1.35399 26.24589,-15.4528 28.16964,-29.97782 2.90662,-15.88135 1.13135,-33.47673 -7.02228,-47.72293 -8.14321,-12.03784 -26.25427,-16.47628 -38.45506,-7.69028 -8.27099,4.4403 -15.66063,13.33193 -25.72639,12.76528 -5.52292,-0.7959 -8.95352,-5.89258 -9.17369,-11.19121 -5.20699,-24.61586 -2.48256,-49.9369 -3.32353,-74.88048 -0.28305,-8.01322 0.86386,-16.69226 -3.30061,-23.85248 -5.66138,-4.71711 -13.45814,-1.94328 -19.65579,-2.33527 -18.38893,0.34705 -56.42916,-0.30822 -68.55917,-1.49523 -7.89125,-1.03326 -17.7264,-2.53697 -22.07707,-10.01639 -0.96747,-5.15366 2.82477,-9.55992 4.53511,-14.14705 6.03063,-10.55589 16.61337,-21.16682 12.96293,-34.4141 -4.29251,-16.36103 -21.55974,-24.74921 -37.45397,-24.89001 -1.29501,-0.0529 -2.59116,-0.0795 -3.88723,-0.0603 z"
       id="path4254"
       inkscape:connector-curvature="0"
       sodipodi:nodetypes="cccccccccccccccccccccccccccccccccccccccccccccc" />
  </g>
</svg>
