<?xml version="1.0" encoding="UTF-8" standalone="no"?>
<!-- Uploaded to: SVG Repo, www.svgrepo.com, Generator: SVG Repo Mixer Tools -->

<svg
   xmlns:dc="http://purl.org/dc/elements/1.1/"
   xmlns:cc="http://creativecommons.org/ns#"
   xmlns:rdf="http://www.w3.org/1999/02/22-rdf-syntax-ns#"
   xmlns:svg="http://www.w3.org/2000/svg"
   xmlns="http://www.w3.org/2000/svg"
   xmlns:sodipodi="http://sodipodi.sourceforge.net/DTD/sodipodi-0.dtd"
   xmlns:inkscape="http://www.inkscape.org/namespaces/inkscape"
   version="1.1"
   id="SERVERS"
   width="400"
   height="400"
   viewBox="0 0 900 900"
   enable-background="new 0 0 1800 1800"
   xml:space="preserve"
   sodipodi:docname="hosting.svg"
   inkscape:version="0.92.5 (2060ec1f9f, 2020-04-08)"><metadata
   id="metadata4350"><rdf:RDF><cc:Work
       rdf:about=""><dc:format>image/svg+xml</dc:format><dc:type
         rdf:resource="http://purl.org/dc/dcmitype/StillImage" /><dc:title></dc:title></cc:Work></rdf:RDF></metadata><defs
   id="defs4348">
	
	
	
	
	
	
	
	
	
	
	
	
	
	
	
</defs><sodipodi:namedview
   pagecolor="#ffffff"
   bordercolor="#666666"
   borderopacity="1"
   objecttolerance="10"
   gridtolerance="10"
   guidetolerance="10"
   inkscape:pageopacity="0"
   inkscape:pageshadow="2"
   inkscape:window-width="1916"
   inkscape:window-height="968"
   id="namedview4346"
   showgrid="false"
   inkscape:zoom="2.36"
   inkscape:cx="266.01255"
   inkscape:cy="194.32267"
   inkscape:window-x="0"
   inkscape:window-y="110"
   inkscape:window-maximized="0"
   inkscape:current-layer="SERVERS" />
<path
   style="fill:#126d82;fill-opacity:1;stroke-width:0.46186379"
   inkscape:connector-curvature="0"
   id="path4315"
   d="m 155.65123,427.47852 c -13.63329,0 -24.68662,11.05379 -24.68662,24.6857 0,13.63468 11.05333,24.68431 24.68662,24.68431 13.63329,0 24.68662,-11.04963 24.68662,-24.68431 4.6e-4,-13.63191 -11.05333,-24.6857 -24.68662,-24.6857 z" /><path
   style="fill:#126d82;fill-opacity:1;stroke-width:0.46186379"
   inkscape:connector-curvature="0"
   id="path4317"
   d="m 240.78428,427.47852 c -13.63514,0 -24.68893,11.05379 -24.68893,24.6857 0,13.63468 11.05332,24.68431 24.68893,24.68431 13.63099,0 24.68431,-11.04963 24.68431,-24.68431 0,-13.63191 -11.05379,-24.6857 -24.68431,-24.6857 z" /><path
   style="fill:#126d82;fill-opacity:1;stroke-width:0.46186379"
   inkscape:connector-curvature="0"
   id="path4319"
   d="m 325.91548,427.47852 c -13.63514,0 -24.68848,11.05379 -24.68848,24.6857 0,13.63468 11.05334,24.68431 24.68848,24.68431 13.63098,0 24.68431,-11.04963 24.68431,-24.68431 0,-13.63191 -11.05333,-24.6857 -24.68431,-24.6857 z" /><path
   style="fill:#126d82;fill-opacity:1;stroke-width:0.46186379"
   inkscape:connector-curvature="0"
   id="path4321"
   d="m 758.40431,437.61273 h -295.8164 c -8.03366,0 -14.54872,6.51321 -14.54872,14.54733 0,8.03736 6.51506,14.54871 14.54872,14.54871 h 295.8164 c 8.03363,0 14.5487,-6.51135 14.5487,-14.54871 0,-8.03412 -6.51507,-14.54733 -14.5487,-14.54733 z" /><path
   style="fill:#126d82;fill-opacity:1;stroke-width:0.46186379"
   inkscape:connector-curvature="0"
   id="path4325"
   d="m 155.65123,729.12178 c -13.63329,0 -24.68662,11.05378 -24.68662,24.68431 0,13.63514 11.05333,24.68477 24.68662,24.68477 13.63329,0 24.68662,-11.04963 24.68662,-24.68477 4.6e-4,-13.63099 -11.05333,-24.68431 -24.68662,-24.68431 z" /><path
   style="fill:#126d82;fill-opacity:1;stroke-width:0.46186379"
   inkscape:connector-curvature="0"
   id="path4327"
   d="m 240.78428,729.12178 c -13.63514,0 -24.68893,11.05378 -24.68893,24.68431 0,13.63514 11.05332,24.68477 24.68893,24.68477 13.63099,0 24.68431,-11.04963 24.68431,-24.68477 0,-13.63099 -11.05379,-24.68431 -24.68431,-24.68431 z" /><path
   style="fill:#126d82;fill-opacity:1;stroke-width:0.46186379"
   inkscape:connector-curvature="0"
   id="path4329"
   d="m 325.91548,729.12178 c -13.63514,0 -24.68848,11.05378 -24.68848,24.68431 0,13.63514 11.05334,24.68477 24.68848,24.68477 13.63098,0 24.68431,-11.04963 24.68431,-24.68477 0,-13.63099 -11.05333,-24.68431 -24.68431,-24.68431 z" /><path
   style="fill:#126d82;fill-opacity:1;stroke-width:0.46186379"
   inkscape:connector-curvature="0"
   id="path4331"
   d="m 758.40431,739.25321 h -295.8164 c -8.03366,0 -14.54872,6.51552 -14.54872,14.54872 0,8.03735 6.51506,14.54871 14.54872,14.54871 h 295.8164 c 8.03363,0 14.5487,-6.51136 14.5487,-14.54871 0,-8.03274 -6.51507,-14.54872 -14.5487,-14.54872 z" /><circle
   style="fill:#126d82;fill-opacity:1;stroke-width:0.46186379"
   id="circle4335"
   r="24.685698"
   cy="146.1873"
   cx="155.6512" /><path
   style="fill:#126d82;fill-opacity:1;stroke-width:0.46186379"
   inkscape:connector-curvature="0"
   id="path4337"
   d="m 240.78428,121.5016 c -13.63514,0 -24.68893,11.05332 -24.68893,24.68662 0,13.63329 11.05332,24.68478 24.68893,24.68478 13.63099,0 24.68431,-11.05149 24.68431,-24.68478 0,-13.6333 -11.05379,-24.68662 -24.68431,-24.68662 z" /><path
   style="fill:#126d82;fill-opacity:1;stroke-width:0.46186379"
   inkscape:connector-curvature="0"
   id="path4339"
   d="m 325.91548,121.5016 c -13.63514,0 -24.68848,11.05332 -24.68848,24.68662 0,13.63329 11.05334,24.68478 24.68848,24.68478 13.63098,0 24.68431,-11.05149 24.68431,-24.68478 0,-13.6333 -11.05333,-24.68662 -24.68431,-24.68662 z" /><path
   style="fill:#126d82;fill-opacity:1;stroke-width:0.46186379"
   inkscape:connector-curvature="0"
   id="path4341"
   d="m 758.40431,131.63535 h -295.8164 c -8.03366,0 -14.54872,6.5132 -14.54872,14.54871 0,8.03551 6.51506,14.54871 14.54872,14.54871 h 295.8164 c 8.03363,0 14.5487,-6.5132 14.5487,-14.54871 0,-8.03551 -6.51507,-14.54871 -14.5487,-14.54871 z" />
<rect
   style="fill:none;fill-opacity:1;stroke:#126d82;stroke-width:33.75;stroke-miterlimit:4;stroke-dasharray:none;stroke-opacity:1"
   id="rect5065"
   width="824.94537"
   height="213.82249"
   x="33.688751"
   y="38.480705"
   ry="30.508474" /><rect
   style="fill:none;fill-opacity:1;stroke:#126d82;stroke-width:33.75;stroke-miterlimit:4;stroke-dasharray:none;stroke-opacity:1"
   id="rect5065-9"
   width="824.94537"
   height="213.82249"
   x="33.688755"
   y="341.42029"
   ry="30.508472" /><rect
   style="fill:none;fill-opacity:1;stroke:#126d82;stroke-width:33.75;stroke-miterlimit:4;stroke-dasharray:none;stroke-opacity:1"
   id="rect5065-9-3"
   width="824.94537"
   height="213.82249"
   x="33.688751"
   y="644.35992"
   ry="30.508472" /></svg>