<?xml version="1.0" encoding="UTF-8" standalone="no"?>
<!-- Created with Inkscape (http://www.inkscape.org/) -->

<svg
   width="31.17417mm"
   height="34.953762mm"
   viewBox="0 0 31.17417 34.953763"
   version="1.1"
   id="svg83764"
   inkscape:version="1.1.2 (1:1.1+202202050950+0a00cf5339)"
   sodipodi:docname="spiffarena.svg"
   xmlns:inkscape="http://www.inkscape.org/namespaces/inkscape"
   xmlns:sodipodi="http://sodipodi.sourceforge.net/DTD/sodipodi-0.dtd"
   xmlns="http://www.w3.org/2000/svg"
   xmlns:svg="http://www.w3.org/2000/svg">
  <sodipodi:namedview
     id="namedview83766"
     pagecolor="#ffffff"
     bordercolor="#666666"
     borderopacity="1.0"
     inkscape:pageshadow="2"
     inkscape:pageopacity="0.0"
     inkscape:pagecheckerboard="0"
     inkscape:document-units="mm"
     showgrid="false"
     fit-margin-top="0"
     fit-margin-left="0"
     fit-margin-right="0"
     fit-margin-bottom="0"
     inkscape:zoom="0.79909512"
     inkscape:cx="65.073605"
     inkscape:cy="124.51584"
     inkscape:window-width="956"
     inkscape:window-height="1076"
     inkscape:window-x="960"
     inkscape:window-y="0"
     inkscape:window-maximized="1"
     inkscape:current-layer="layer1" />
  <defs
     id="defs83761" />
  <g
     inkscape:label="Layer 1"
     inkscape:groupmode="layer"
     id="layer1"
     transform="translate(-87.80416,-115.60988)">
    <path
       id="path28509-8"
       style="color:#000000;fill:#126d82;fill-rule:evenodd;stroke-width:1;stroke-linecap:round;-inkscape-stroke:none"
       d="m 102.89404,115.61185 c -0.0891,-0.003 -0.17886,-0.003 -0.26924,0.003 -1.46195,0.0556 -2.701501,0.83953 -3.665907,1.84174 -0.964406,1.00219 -1.747229,2.26992 -2.460837,3.71864 -0.562027,1.14096 -1.076642,2.39993 -1.550299,3.72692 l -6.268852,3.61942 a 1.7501749,1.7501749 0 0 0 -0.640292,2.39054 l 3.677311,6.36913 c -0.94353,4.77485 -1.421103,8.48164 -1.421103,8.48164 -0.123322,0.95904 0.554487,1.83634 1.513602,1.95905 0.958506,0.12338 1.835547,-0.55356 1.959054,-1.51204 0,0 0.463286,-3.57264 1.364245,-8.15506 l 5.571248,-3.21686 8.41603,0.43667 c -0.31094,-1.26402 -0.67921,-2.12193 -1.06918,-3.38894 l -6.38154,-0.33073 -3.320204,-5.75107 c 0.410157,-1.12807 0.841693,-2.17265 1.290347,-3.08353 0.614387,-1.24724 1.266827,-2.23845 1.843827,-2.83808 0.577,-0.59965 0.98483,-0.76046 1.27537,-0.77152 0.30652,-0.0116 0.68506,0.10781 1.25987,0.63098 0.57481,0.52318 1.24468,1.42396 1.88672,2.58019 1.28407,2.31243 2.47747,5.61141 3.44733,8.93743 1.14557,3.92859 1.98657,7.8539 2.49079,10.43864 -1.25624,-0.0382 -2.47941,-0.42566 -3.52949,-1.12345 l -0.66352,0.17777 8.70024,9.81131 2.62877,-12.84676 -0.88469,0.23717 c -0.56793,1.14715 -1.45045,2.10907 -2.54455,2.77349 l -1.495,-5.35524 c -0.3887,-1.62365 -0.83762,-3.35648 -1.34358,-5.09167 -1.00918,-3.46078 -2.23346,-6.93015 -3.74809,-9.65782 -0.75732,-1.36382 -1.58126,-2.55135 -2.5895,-3.46903 -0.94523,-0.86035 -2.14154,-1.50863 -3.47888,-1.54099 z m -6.30502,8.68786 c 0.01482,0 0.0291,0.006 0.04392,0.007 a 1.7501749,1.7501749 0 0 0 -0.05789,-0.007 c 0.0045,0 0.0093,0 0.01402,0 z m -0.762767,4.13617 2.241206,3.88194 -3.881914,2.24121 -2.241206,-3.88194 z" />
  </g>
</svg>
