<?xml version="1.0" encoding="UTF-8" standalone="no"?>
<!-- Generator: Adobe Illustrator 26.0.1, SVG Export Plug-In . SVG Version: 6.00 Build 0)  -->

<svg
   version="1.1"
   id="Ebene_1"
   x="0px"
   y="0px"
   viewBox="0 0 80 80"
   style="enable-background:new 0 0 80 80;"
   xml:space="preserve"
   sodipodi:docname="730pm.svg"
   inkscape:export-filename="/home/dan/projects/github/sartography/spiffworkflow_website/static/images/logos/730pm.png"
   inkscape:export-xdpi="240.3"
   inkscape:export-ydpi="240.3"
   inkscape:version="1.1.2 (0a00cf5339, 2022-02-04)"
   xmlns:inkscape="http://www.inkscape.org/namespaces/inkscape"
   xmlns:sodipodi="http://sodipodi.sourceforge.net/DTD/sodipodi-0.dtd"
   xmlns="http://www.w3.org/2000/svg"
   xmlns:svg="http://www.w3.org/2000/svg"><defs
   id="defs1488" /><sodipodi:namedview
   id="namedview1486"
   pagecolor="#ffffff"
   bordercolor="#666666"
   borderopacity="1.0"
   inkscape:pageshadow="2"
   inkscape:pageopacity="0.0"
   inkscape:pagecheckerboard="0"
   showgrid="false"
   inkscape:zoom="8.9875"
   inkscape:cx="39.944367"
   inkscape:cy="39.944367"
   inkscape:window-width="1920"
   inkscape:window-height="1131"
   inkscape:window-x="0"
   inkscape:window-y="0"
   inkscape:window-maximized="1"
   inkscape:current-layer="Ebene_1" />
<style
   type="text/css"
   id="style1475">
	.st0{fill:#FFFFFF;}
</style>
<g
   id="g1483"
   style="fill:#999999"
   inkscape:export-filename="/home/dan/projects/github/sartography/spiffworkflow_website/static/images/logos/730pm.png"
   inkscape:export-xdpi="180.23"
   inkscape:export-ydpi="180.23">
	<path
   class="st0"
   d="M40.7,47.2h-2.8V52h2.8c0.7,0,1.2-0.2,1.6-0.7c0.4-0.5,0.6-1,0.6-1.7c0-0.7-0.2-1.2-0.6-1.7   C41.9,47.5,41.3,47.2,40.7,47.2z"
   id="path1477"
   style="fill:#999999" />
	<path
   class="st0"
   d="M58.9,23.2c-2.6,0-3.9,2.2-3.9,6.5c0,4.3,1.3,6.5,3.9,6.5c2.6,0,3.9-2.2,3.9-6.5   C62.8,25.3,61.5,23.2,58.9,23.2z"
   id="path1479"
   style="fill:#999999" />
	<path
   class="st0"
   d="M0.1,0.2V80h79.9V0.2H0.1z M11.7,61.8l14.9-36.3H11.8v-6.8H37l-2.6,6.2l-15.2,37H11.7z M45.3,54.1   C44,55.4,42.5,56,40.7,56h-2.8v5.8h-4.3V43.2h7c1.8,0,3.4,0.6,4.6,1.9c1.3,1.2,1.9,2.7,1.9,4.5C47.2,51.4,46.6,52.9,45.3,54.1z    M46.8,39c-1.5,1.3-3.4,1.9-5.6,1.9c-1.7,0-3.3-0.4-4.6-1.2c-1.4-0.8-2.4-1.9-3-3.5l4.3-2.5c0.5,1.5,1.6,2.3,3.3,2.3   c1,0,1.7-0.2,2.2-0.7c0.5-0.5,0.7-1,0.7-1.7c0-0.7-0.2-1.3-0.7-1.7c-0.5-0.5-1.2-0.7-2.2-0.7h-1l-1.9-2.8l3.9-5h-3.3l1.9-4.7h7.4v4   l-3.8,4.8c1.4,0.5,2.5,1.2,3.4,2.3c0.8,1.1,1.3,2.3,1.3,3.8C49.1,35.9,48.4,37.7,46.8,39z M67.1,61.8h-4.3V51L58,58.9h-0.5L52.8,51   v10.8h-4.3V43.2h4.3l5,8.3l5-8.3h4.3V61.8z M65.4,37.8c-1.6,2.1-3.7,3.1-6.5,3.1c-2.8,0-4.9-1-6.5-3.1c-1.6-2.1-2.3-4.8-2.3-8.2   s0.8-6.1,2.3-8.2c1.6-2.1,3.7-3.1,6.5-3.1c2.8,0,4.9,1,6.5,3.1c1.6,2.1,2.3,4.8,2.3,8.2S67,35.8,65.4,37.8z"
   id="path1481"
   style="fill:#999999" />
</g>
</svg>
