<svg xmlns="http://www.w3.org/2000/svg" width="1537" height="359" viewBox="0 0 1537 359" fill="none"><g clip-path="url(#clip0_212_138)"><path d="M81.7578 0.0439453V261.044" stroke="#BBBCBC" stroke-miterlimit="10"></path><path d="M161.524 0.0439453V167.285" stroke="#BBBCBC" stroke-miterlimit="10"></path><path d="M161.524 167.285V208.77" stroke="#BBBCBC" stroke-width="0.75" stroke-miterlimit="10"></path><path d="M161.524 208.77V261.044" stroke="#BBBCBC" stroke-miterlimit="10"></path><path d="M212.216 0.0439453V167.285" stroke="#BBBCBC" stroke-miterlimit="10"></path><path d="M212.216 167.285V208.77" stroke="#BBBCBC" stroke-width="0.75" stroke-miterlimit="10"></path><path d="M212.216 208.77V261.044" stroke="#BBBCBC" stroke-miterlimit="10"></path><path d="M291.982 0.0439453V261.044" stroke="#BBBCBC" stroke-miterlimit="10"></path><path d="M80.4346 1.3728H293.306" stroke="#BBBCBC" stroke-miterlimit="10"></path><path d="M80.4346 57.1287H293.306" stroke="#BBBCBC" stroke-miterlimit="10"></path><path d="M80.4346 210.098H293.306" stroke="#BBBCBC" stroke-miterlimit="10"></path><path d="M80.4346 259.715H293.306" stroke="#BBBCBC" stroke-miterlimit="10"></path><path fill-rule="evenodd" clip-rule="evenodd" d="M184.145 58.6965L181.367 59.042L178.774 59.5735L176.367 60.4505L174.118 61.487L172.028 62.5234L170.308 63.9054L168.562 65.6594L167.186 67.3868L165.969 69.3002L164.752 71.5592L163.906 74.0041L163.218 76.4225L162.689 79.213L162.345 82.1629V85.2988V140.231V143.181L162.689 146.131L163.218 148.921L163.906 151.339L164.752 153.784L165.811 155.857L167.028 157.957L168.562 159.684L170.123 161.252L172.028 162.634L173.933 163.857L176.182 164.893L178.616 165.611L181.208 166.116L183.96 166.461L186.923 166.647L189.86 166.461L192.611 166.116L195.23 165.611L197.638 164.893L199.887 163.857L201.792 162.634L203.697 161.252L205.416 159.684L206.819 157.957L208.036 155.857L209.226 153.784L210.099 151.339L210.787 148.735L211.316 146.131L211.475 143.181L211.66 140.045V125.96H196.077V141.081L195.918 143.686L195.389 145.945L194.701 147.699L194.172 148.39L193.67 149.081L193.14 149.612L192.453 150.117L191.077 150.835L189.331 151.339H185.521L183.801 150.835L182.425 150.117L181.711 149.612L181.208 149.081L180.679 148.39L180.177 147.699L179.462 145.945L178.96 143.686L178.774 141.081V84.0763L178.96 81.2859L179.462 79.213L180.177 77.2995L180.521 76.6086L181.023 75.9176L181.711 75.3861L182.425 74.8546L183.801 74.1636L185.521 73.8181L187.426 73.6587L189.331 73.8181L190.892 74.1636L192.453 75.0406L193.14 75.3861L193.67 76.077L194.172 76.768L194.701 77.4856L195.389 79.399L195.918 81.4719L196.077 84.0763V95.371H211.66V85.2988V82.1629L211.316 79.213L210.787 76.4225L210.099 74.0041L209.226 71.5592L208.194 69.3002L206.977 67.3868L205.416 65.6594L203.882 63.9054L201.977 62.5234L199.887 61.487L197.823 60.4505L195.389 59.5735L192.796 59.042L190.019 58.6965H184.145Z" fill="black"></path><path d="M211.66 182.114H162.345V210.098H211.66V182.114Z" fill="#FC5D0D"></path><path fill-rule="evenodd" clip-rule="evenodd" d="M469.27 52.8765C469.27 30.8718 487.022 13.0396 508.928 13.0396H667.537C678.066 13.0396 688.146 17.2385 695.581 24.7063C703.015 32.1741 707.195 42.2994 707.195 52.8765V212.198C707.195 234.203 689.443 252.035 667.537 252.035H508.928C487.022 252.035 469.27 234.203 469.27 212.198V52.8765Z" fill="black"></path><path fill-rule="evenodd" clip-rule="evenodd" d="M585.388 56.8362L582.61 57.1817L580.018 57.7132L577.61 58.5902L575.361 59.6266L573.271 60.6631L571.551 62.045L569.805 63.799L568.429 65.5264L567.212 67.4399L565.995 69.6988L565.149 72.1438L564.461 74.5622L563.932 77.3526L563.588 80.3025V83.4385V138.37V141.32L563.932 144.27L564.461 147.061L565.149 149.479L565.995 151.924L567.054 153.997L568.271 156.096L569.805 157.824L571.366 159.392L573.271 160.774L575.176 161.996L577.425 163.033L579.859 163.724L582.452 164.255L585.203 164.601L588.166 164.787L591.103 164.601L593.854 164.255L596.474 163.724L598.881 163.033L601.13 161.996L603.035 160.774L604.94 159.392L606.66 157.824L608.062 156.096L609.279 153.997L610.469 151.924L611.342 149.479L612.03 146.875L612.559 144.27L612.718 141.32L612.903 138.184V124.099H597.32V139.221L597.162 141.825L596.632 144.084L595.945 145.838L595.415 146.529L594.913 147.22L594.384 147.752L593.696 148.257L592.32 148.974L590.574 149.479H586.764L585.044 148.974L583.669 148.257L582.954 147.752L582.452 147.22L581.922 146.529L581.42 145.838L580.705 144.084L580.203 141.825L580.018 139.221V82.216L580.203 79.4255L580.705 77.3526L581.42 75.4392L581.764 74.7482L582.266 74.0572L582.954 73.5257L583.669 72.9942L585.044 72.3032L586.764 71.9578L588.669 71.7983L590.574 71.9578L592.135 72.3032L593.696 73.1802L594.384 73.5257L594.913 74.2167L595.415 74.9077L595.945 75.5986L596.632 77.5121L597.162 79.6116L597.32 82.216V93.5107H612.903V83.4385V80.3025L612.559 77.3526L612.03 74.5622L611.342 72.1438L610.469 69.6988L609.437 67.4399L608.22 65.5264L606.66 63.799L605.125 62.045L603.22 60.6631L601.13 59.6266L599.066 58.5902L596.632 57.7132L594.04 57.1817L591.262 56.8362H585.388Z" fill="white"></path><path d="M612.903 180.254H563.588V208.238H612.903V180.254Z" fill="#FC5D0D"></path><path fill-rule="evenodd" clip-rule="evenodd" d="M884.509 52.8765C884.509 30.8718 902.261 13.0396 924.167 13.0396H1082.78C1093.31 13.0396 1103.39 17.2385 1110.82 24.7063C1118.25 32.1741 1122.43 42.2994 1122.43 52.8765V212.198C1122.43 234.203 1104.68 252.035 1082.78 252.035H924.167C902.261 252.035 884.509 234.203 884.509 212.198V52.8765Z" fill="#FC5D0D"></path><path fill-rule="evenodd" clip-rule="evenodd" d="M1000.63 56.8894L997.85 57.2349L995.257 57.7664L992.849 58.6434L990.6 59.6799L988.51 60.7163L986.791 62.0982L985.045 63.8522L983.669 65.5797L982.452 67.4931L981.235 69.752L980.388 72.197L979.674 74.6154L979.171 77.4059L978.827 80.3558V83.4917V138.424V141.374L979.171 144.323L979.674 147.114L980.388 149.532L981.235 151.977L982.293 154.05L983.483 156.15L985.045 157.877L986.605 159.445L988.51 160.827L990.415 162.049L992.664 163.086L995.098 163.777L997.691 164.308L1000.44 164.654L1003.41 164.84L1006.34 164.654L1009.09 164.308L1011.69 163.777L1014.12 163.086L1016.37 162.049L1018.27 160.827L1020.18 159.445L1021.9 157.877L1023.3 156.15L1024.49 154.05L1025.71 151.977L1026.58 149.532L1027.27 146.928L1027.8 144.323L1027.96 141.374L1028.14 138.238V124.153H1012.56V139.274L1012.4 141.879L1011.87 144.137L1011.18 145.891L1010.65 146.582L1010.15 147.273L1009.62 147.805L1008.93 148.31L1007.53 149.001L1005.81 149.532H1002L1000.28 149.001L998.881 148.31L998.194 147.805L997.691 147.273L997.162 146.582L996.633 145.891L995.945 144.137L995.442 141.879L995.257 139.274V82.2692L995.442 79.4788L995.945 77.4059L996.633 75.4924L996.976 74.8014L997.506 74.1105L998.194 73.5789L998.881 73.0474L1000.28 72.3565L1002 72.011L1003.91 71.8515L1005.81 72.011L1007.37 72.3565L1008.93 73.2335L1009.62 73.5789L1010.15 74.2699L1010.65 74.9609L1011.18 75.6519L1011.87 77.5653L1012.4 79.6648L1012.56 82.2692V93.5639H1028.14V83.4917V80.3558L1027.8 77.4059L1027.27 74.6154L1026.58 72.197L1025.71 69.752L1024.68 67.4931L1023.46 65.5797L1021.9 63.8522L1020.34 62.0982L1018.43 60.7163L1016.37 59.6799L1014.31 58.6434L1011.87 57.7664L1009.28 57.2349L1006.5 56.8894H1000.63Z" fill="white"></path><path d="M1028.14 180.307H978.827V208.291H1028.14V180.307Z" fill="white"></path></g><g clip-path="url(#clip1_212_138)"><path fill-rule="evenodd" clip-rule="evenodd" d="M1285.96 227.707L1285.71 227.737L1285.48 227.787L1285.26 227.877L1285.06 227.967L1284.87 228.067L1284.71 228.207L1284.56 228.367L1284.43 228.537L1284.33 228.717L1284.22 228.927L1284.14 229.157L1284.08 229.397L1284.03 229.657L1284 229.937V230.237V235.457V235.737L1284.03 236.017L1284.08 236.287L1284.14 236.517L1284.22 236.747L1284.31 236.947L1284.42 237.147L1284.56 237.307L1284.7 237.457L1284.87 237.587L1285.04 237.707L1285.24 237.807L1285.46 237.867L1285.69 237.917L1285.94 237.957L1286.21 237.967L1286.47 237.957L1286.72 237.917L1286.95 237.867L1287.17 237.807L1287.37 237.707L1287.54 237.587L1287.71 237.457L1287.87 237.307L1287.99 237.147L1288.1 236.947L1288.21 236.747L1288.29 236.517L1288.35 236.267L1288.4 236.017L1288.41 235.737L1288.43 235.447V234.107H1287.03V235.537L1287.01 235.787L1286.97 236.007L1286.9 236.167L1286.86 236.237L1286.81 236.297L1286.77 236.347L1286.7 236.397L1286.58 236.467L1286.42 236.517H1286.08L1285.93 236.467L1285.8 236.397L1285.74 236.347L1285.69 236.297L1285.65 236.237L1285.6 236.167L1285.54 236.007L1285.49 235.787L1285.48 235.537V230.117L1285.49 229.857L1285.54 229.657L1285.6 229.477L1285.63 229.407L1285.68 229.347L1285.74 229.297L1285.8 229.247L1285.93 229.177L1286.08 229.147L1286.25 229.127L1286.42 229.147L1286.56 229.177L1286.7 229.257L1286.77 229.297L1286.81 229.357L1286.86 229.427L1286.9 229.497L1286.97 229.677L1287.01 229.877L1287.03 230.117V231.197H1288.43V230.237V229.937L1288.4 229.657L1288.35 229.397L1288.29 229.157L1288.21 228.927L1288.12 228.717L1288.01 228.537L1287.87 228.367L1287.73 228.207L1287.56 228.067L1287.37 227.967L1287.18 227.877L1286.97 227.787L1286.73 227.737L1286.49 227.707H1285.96Z" fill="black"></path><path d="M1288.43 239.447H1284V242.107H1288.43V239.447Z" fill="#FC5D0D"></path></g><path fill-rule="evenodd" clip-rule="evenodd" d="M1293.83 228.63C1293.83 228.906 1293.61 229.13 1293.33 229.13H1292.37V228.63V228.13H1293.33C1293.61 228.13 1293.83 228.354 1293.83 228.63ZM1297.18 229.13H1299.11C1299.38 229.13 1299.61 228.906 1299.61 228.63C1299.61 228.354 1299.38 228.13 1299.11 228.13H1297.18C1296.91 228.13 1296.68 228.354 1296.68 228.63C1296.68 228.906 1296.91 229.13 1297.18 229.13ZM1302.96 228.13C1302.68 228.13 1302.46 228.354 1302.46 228.63C1302.46 228.906 1302.68 229.13 1302.96 229.13H1304.89C1305.16 229.13 1305.39 228.906 1305.39 228.63C1305.39 228.354 1305.16 228.13 1304.89 228.13H1302.96ZM1308.74 228.13C1308.46 228.13 1308.24 228.354 1308.24 228.63C1308.24 228.906 1308.46 229.13 1308.74 229.13H1310.66C1310.94 229.13 1311.16 228.906 1311.16 228.63C1311.16 228.354 1310.94 228.13 1310.66 228.13H1308.74ZM1314.51 228.13C1314.24 228.13 1314.01 228.354 1314.01 228.63C1314.01 228.906 1314.24 229.13 1314.51 229.13H1316.44C1316.72 229.13 1316.94 228.906 1316.94 228.63C1316.94 228.354 1316.72 228.13 1316.44 228.13H1314.51ZM1320.29 228.13C1320.02 228.13 1319.79 228.354 1319.79 228.63C1319.79 228.906 1320.02 229.13 1320.29 229.13H1322.22C1322.49 229.13 1322.72 228.906 1322.72 228.63C1322.72 228.354 1322.49 228.13 1322.22 228.13H1320.29ZM1326.07 228.13C1325.79 228.13 1325.57 228.354 1325.57 228.63C1325.57 228.906 1325.79 229.13 1326.07 229.13H1327.99C1328.27 229.13 1328.49 228.906 1328.49 228.63C1328.49 228.354 1328.27 228.13 1327.99 228.13H1326.07ZM1331.85 228.13C1331.57 228.13 1331.35 228.354 1331.35 228.63C1331.35 228.906 1331.57 229.13 1331.85 229.13H1333.77C1334.05 229.13 1334.27 228.906 1334.27 228.63C1334.27 228.354 1334.05 228.13 1333.77 228.13H1331.85ZM1337.62 228.13C1337.35 228.13 1337.12 228.354 1337.12 228.63C1337.12 228.906 1337.35 229.13 1337.62 229.13H1339.55C1339.82 229.13 1340.05 228.906 1340.05 228.63C1340.05 228.354 1339.82 228.13 1339.55 228.13H1337.62ZM1343.4 228.13C1343.12 228.13 1342.9 228.354 1342.9 228.63C1342.9 228.906 1343.12 229.13 1343.4 229.13H1345.33C1345.6 229.13 1345.83 228.906 1345.83 228.63C1345.83 228.354 1345.6 228.13 1345.33 228.13H1343.4ZM1349.18 228.13C1348.9 228.13 1348.68 228.354 1348.68 228.63C1348.68 228.906 1348.9 229.13 1349.18 229.13H1350.14C1350.16 229.13 1350.17 229.13 1350.19 229.131C1350.31 229.135 1350.42 229.152 1350.53 229.181C1350.8 229.252 1351.07 229.093 1351.14 228.827C1351.21 228.56 1351.05 228.286 1350.79 228.215C1350.61 228.168 1350.43 228.14 1350.24 228.132C1350.21 228.131 1350.17 228.13 1350.14 228.13H1349.18ZM1351.94 229.629C1352.21 229.558 1352.48 229.716 1352.56 229.983C1352.6 230.138 1352.62 230.299 1352.63 230.464C1352.64 230.519 1352.64 230.574 1352.64 230.63V231.38C1352.64 231.656 1352.42 231.88 1352.14 231.88C1351.86 231.88 1351.64 231.656 1351.64 231.38V230.63C1351.64 230.587 1351.64 230.545 1351.63 230.503C1351.63 230.413 1351.61 230.326 1351.59 230.241C1351.52 229.974 1351.68 229.7 1351.94 229.629ZM1351.64 234.38V235.88C1351.64 236.156 1351.86 236.38 1352.14 236.38C1352.42 236.38 1352.64 236.156 1352.64 235.88V234.38C1352.64 234.104 1352.42 233.88 1352.14 233.88C1351.86 233.88 1351.64 234.104 1351.64 234.38ZM1352.64 238.88C1352.64 238.604 1352.42 238.38 1352.14 238.38C1351.86 238.38 1351.64 238.604 1351.64 238.88V239.63C1351.64 239.664 1351.64 239.697 1351.64 239.731C1351.63 239.83 1351.61 239.926 1351.59 240.019C1351.52 240.286 1351.68 240.56 1351.94 240.631C1352.21 240.702 1352.48 240.544 1352.56 240.277C1352.59 240.139 1352.62 239.995 1352.63 239.849C1352.64 239.777 1352.64 239.704 1352.64 239.63V238.88ZM1351.14 241.433C1351.21 241.7 1351.05 241.974 1350.79 242.046C1350.63 242.087 1350.47 242.114 1350.31 242.125C1350.25 242.128 1350.2 242.13 1350.14 242.13H1349.18C1348.9 242.13 1348.68 241.906 1348.68 241.63C1348.68 241.354 1348.9 241.13 1349.18 241.13H1350.14C1350.18 241.13 1350.23 241.128 1350.27 241.125C1350.36 241.117 1350.45 241.102 1350.53 241.079C1350.8 241.008 1351.07 241.167 1351.14 241.433ZM1345.33 241.13C1345.6 241.13 1345.83 241.354 1345.83 241.63C1345.83 241.906 1345.6 242.13 1345.33 242.13H1343.4C1343.12 242.13 1342.9 241.906 1342.9 241.63C1342.9 241.354 1343.12 241.13 1343.4 241.13H1345.33ZM1339.55 241.13C1339.82 241.13 1340.05 241.354 1340.05 241.63C1340.05 241.906 1339.82 242.13 1339.55 242.13H1337.62C1337.35 242.13 1337.12 241.906 1337.12 241.63C1337.12 241.354 1337.35 241.13 1337.62 241.13H1339.55ZM1333.77 241.13C1334.05 241.13 1334.27 241.354 1334.27 241.63C1334.27 241.906 1334.05 242.13 1333.77 242.13H1331.85C1331.57 242.13 1331.35 241.906 1331.35 241.63C1331.35 241.354 1331.57 241.13 1331.85 241.13H1333.77ZM1327.99 241.13C1328.27 241.13 1328.49 241.354 1328.49 241.63C1328.49 241.906 1328.27 242.13 1327.99 242.13H1326.07C1325.79 242.13 1325.57 241.906 1325.57 241.63C1325.57 241.354 1325.79 241.13 1326.07 241.13H1327.99ZM1322.22 241.13C1322.49 241.13 1322.72 241.354 1322.72 241.63C1322.72 241.906 1322.49 242.13 1322.22 242.13H1320.29C1320.02 242.13 1319.79 241.906 1319.79 241.63C1319.79 241.354 1320.02 241.13 1320.29 241.13H1322.22ZM1316.44 241.13C1316.72 241.13 1316.94 241.354 1316.94 241.63C1316.94 241.906 1316.72 242.13 1316.44 242.13H1314.51C1314.24 242.13 1314.01 241.906 1314.01 241.63C1314.01 241.354 1314.24 241.13 1314.51 241.13H1316.44ZM1310.66 241.13C1310.94 241.13 1311.16 241.354 1311.16 241.63C1311.16 241.906 1310.94 242.13 1310.66 242.13H1308.74C1308.46 242.13 1308.24 241.906 1308.24 241.63C1308.24 241.354 1308.46 241.13 1308.74 241.13H1310.66ZM1304.89 241.13C1305.16 241.13 1305.39 241.354 1305.39 241.63C1305.39 241.906 1305.16 242.13 1304.89 242.13H1302.96C1302.68 242.13 1302.46 241.906 1302.46 241.63C1302.46 241.354 1302.68 241.13 1302.96 241.13H1304.89ZM1299.11 241.13C1299.38 241.13 1299.61 241.354 1299.61 241.63C1299.61 241.906 1299.38 242.13 1299.11 242.13H1297.18C1296.91 242.13 1296.68 241.906 1296.68 241.63C1296.68 241.354 1296.91 241.13 1297.18 241.13H1299.11ZM1293.33 241.13C1293.61 241.13 1293.83 241.354 1293.83 241.63C1293.83 241.906 1293.61 242.13 1293.33 242.13H1292.37V241.63V241.13H1293.33Z" fill="black"></path><path d="M1372 241.63H1373.04V236.976C1373.04 236.118 1373.85 235.702 1374.68 235.702C1375.68 235.702 1376.2 236.313 1376.2 237.509V241.63H1377.24V237.327C1377.24 235.702 1376.37 234.766 1374.99 234.766C1373.99 234.766 1373.42 235.26 1373.09 236.014H1373.04V232.01H1372V241.63ZM1388.29 236.794V235.91H1382.23V236.794H1388.29ZM1388.29 239.394V238.51H1382.23V239.394H1388.29ZM1396.13 241.786C1398.3 241.786 1399.25 240.057 1399.25 237.093C1399.25 234.129 1398.3 232.4 1396.13 232.4C1393.95 232.4 1393.01 234.129 1393.01 237.093C1393.01 240.057 1393.95 241.786 1396.13 241.786ZM1396.13 240.837C1394.71 240.837 1394.15 239.589 1394.15 237.834V236.352C1394.15 234.597 1394.71 233.349 1396.13 233.349C1397.54 233.349 1398.1 234.597 1398.1 236.352V237.834C1398.1 239.589 1397.54 240.837 1396.13 240.837ZM1401.79 241.786C1402.33 241.786 1402.58 241.474 1402.58 241.032V240.863C1402.58 240.421 1402.33 240.109 1401.79 240.109C1401.24 240.109 1401 240.421 1401 240.863V241.032C1401 241.474 1401.24 241.786 1401.79 241.786ZM1410.49 240.668H1405.72L1408.16 238.471C1409.32 237.431 1410.15 236.443 1410.15 235.039C1410.15 233.492 1409.14 232.4 1407.37 232.4C1405.62 232.4 1404.81 233.466 1404.46 234.532L1405.43 234.909C1405.68 234.051 1406.2 233.375 1407.32 233.375C1408.44 233.375 1409 234.064 1409 235.065V235.221C1409 236.092 1408.35 237.002 1407.5 237.782L1404.54 240.512V241.63H1410.49V240.668ZM1416.05 233.349C1416.5 233.349 1416.69 233.115 1416.69 232.764V232.595C1416.69 232.244 1416.5 232.01 1416.05 232.01C1415.61 232.01 1415.42 232.244 1415.42 232.595V232.764C1415.42 233.115 1415.61 233.349 1416.05 233.349ZM1415.53 241.63H1416.57V234.922H1415.53V241.63ZM1419.82 241.63V236.976C1419.82 236.118 1420.63 235.702 1421.46 235.702C1422.46 235.702 1422.98 236.313 1422.98 237.509V241.63H1424.02V237.327C1424.02 235.702 1423.15 234.766 1421.77 234.766C1420.77 234.766 1420.2 235.26 1419.88 236.014H1419.82V234.922H1418.78V241.63H1419.82Z" fill="black"></path><path d="M125.475 313.513C124.248 313.513 123.208 313.306 122.355 312.893C121.501 312.466 120.775 311.92 120.175 311.253L122.175 309.233C123.121 310.3 124.288 310.833 125.675 310.833C126.421 310.833 126.975 310.68 127.335 310.373C127.695 310.066 127.875 309.66 127.875 309.153C127.875 308.766 127.768 308.446 127.555 308.193C127.341 307.926 126.908 307.746 126.255 307.653L124.875 307.473C123.395 307.286 122.308 306.84 121.615 306.133C120.935 305.426 120.595 304.486 120.595 303.313C120.595 302.686 120.715 302.113 120.955 301.593C121.195 301.073 121.535 300.626 121.975 300.253C122.428 299.88 122.975 299.593 123.615 299.393C124.268 299.18 125.008 299.073 125.835 299.073C126.888 299.073 127.815 299.24 128.615 299.573C129.415 299.906 130.101 300.393 130.675 301.033L128.655 303.073C128.321 302.686 127.915 302.373 127.435 302.133C126.968 301.88 126.375 301.753 125.655 301.753C124.975 301.753 124.468 301.873 124.135 302.113C123.801 302.353 123.635 302.686 123.635 303.113C123.635 303.593 123.761 303.94 124.015 304.153C124.281 304.366 124.708 304.52 125.295 304.613L126.675 304.833C128.115 305.06 129.181 305.506 129.875 306.173C130.568 306.826 130.915 307.76 130.915 308.973C130.915 309.64 130.795 310.253 130.555 310.813C130.315 311.373 129.961 311.853 129.495 312.253C129.041 312.653 128.475 312.966 127.795 313.193C127.115 313.406 126.341 313.513 125.475 313.513ZM133.275 302.773H136.235V304.533H136.335C136.482 303.946 136.815 303.466 137.335 303.093C137.868 302.72 138.475 302.533 139.155 302.533C140.488 302.533 141.495 303 142.175 303.933C142.855 304.866 143.195 306.226 143.195 308.013C143.195 309.8 142.855 311.166 142.175 312.113C141.495 313.046 140.488 313.513 139.155 313.513C138.808 313.513 138.482 313.46 138.175 313.353C137.868 313.26 137.588 313.126 137.335 312.953C137.095 312.766 136.888 312.553 136.715 312.313C136.542 312.06 136.415 311.793 136.335 311.513H136.235V317.273H133.275V302.773ZM138.175 311.113C138.735 311.113 139.195 310.92 139.555 310.533C139.928 310.133 140.115 309.6 140.115 308.933V307.113C140.115 306.446 139.928 305.92 139.555 305.533C139.195 305.133 138.735 304.933 138.175 304.933C137.615 304.933 137.148 305.073 136.775 305.353C136.415 305.62 136.235 305.993 136.235 306.473V309.573C136.235 310.053 136.415 310.433 136.775 310.713C137.148 310.98 137.615 311.113 138.175 311.113ZM153.203 313.273C152.67 313.273 152.223 313.106 151.863 312.773C151.516 312.44 151.296 311.993 151.203 311.433H151.083C150.923 312.113 150.57 312.633 150.023 312.993C149.476 313.34 148.803 313.513 148.003 313.513C146.95 313.513 146.143 313.233 145.583 312.673C145.023 312.113 144.743 311.373 144.743 310.453C144.743 309.346 145.143 308.526 145.943 307.993C146.756 307.446 147.856 307.173 149.243 307.173H150.903V306.513C150.903 306.006 150.77 305.606 150.503 305.313C150.236 305.006 149.79 304.853 149.163 304.853C148.576 304.853 148.11 304.98 147.763 305.233C147.416 305.486 147.13 305.773 146.903 306.093L145.143 304.533C145.57 303.906 146.103 303.42 146.743 303.073C147.396 302.713 148.276 302.533 149.383 302.533C150.876 302.533 151.996 302.86 152.743 303.513C153.49 304.166 153.863 305.12 153.863 306.373V310.973H154.843V313.273H153.203ZM149.103 311.453C149.596 311.453 150.016 311.346 150.363 311.133C150.723 310.92 150.903 310.573 150.903 310.093V308.853H149.463C148.303 308.853 147.723 309.246 147.723 310.033V310.333C147.723 310.72 147.843 311.006 148.083 311.193C148.323 311.366 148.663 311.453 149.103 311.453ZM161.07 313.513C160.283 313.513 159.583 313.386 158.97 313.133C158.356 312.866 157.843 312.5 157.43 312.033C157.016 311.553 156.703 310.973 156.49 310.293C156.276 309.613 156.17 308.853 156.17 308.013C156.17 307.173 156.276 306.42 156.49 305.753C156.703 305.073 157.016 304.493 157.43 304.013C157.843 303.533 158.356 303.166 158.97 302.913C159.583 302.66 160.283 302.533 161.07 302.533C162.136 302.533 163.023 302.773 163.73 303.253C164.45 303.733 164.963 304.406 165.27 305.273L162.87 306.313C162.776 305.913 162.583 305.573 162.29 305.293C161.996 305.013 161.59 304.873 161.07 304.873C160.47 304.873 160.016 305.073 159.71 305.473C159.403 305.86 159.25 306.386 159.25 307.053V309.013C159.25 309.68 159.403 310.206 159.71 310.593C160.016 310.98 160.47 311.173 161.07 311.173C161.603 311.173 162.023 311.033 162.33 310.753C162.65 310.46 162.883 310.08 163.03 309.613L165.33 310.613C164.983 311.613 164.443 312.346 163.71 312.813C162.99 313.28 162.11 313.513 161.07 313.513ZM168.642 301.653C168.042 301.653 167.602 301.52 167.322 301.253C167.055 300.973 166.922 300.62 166.922 300.193V299.753C166.922 299.326 167.055 298.98 167.322 298.713C167.602 298.433 168.042 298.293 168.642 298.293C169.242 298.293 169.675 298.433 169.942 298.713C170.222 298.98 170.362 299.326 170.362 299.753V300.193C170.362 300.62 170.222 300.973 169.942 301.253C169.675 301.52 169.242 301.653 168.642 301.653ZM167.162 302.773H170.122V313.273H167.162V302.773ZM172.884 313.273V302.773H175.844V304.553H175.964C176.151 304.006 176.478 303.533 176.944 303.133C177.411 302.733 178.058 302.533 178.884 302.533C179.964 302.533 180.778 302.893 181.324 303.613C181.884 304.333 182.164 305.36 182.164 306.693V313.273H179.204V306.933C179.204 306.253 179.098 305.753 178.884 305.433C178.671 305.1 178.291 304.933 177.744 304.933C177.504 304.933 177.271 304.966 177.044 305.033C176.818 305.086 176.611 305.18 176.424 305.313C176.251 305.446 176.111 305.613 176.004 305.813C175.898 306 175.844 306.22 175.844 306.473V313.273H172.884ZM194.518 314.033C194.518 314.593 194.418 315.086 194.218 315.513C194.032 315.94 193.718 316.3 193.278 316.593C192.838 316.9 192.252 317.126 191.518 317.273C190.798 317.433 189.905 317.513 188.838 317.513C187.932 317.513 187.158 317.453 186.518 317.333C185.892 317.226 185.378 317.066 184.978 316.853C184.592 316.653 184.305 316.4 184.118 316.093C183.945 315.8 183.858 315.46 183.858 315.073C183.858 314.486 184.032 314.026 184.378 313.693C184.725 313.36 185.205 313.153 185.818 313.073V312.853C185.312 312.76 184.932 312.546 184.678 312.213C184.425 311.866 184.298 311.466 184.298 311.013C184.298 310.733 184.352 310.493 184.458 310.293C184.578 310.08 184.725 309.9 184.898 309.753C185.085 309.593 185.298 309.466 185.538 309.373C185.778 309.28 186.018 309.206 186.258 309.153V309.073C185.618 308.78 185.145 308.38 184.838 307.873C184.532 307.353 184.378 306.753 184.378 306.073C184.378 305.006 184.745 304.153 185.478 303.513C186.225 302.86 187.358 302.533 188.878 302.533C189.572 302.533 190.165 302.6 190.658 302.733V302.333C190.658 301.773 190.792 301.373 191.058 301.133C191.338 300.88 191.732 300.753 192.238 300.753H193.898V302.953H191.578V303.073C192.192 303.366 192.645 303.773 192.938 304.293C193.232 304.8 193.378 305.393 193.378 306.073C193.378 307.126 193.005 307.973 192.258 308.613C191.525 309.24 190.398 309.553 188.878 309.553C188.198 309.553 187.578 309.48 187.018 309.333C186.712 309.533 186.558 309.813 186.558 310.173C186.558 310.426 186.652 310.626 186.838 310.773C187.038 310.906 187.365 310.973 187.818 310.973H190.858C192.138 310.973 193.065 311.24 193.638 311.773C194.225 312.306 194.518 313.06 194.518 314.033ZM191.738 314.433C191.738 314.126 191.618 313.893 191.378 313.733C191.138 313.573 190.718 313.493 190.118 313.493H186.518C186.385 313.626 186.285 313.773 186.218 313.933C186.165 314.106 186.138 314.273 186.138 314.433C186.138 314.82 186.305 315.1 186.638 315.273C186.972 315.46 187.538 315.553 188.338 315.553H189.538C190.338 315.553 190.905 315.46 191.238 315.273C191.572 315.1 191.738 314.82 191.738 314.433ZM188.878 307.613C189.465 307.613 189.898 307.493 190.178 307.253C190.472 307 190.618 306.64 190.618 306.173V305.933C190.618 305.466 190.472 305.113 190.178 304.873C189.898 304.62 189.465 304.493 188.878 304.493C188.292 304.493 187.852 304.62 187.558 304.873C187.278 305.113 187.138 305.466 187.138 305.933V306.173C187.138 306.64 187.278 307 187.558 307.253C187.852 307.493 188.292 307.613 188.878 307.613ZM209.58 311.053H209.48C209.374 311.76 209.014 312.346 208.4 312.813C207.787 313.28 206.954 313.513 205.9 313.513C205.1 313.513 204.354 313.36 203.66 313.053C202.967 312.746 202.36 312.293 201.84 311.693C201.32 311.093 200.914 310.346 200.62 309.453C200.327 308.56 200.18 307.526 200.18 306.353C200.18 305.18 200.334 304.14 200.64 303.233C200.947 302.326 201.374 301.566 201.92 300.953C202.48 300.34 203.147 299.873 203.92 299.553C204.694 299.233 205.554 299.073 206.5 299.073C207.754 299.073 208.834 299.346 209.74 299.893C210.647 300.426 211.36 301.233 211.88 302.313L209.4 303.733C209.187 303.186 208.854 302.726 208.4 302.353C207.947 301.966 207.314 301.773 206.5 301.773C205.554 301.773 204.8 302.046 204.24 302.593C203.68 303.14 203.4 304 203.4 305.173V307.413C203.4 308.573 203.68 309.433 204.24 309.993C204.8 310.54 205.554 310.813 206.5 310.813C206.874 310.813 207.227 310.773 207.56 310.693C207.894 310.6 208.187 310.466 208.44 310.293C208.694 310.106 208.887 309.886 209.02 309.633C209.167 309.38 209.24 309.08 209.24 308.733V308.033H206.64V305.493H212.14V313.273H209.58V311.053ZM221.135 311.513H221.035C220.942 311.78 220.815 312.033 220.655 312.273C220.509 312.513 220.315 312.726 220.075 312.913C219.835 313.1 219.549 313.246 219.215 313.353C218.895 313.46 218.522 313.513 218.095 313.513C217.015 313.513 216.195 313.16 215.635 312.453C215.089 311.733 214.815 310.706 214.815 309.373V302.773H217.775V309.113C217.775 309.753 217.889 310.246 218.115 310.593C218.342 310.94 218.729 311.113 219.275 311.113C219.502 311.113 219.729 311.08 219.955 311.013C220.182 310.946 220.382 310.853 220.555 310.733C220.729 310.6 220.869 310.44 220.975 310.253C221.082 310.066 221.135 309.846 221.135 309.593V302.773H224.095V313.273H221.135V311.513ZM228.329 301.653C227.729 301.653 227.289 301.52 227.009 301.253C226.743 300.973 226.609 300.62 226.609 300.193V299.753C226.609 299.326 226.743 298.98 227.009 298.713C227.289 298.433 227.729 298.293 228.329 298.293C228.929 298.293 229.363 298.433 229.629 298.713C229.909 298.98 230.049 299.326 230.049 299.753V300.193C230.049 300.62 229.909 300.973 229.629 301.253C229.363 301.52 228.929 301.653 228.329 301.653ZM226.849 302.773H229.809V313.273H226.849V302.773ZM239.012 311.513H238.912C238.832 311.793 238.705 312.06 238.532 312.313C238.359 312.553 238.145 312.766 237.892 312.953C237.652 313.126 237.372 313.26 237.052 313.353C236.745 313.46 236.425 313.513 236.092 313.513C234.759 313.513 233.752 313.046 233.072 312.113C232.392 311.166 232.052 309.8 232.052 308.013C232.052 306.226 232.392 304.866 233.072 303.933C233.752 303 234.759 302.533 236.092 302.533C236.772 302.533 237.372 302.72 237.892 303.093C238.425 303.466 238.765 303.946 238.912 304.533H239.012V298.473H241.972V313.273H239.012V311.513ZM237.072 311.113C237.632 311.113 238.092 310.98 238.452 310.713C238.825 310.433 239.012 310.053 239.012 309.573V306.473C239.012 305.993 238.825 305.62 238.452 305.353C238.092 305.073 237.632 304.933 237.072 304.933C236.512 304.933 236.045 305.133 235.672 305.533C235.312 305.92 235.132 306.446 235.132 307.113V308.933C235.132 309.6 235.312 310.133 235.672 310.533C236.045 310.92 236.512 311.113 237.072 311.113ZM249.12 313.513C248.32 313.513 247.607 313.386 246.98 313.133C246.353 312.866 245.82 312.5 245.38 312.033C244.953 311.553 244.627 310.973 244.4 310.293C244.187 309.613 244.08 308.853 244.08 308.013C244.08 307.186 244.187 306.44 244.4 305.773C244.613 305.093 244.927 304.513 245.34 304.033C245.767 303.553 246.287 303.186 246.9 302.933C247.513 302.666 248.213 302.533 249 302.533C249.867 302.533 250.607 302.68 251.22 302.973C251.847 303.266 252.353 303.66 252.74 304.153C253.14 304.646 253.427 305.22 253.6 305.873C253.787 306.513 253.88 307.186 253.88 307.893V308.773H247.14V308.933C247.14 309.626 247.327 310.18 247.7 310.593C248.073 310.993 248.66 311.193 249.46 311.193C250.073 311.193 250.573 311.073 250.96 310.833C251.347 310.58 251.707 310.28 252.04 309.933L253.52 311.773C253.053 312.32 252.44 312.746 251.68 313.053C250.933 313.36 250.08 313.513 249.12 313.513ZM249.06 304.713C248.46 304.713 247.987 304.913 247.64 305.313C247.307 305.7 247.14 306.22 247.14 306.873V307.033H250.82V306.853C250.82 306.213 250.673 305.7 250.38 305.313C250.1 304.913 249.66 304.713 249.06 304.713Z" fill="#888B8D"></path><path d="M875.002 299.313H880.262C881.182 299.313 882.022 299.46 882.782 299.753C883.542 300.046 884.189 300.486 884.722 301.073C885.256 301.646 885.669 302.373 885.962 303.253C886.256 304.12 886.402 305.133 886.402 306.293C886.402 307.453 886.256 308.473 885.962 309.353C885.669 310.22 885.256 310.946 884.722 311.533C884.189 312.106 883.542 312.54 882.782 312.833C882.022 313.126 881.182 313.273 880.262 313.273H875.002V299.313ZM880.262 310.573C881.169 310.573 881.882 310.32 882.402 309.813C882.922 309.306 883.182 308.493 883.182 307.373V305.213C883.182 304.093 882.922 303.28 882.402 302.773C881.882 302.266 881.169 302.013 880.262 302.013H878.042V310.573H880.262ZM893.168 313.513C892.368 313.513 891.654 313.386 891.028 313.133C890.401 312.866 889.868 312.5 889.428 312.033C889.001 311.553 888.674 310.973 888.448 310.293C888.234 309.613 888.128 308.853 888.128 308.013C888.128 307.186 888.234 306.44 888.448 305.773C888.661 305.093 888.974 304.513 889.388 304.033C889.814 303.553 890.334 303.186 890.948 302.933C891.561 302.666 892.261 302.533 893.048 302.533C893.914 302.533 894.654 302.68 895.268 302.973C895.894 303.266 896.401 303.66 896.788 304.153C897.188 304.646 897.474 305.22 897.648 305.873C897.834 306.513 897.928 307.186 897.928 307.893V308.773H891.188V308.933C891.188 309.626 891.374 310.18 891.748 310.593C892.121 310.993 892.708 311.193 893.508 311.193C894.121 311.193 894.621 311.073 895.008 310.833C895.394 310.58 895.754 310.28 896.088 309.933L897.568 311.773C897.101 312.32 896.488 312.746 895.728 313.053C894.981 313.36 894.128 313.513 893.168 313.513ZM893.108 304.713C892.508 304.713 892.034 304.913 891.688 305.313C891.354 305.7 891.188 306.22 891.188 306.873V307.033H894.868V306.853C894.868 306.213 894.721 305.7 894.428 305.313C894.148 304.913 893.708 304.713 893.108 304.713ZM903.578 313.513C902.565 313.513 901.712 313.353 901.018 313.033C900.325 312.7 899.705 312.233 899.158 311.633L900.898 309.873C901.272 310.286 901.685 310.613 902.138 310.853C902.592 311.093 903.105 311.213 903.678 311.213C904.265 311.213 904.672 311.126 904.898 310.953C905.125 310.766 905.238 310.52 905.238 310.213C905.238 309.72 904.885 309.426 904.178 309.333L903.038 309.193C900.678 308.9 899.498 307.82 899.498 305.953C899.498 305.446 899.592 304.986 899.778 304.573C899.978 304.146 900.252 303.786 900.598 303.493C900.958 303.186 901.385 302.953 901.878 302.793C902.385 302.62 902.952 302.533 903.578 302.533C904.125 302.533 904.605 302.573 905.018 302.653C905.445 302.72 905.818 302.826 906.138 302.973C906.472 303.106 906.772 303.28 907.038 303.493C907.318 303.693 907.592 303.92 907.858 304.173L906.158 305.913C905.825 305.58 905.445 305.32 905.018 305.133C904.605 304.933 904.178 304.833 903.738 304.833C903.232 304.833 902.872 304.913 902.658 305.073C902.445 305.233 902.338 305.446 902.338 305.713C902.338 305.993 902.412 306.213 902.558 306.373C902.718 306.52 903.012 306.626 903.438 306.693L904.618 306.853C906.925 307.16 908.078 308.213 908.078 310.013C908.078 310.52 907.972 310.986 907.758 311.413C907.545 311.84 907.238 312.213 906.838 312.533C906.452 312.84 905.978 313.08 905.418 313.253C904.872 313.426 904.258 313.513 903.578 313.513ZM910.096 298.473H913.056V307.213H913.176L914.476 305.273L916.576 302.773H919.856L916.356 306.793L920.256 313.273H916.736L914.376 308.833L913.056 310.313V313.273H910.096V298.473ZM925.124 313.273C924.097 313.273 923.317 313.013 922.784 312.493C922.264 311.973 922.004 311.213 922.004 310.213V305.073H920.524V302.773H921.264C921.664 302.773 921.937 302.68 922.084 302.493C922.231 302.293 922.304 302.013 922.304 301.653V299.933H924.964V302.773H927.044V305.073H924.964V310.973H926.884V313.273H925.124ZM933.282 313.513C932.509 313.513 931.815 313.386 931.202 313.133C930.602 312.88 930.089 312.513 929.662 312.033C929.249 311.553 928.929 310.973 928.702 310.293C928.475 309.613 928.362 308.853 928.362 308.013C928.362 307.173 928.475 306.413 928.702 305.733C928.929 305.053 929.249 304.48 929.662 304.013C930.089 303.533 930.602 303.166 931.202 302.913C931.815 302.66 932.509 302.533 933.282 302.533C934.055 302.533 934.742 302.66 935.342 302.913C935.955 303.166 936.469 303.533 936.882 304.013C937.309 304.48 937.635 305.053 937.862 305.733C938.089 306.413 938.202 307.173 938.202 308.013C938.202 308.853 938.089 309.613 937.862 310.293C937.635 310.973 937.309 311.553 936.882 312.033C936.469 312.513 935.955 312.88 935.342 313.133C934.742 313.386 934.055 313.513 933.282 313.513ZM933.282 311.173C933.869 311.173 934.322 310.993 934.642 310.633C934.962 310.273 935.122 309.76 935.122 309.093V306.953C935.122 306.286 934.962 305.773 934.642 305.413C934.322 305.053 933.869 304.873 933.282 304.873C932.695 304.873 932.242 305.053 931.922 305.413C931.602 305.773 931.442 306.286 931.442 306.953V309.093C931.442 309.76 931.602 310.273 931.922 310.633C932.242 310.993 932.695 311.173 933.282 311.173ZM940.311 302.773H943.271V304.533H943.371C943.518 303.946 943.851 303.466 944.371 303.093C944.904 302.72 945.511 302.533 946.191 302.533C947.524 302.533 948.531 303 949.211 303.933C949.891 304.866 950.231 306.226 950.231 308.013C950.231 309.8 949.891 311.166 949.211 312.113C948.531 313.046 947.524 313.513 946.191 313.513C945.844 313.513 945.518 313.46 945.211 313.353C944.904 313.26 944.624 313.126 944.371 312.953C944.131 312.766 943.924 312.553 943.751 312.313C943.578 312.06 943.451 311.793 943.371 311.513H943.271V317.273H940.311V302.773ZM945.211 311.113C945.771 311.113 946.231 310.92 946.591 310.533C946.964 310.133 947.151 309.6 947.151 308.933V307.113C947.151 306.446 946.964 305.92 946.591 305.533C946.231 305.133 945.771 304.933 945.211 304.933C944.651 304.933 944.184 305.073 943.811 305.353C943.451 305.62 943.271 305.993 943.271 306.473V309.573C943.271 310.053 943.451 310.433 943.811 310.713C944.184 310.98 944.651 311.113 945.211 311.113ZM965.966 313.273L964.966 309.953H960.306L959.306 313.273H956.226L960.826 299.313H964.586L969.126 313.273H965.966ZM962.666 302.073H962.566L961.026 307.373H964.226L962.666 302.073ZM970.897 302.773H973.857V304.533H973.957C974.104 303.946 974.437 303.466 974.957 303.093C975.49 302.72 976.097 302.533 976.777 302.533C978.11 302.533 979.117 303 979.797 303.933C980.477 304.866 980.817 306.226 980.817 308.013C980.817 309.8 980.477 311.166 979.797 312.113C979.117 313.046 978.11 313.513 976.777 313.513C976.43 313.513 976.104 313.46 975.797 313.353C975.49 313.26 975.21 313.126 974.957 312.953C974.717 312.766 974.51 312.553 974.337 312.313C974.164 312.06 974.037 311.793 973.957 311.513H973.857V317.273H970.897V302.773ZM975.797 311.113C976.357 311.113 976.817 310.92 977.177 310.533C977.55 310.133 977.737 309.6 977.737 308.933V307.113C977.737 306.446 977.55 305.92 977.177 305.533C976.817 305.133 976.357 304.933 975.797 304.933C975.237 304.933 974.77 305.073 974.397 305.353C974.037 305.62 973.857 305.993 973.857 306.473V309.573C973.857 310.053 974.037 310.433 974.397 310.713C974.77 310.98 975.237 311.113 975.797 311.113ZM983.065 302.773H986.025V304.533H986.125C986.272 303.946 986.605 303.466 987.125 303.093C987.658 302.72 988.265 302.533 988.945 302.533C990.278 302.533 991.285 303 991.965 303.933C992.645 304.866 992.985 306.226 992.985 308.013C992.985 309.8 992.645 311.166 991.965 312.113C991.285 313.046 990.278 313.513 988.945 313.513C988.598 313.513 988.272 313.46 987.965 313.353C987.658 313.26 987.378 313.126 987.125 312.953C986.885 312.766 986.678 312.553 986.505 312.313C986.332 312.06 986.205 311.793 986.125 311.513H986.025V317.273H983.065V302.773ZM987.965 311.113C988.525 311.113 988.985 310.92 989.345 310.533C989.718 310.133 989.905 309.6 989.905 308.933V307.113C989.905 306.446 989.718 305.92 989.345 305.533C988.985 305.133 988.525 304.933 987.965 304.933C987.405 304.933 986.938 305.073 986.565 305.353C986.205 305.62 986.025 305.993 986.025 306.473V309.573C986.025 310.053 986.205 310.433 986.565 310.713C986.938 310.98 987.405 311.113 987.965 311.113ZM998.64 316.293L1004.6 298.473H1007.04L1001.08 316.293H998.64ZM1014.05 313.273V299.313H1020.65C1021.3 299.313 1021.89 299.426 1022.41 299.653C1022.93 299.866 1023.37 300.166 1023.73 300.553C1024.1 300.94 1024.39 301.413 1024.59 301.973C1024.79 302.52 1024.89 303.12 1024.89 303.773C1024.89 304.44 1024.79 305.046 1024.59 305.593C1024.39 306.14 1024.1 306.606 1023.73 306.993C1023.37 307.38 1022.93 307.686 1022.41 307.913C1021.89 308.126 1021.3 308.233 1020.65 308.233H1017.09V313.273H1014.05ZM1017.09 305.593H1020.29C1020.74 305.593 1021.09 305.48 1021.35 305.253C1021.61 305.013 1021.75 304.666 1021.75 304.213V303.333C1021.75 302.88 1021.61 302.54 1021.35 302.313C1021.09 302.073 1020.74 301.953 1020.29 301.953H1017.09V305.593ZM1026.82 313.273V302.773H1029.78V305.053H1029.88C1029.93 304.76 1030.02 304.48 1030.16 304.213C1030.29 303.933 1030.46 303.686 1030.68 303.473C1030.9 303.26 1031.17 303.093 1031.48 302.973C1031.78 302.84 1032.14 302.773 1032.56 302.773H1033.08V305.533H1032.34C1031.47 305.533 1030.82 305.646 1030.4 305.873C1029.98 306.1 1029.78 306.52 1029.78 307.133V313.273H1026.82ZM1039.06 313.513C1038.29 313.513 1037.6 313.386 1036.98 313.133C1036.38 312.88 1035.87 312.513 1035.44 312.033C1035.03 311.553 1034.71 310.973 1034.48 310.293C1034.26 309.613 1034.14 308.853 1034.14 308.013C1034.14 307.173 1034.26 306.413 1034.48 305.733C1034.71 305.053 1035.03 304.48 1035.44 304.013C1035.87 303.533 1036.38 303.166 1036.98 302.913C1037.6 302.66 1038.29 302.533 1039.06 302.533C1039.84 302.533 1040.52 302.66 1041.12 302.913C1041.74 303.166 1042.25 303.533 1042.66 304.013C1043.09 304.48 1043.42 305.053 1043.64 305.733C1043.87 306.413 1043.98 307.173 1043.98 308.013C1043.98 308.853 1043.87 309.613 1043.64 310.293C1043.42 310.973 1043.09 311.553 1042.66 312.033C1042.25 312.513 1041.74 312.88 1041.12 313.133C1040.52 313.386 1039.84 313.513 1039.06 313.513ZM1039.06 311.173C1039.65 311.173 1040.1 310.993 1040.42 310.633C1040.74 310.273 1040.9 309.76 1040.9 309.093V306.953C1040.9 306.286 1040.74 305.773 1040.42 305.413C1040.1 305.053 1039.65 304.873 1039.06 304.873C1038.48 304.873 1038.02 305.053 1037.7 305.413C1037.38 305.773 1037.22 306.286 1037.22 306.953V309.093C1037.22 309.76 1037.38 310.273 1037.7 310.633C1038.02 310.993 1038.48 311.173 1039.06 311.173ZM1052.53 311.513H1052.43C1052.35 311.793 1052.23 312.06 1052.05 312.313C1051.88 312.553 1051.67 312.766 1051.41 312.953C1051.17 313.126 1050.89 313.26 1050.57 313.353C1050.27 313.46 1049.95 313.513 1049.61 313.513C1048.28 313.513 1047.27 313.046 1046.59 312.113C1045.91 311.166 1045.57 309.8 1045.57 308.013C1045.57 306.226 1045.91 304.866 1046.59 303.933C1047.27 303 1048.28 302.533 1049.61 302.533C1050.29 302.533 1050.89 302.72 1051.41 303.093C1051.95 303.466 1052.29 303.946 1052.43 304.533H1052.53V298.473H1055.49V313.273H1052.53V311.513ZM1050.59 311.113C1051.15 311.113 1051.61 310.98 1051.97 310.713C1052.35 310.433 1052.53 310.053 1052.53 309.573V306.473C1052.53 305.993 1052.35 305.62 1051.97 305.353C1051.61 305.073 1051.15 304.933 1050.59 304.933C1050.03 304.933 1049.57 305.133 1049.19 305.533C1048.83 305.92 1048.65 306.446 1048.65 307.113V308.933C1048.65 309.6 1048.83 310.133 1049.19 310.533C1049.57 310.92 1050.03 311.113 1050.59 311.113ZM1064.46 311.513H1064.36C1064.27 311.78 1064.14 312.033 1063.98 312.273C1063.83 312.513 1063.64 312.726 1063.4 312.913C1063.16 313.1 1062.87 313.246 1062.54 313.353C1062.22 313.46 1061.85 313.513 1061.42 313.513C1060.34 313.513 1059.52 313.16 1058.96 312.453C1058.41 311.733 1058.14 310.706 1058.14 309.373V302.773H1061.1V309.113C1061.1 309.753 1061.21 310.246 1061.44 310.593C1061.67 310.94 1062.05 311.113 1062.6 311.113C1062.83 311.113 1063.05 311.08 1063.28 311.013C1063.51 310.946 1063.71 310.853 1063.88 310.733C1064.05 310.6 1064.19 310.44 1064.3 310.253C1064.41 310.066 1064.46 309.846 1064.46 309.593V302.773H1067.42V313.273H1064.46V311.513ZM1074.41 313.513C1073.63 313.513 1072.93 313.386 1072.31 313.133C1071.7 312.866 1071.19 312.5 1070.77 312.033C1070.36 311.553 1070.05 310.973 1069.83 310.293C1069.62 309.613 1069.51 308.853 1069.51 308.013C1069.51 307.173 1069.62 306.42 1069.83 305.753C1070.05 305.073 1070.36 304.493 1070.77 304.013C1071.19 303.533 1071.7 303.166 1072.31 302.913C1072.93 302.66 1073.63 302.533 1074.41 302.533C1075.48 302.533 1076.37 302.773 1077.07 303.253C1077.79 303.733 1078.31 304.406 1078.61 305.273L1076.21 306.313C1076.12 305.913 1075.93 305.573 1075.63 305.293C1075.34 305.013 1074.93 304.873 1074.41 304.873C1073.81 304.873 1073.36 305.073 1073.05 305.473C1072.75 305.86 1072.59 306.386 1072.59 307.053V309.013C1072.59 309.68 1072.75 310.206 1073.05 310.593C1073.36 310.98 1073.81 311.173 1074.41 311.173C1074.95 311.173 1075.37 311.033 1075.67 310.753C1075.99 310.46 1076.23 310.08 1076.37 309.613L1078.67 310.613C1078.33 311.613 1077.79 312.346 1077.05 312.813C1076.33 313.28 1075.45 313.513 1074.41 313.513ZM1084.19 313.273C1083.16 313.273 1082.38 313.013 1081.85 312.493C1081.33 311.973 1081.07 311.213 1081.07 310.213V305.073H1079.59V302.773H1080.33C1080.73 302.773 1081 302.68 1081.15 302.493C1081.29 302.293 1081.37 302.013 1081.37 301.653V299.933H1084.03V302.773H1086.11V305.073H1084.03V310.973H1085.95V313.273H1084.19ZM1092.51 313.273V310.853H1094.31V301.733H1092.51V299.313H1099.15V301.733H1097.35V310.853H1099.15V313.273H1092.51ZM1105.66 313.513C1104.88 313.513 1104.18 313.386 1103.56 313.133C1102.95 312.866 1102.44 312.5 1102.02 312.033C1101.61 311.553 1101.3 310.973 1101.08 310.293C1100.87 309.613 1100.76 308.853 1100.76 308.013C1100.76 307.173 1100.87 306.42 1101.08 305.753C1101.3 305.073 1101.61 304.493 1102.02 304.013C1102.44 303.533 1102.95 303.166 1103.56 302.913C1104.18 302.66 1104.88 302.533 1105.66 302.533C1106.73 302.533 1107.62 302.773 1108.32 303.253C1109.04 303.733 1109.56 304.406 1109.86 305.273L1107.46 306.313C1107.37 305.913 1107.18 305.573 1106.88 305.293C1106.59 305.013 1106.18 304.873 1105.66 304.873C1105.06 304.873 1104.61 305.073 1104.3 305.473C1104 305.86 1103.84 306.386 1103.84 307.053V309.013C1103.84 309.68 1104 310.206 1104.3 310.593C1104.61 310.98 1105.06 311.173 1105.66 311.173C1106.2 311.173 1106.62 311.033 1106.92 310.753C1107.24 310.46 1107.48 310.08 1107.62 309.613L1109.92 310.613C1109.58 311.613 1109.04 312.346 1108.3 312.813C1107.58 313.28 1106.7 313.513 1105.66 313.513ZM1115.92 313.513C1115.15 313.513 1114.45 313.386 1113.84 313.133C1113.24 312.88 1112.73 312.513 1112.3 312.033C1111.89 311.553 1111.57 310.973 1111.34 310.293C1111.11 309.613 1111 308.853 1111 308.013C1111 307.173 1111.11 306.413 1111.34 305.733C1111.57 305.053 1111.89 304.48 1112.3 304.013C1112.73 303.533 1113.24 303.166 1113.84 302.913C1114.45 302.66 1115.15 302.533 1115.92 302.533C1116.69 302.533 1117.38 302.66 1117.98 302.913C1118.59 303.166 1119.11 303.533 1119.52 304.013C1119.95 304.48 1120.27 305.053 1120.5 305.733C1120.73 306.413 1120.84 307.173 1120.84 308.013C1120.84 308.853 1120.73 309.613 1120.5 310.293C1120.27 310.973 1119.95 311.553 1119.52 312.033C1119.11 312.513 1118.59 312.88 1117.98 313.133C1117.38 313.386 1116.69 313.513 1115.92 313.513ZM1115.92 311.173C1116.51 311.173 1116.96 310.993 1117.28 310.633C1117.6 310.273 1117.76 309.76 1117.76 309.093V306.953C1117.76 306.286 1117.6 305.773 1117.28 305.413C1116.96 305.053 1116.51 304.873 1115.92 304.873C1115.33 304.873 1114.88 305.053 1114.56 305.413C1114.24 305.773 1114.08 306.286 1114.08 306.953V309.093C1114.08 309.76 1114.24 310.273 1114.56 310.633C1114.88 310.993 1115.33 311.173 1115.92 311.173ZM1122.95 313.273V302.773H1125.91V304.553H1126.03C1126.21 304.006 1126.54 303.533 1127.01 303.133C1127.47 302.733 1128.12 302.533 1128.95 302.533C1130.03 302.533 1130.84 302.893 1131.39 303.613C1131.95 304.333 1132.23 305.36 1132.23 306.693V313.273H1129.27V306.933C1129.27 306.253 1129.16 305.753 1128.95 305.433C1128.73 305.1 1128.35 304.933 1127.81 304.933C1127.57 304.933 1127.33 304.966 1127.11 305.033C1126.88 305.086 1126.67 305.18 1126.49 305.313C1126.31 305.446 1126.17 305.613 1126.07 305.813C1125.96 306 1125.91 306.22 1125.91 306.473V313.273H1122.95Z" fill="#888B8D"></path><path d="M1295.98 304.113H1295.92L1294.9 306.153L1292.18 311.093L1289.52 306.173L1288.46 303.973H1288.4V313.273H1285.54V299.313H1288.76L1292.18 305.853H1292.22L1295.6 299.313H1298.84V313.273H1295.98V304.113ZM1303.25 301.653C1302.65 301.653 1302.21 301.52 1301.93 301.253C1301.66 300.973 1301.53 300.62 1301.53 300.193V299.753C1301.53 299.326 1301.66 298.98 1301.93 298.713C1302.21 298.433 1302.65 298.293 1303.25 298.293C1303.85 298.293 1304.28 298.433 1304.55 298.713C1304.83 298.98 1304.97 299.326 1304.97 299.753V300.193C1304.97 300.62 1304.83 300.973 1304.55 301.253C1304.28 301.52 1303.85 301.653 1303.25 301.653ZM1301.77 302.773H1304.73V313.273H1301.77V302.773ZM1307.49 313.273V302.773H1310.45V304.553H1310.57C1310.76 304.006 1311.08 303.533 1311.55 303.133C1312.02 302.733 1312.66 302.533 1313.49 302.533C1314.57 302.533 1315.38 302.893 1315.93 303.613C1316.49 304.333 1316.77 305.36 1316.77 306.693V313.273H1313.81V306.933C1313.81 306.253 1313.7 305.753 1313.49 305.433C1313.28 305.1 1312.9 304.933 1312.35 304.933C1312.11 304.933 1311.88 304.966 1311.65 305.033C1311.42 305.086 1311.22 305.18 1311.03 305.313C1310.86 305.446 1310.72 305.613 1310.61 305.813C1310.5 306 1310.45 306.22 1310.45 306.473V313.273H1307.49ZM1320.88 301.653C1320.28 301.653 1319.84 301.52 1319.56 301.253C1319.3 300.973 1319.16 300.62 1319.16 300.193V299.753C1319.16 299.326 1319.3 298.98 1319.56 298.713C1319.84 298.433 1320.28 298.293 1320.88 298.293C1321.48 298.293 1321.92 298.433 1322.18 298.713C1322.46 298.98 1322.6 299.326 1322.6 299.753V300.193C1322.6 300.62 1322.46 300.973 1322.18 301.253C1321.92 301.52 1321.48 301.653 1320.88 301.653ZM1319.4 302.773H1322.36V313.273H1319.4V302.773ZM1325.13 313.273V302.773H1328.09V304.553H1328.21C1328.39 303.993 1328.71 303.52 1329.17 303.133C1329.62 302.733 1330.24 302.533 1331.03 302.533C1331.75 302.533 1332.36 302.713 1332.87 303.073C1333.37 303.433 1333.74 303.96 1333.97 304.653H1334.03C1334.12 304.36 1334.26 304.086 1334.45 303.833C1334.65 303.566 1334.89 303.34 1335.17 303.153C1335.45 302.966 1335.76 302.82 1336.11 302.713C1336.45 302.593 1336.83 302.533 1337.23 302.533C1338.24 302.533 1339.01 302.893 1339.55 303.613C1340.09 304.333 1340.37 305.36 1340.37 306.693V313.273H1337.41V306.933C1337.41 305.6 1336.93 304.933 1335.97 304.933C1335.53 304.933 1335.13 305.06 1334.77 305.313C1334.41 305.566 1334.23 305.953 1334.23 306.473V313.273H1331.27V306.933C1331.27 305.6 1330.79 304.933 1329.83 304.933C1329.61 304.933 1329.4 304.966 1329.19 305.033C1328.99 305.086 1328.8 305.18 1328.63 305.313C1328.47 305.446 1328.33 305.613 1328.23 305.813C1328.13 306 1328.09 306.22 1328.09 306.473V313.273H1325.13ZM1349.2 311.513H1349.1C1349 311.78 1348.88 312.033 1348.72 312.273C1348.57 312.513 1348.38 312.726 1348.14 312.913C1347.9 313.1 1347.61 313.246 1347.28 313.353C1346.96 313.46 1346.58 313.513 1346.16 313.513C1345.08 313.513 1344.26 313.16 1343.7 312.453C1343.15 311.733 1342.88 310.706 1342.88 309.373V302.773H1345.84V309.113C1345.84 309.753 1345.95 310.246 1346.18 310.593C1346.4 310.94 1346.79 311.113 1347.34 311.113C1347.56 311.113 1347.79 311.08 1348.02 311.013C1348.24 310.946 1348.44 310.853 1348.62 310.733C1348.79 310.6 1348.93 310.44 1349.04 310.253C1349.14 310.066 1349.2 309.846 1349.2 309.593V302.773H1352.16V313.273H1349.2V311.513ZM1354.91 313.273V302.773H1357.87V304.553H1357.99C1358.18 303.993 1358.5 303.52 1358.95 303.133C1359.4 302.733 1360.02 302.533 1360.81 302.533C1361.53 302.533 1362.14 302.713 1362.65 303.073C1363.16 303.433 1363.52 303.96 1363.75 304.653H1363.81C1363.9 304.36 1364.04 304.086 1364.23 303.833C1364.43 303.566 1364.67 303.34 1364.95 303.153C1365.23 302.966 1365.54 302.82 1365.89 302.713C1366.24 302.593 1366.61 302.533 1367.01 302.533C1368.02 302.533 1368.8 302.893 1369.33 303.613C1369.88 304.333 1370.15 305.36 1370.15 306.693V313.273H1367.19V306.933C1367.19 305.6 1366.71 304.933 1365.75 304.933C1365.31 304.933 1364.91 305.06 1364.55 305.313C1364.19 305.566 1364.01 305.953 1364.01 306.473V313.273H1361.05V306.933C1361.05 305.6 1360.57 304.933 1359.61 304.933C1359.4 304.933 1359.18 304.966 1358.97 305.033C1358.77 305.086 1358.58 305.18 1358.41 305.313C1358.25 305.446 1358.12 305.613 1358.01 305.813C1357.92 306 1357.87 306.22 1357.87 306.473V313.273H1354.91ZM1382.19 313.513C1380.96 313.513 1379.92 313.306 1379.07 312.893C1378.22 312.466 1377.49 311.92 1376.89 311.253L1378.89 309.233C1379.84 310.3 1381 310.833 1382.39 310.833C1383.14 310.833 1383.69 310.68 1384.05 310.373C1384.41 310.066 1384.59 309.66 1384.59 309.153C1384.59 308.766 1384.48 308.446 1384.27 308.193C1384.06 307.926 1383.62 307.746 1382.97 307.653L1381.59 307.473C1380.11 307.286 1379.02 306.84 1378.33 306.133C1377.65 305.426 1377.31 304.486 1377.31 303.313C1377.31 302.686 1377.43 302.113 1377.67 301.593C1377.91 301.073 1378.25 300.626 1378.69 300.253C1379.14 299.88 1379.69 299.593 1380.33 299.393C1380.98 299.18 1381.72 299.073 1382.55 299.073C1383.6 299.073 1384.53 299.24 1385.33 299.573C1386.13 299.906 1386.82 300.393 1387.39 301.033L1385.37 303.073C1385.04 302.686 1384.63 302.373 1384.15 302.133C1383.68 301.88 1383.09 301.753 1382.37 301.753C1381.69 301.753 1381.18 301.873 1380.85 302.113C1380.52 302.353 1380.35 302.686 1380.35 303.113C1380.35 303.593 1380.48 303.94 1380.73 304.153C1381 304.366 1381.42 304.52 1382.01 304.613L1383.39 304.833C1384.83 305.06 1385.9 305.506 1386.59 306.173C1387.28 306.826 1387.63 307.76 1387.63 308.973C1387.63 309.64 1387.51 310.253 1387.27 310.813C1387.03 311.373 1386.68 311.853 1386.21 312.253C1385.76 312.653 1385.19 312.966 1384.51 313.193C1383.83 313.406 1383.06 313.513 1382.19 313.513ZM1391.47 301.653C1390.87 301.653 1390.43 301.52 1390.15 301.253C1389.88 300.973 1389.75 300.62 1389.75 300.193V299.753C1389.75 299.326 1389.88 298.98 1390.15 298.713C1390.43 298.433 1390.87 298.293 1391.47 298.293C1392.07 298.293 1392.5 298.433 1392.77 298.713C1393.05 298.98 1393.19 299.326 1393.19 299.753V300.193C1393.19 300.62 1393.05 300.973 1392.77 301.253C1392.5 301.52 1392.07 301.653 1391.47 301.653ZM1389.99 302.773H1392.95V313.273H1389.99V302.773ZM1395.11 313.273V310.933L1400.33 305.073H1395.29V302.773H1403.77V305.093L1398.53 310.973H1403.91V313.273H1395.11ZM1410.21 313.513C1409.41 313.513 1408.7 313.386 1408.07 313.133C1407.44 312.866 1406.91 312.5 1406.47 312.033C1406.04 311.553 1405.72 310.973 1405.49 310.293C1405.28 309.613 1405.17 308.853 1405.17 308.013C1405.17 307.186 1405.28 306.44 1405.49 305.773C1405.7 305.093 1406.02 304.513 1406.43 304.033C1406.86 303.553 1407.38 303.186 1407.99 302.933C1408.6 302.666 1409.3 302.533 1410.09 302.533C1410.96 302.533 1411.7 302.68 1412.31 302.973C1412.94 303.266 1413.44 303.66 1413.83 304.153C1414.23 304.646 1414.52 305.22 1414.69 305.873C1414.88 306.513 1414.97 307.186 1414.97 307.893V308.773H1408.23V308.933C1408.23 309.626 1408.42 310.18 1408.79 310.593C1409.16 310.993 1409.75 311.193 1410.55 311.193C1411.16 311.193 1411.66 311.073 1412.05 310.833C1412.44 310.58 1412.8 310.28 1413.13 309.933L1414.61 311.773C1414.14 312.32 1413.53 312.746 1412.77 313.053C1412.02 313.36 1411.17 313.513 1410.21 313.513ZM1410.15 304.713C1409.55 304.713 1409.08 304.913 1408.73 305.313C1408.4 305.7 1408.23 306.22 1408.23 306.873V307.033H1411.91V306.853C1411.91 306.213 1411.76 305.7 1411.47 305.313C1411.19 304.913 1410.75 304.713 1410.15 304.713Z" fill="#888B8D"></path><path d="M482.432 313.273L479.272 299.313H482.272L483.592 306.013L484.332 309.893H484.392L485.272 306.013L486.812 299.313H490.132L491.692 306.013L492.552 309.893H492.612L493.352 306.013L494.692 299.313H497.572L494.332 313.273H490.872L489.112 305.713L488.432 302.653H488.372L487.672 305.713L485.912 313.273H482.432ZM503.397 313.513C502.597 313.513 501.884 313.386 501.257 313.133C500.631 312.866 500.097 312.5 499.657 312.033C499.231 311.553 498.904 310.973 498.677 310.293C498.464 309.613 498.357 308.853 498.357 308.013C498.357 307.186 498.464 306.44 498.677 305.773C498.891 305.093 499.204 304.513 499.617 304.033C500.044 303.553 500.564 303.186 501.177 302.933C501.791 302.666 502.491 302.533 503.277 302.533C504.144 302.533 504.884 302.68 505.497 302.973C506.124 303.266 506.631 303.66 507.017 304.153C507.417 304.646 507.704 305.22 507.877 305.873C508.064 306.513 508.157 307.186 508.157 307.893V308.773H501.417V308.933C501.417 309.626 501.604 310.18 501.977 310.593C502.351 310.993 502.937 311.193 503.737 311.193C504.351 311.193 504.851 311.073 505.237 310.833C505.624 310.58 505.984 310.28 506.317 309.933L507.797 311.773C507.331 312.32 506.717 312.746 505.957 313.053C505.211 313.36 504.357 313.513 503.397 313.513ZM503.337 304.713C502.737 304.713 502.264 304.913 501.917 305.313C501.584 305.7 501.417 306.22 501.417 306.873V307.033H505.097V306.853C505.097 306.213 504.951 305.7 504.657 305.313C504.377 304.913 503.937 304.713 503.337 304.713ZM510.248 298.473H513.208V304.533H513.308C513.454 303.946 513.788 303.466 514.308 303.093C514.841 302.72 515.448 302.533 516.128 302.533C517.461 302.533 518.468 303 519.148 303.933C519.828 304.866 520.168 306.226 520.168 308.013C520.168 309.8 519.828 311.166 519.148 312.113C518.468 313.046 517.461 313.513 516.128 313.513C515.781 313.513 515.454 313.46 515.148 313.353C514.841 313.26 514.561 313.126 514.308 312.953C514.068 312.766 513.861 312.553 513.688 312.313C513.514 312.06 513.388 311.793 513.308 311.513H513.208V313.273H510.248V298.473ZM515.148 311.113C515.708 311.113 516.168 310.92 516.528 310.533C516.901 310.133 517.088 309.6 517.088 308.933V307.113C517.088 306.446 516.901 305.92 516.528 305.533C516.168 305.133 515.708 304.933 515.148 304.933C514.588 304.933 514.121 305.073 513.748 305.353C513.388 305.62 513.208 305.993 513.208 306.473V309.573C513.208 310.053 513.388 310.433 513.748 310.713C514.121 310.98 514.588 311.113 515.148 311.113ZM527.302 299.313H534.082C535.242 299.313 536.142 299.64 536.782 300.293C537.436 300.946 537.762 301.813 537.762 302.893C537.762 303.426 537.689 303.88 537.542 304.253C537.409 304.626 537.222 304.933 536.982 305.173C536.756 305.413 536.482 305.593 536.162 305.713C535.856 305.82 535.522 305.88 535.162 305.893V306.013C535.496 306.013 535.842 306.073 536.202 306.193C536.576 306.313 536.916 306.506 537.222 306.773C537.529 307.026 537.782 307.36 537.982 307.773C538.196 308.186 538.302 308.693 538.302 309.293C538.302 309.84 538.209 310.36 538.022 310.853C537.849 311.333 537.602 311.753 537.282 312.113C536.962 312.473 536.582 312.76 536.142 312.973C535.702 313.173 535.222 313.273 534.702 313.273H527.302V299.313ZM530.342 310.713H533.842C534.242 310.713 534.556 310.606 534.782 310.393C535.022 310.166 535.142 309.853 535.142 309.453V308.773C535.142 308.373 535.022 308.066 534.782 307.853C534.556 307.626 534.242 307.513 533.842 307.513H530.342V310.713ZM530.342 305.033H533.362C533.762 305.033 534.076 304.92 534.302 304.693C534.529 304.466 534.642 304.153 534.642 303.753V303.153C534.642 302.753 534.529 302.44 534.302 302.213C534.076 301.986 533.762 301.873 533.362 301.873H530.342V305.033ZM540.482 313.273V302.773H543.442V305.053H543.542C543.595 304.76 543.689 304.48 543.822 304.213C543.955 303.933 544.129 303.686 544.342 303.473C544.569 303.26 544.835 303.093 545.142 302.973C545.449 302.84 545.809 302.773 546.222 302.773H546.742V305.533H546.002C545.135 305.533 544.489 305.646 544.062 305.873C543.649 306.1 543.442 306.52 543.442 307.133V313.273H540.482ZM552.73 313.513C551.957 313.513 551.264 313.386 550.65 313.133C550.05 312.88 549.537 312.513 549.11 312.033C548.697 311.553 548.377 310.973 548.15 310.293C547.924 309.613 547.81 308.853 547.81 308.013C547.81 307.173 547.924 306.413 548.15 305.733C548.377 305.053 548.697 304.48 549.11 304.013C549.537 303.533 550.05 303.166 550.65 302.913C551.264 302.66 551.957 302.533 552.73 302.533C553.504 302.533 554.19 302.66 554.79 302.913C555.404 303.166 555.917 303.533 556.33 304.013C556.757 304.48 557.084 305.053 557.31 305.733C557.537 306.413 557.65 307.173 557.65 308.013C557.65 308.853 557.537 309.613 557.31 310.293C557.084 310.973 556.757 311.553 556.33 312.033C555.917 312.513 555.404 312.88 554.79 313.133C554.19 313.386 553.504 313.513 552.73 313.513ZM552.73 311.173C553.317 311.173 553.77 310.993 554.09 310.633C554.41 310.273 554.57 309.76 554.57 309.093V306.953C554.57 306.286 554.41 305.773 554.09 305.413C553.77 305.053 553.317 304.873 552.73 304.873C552.144 304.873 551.69 305.053 551.37 305.413C551.05 305.773 550.89 306.286 550.89 306.953V309.093C550.89 309.76 551.05 310.273 551.37 310.633C551.69 310.993 552.144 311.173 552.73 311.173ZM558.564 302.773H561.424L562.444 307.013L563.164 310.213H563.244L564.084 307.013L565.284 302.773H567.984L569.204 307.013L570.064 310.213H570.144L570.864 307.013L571.884 302.773H574.624L571.724 313.273H568.624L567.344 308.833L566.604 306.113H566.544L565.824 308.833L564.544 313.273H561.504L558.564 302.773ZM579.862 313.513C578.849 313.513 577.996 313.353 577.302 313.033C576.609 312.7 575.989 312.233 575.442 311.633L577.182 309.873C577.556 310.286 577.969 310.613 578.422 310.853C578.876 311.093 579.389 311.213 579.962 311.213C580.549 311.213 580.956 311.126 581.182 310.953C581.409 310.766 581.522 310.52 581.522 310.213C581.522 309.72 581.169 309.426 580.462 309.333L579.322 309.193C576.962 308.9 575.782 307.82 575.782 305.953C575.782 305.446 575.876 304.986 576.062 304.573C576.262 304.146 576.536 303.786 576.882 303.493C577.242 303.186 577.669 302.953 578.162 302.793C578.669 302.62 579.236 302.533 579.862 302.533C580.409 302.533 580.889 302.573 581.302 302.653C581.729 302.72 582.102 302.826 582.422 302.973C582.756 303.106 583.056 303.28 583.322 303.493C583.602 303.693 583.876 303.92 584.142 304.173L582.442 305.913C582.109 305.58 581.729 305.32 581.302 305.133C580.889 304.933 580.462 304.833 580.022 304.833C579.516 304.833 579.156 304.913 578.942 305.073C578.729 305.233 578.622 305.446 578.622 305.713C578.622 305.993 578.696 306.213 578.842 306.373C579.002 306.52 579.296 306.626 579.722 306.693L580.902 306.853C583.209 307.16 584.362 308.213 584.362 310.013C584.362 310.52 584.256 310.986 584.042 311.413C583.829 311.84 583.522 312.213 583.122 312.533C582.736 312.84 582.262 313.08 581.702 313.253C581.156 313.426 580.542 313.513 579.862 313.513ZM590.76 313.513C589.96 313.513 589.247 313.386 588.62 313.133C587.994 312.866 587.46 312.5 587.02 312.033C586.594 311.553 586.267 310.973 586.04 310.293C585.827 309.613 585.72 308.853 585.72 308.013C585.72 307.186 585.827 306.44 586.04 305.773C586.254 305.093 586.567 304.513 586.98 304.033C587.407 303.553 587.927 303.186 588.54 302.933C589.154 302.666 589.854 302.533 590.64 302.533C591.507 302.533 592.247 302.68 592.86 302.973C593.487 303.266 593.994 303.66 594.38 304.153C594.78 304.646 595.067 305.22 595.24 305.873C595.427 306.513 595.52 307.186 595.52 307.893V308.773H588.78V308.933C588.78 309.626 588.967 310.18 589.34 310.593C589.714 310.993 590.3 311.193 591.1 311.193C591.714 311.193 592.214 311.073 592.6 310.833C592.987 310.58 593.347 310.28 593.68 309.933L595.16 311.773C594.694 312.32 594.08 312.746 593.32 313.053C592.574 313.36 591.72 313.513 590.76 313.513ZM590.7 304.713C590.1 304.713 589.627 304.913 589.28 305.313C588.947 305.7 588.78 306.22 588.78 306.873V307.033H592.46V306.853C592.46 306.213 592.314 305.7 592.02 305.313C591.74 304.913 591.3 304.713 590.7 304.713ZM597.611 313.273V302.773H600.571V305.053H600.671C600.724 304.76 600.818 304.48 600.951 304.213C601.084 303.933 601.258 303.686 601.471 303.473C601.698 303.26 601.964 303.093 602.271 302.973C602.578 302.84 602.938 302.773 603.351 302.773H603.871V305.533H603.131C602.264 305.533 601.618 305.646 601.191 305.873C600.778 306.1 600.571 306.52 600.571 307.133V313.273H597.611ZM610.583 313.273V299.313H619.843V302.013H613.623V304.873H618.923V307.553H613.623V313.273H610.583ZM629.082 313.273C628.549 313.273 628.102 313.106 627.742 312.773C627.395 312.44 627.175 311.993 627.082 311.433H626.962C626.802 312.113 626.449 312.633 625.902 312.993C625.355 313.34 624.682 313.513 623.882 313.513C622.829 313.513 622.022 313.233 621.462 312.673C620.902 312.113 620.622 311.373 620.622 310.453C620.622 309.346 621.022 308.526 621.822 307.993C622.635 307.446 623.735 307.173 625.122 307.173H626.782V306.513C626.782 306.006 626.649 305.606 626.382 305.313C626.115 305.006 625.669 304.853 625.042 304.853C624.455 304.853 623.989 304.98 623.642 305.233C623.295 305.486 623.009 305.773 622.782 306.093L621.022 304.533C621.449 303.906 621.982 303.42 622.622 303.073C623.275 302.713 624.155 302.533 625.262 302.533C626.755 302.533 627.875 302.86 628.622 303.513C629.369 304.166 629.742 305.12 629.742 306.373V310.973H630.722V313.273H629.082ZM624.982 311.453C625.475 311.453 625.895 311.346 626.242 311.133C626.602 310.92 626.782 310.573 626.782 310.093V308.853H625.342C624.182 308.853 623.602 309.246 623.602 310.033V310.333C623.602 310.72 623.722 311.006 623.962 311.193C624.202 311.366 624.542 311.453 624.982 311.453ZM634.753 313.273L631.313 302.773H634.233L635.533 307.013L636.513 310.813H636.673L637.653 307.013L638.913 302.773H641.713L638.273 313.273H634.753ZM644.755 301.653C644.155 301.653 643.715 301.52 643.435 301.253C643.168 300.973 643.035 300.62 643.035 300.193V299.753C643.035 299.326 643.168 298.98 643.435 298.713C643.715 298.433 644.155 298.293 644.755 298.293C645.355 298.293 645.788 298.433 646.055 298.713C646.335 298.98 646.475 299.326 646.475 299.753V300.193C646.475 300.62 646.335 300.973 646.055 301.253C645.788 301.52 645.355 301.653 644.755 301.653ZM643.275 302.773H646.235V313.273H643.275V302.773ZM653.238 313.513C652.451 313.513 651.751 313.386 651.138 313.133C650.524 312.866 650.011 312.5 649.598 312.033C649.184 311.553 648.871 310.973 648.658 310.293C648.444 309.613 648.338 308.853 648.338 308.013C648.338 307.173 648.444 306.42 648.658 305.753C648.871 305.073 649.184 304.493 649.598 304.013C650.011 303.533 650.524 303.166 651.138 302.913C651.751 302.66 652.451 302.533 653.238 302.533C654.304 302.533 655.191 302.773 655.898 303.253C656.618 303.733 657.131 304.406 657.438 305.273L655.038 306.313C654.944 305.913 654.751 305.573 654.458 305.293C654.164 305.013 653.758 304.873 653.238 304.873C652.638 304.873 652.184 305.073 651.878 305.473C651.571 305.86 651.418 306.386 651.418 307.053V309.013C651.418 309.68 651.571 310.206 651.878 310.593C652.184 310.98 652.638 311.173 653.238 311.173C653.771 311.173 654.191 311.033 654.498 310.753C654.818 310.46 655.051 310.08 655.198 309.613L657.498 310.613C657.151 311.613 656.611 312.346 655.878 312.813C655.158 313.28 654.278 313.513 653.238 313.513ZM663.492 313.513C662.719 313.513 662.025 313.386 661.412 313.133C660.812 312.88 660.299 312.513 659.872 312.033C659.459 311.553 659.139 310.973 658.912 310.293C658.685 309.613 658.572 308.853 658.572 308.013C658.572 307.173 658.685 306.413 658.912 305.733C659.139 305.053 659.459 304.48 659.872 304.013C660.299 303.533 660.812 303.166 661.412 302.913C662.025 302.66 662.719 302.533 663.492 302.533C664.265 302.533 664.952 302.66 665.552 302.913C666.165 303.166 666.679 303.533 667.092 304.013C667.519 304.48 667.845 305.053 668.072 305.733C668.299 306.413 668.412 307.173 668.412 308.013C668.412 308.853 668.299 309.613 668.072 310.293C667.845 310.973 667.519 311.553 667.092 312.033C666.679 312.513 666.165 312.88 665.552 313.133C664.952 313.386 664.265 313.513 663.492 313.513ZM663.492 311.173C664.079 311.173 664.532 310.993 664.852 310.633C665.172 310.273 665.332 309.76 665.332 309.093V306.953C665.332 306.286 665.172 305.773 664.852 305.413C664.532 305.053 664.079 304.873 663.492 304.873C662.905 304.873 662.452 305.053 662.132 305.413C661.812 305.773 661.652 306.286 661.652 306.953V309.093C661.652 309.76 661.812 310.273 662.132 310.633C662.452 310.993 662.905 311.173 663.492 311.173ZM670.521 313.273V302.773H673.481V304.553H673.601C673.788 304.006 674.114 303.533 674.581 303.133C675.048 302.733 675.694 302.533 676.521 302.533C677.601 302.533 678.414 302.893 678.961 303.613C679.521 304.333 679.801 305.36 679.801 306.693V313.273H676.841V306.933C676.841 306.253 676.734 305.753 676.521 305.433C676.308 305.1 675.928 304.933 675.381 304.933C675.141 304.933 674.908 304.966 674.681 305.033C674.454 305.086 674.248 305.18 674.061 305.313C673.888 305.446 673.748 305.613 673.641 305.813C673.534 306 673.481 306.22 673.481 306.473V313.273H670.521ZM690.502 312.013V308.333H687.122V305.973H690.502V302.293H693.062V305.973H696.442V308.333H693.062V312.013H690.502ZM511.5 339.513C510.273 339.513 509.233 339.306 508.38 338.893C507.527 338.466 506.8 337.92 506.2 337.253L508.2 335.233C509.147 336.3 510.313 336.833 511.7 336.833C512.447 336.833 513 336.68 513.36 336.373C513.72 336.066 513.9 335.66 513.9 335.153C513.9 334.766 513.793 334.446 513.58 334.193C513.367 333.926 512.933 333.746 512.28 333.653L510.9 333.473C509.42 333.286 508.333 332.84 507.64 332.133C506.96 331.426 506.62 330.486 506.62 329.313C506.62 328.686 506.74 328.113 506.98 327.593C507.22 327.073 507.56 326.626 508 326.253C508.453 325.88 509 325.593 509.64 325.393C510.293 325.18 511.033 325.073 511.86 325.073C512.913 325.073 513.84 325.24 514.64 325.573C515.44 325.906 516.127 326.393 516.7 327.033L514.68 329.073C514.347 328.686 513.94 328.373 513.46 328.133C512.993 327.88 512.4 327.753 511.68 327.753C511 327.753 510.493 327.873 510.16 328.113C509.827 328.353 509.66 328.686 509.66 329.113C509.66 329.593 509.787 329.94 510.04 330.153C510.307 330.366 510.733 330.52 511.32 330.613L512.7 330.833C514.14 331.06 515.207 331.506 515.9 332.173C516.593 332.826 516.94 333.76 516.94 334.973C516.94 335.64 516.82 336.253 516.58 336.813C516.34 337.373 515.987 337.853 515.52 338.253C515.067 338.653 514.5 338.966 513.82 339.193C513.14 339.406 512.367 339.513 511.5 339.513ZM523.56 339.513C522.787 339.513 522.094 339.386 521.48 339.133C520.88 338.88 520.367 338.513 519.94 338.033C519.527 337.553 519.207 336.973 518.98 336.293C518.754 335.613 518.64 334.853 518.64 334.013C518.64 333.173 518.754 332.413 518.98 331.733C519.207 331.053 519.527 330.48 519.94 330.013C520.367 329.533 520.88 329.166 521.48 328.913C522.094 328.66 522.787 328.533 523.56 328.533C524.334 328.533 525.02 328.66 525.62 328.913C526.234 329.166 526.747 329.533 527.16 330.013C527.587 330.48 527.914 331.053 528.14 331.733C528.367 332.413 528.48 333.173 528.48 334.013C528.48 334.853 528.367 335.613 528.14 336.293C527.914 336.973 527.587 337.553 527.16 338.033C526.747 338.513 526.234 338.88 525.62 339.133C525.02 339.386 524.334 339.513 523.56 339.513ZM523.56 337.173C524.147 337.173 524.6 336.993 524.92 336.633C525.24 336.273 525.4 335.76 525.4 335.093V332.953C525.4 332.286 525.24 331.773 524.92 331.413C524.6 331.053 524.147 330.873 523.56 330.873C522.974 330.873 522.52 331.053 522.2 331.413C521.88 331.773 521.72 332.286 521.72 332.953V335.093C521.72 335.76 521.88 336.273 522.2 336.633C522.52 336.993 522.974 337.173 523.56 337.173ZM534.829 339.513C534.043 339.513 533.343 339.386 532.729 339.133C532.116 338.866 531.603 338.5 531.189 338.033C530.776 337.553 530.463 336.973 530.249 336.293C530.036 335.613 529.929 334.853 529.929 334.013C529.929 333.173 530.036 332.42 530.249 331.753C530.463 331.073 530.776 330.493 531.189 330.013C531.603 329.533 532.116 329.166 532.729 328.913C533.343 328.66 534.043 328.533 534.829 328.533C535.896 328.533 536.783 328.773 537.489 329.253C538.209 329.733 538.723 330.406 539.029 331.273L536.629 332.313C536.536 331.913 536.343 331.573 536.049 331.293C535.756 331.013 535.349 330.873 534.829 330.873C534.229 330.873 533.776 331.073 533.469 331.473C533.163 331.86 533.009 332.386 533.009 333.053V335.013C533.009 335.68 533.163 336.206 533.469 336.593C533.776 336.98 534.229 337.173 534.829 337.173C535.363 337.173 535.783 337.033 536.089 336.753C536.409 336.46 536.643 336.08 536.789 335.613L539.089 336.613C538.743 337.613 538.203 338.346 537.469 338.813C536.749 339.28 535.869 339.513 534.829 339.513ZM542.402 327.653C541.802 327.653 541.362 327.52 541.082 327.253C540.815 326.973 540.682 326.62 540.682 326.193V325.753C540.682 325.326 540.815 324.98 541.082 324.713C541.362 324.433 541.802 324.293 542.402 324.293C543.002 324.293 543.435 324.433 543.702 324.713C543.982 324.98 544.122 325.326 544.122 325.753V326.193C544.122 326.62 543.982 326.973 543.702 327.253C543.435 327.52 543.002 327.653 542.402 327.653ZM540.922 328.773H543.882V339.273H540.922V328.773ZM554.404 339.273C553.871 339.273 553.424 339.106 553.064 338.773C552.717 338.44 552.497 337.993 552.404 337.433H552.284C552.124 338.113 551.771 338.633 551.224 338.993C550.677 339.34 550.004 339.513 549.204 339.513C548.151 339.513 547.344 339.233 546.784 338.673C546.224 338.113 545.944 337.373 545.944 336.453C545.944 335.346 546.344 334.526 547.144 333.993C547.957 333.446 549.057 333.173 550.444 333.173H552.104V332.513C552.104 332.006 551.971 331.606 551.704 331.313C551.437 331.006 550.991 330.853 550.364 330.853C549.777 330.853 549.311 330.98 548.964 331.233C548.617 331.486 548.331 331.773 548.104 332.093L546.344 330.533C546.771 329.906 547.304 329.42 547.944 329.073C548.597 328.713 549.477 328.533 550.584 328.533C552.077 328.533 553.197 328.86 553.944 329.513C554.691 330.166 555.064 331.12 555.064 332.373V336.973H556.044V339.273H554.404ZM550.304 337.453C550.797 337.453 551.217 337.346 551.564 337.133C551.924 336.92 552.104 336.573 552.104 336.093V334.853H550.664C549.504 334.853 548.924 335.246 548.924 336.033V336.333C548.924 336.72 549.044 337.006 549.284 337.193C549.524 337.366 549.864 337.453 550.304 337.453ZM560.971 339.273C559.958 339.273 559.211 339.026 558.731 338.533C558.264 338.04 558.031 337.326 558.031 336.393V324.473H560.991V336.973H562.311V339.273H560.971ZM579.412 330.113H579.352L578.332 332.153L575.612 337.093L572.952 332.173L571.892 329.973H571.832V339.273H568.972V325.313H572.192L575.612 331.853H575.652L579.032 325.313H582.272V339.273H579.412V330.113ZM589.579 339.513C588.779 339.513 588.066 339.386 587.439 339.133C586.812 338.866 586.279 338.5 585.839 338.033C585.412 337.553 585.086 336.973 584.859 336.293C584.646 335.613 584.539 334.853 584.539 334.013C584.539 333.186 584.646 332.44 584.859 331.773C585.072 331.093 585.386 330.513 585.799 330.033C586.226 329.553 586.746 329.186 587.359 328.933C587.972 328.666 588.672 328.533 589.459 328.533C590.326 328.533 591.066 328.68 591.679 328.973C592.306 329.266 592.812 329.66 593.199 330.153C593.599 330.646 593.886 331.22 594.059 331.873C594.246 332.513 594.339 333.186 594.339 333.893V334.773H587.599V334.933C587.599 335.626 587.786 336.18 588.159 336.593C588.532 336.993 589.119 337.193 589.919 337.193C590.532 337.193 591.032 337.073 591.419 336.833C591.806 336.58 592.166 336.28 592.499 335.933L593.979 337.773C593.512 338.32 592.899 338.746 592.139 339.053C591.392 339.36 590.539 339.513 589.579 339.513ZM589.519 330.713C588.919 330.713 588.446 330.913 588.099 331.313C587.766 331.7 587.599 332.22 587.599 332.873V333.033H591.279V332.853C591.279 332.213 591.132 331.7 590.839 331.313C590.559 330.913 590.119 330.713 589.519 330.713ZM602.869 337.513H602.769C602.689 337.793 602.563 338.06 602.389 338.313C602.216 338.553 602.003 338.766 601.749 338.953C601.509 339.126 601.229 339.26 600.909 339.353C600.603 339.46 600.283 339.513 599.949 339.513C598.616 339.513 597.609 339.046 596.929 338.113C596.249 337.166 595.909 335.8 595.909 334.013C595.909 332.226 596.249 330.866 596.929 329.933C597.609 329 598.616 328.533 599.949 328.533C600.629 328.533 601.229 328.72 601.749 329.093C602.283 329.466 602.623 329.946 602.769 330.533H602.869V324.473H605.829V339.273H602.869V337.513ZM600.929 337.113C601.489 337.113 601.949 336.98 602.309 336.713C602.683 336.433 602.869 336.053 602.869 335.573V332.473C602.869 331.993 602.683 331.62 602.309 331.353C601.949 331.073 601.489 330.933 600.929 330.933C600.369 330.933 599.903 331.133 599.529 331.533C599.169 331.92 598.989 332.446 598.989 333.113V334.933C598.989 335.6 599.169 336.133 599.529 336.533C599.903 336.92 600.369 337.113 600.929 337.113ZM610.077 327.653C609.477 327.653 609.037 327.52 608.757 327.253C608.491 326.973 608.357 326.62 608.357 326.193V325.753C608.357 325.326 608.491 324.98 608.757 324.713C609.037 324.433 609.477 324.293 610.077 324.293C610.677 324.293 611.111 324.433 611.377 324.713C611.657 324.98 611.797 325.326 611.797 325.753V326.193C611.797 326.62 611.657 326.973 611.377 327.253C611.111 327.52 610.677 327.653 610.077 327.653ZM608.597 328.773H611.557V339.273H608.597V328.773ZM622.08 339.273C621.547 339.273 621.1 339.106 620.74 338.773C620.393 338.44 620.173 337.993 620.08 337.433H619.96C619.8 338.113 619.447 338.633 618.9 338.993C618.353 339.34 617.68 339.513 616.88 339.513C615.827 339.513 615.02 339.233 614.46 338.673C613.9 338.113 613.62 337.373 613.62 336.453C613.62 335.346 614.02 334.526 614.82 333.993C615.633 333.446 616.733 333.173 618.12 333.173H619.78V332.513C619.78 332.006 619.647 331.606 619.38 331.313C619.113 331.006 618.667 330.853 618.04 330.853C617.453 330.853 616.987 330.98 616.64 331.233C616.293 331.486 616.007 331.773 615.78 332.093L614.02 330.533C614.447 329.906 614.98 329.42 615.62 329.073C616.273 328.713 617.153 328.533 618.26 328.533C619.753 328.533 620.873 328.86 621.62 329.513C622.367 330.166 622.74 331.12 622.74 332.373V336.973H623.72V339.273H622.08ZM617.98 337.453C618.473 337.453 618.893 337.346 619.24 337.133C619.6 336.92 619.78 336.573 619.78 336.093V334.853H618.34C617.18 334.853 616.6 335.246 616.6 336.033V336.333C616.6 336.72 616.72 337.006 616.96 337.193C617.2 337.366 617.54 337.453 617.98 337.453ZM630.053 339.273V336.853H631.853V327.733H630.053V325.313H636.693V327.733H634.893V336.853H636.693V339.273H630.053ZM643.208 339.513C642.422 339.513 641.722 339.386 641.108 339.133C640.495 338.866 639.982 338.5 639.568 338.033C639.155 337.553 638.842 336.973 638.628 336.293C638.415 335.613 638.308 334.853 638.308 334.013C638.308 333.173 638.415 332.42 638.628 331.753C638.842 331.073 639.155 330.493 639.568 330.013C639.982 329.533 640.495 329.166 641.108 328.913C641.722 328.66 642.422 328.533 643.208 328.533C644.275 328.533 645.162 328.773 645.868 329.253C646.588 329.733 647.102 330.406 647.408 331.273L645.008 332.313C644.915 331.913 644.722 331.573 644.428 331.293C644.135 331.013 643.728 330.873 643.208 330.873C642.608 330.873 642.155 331.073 641.848 331.473C641.542 331.86 641.388 332.386 641.388 333.053V335.013C641.388 335.68 641.542 336.206 641.848 336.593C642.155 336.98 642.608 337.173 643.208 337.173C643.742 337.173 644.162 337.033 644.468 336.753C644.788 336.46 645.022 336.08 645.168 335.613L647.468 336.613C647.122 337.613 646.582 338.346 645.848 338.813C645.128 339.28 644.248 339.513 643.208 339.513ZM653.463 339.513C652.689 339.513 651.996 339.386 651.383 339.133C650.783 338.88 650.269 338.513 649.843 338.033C649.429 337.553 649.109 336.973 648.883 336.293C648.656 335.613 648.543 334.853 648.543 334.013C648.543 333.173 648.656 332.413 648.883 331.733C649.109 331.053 649.429 330.48 649.843 330.013C650.269 329.533 650.783 329.166 651.383 328.913C651.996 328.66 652.689 328.533 653.463 328.533C654.236 328.533 654.923 328.66 655.523 328.913C656.136 329.166 656.649 329.533 657.063 330.013C657.489 330.48 657.816 331.053 658.043 331.733C658.269 332.413 658.383 333.173 658.383 334.013C658.383 334.853 658.269 335.613 658.043 336.293C657.816 336.973 657.489 337.553 657.063 338.033C656.649 338.513 656.136 338.88 655.523 339.133C654.923 339.386 654.236 339.513 653.463 339.513ZM653.463 337.173C654.049 337.173 654.503 336.993 654.823 336.633C655.143 336.273 655.303 335.76 655.303 335.093V332.953C655.303 332.286 655.143 331.773 654.823 331.413C654.503 331.053 654.049 330.873 653.463 330.873C652.876 330.873 652.423 331.053 652.103 331.413C651.783 331.773 651.623 332.286 651.623 332.953V335.093C651.623 335.76 651.783 336.273 652.103 336.633C652.423 336.993 652.876 337.173 653.463 337.173ZM660.492 339.273V328.773H663.452V330.553H663.572C663.758 330.006 664.085 329.533 664.552 329.133C665.018 328.733 665.665 328.533 666.492 328.533C667.572 328.533 668.385 328.893 668.932 329.613C669.492 330.333 669.772 331.36 669.772 332.693V339.273H666.812V332.933C666.812 332.253 666.705 331.753 666.492 331.433C666.278 331.1 665.898 330.933 665.352 330.933C665.112 330.933 664.878 330.966 664.652 331.033C664.425 331.086 664.218 331.18 664.032 331.313C663.858 331.446 663.718 331.613 663.612 331.813C663.505 332 663.452 332.22 663.452 332.473V339.273H660.492Z" fill="#888B8D"></path><defs><clipPath id="clip0_212_138"><rect width="1042" height="261" fill="white" transform="translate(80.4346 0.0439453)"></rect></clipPath><clipPath id="clip1_212_138"><rect width="4.43" height="14.4" fill="white" transform="translate(1284 227.707)"></rect></clipPath></defs></svg>